%TF.GenerationSoftware,KiCad,Pcbnew,7.0.9*%
%TF.CreationDate,2023-12-04T18:13:03+01:00*%
%TF.ProjectId,projekt1,70726f6a-656b-4743-912e-6b696361645f,rev?*%
%TF.SameCoordinates,Original*%
%TF.FileFunction,Soldermask,Top*%
%TF.FilePolarity,Negative*%
%FSLAX46Y46*%
G04 Gerber Fmt 4.6, Leading zero omitted, Abs format (unit mm)*
G04 Created by KiCad (PCBNEW 7.0.9) date 2023-12-04 18:13:03*
%MOMM*%
%LPD*%
G01*
G04 APERTURE LIST*
G04 Aperture macros list*
%AMRoundRect*
0 Rectangle with rounded corners*
0 $1 Rounding radius*
0 $2 $3 $4 $5 $6 $7 $8 $9 X,Y pos of 4 corners*
0 Add a 4 corners polygon primitive as box body*
4,1,4,$2,$3,$4,$5,$6,$7,$8,$9,$2,$3,0*
0 Add four circle primitives for the rounded corners*
1,1,$1+$1,$2,$3*
1,1,$1+$1,$4,$5*
1,1,$1+$1,$6,$7*
1,1,$1+$1,$8,$9*
0 Add four rect primitives between the rounded corners*
20,1,$1+$1,$2,$3,$4,$5,0*
20,1,$1+$1,$4,$5,$6,$7,0*
20,1,$1+$1,$6,$7,$8,$9,0*
20,1,$1+$1,$8,$9,$2,$3,0*%
G04 Aperture macros list end*
%ADD10R,1.600000X0.760000*%
%ADD11RoundRect,0.237500X0.237500X-0.300000X0.237500X0.300000X-0.237500X0.300000X-0.237500X-0.300000X0*%
%ADD12R,2.500000X1.000000*%
%ADD13R,1.000000X1.800000*%
%ADD14RoundRect,0.237500X-0.287500X-0.237500X0.287500X-0.237500X0.287500X0.237500X-0.287500X0.237500X0*%
%ADD15RoundRect,0.237500X0.300000X0.237500X-0.300000X0.237500X-0.300000X-0.237500X0.300000X-0.237500X0*%
%ADD16C,3.000000*%
%ADD17C,2.500000*%
%ADD18R,1.600000X1.600000*%
%ADD19O,1.600000X1.600000*%
%ADD20RoundRect,0.237500X-0.237500X0.250000X-0.237500X-0.250000X0.237500X-0.250000X0.237500X0.250000X0*%
%ADD21RoundRect,0.237500X0.237500X-0.250000X0.237500X0.250000X-0.237500X0.250000X-0.237500X-0.250000X0*%
%ADD22RoundRect,0.237500X-0.237500X0.300000X-0.237500X-0.300000X0.237500X-0.300000X0.237500X0.300000X0*%
%ADD23R,2.100000X2.100000*%
%ADD24C,2.100000*%
%ADD25RoundRect,0.237500X-0.250000X-0.237500X0.250000X-0.237500X0.250000X0.237500X-0.250000X0.237500X0*%
%ADD26RoundRect,0.075000X-0.662500X-0.075000X0.662500X-0.075000X0.662500X0.075000X-0.662500X0.075000X0*%
%ADD27RoundRect,0.075000X-0.075000X-0.662500X0.075000X-0.662500X0.075000X0.662500X-0.075000X0.662500X0*%
%ADD28RoundRect,0.150000X-0.150000X-0.200000X0.150000X-0.200000X0.150000X0.200000X-0.150000X0.200000X0*%
%ADD29RoundRect,0.237500X0.250000X0.237500X-0.250000X0.237500X-0.250000X-0.237500X0.250000X-0.237500X0*%
%ADD30C,1.800000*%
%ADD31R,3.960000X1.980000*%
%ADD32O,3.960000X1.980000*%
%ADD33R,2.400000X3.325000*%
%ADD34RoundRect,0.200000X-0.275000X0.200000X-0.275000X-0.200000X0.275000X-0.200000X0.275000X0.200000X0*%
%ADD35RoundRect,0.150000X0.587500X0.150000X-0.587500X0.150000X-0.587500X-0.150000X0.587500X-0.150000X0*%
%ADD36R,1.650000X1.650000*%
%ADD37C,1.650000*%
%ADD38R,0.475000X0.300000*%
G04 APERTURE END LIST*
D10*
%TO.C,SW11*%
X139960000Y-108390000D03*
X145040000Y-108390000D03*
%TD*%
%TO.C,SW8*%
X127710000Y-118380000D03*
X132790000Y-118380000D03*
%TD*%
D11*
%TO.C,C8*%
X109650000Y-97090000D03*
X109650000Y-95365000D03*
%TD*%
D12*
%TO.C,U2*%
X173950000Y-119240000D03*
X173950000Y-117240000D03*
X173950000Y-115240000D03*
X173950000Y-113240000D03*
X173950000Y-111240000D03*
X173950000Y-109240000D03*
X173950000Y-107240000D03*
X173950000Y-105240000D03*
D13*
X171350000Y-103740000D03*
X169350000Y-103740000D03*
X167350000Y-103740000D03*
X165350000Y-103740000D03*
X163350000Y-103740000D03*
X161350000Y-103740000D03*
D12*
X158750000Y-105240000D03*
X158750000Y-107240000D03*
X158750000Y-109240000D03*
X158750000Y-111240000D03*
X158750000Y-113240000D03*
X158750000Y-115240000D03*
X158750000Y-117240000D03*
X158750000Y-119240000D03*
%TD*%
D11*
%TO.C,C11*%
X164400000Y-95427500D03*
X164400000Y-93702500D03*
%TD*%
D14*
%TO.C,L1*%
X102925000Y-90340000D03*
X104675000Y-90340000D03*
%TD*%
D15*
%TO.C,C7*%
X169842500Y-81580000D03*
X168117500Y-81580000D03*
%TD*%
D16*
%TO.C,K2*%
X80750000Y-103410000D03*
D17*
X86800000Y-101460000D03*
D16*
X74750000Y-89210000D03*
D17*
X74800000Y-101460000D03*
%TD*%
D10*
%TO.C,SW1*%
X114920000Y-88350000D03*
X120000000Y-88350000D03*
%TD*%
D18*
%TO.C,D11*%
X147600000Y-101320000D03*
D19*
X147600000Y-108940000D03*
%TD*%
D10*
%TO.C,SW5*%
X127710000Y-88350000D03*
X132790000Y-88350000D03*
%TD*%
D20*
%TO.C,R8*%
X176350000Y-113377500D03*
X176350000Y-115202500D03*
%TD*%
D21*
%TO.C,R7*%
X176350000Y-119152500D03*
X176350000Y-117327500D03*
%TD*%
D22*
%TO.C,C1*%
X158750000Y-88927500D03*
X158750000Y-90652500D03*
%TD*%
D23*
%TO.C,J2*%
X63380000Y-107465000D03*
D24*
X63380000Y-110005000D03*
%TD*%
D25*
%TO.C,R1*%
X118497500Y-110990000D03*
X120322500Y-110990000D03*
%TD*%
D26*
%TO.C,U1*%
X168437500Y-89977500D03*
X168437500Y-90477500D03*
X168437500Y-90977500D03*
X168437500Y-91477500D03*
X168437500Y-91977500D03*
X168437500Y-92477500D03*
X168437500Y-92977500D03*
X168437500Y-93477500D03*
X168437500Y-93977500D03*
X168437500Y-94477500D03*
X168437500Y-94977500D03*
X168437500Y-95477500D03*
D27*
X169850000Y-96890000D03*
X170350000Y-96890000D03*
X170850000Y-96890000D03*
X171350000Y-96890000D03*
X171850000Y-96890000D03*
X172350000Y-96890000D03*
X172850000Y-96890000D03*
X173350000Y-96890000D03*
X173850000Y-96890000D03*
X174350000Y-96890000D03*
X174850000Y-96890000D03*
X175350000Y-96890000D03*
D26*
X176762500Y-95477500D03*
X176762500Y-94977500D03*
X176762500Y-94477500D03*
X176762500Y-93977500D03*
X176762500Y-93477500D03*
X176762500Y-92977500D03*
X176762500Y-92477500D03*
X176762500Y-91977500D03*
X176762500Y-91477500D03*
X176762500Y-90977500D03*
X176762500Y-90477500D03*
X176762500Y-89977500D03*
D27*
X175350000Y-88565000D03*
X174850000Y-88565000D03*
X174350000Y-88565000D03*
X173850000Y-88565000D03*
X173350000Y-88565000D03*
X172850000Y-88565000D03*
X172350000Y-88565000D03*
X171850000Y-88565000D03*
X171350000Y-88565000D03*
X170850000Y-88565000D03*
X170350000Y-88565000D03*
X169850000Y-88565000D03*
%TD*%
D11*
%TO.C,C15*%
X178050000Y-119102500D03*
X178050000Y-117377500D03*
%TD*%
D28*
%TO.C,D14*%
X93230000Y-112590000D03*
X91830000Y-112590000D03*
%TD*%
D20*
%TO.C,R14*%
X93700000Y-93127500D03*
X93700000Y-94952500D03*
%TD*%
D10*
%TO.C,SW3*%
X114920000Y-108390000D03*
X120000000Y-108390000D03*
%TD*%
D25*
%TO.C,R2*%
X131287500Y-110990000D03*
X133112500Y-110990000D03*
%TD*%
D29*
%TO.C,R13*%
X112212500Y-111190000D03*
X110387500Y-111190000D03*
%TD*%
D22*
%TO.C,C6*%
X157100000Y-95027500D03*
X157100000Y-96752500D03*
%TD*%
D21*
%TO.C,R6*%
X99624000Y-97140000D03*
X99624000Y-95315000D03*
%TD*%
D30*
%TO.C,K1*%
X89750000Y-109225000D03*
X89750000Y-116825000D03*
X77050000Y-109225000D03*
X74510000Y-116825000D03*
%TD*%
D18*
%TO.C,D12*%
X147600000Y-111310000D03*
D19*
X147600000Y-118930000D03*
%TD*%
D22*
%TO.C,C12*%
X106250000Y-95365000D03*
X106250000Y-97090000D03*
%TD*%
D10*
%TO.C,SW2*%
X114920000Y-98350000D03*
X120000000Y-98350000D03*
%TD*%
%TO.C,SW4*%
X115205000Y-118380000D03*
X120285000Y-118380000D03*
%TD*%
D11*
%TO.C,C9*%
X166200000Y-95427500D03*
X166200000Y-93702500D03*
%TD*%
D28*
%TO.C,D13*%
X90880000Y-96640000D03*
X89480000Y-96640000D03*
%TD*%
D22*
%TO.C,C16*%
X99550000Y-89477500D03*
X99550000Y-91202500D03*
%TD*%
D11*
%TO.C,C10*%
X107950000Y-97090000D03*
X107950000Y-95365000D03*
%TD*%
D31*
%TO.C,J1*%
X66100000Y-97675000D03*
D32*
X66100000Y-92675000D03*
%TD*%
D33*
%TO.C,Y1*%
X161600000Y-90040000D03*
X161600000Y-95565000D03*
%TD*%
D34*
%TO.C,R3*%
X158750000Y-95215000D03*
X158750000Y-96865000D03*
%TD*%
D18*
%TO.C,D6*%
X135350000Y-91280000D03*
D19*
X135350000Y-98900000D03*
%TD*%
D18*
%TO.C,D4*%
X122600000Y-111310000D03*
D19*
X122600000Y-118930000D03*
%TD*%
D22*
%TO.C,C13*%
X177950000Y-105390000D03*
X177950000Y-107115000D03*
%TD*%
D15*
%TO.C,C3*%
X169842500Y-84890000D03*
X168117500Y-84890000D03*
%TD*%
D21*
%TO.C,R15*%
X96062500Y-110902500D03*
X96062500Y-109077500D03*
%TD*%
D11*
%TO.C,C14*%
X101150000Y-91202500D03*
X101150000Y-89477500D03*
%TD*%
D18*
%TO.C,D3*%
X122600000Y-101320000D03*
D19*
X122600000Y-108940000D03*
%TD*%
D23*
%TO.C,J3*%
X63380000Y-116870000D03*
D24*
X63380000Y-114330000D03*
%TD*%
D18*
%TO.C,D5*%
X135350000Y-81280000D03*
D19*
X135350000Y-88900000D03*
%TD*%
D18*
%TO.C,D2*%
X122600000Y-91280000D03*
D19*
X122600000Y-98900000D03*
%TD*%
D15*
%TO.C,C5*%
X166162500Y-92090000D03*
X164437500Y-92090000D03*
%TD*%
D10*
%TO.C,SW7*%
X127710000Y-108390000D03*
X132790000Y-108390000D03*
%TD*%
D29*
%TO.C,R10*%
X156262500Y-107240000D03*
X154437500Y-107240000D03*
%TD*%
D18*
%TO.C,U4*%
X107850000Y-113690000D03*
D19*
X107850000Y-111150000D03*
X107850000Y-108610000D03*
X107850000Y-106070000D03*
X100230000Y-106070000D03*
X100230000Y-108610000D03*
X100230000Y-111150000D03*
X100230000Y-113690000D03*
%TD*%
D10*
%TO.C,SW12*%
X139960000Y-118380000D03*
X145040000Y-118380000D03*
%TD*%
D25*
%TO.C,R4*%
X143537500Y-110990000D03*
X145362500Y-110990000D03*
%TD*%
D18*
%TO.C,D8*%
X135350000Y-111310000D03*
D19*
X135350000Y-118930000D03*
%TD*%
D10*
%TO.C,SW10*%
X139960000Y-98350000D03*
X145040000Y-98350000D03*
%TD*%
%TO.C,SW9*%
X139960000Y-88350000D03*
X145040000Y-88350000D03*
%TD*%
D18*
%TO.C,D9*%
X147600000Y-81280000D03*
D19*
X147600000Y-88900000D03*
%TD*%
D18*
%TO.C,D7*%
X135350000Y-101320000D03*
D19*
X135350000Y-108940000D03*
%TD*%
D15*
%TO.C,C4*%
X169842500Y-83140000D03*
X168117500Y-83140000D03*
%TD*%
D18*
%TO.C,D10*%
X147600000Y-91280000D03*
D19*
X147600000Y-98900000D03*
%TD*%
D29*
%TO.C,R12*%
X112212500Y-108390000D03*
X110387500Y-108390000D03*
%TD*%
D20*
%TO.C,R5*%
X101300000Y-95315000D03*
X101300000Y-97140000D03*
%TD*%
D18*
%TO.C,D1*%
X122600000Y-81280000D03*
D19*
X122600000Y-88900000D03*
%TD*%
D10*
%TO.C,SW6*%
X127710000Y-98350000D03*
X132790000Y-98350000D03*
%TD*%
D35*
%TO.C,Q1*%
X91787500Y-95040000D03*
X91787500Y-93140000D03*
X89912500Y-94090000D03*
%TD*%
%TO.C,Q2*%
X94137500Y-110990000D03*
X94137500Y-109090000D03*
X92262500Y-110040000D03*
%TD*%
D25*
%TO.C,R9*%
X154437500Y-111240000D03*
X156262500Y-111240000D03*
%TD*%
%TO.C,R11*%
X154437500Y-109240000D03*
X156262500Y-109240000D03*
%TD*%
D15*
%TO.C,C2*%
X169842500Y-86640000D03*
X168117500Y-86640000D03*
%TD*%
D16*
%TO.C,RFID1*%
X196600000Y-81810000D03*
X196600000Y-117040000D03*
X235930000Y-114040000D03*
X236040000Y-85040000D03*
D36*
X187680000Y-89700000D03*
D37*
X187680000Y-92240000D03*
X187680000Y-94780000D03*
X187680000Y-97320000D03*
X187680000Y-99860000D03*
X187680000Y-102400000D03*
X187680000Y-104940000D03*
X187680000Y-107480000D03*
%TD*%
D22*
%TO.C,C17*%
X176400000Y-105390000D03*
X176400000Y-107115000D03*
%TD*%
D38*
%TO.C,IC1*%
X104624000Y-93727500D03*
X104624000Y-93227500D03*
X104624000Y-92727500D03*
X104624000Y-92227500D03*
X102948000Y-92227500D03*
X102948000Y-92727500D03*
X102948000Y-93227500D03*
X102948000Y-93727500D03*
%TD*%
M02*
