%TF.GenerationSoftware,KiCad,Pcbnew,7.0.9*%
%TF.CreationDate,2023-12-04T18:13:03+01:00*%
%TF.ProjectId,projekt1,70726f6a-656b-4743-912e-6b696361645f,rev?*%
%TF.SameCoordinates,Original*%
%TF.FileFunction,Copper,L2,Bot*%
%TF.FilePolarity,Positive*%
%FSLAX46Y46*%
G04 Gerber Fmt 4.6, Leading zero omitted, Abs format (unit mm)*
G04 Created by KiCad (PCBNEW 7.0.9) date 2023-12-04 18:13:03*
%MOMM*%
%LPD*%
G01*
G04 APERTURE LIST*
%ADD10C,0.100000*%
%TA.AperFunction,NonConductor*%
%ADD11C,0.100000*%
%TD*%
%TA.AperFunction,ComponentPad*%
%ADD12C,3.000000*%
%TD*%
%TA.AperFunction,ComponentPad*%
%ADD13C,2.500000*%
%TD*%
%TA.AperFunction,ComponentPad*%
%ADD14R,1.600000X1.600000*%
%TD*%
%TA.AperFunction,ComponentPad*%
%ADD15O,1.600000X1.600000*%
%TD*%
%TA.AperFunction,ComponentPad*%
%ADD16R,2.100000X2.100000*%
%TD*%
%TA.AperFunction,ComponentPad*%
%ADD17C,2.100000*%
%TD*%
%TA.AperFunction,ComponentPad*%
%ADD18C,1.800000*%
%TD*%
%TA.AperFunction,ComponentPad*%
%ADD19R,3.960000X1.980000*%
%TD*%
%TA.AperFunction,ComponentPad*%
%ADD20O,3.960000X1.980000*%
%TD*%
%TA.AperFunction,ComponentPad*%
%ADD21R,1.650000X1.650000*%
%TD*%
%TA.AperFunction,ComponentPad*%
%ADD22C,1.650000*%
%TD*%
%TA.AperFunction,ViaPad*%
%ADD23C,0.750000*%
%TD*%
%TA.AperFunction,Conductor*%
%ADD24C,0.200000*%
%TD*%
%TA.AperFunction,Conductor*%
%ADD25C,0.400000*%
%TD*%
G04 APERTURE END LIST*
D10*
D11*
X60034836Y-80218609D02*
X60034836Y-79718609D01*
X60320550Y-80218609D02*
X60106265Y-79932895D01*
X60320550Y-79718609D02*
X60034836Y-80004323D01*
X60606265Y-80218609D02*
X60558646Y-80194800D01*
X60558646Y-80194800D02*
X60534836Y-80170990D01*
X60534836Y-80170990D02*
X60511027Y-80123371D01*
X60511027Y-80123371D02*
X60511027Y-79980514D01*
X60511027Y-79980514D02*
X60534836Y-79932895D01*
X60534836Y-79932895D02*
X60558646Y-79909085D01*
X60558646Y-79909085D02*
X60606265Y-79885276D01*
X60606265Y-79885276D02*
X60677693Y-79885276D01*
X60677693Y-79885276D02*
X60725312Y-79909085D01*
X60725312Y-79909085D02*
X60749122Y-79932895D01*
X60749122Y-79932895D02*
X60772931Y-79980514D01*
X60772931Y-79980514D02*
X60772931Y-80123371D01*
X60772931Y-80123371D02*
X60749122Y-80170990D01*
X60749122Y-80170990D02*
X60725312Y-80194800D01*
X60725312Y-80194800D02*
X60677693Y-80218609D01*
X60677693Y-80218609D02*
X60606265Y-80218609D01*
X60987217Y-79885276D02*
X60987217Y-80218609D01*
X60987217Y-79932895D02*
X61011027Y-79909085D01*
X61011027Y-79909085D02*
X61058646Y-79885276D01*
X61058646Y-79885276D02*
X61130074Y-79885276D01*
X61130074Y-79885276D02*
X61177693Y-79909085D01*
X61177693Y-79909085D02*
X61201503Y-79956704D01*
X61201503Y-79956704D02*
X61201503Y-80218609D01*
X61368170Y-79885276D02*
X61558646Y-79885276D01*
X61439598Y-79718609D02*
X61439598Y-80147180D01*
X61439598Y-80147180D02*
X61463408Y-80194800D01*
X61463408Y-80194800D02*
X61511027Y-80218609D01*
X61511027Y-80218609D02*
X61558646Y-80218609D01*
X61725312Y-80218609D02*
X61725312Y-79885276D01*
X61725312Y-79980514D02*
X61749122Y-79932895D01*
X61749122Y-79932895D02*
X61772931Y-79909085D01*
X61772931Y-79909085D02*
X61820550Y-79885276D01*
X61820550Y-79885276D02*
X61868169Y-79885276D01*
X62106265Y-80218609D02*
X62058646Y-80194800D01*
X62058646Y-80194800D02*
X62034836Y-80170990D01*
X62034836Y-80170990D02*
X62011027Y-80123371D01*
X62011027Y-80123371D02*
X62011027Y-79980514D01*
X62011027Y-79980514D02*
X62034836Y-79932895D01*
X62034836Y-79932895D02*
X62058646Y-79909085D01*
X62058646Y-79909085D02*
X62106265Y-79885276D01*
X62106265Y-79885276D02*
X62177693Y-79885276D01*
X62177693Y-79885276D02*
X62225312Y-79909085D01*
X62225312Y-79909085D02*
X62249122Y-79932895D01*
X62249122Y-79932895D02*
X62272931Y-79980514D01*
X62272931Y-79980514D02*
X62272931Y-80123371D01*
X62272931Y-80123371D02*
X62249122Y-80170990D01*
X62249122Y-80170990D02*
X62225312Y-80194800D01*
X62225312Y-80194800D02*
X62177693Y-80218609D01*
X62177693Y-80218609D02*
X62106265Y-80218609D01*
X62558646Y-80218609D02*
X62511027Y-80194800D01*
X62511027Y-80194800D02*
X62487217Y-80147180D01*
X62487217Y-80147180D02*
X62487217Y-79718609D01*
X62963408Y-80218609D02*
X62963408Y-79956704D01*
X62963408Y-79956704D02*
X62939598Y-79909085D01*
X62939598Y-79909085D02*
X62891979Y-79885276D01*
X62891979Y-79885276D02*
X62796741Y-79885276D01*
X62796741Y-79885276D02*
X62749122Y-79909085D01*
X62963408Y-80194800D02*
X62915789Y-80218609D01*
X62915789Y-80218609D02*
X62796741Y-80218609D01*
X62796741Y-80218609D02*
X62749122Y-80194800D01*
X62749122Y-80194800D02*
X62725313Y-80147180D01*
X62725313Y-80147180D02*
X62725313Y-80099561D01*
X62725313Y-80099561D02*
X62749122Y-80051942D01*
X62749122Y-80051942D02*
X62796741Y-80028133D01*
X62796741Y-80028133D02*
X62915789Y-80028133D01*
X62915789Y-80028133D02*
X62963408Y-80004323D01*
X63796741Y-80218609D02*
X63796741Y-79718609D01*
X63796741Y-80194800D02*
X63749122Y-80218609D01*
X63749122Y-80218609D02*
X63653884Y-80218609D01*
X63653884Y-80218609D02*
X63606265Y-80194800D01*
X63606265Y-80194800D02*
X63582455Y-80170990D01*
X63582455Y-80170990D02*
X63558646Y-80123371D01*
X63558646Y-80123371D02*
X63558646Y-79980514D01*
X63558646Y-79980514D02*
X63582455Y-79932895D01*
X63582455Y-79932895D02*
X63606265Y-79909085D01*
X63606265Y-79909085D02*
X63653884Y-79885276D01*
X63653884Y-79885276D02*
X63749122Y-79885276D01*
X63749122Y-79885276D02*
X63796741Y-79909085D01*
X64106265Y-80218609D02*
X64058646Y-80194800D01*
X64058646Y-80194800D02*
X64034836Y-80170990D01*
X64034836Y-80170990D02*
X64011027Y-80123371D01*
X64011027Y-80123371D02*
X64011027Y-79980514D01*
X64011027Y-79980514D02*
X64034836Y-79932895D01*
X64034836Y-79932895D02*
X64058646Y-79909085D01*
X64058646Y-79909085D02*
X64106265Y-79885276D01*
X64106265Y-79885276D02*
X64177693Y-79885276D01*
X64177693Y-79885276D02*
X64225312Y-79909085D01*
X64225312Y-79909085D02*
X64249122Y-79932895D01*
X64249122Y-79932895D02*
X64272931Y-79980514D01*
X64272931Y-79980514D02*
X64272931Y-80123371D01*
X64272931Y-80123371D02*
X64249122Y-80170990D01*
X64249122Y-80170990D02*
X64225312Y-80194800D01*
X64225312Y-80194800D02*
X64177693Y-80218609D01*
X64177693Y-80218609D02*
X64106265Y-80218609D01*
X64463408Y-80194800D02*
X64511027Y-80218609D01*
X64511027Y-80218609D02*
X64606265Y-80218609D01*
X64606265Y-80218609D02*
X64653884Y-80194800D01*
X64653884Y-80194800D02*
X64677693Y-80147180D01*
X64677693Y-80147180D02*
X64677693Y-80123371D01*
X64677693Y-80123371D02*
X64653884Y-80075752D01*
X64653884Y-80075752D02*
X64606265Y-80051942D01*
X64606265Y-80051942D02*
X64534836Y-80051942D01*
X64534836Y-80051942D02*
X64487217Y-80028133D01*
X64487217Y-80028133D02*
X64463408Y-79980514D01*
X64463408Y-79980514D02*
X64463408Y-79956704D01*
X64463408Y-79956704D02*
X64487217Y-79909085D01*
X64487217Y-79909085D02*
X64534836Y-79885276D01*
X64534836Y-79885276D02*
X64606265Y-79885276D01*
X64606265Y-79885276D02*
X64653884Y-79909085D01*
X64820551Y-79885276D02*
X65011027Y-79885276D01*
X64891979Y-79718609D02*
X64891979Y-80147180D01*
X64891979Y-80147180D02*
X64915789Y-80194800D01*
X64915789Y-80194800D02*
X64963408Y-80218609D01*
X64963408Y-80218609D02*
X65011027Y-80218609D01*
X65368169Y-80194800D02*
X65320550Y-80218609D01*
X65320550Y-80218609D02*
X65225312Y-80218609D01*
X65225312Y-80218609D02*
X65177693Y-80194800D01*
X65177693Y-80194800D02*
X65153884Y-80147180D01*
X65153884Y-80147180D02*
X65153884Y-79956704D01*
X65153884Y-79956704D02*
X65177693Y-79909085D01*
X65177693Y-79909085D02*
X65225312Y-79885276D01*
X65225312Y-79885276D02*
X65320550Y-79885276D01*
X65320550Y-79885276D02*
X65368169Y-79909085D01*
X65368169Y-79909085D02*
X65391979Y-79956704D01*
X65391979Y-79956704D02*
X65391979Y-80004323D01*
X65391979Y-80004323D02*
X65153884Y-80051942D01*
X65272931Y-80218609D02*
X65225312Y-80266228D01*
X65225312Y-80266228D02*
X65201503Y-80313847D01*
X65201503Y-80313847D02*
X65225312Y-80361466D01*
X65225312Y-80361466D02*
X65272931Y-80385276D01*
X65272931Y-80385276D02*
X65320550Y-80385276D01*
X65606264Y-79885276D02*
X65606264Y-80385276D01*
X65606264Y-79909085D02*
X65653883Y-79885276D01*
X65653883Y-79885276D02*
X65749121Y-79885276D01*
X65749121Y-79885276D02*
X65796740Y-79909085D01*
X65796740Y-79909085D02*
X65820550Y-79932895D01*
X65820550Y-79932895D02*
X65844359Y-79980514D01*
X65844359Y-79980514D02*
X65844359Y-80123371D01*
X65844359Y-80123371D02*
X65820550Y-80170990D01*
X65820550Y-80170990D02*
X65796740Y-80194800D01*
X65796740Y-80194800D02*
X65749121Y-80218609D01*
X65749121Y-80218609D02*
X65653883Y-80218609D01*
X65653883Y-80218609D02*
X65606264Y-80194800D01*
X66272931Y-79885276D02*
X66272931Y-80218609D01*
X66058645Y-79885276D02*
X66058645Y-80147180D01*
X66058645Y-80147180D02*
X66082455Y-80194800D01*
X66082455Y-80194800D02*
X66130074Y-80218609D01*
X66130074Y-80218609D02*
X66201502Y-80218609D01*
X66201502Y-80218609D02*
X66249121Y-80194800D01*
X66249121Y-80194800D02*
X66272931Y-80170990D01*
X66844359Y-79885276D02*
X66963407Y-80218609D01*
X66963407Y-80218609D02*
X67082454Y-79885276D01*
X67534835Y-80218609D02*
X67249121Y-80218609D01*
X67391978Y-80218609D02*
X67391978Y-79718609D01*
X67391978Y-79718609D02*
X67344359Y-79790038D01*
X67344359Y-79790038D02*
X67296740Y-79837657D01*
X67296740Y-79837657D02*
X67249121Y-79861466D01*
X67749120Y-80170990D02*
X67772930Y-80194800D01*
X67772930Y-80194800D02*
X67749120Y-80218609D01*
X67749120Y-80218609D02*
X67725311Y-80194800D01*
X67725311Y-80194800D02*
X67749120Y-80170990D01*
X67749120Y-80170990D02*
X67749120Y-80218609D01*
X68082453Y-79718609D02*
X68130072Y-79718609D01*
X68130072Y-79718609D02*
X68177691Y-79742419D01*
X68177691Y-79742419D02*
X68201501Y-79766228D01*
X68201501Y-79766228D02*
X68225310Y-79813847D01*
X68225310Y-79813847D02*
X68249120Y-79909085D01*
X68249120Y-79909085D02*
X68249120Y-80028133D01*
X68249120Y-80028133D02*
X68225310Y-80123371D01*
X68225310Y-80123371D02*
X68201501Y-80170990D01*
X68201501Y-80170990D02*
X68177691Y-80194800D01*
X68177691Y-80194800D02*
X68130072Y-80218609D01*
X68130072Y-80218609D02*
X68082453Y-80218609D01*
X68082453Y-80218609D02*
X68034834Y-80194800D01*
X68034834Y-80194800D02*
X68011025Y-80170990D01*
X68011025Y-80170990D02*
X67987215Y-80123371D01*
X67987215Y-80123371D02*
X67963406Y-80028133D01*
X67963406Y-80028133D02*
X67963406Y-79909085D01*
X67963406Y-79909085D02*
X67987215Y-79813847D01*
X67987215Y-79813847D02*
X68011025Y-79766228D01*
X68011025Y-79766228D02*
X68034834Y-79742419D01*
X68034834Y-79742419D02*
X68082453Y-79718609D01*
X60034836Y-81023609D02*
X60034836Y-80523609D01*
X60320550Y-81023609D02*
X60106265Y-80737895D01*
X60320550Y-80523609D02*
X60034836Y-80809323D01*
X60749122Y-81023609D02*
X60749122Y-80761704D01*
X60749122Y-80761704D02*
X60725312Y-80714085D01*
X60725312Y-80714085D02*
X60677693Y-80690276D01*
X60677693Y-80690276D02*
X60582455Y-80690276D01*
X60582455Y-80690276D02*
X60534836Y-80714085D01*
X60749122Y-80999800D02*
X60701503Y-81023609D01*
X60701503Y-81023609D02*
X60582455Y-81023609D01*
X60582455Y-81023609D02*
X60534836Y-80999800D01*
X60534836Y-80999800D02*
X60511027Y-80952180D01*
X60511027Y-80952180D02*
X60511027Y-80904561D01*
X60511027Y-80904561D02*
X60534836Y-80856942D01*
X60534836Y-80856942D02*
X60582455Y-80833133D01*
X60582455Y-80833133D02*
X60701503Y-80833133D01*
X60701503Y-80833133D02*
X60749122Y-80809323D01*
X61201503Y-80999800D02*
X61153884Y-81023609D01*
X61153884Y-81023609D02*
X61058646Y-81023609D01*
X61058646Y-81023609D02*
X61011027Y-80999800D01*
X61011027Y-80999800D02*
X60987217Y-80975990D01*
X60987217Y-80975990D02*
X60963408Y-80928371D01*
X60963408Y-80928371D02*
X60963408Y-80785514D01*
X60963408Y-80785514D02*
X60987217Y-80737895D01*
X60987217Y-80737895D02*
X61011027Y-80714085D01*
X61011027Y-80714085D02*
X61058646Y-80690276D01*
X61058646Y-80690276D02*
X61153884Y-80690276D01*
X61153884Y-80690276D02*
X61201503Y-80714085D01*
X61415788Y-80690276D02*
X61415788Y-81190276D01*
X61415788Y-80714085D02*
X61463407Y-80690276D01*
X61463407Y-80690276D02*
X61558645Y-80690276D01*
X61558645Y-80690276D02*
X61606264Y-80714085D01*
X61606264Y-80714085D02*
X61630074Y-80737895D01*
X61630074Y-80737895D02*
X61653883Y-80785514D01*
X61653883Y-80785514D02*
X61653883Y-80928371D01*
X61653883Y-80928371D02*
X61630074Y-80975990D01*
X61630074Y-80975990D02*
X61606264Y-80999800D01*
X61606264Y-80999800D02*
X61558645Y-81023609D01*
X61558645Y-81023609D02*
X61463407Y-81023609D01*
X61463407Y-81023609D02*
X61415788Y-80999800D01*
X62058645Y-80999800D02*
X62011026Y-81023609D01*
X62011026Y-81023609D02*
X61915788Y-81023609D01*
X61915788Y-81023609D02*
X61868169Y-80999800D01*
X61868169Y-80999800D02*
X61844360Y-80952180D01*
X61844360Y-80952180D02*
X61844360Y-80761704D01*
X61844360Y-80761704D02*
X61868169Y-80714085D01*
X61868169Y-80714085D02*
X61915788Y-80690276D01*
X61915788Y-80690276D02*
X62011026Y-80690276D01*
X62011026Y-80690276D02*
X62058645Y-80714085D01*
X62058645Y-80714085D02*
X62082455Y-80761704D01*
X62082455Y-80761704D02*
X62082455Y-80809323D01*
X62082455Y-80809323D02*
X61844360Y-80856942D01*
X62296740Y-81023609D02*
X62296740Y-80690276D01*
X62296740Y-80785514D02*
X62320550Y-80737895D01*
X62320550Y-80737895D02*
X62344359Y-80714085D01*
X62344359Y-80714085D02*
X62391978Y-80690276D01*
X62391978Y-80690276D02*
X62439597Y-80690276D01*
X62987216Y-81023609D02*
X62987216Y-80523609D01*
X62987216Y-80523609D02*
X63272930Y-81023609D01*
X63272930Y-81023609D02*
X63272930Y-80523609D01*
X63582455Y-81023609D02*
X63534836Y-80999800D01*
X63534836Y-80999800D02*
X63511026Y-80975990D01*
X63511026Y-80975990D02*
X63487217Y-80928371D01*
X63487217Y-80928371D02*
X63487217Y-80785514D01*
X63487217Y-80785514D02*
X63511026Y-80737895D01*
X63511026Y-80737895D02*
X63534836Y-80714085D01*
X63534836Y-80714085D02*
X63582455Y-80690276D01*
X63582455Y-80690276D02*
X63653883Y-80690276D01*
X63653883Y-80690276D02*
X63701502Y-80714085D01*
X63701502Y-80714085D02*
X63725312Y-80737895D01*
X63725312Y-80737895D02*
X63749121Y-80785514D01*
X63749121Y-80785514D02*
X63749121Y-80928371D01*
X63749121Y-80928371D02*
X63725312Y-80975990D01*
X63725312Y-80975990D02*
X63701502Y-80999800D01*
X63701502Y-80999800D02*
X63653883Y-81023609D01*
X63653883Y-81023609D02*
X63582455Y-81023609D01*
X63915788Y-80690276D02*
X64011026Y-81023609D01*
X64011026Y-81023609D02*
X64106264Y-80785514D01*
X64106264Y-80785514D02*
X64201502Y-81023609D01*
X64201502Y-81023609D02*
X64296740Y-80690276D01*
X64701503Y-81023609D02*
X64701503Y-80761704D01*
X64701503Y-80761704D02*
X64677693Y-80714085D01*
X64677693Y-80714085D02*
X64630074Y-80690276D01*
X64630074Y-80690276D02*
X64534836Y-80690276D01*
X64534836Y-80690276D02*
X64487217Y-80714085D01*
X64701503Y-80999800D02*
X64653884Y-81023609D01*
X64653884Y-81023609D02*
X64534836Y-81023609D01*
X64534836Y-81023609D02*
X64487217Y-80999800D01*
X64487217Y-80999800D02*
X64463408Y-80952180D01*
X64463408Y-80952180D02*
X64463408Y-80904561D01*
X64463408Y-80904561D02*
X64487217Y-80856942D01*
X64487217Y-80856942D02*
X64534836Y-80833133D01*
X64534836Y-80833133D02*
X64653884Y-80833133D01*
X64653884Y-80833133D02*
X64701503Y-80809323D01*
X65153884Y-80999800D02*
X65106265Y-81023609D01*
X65106265Y-81023609D02*
X65011027Y-81023609D01*
X65011027Y-81023609D02*
X64963408Y-80999800D01*
X64963408Y-80999800D02*
X64939598Y-80975990D01*
X64939598Y-80975990D02*
X64915789Y-80928371D01*
X64915789Y-80928371D02*
X64915789Y-80785514D01*
X64915789Y-80785514D02*
X64939598Y-80737895D01*
X64939598Y-80737895D02*
X64963408Y-80714085D01*
X64963408Y-80714085D02*
X65011027Y-80690276D01*
X65011027Y-80690276D02*
X65106265Y-80690276D01*
X65106265Y-80690276D02*
X65153884Y-80714085D01*
X65320550Y-80690276D02*
X65582455Y-80690276D01*
X65582455Y-80690276D02*
X65320550Y-81023609D01*
X65320550Y-81023609D02*
X65582455Y-81023609D01*
X65725312Y-80690276D02*
X65844360Y-81023609D01*
X65963407Y-80690276D02*
X65844360Y-81023609D01*
X65844360Y-81023609D02*
X65796741Y-81142657D01*
X65796741Y-81142657D02*
X65772931Y-81166466D01*
X65772931Y-81166466D02*
X65725312Y-81190276D01*
X66153883Y-81023609D02*
X66153883Y-80523609D01*
X66201502Y-80833133D02*
X66344359Y-81023609D01*
X66344359Y-80690276D02*
X66153883Y-80880752D01*
X67201502Y-81023609D02*
X66915788Y-81023609D01*
X67058645Y-81023609D02*
X67058645Y-80523609D01*
X67058645Y-80523609D02*
X67011026Y-80595038D01*
X67011026Y-80595038D02*
X66963407Y-80642657D01*
X66963407Y-80642657D02*
X66915788Y-80666466D01*
X67653882Y-80523609D02*
X67415787Y-80523609D01*
X67415787Y-80523609D02*
X67391978Y-80761704D01*
X67391978Y-80761704D02*
X67415787Y-80737895D01*
X67415787Y-80737895D02*
X67463406Y-80714085D01*
X67463406Y-80714085D02*
X67582454Y-80714085D01*
X67582454Y-80714085D02*
X67630073Y-80737895D01*
X67630073Y-80737895D02*
X67653882Y-80761704D01*
X67653882Y-80761704D02*
X67677692Y-80809323D01*
X67677692Y-80809323D02*
X67677692Y-80928371D01*
X67677692Y-80928371D02*
X67653882Y-80975990D01*
X67653882Y-80975990D02*
X67630073Y-80999800D01*
X67630073Y-80999800D02*
X67582454Y-81023609D01*
X67582454Y-81023609D02*
X67463406Y-81023609D01*
X67463406Y-81023609D02*
X67415787Y-80999800D01*
X67415787Y-80999800D02*
X67391978Y-80975990D01*
X67987215Y-80523609D02*
X68034834Y-80523609D01*
X68034834Y-80523609D02*
X68082453Y-80547419D01*
X68082453Y-80547419D02*
X68106263Y-80571228D01*
X68106263Y-80571228D02*
X68130072Y-80618847D01*
X68130072Y-80618847D02*
X68153882Y-80714085D01*
X68153882Y-80714085D02*
X68153882Y-80833133D01*
X68153882Y-80833133D02*
X68130072Y-80928371D01*
X68130072Y-80928371D02*
X68106263Y-80975990D01*
X68106263Y-80975990D02*
X68082453Y-80999800D01*
X68082453Y-80999800D02*
X68034834Y-81023609D01*
X68034834Y-81023609D02*
X67987215Y-81023609D01*
X67987215Y-81023609D02*
X67939596Y-80999800D01*
X67939596Y-80999800D02*
X67915787Y-80975990D01*
X67915787Y-80975990D02*
X67891977Y-80928371D01*
X67891977Y-80928371D02*
X67868168Y-80833133D01*
X67868168Y-80833133D02*
X67868168Y-80714085D01*
X67868168Y-80714085D02*
X67891977Y-80618847D01*
X67891977Y-80618847D02*
X67915787Y-80571228D01*
X67915787Y-80571228D02*
X67939596Y-80547419D01*
X67939596Y-80547419D02*
X67987215Y-80523609D01*
X68582453Y-80523609D02*
X68487215Y-80523609D01*
X68487215Y-80523609D02*
X68439596Y-80547419D01*
X68439596Y-80547419D02*
X68415786Y-80571228D01*
X68415786Y-80571228D02*
X68368167Y-80642657D01*
X68368167Y-80642657D02*
X68344358Y-80737895D01*
X68344358Y-80737895D02*
X68344358Y-80928371D01*
X68344358Y-80928371D02*
X68368167Y-80975990D01*
X68368167Y-80975990D02*
X68391977Y-80999800D01*
X68391977Y-80999800D02*
X68439596Y-81023609D01*
X68439596Y-81023609D02*
X68534834Y-81023609D01*
X68534834Y-81023609D02*
X68582453Y-80999800D01*
X68582453Y-80999800D02*
X68606262Y-80975990D01*
X68606262Y-80975990D02*
X68630072Y-80928371D01*
X68630072Y-80928371D02*
X68630072Y-80809323D01*
X68630072Y-80809323D02*
X68606262Y-80761704D01*
X68606262Y-80761704D02*
X68582453Y-80737895D01*
X68582453Y-80737895D02*
X68534834Y-80714085D01*
X68534834Y-80714085D02*
X68439596Y-80714085D01*
X68439596Y-80714085D02*
X68391977Y-80737895D01*
X68391977Y-80737895D02*
X68368167Y-80761704D01*
X68368167Y-80761704D02*
X68344358Y-80809323D01*
X69106262Y-81023609D02*
X68820548Y-81023609D01*
X68963405Y-81023609D02*
X68963405Y-80523609D01*
X68963405Y-80523609D02*
X68915786Y-80595038D01*
X68915786Y-80595038D02*
X68868167Y-80642657D01*
X68868167Y-80642657D02*
X68820548Y-80666466D01*
X69534833Y-80523609D02*
X69439595Y-80523609D01*
X69439595Y-80523609D02*
X69391976Y-80547419D01*
X69391976Y-80547419D02*
X69368166Y-80571228D01*
X69368166Y-80571228D02*
X69320547Y-80642657D01*
X69320547Y-80642657D02*
X69296738Y-80737895D01*
X69296738Y-80737895D02*
X69296738Y-80928371D01*
X69296738Y-80928371D02*
X69320547Y-80975990D01*
X69320547Y-80975990D02*
X69344357Y-80999800D01*
X69344357Y-80999800D02*
X69391976Y-81023609D01*
X69391976Y-81023609D02*
X69487214Y-81023609D01*
X69487214Y-81023609D02*
X69534833Y-80999800D01*
X69534833Y-80999800D02*
X69558642Y-80975990D01*
X69558642Y-80975990D02*
X69582452Y-80928371D01*
X69582452Y-80928371D02*
X69582452Y-80809323D01*
X69582452Y-80809323D02*
X69558642Y-80761704D01*
X69558642Y-80761704D02*
X69534833Y-80737895D01*
X69534833Y-80737895D02*
X69487214Y-80714085D01*
X69487214Y-80714085D02*
X69391976Y-80714085D01*
X69391976Y-80714085D02*
X69344357Y-80737895D01*
X69344357Y-80737895D02*
X69320547Y-80761704D01*
X69320547Y-80761704D02*
X69296738Y-80809323D01*
X60320550Y-81828609D02*
X60153884Y-81590514D01*
X60034836Y-81828609D02*
X60034836Y-81328609D01*
X60034836Y-81328609D02*
X60225312Y-81328609D01*
X60225312Y-81328609D02*
X60272931Y-81352419D01*
X60272931Y-81352419D02*
X60296741Y-81376228D01*
X60296741Y-81376228D02*
X60320550Y-81423847D01*
X60320550Y-81423847D02*
X60320550Y-81495276D01*
X60320550Y-81495276D02*
X60296741Y-81542895D01*
X60296741Y-81542895D02*
X60272931Y-81566704D01*
X60272931Y-81566704D02*
X60225312Y-81590514D01*
X60225312Y-81590514D02*
X60034836Y-81590514D01*
X60606265Y-81828609D02*
X60558646Y-81804800D01*
X60558646Y-81804800D02*
X60534836Y-81780990D01*
X60534836Y-81780990D02*
X60511027Y-81733371D01*
X60511027Y-81733371D02*
X60511027Y-81590514D01*
X60511027Y-81590514D02*
X60534836Y-81542895D01*
X60534836Y-81542895D02*
X60558646Y-81519085D01*
X60558646Y-81519085D02*
X60606265Y-81495276D01*
X60606265Y-81495276D02*
X60677693Y-81495276D01*
X60677693Y-81495276D02*
X60725312Y-81519085D01*
X60725312Y-81519085D02*
X60749122Y-81542895D01*
X60749122Y-81542895D02*
X60772931Y-81590514D01*
X60772931Y-81590514D02*
X60772931Y-81733371D01*
X60772931Y-81733371D02*
X60749122Y-81780990D01*
X60749122Y-81780990D02*
X60725312Y-81804800D01*
X60725312Y-81804800D02*
X60677693Y-81828609D01*
X60677693Y-81828609D02*
X60606265Y-81828609D01*
X60987217Y-81828609D02*
X60987217Y-81328609D01*
X60987217Y-81519085D02*
X61034836Y-81495276D01*
X61034836Y-81495276D02*
X61130074Y-81495276D01*
X61130074Y-81495276D02*
X61177693Y-81519085D01*
X61177693Y-81519085D02*
X61201503Y-81542895D01*
X61201503Y-81542895D02*
X61225312Y-81590514D01*
X61225312Y-81590514D02*
X61225312Y-81733371D01*
X61225312Y-81733371D02*
X61201503Y-81780990D01*
X61201503Y-81780990D02*
X61177693Y-81804800D01*
X61177693Y-81804800D02*
X61130074Y-81828609D01*
X61130074Y-81828609D02*
X61034836Y-81828609D01*
X61034836Y-81828609D02*
X60987217Y-81804800D01*
X61630074Y-81804800D02*
X61582455Y-81828609D01*
X61582455Y-81828609D02*
X61487217Y-81828609D01*
X61487217Y-81828609D02*
X61439598Y-81804800D01*
X61439598Y-81804800D02*
X61415789Y-81757180D01*
X61415789Y-81757180D02*
X61415789Y-81566704D01*
X61415789Y-81566704D02*
X61439598Y-81519085D01*
X61439598Y-81519085D02*
X61487217Y-81495276D01*
X61487217Y-81495276D02*
X61582455Y-81495276D01*
X61582455Y-81495276D02*
X61630074Y-81519085D01*
X61630074Y-81519085D02*
X61653884Y-81566704D01*
X61653884Y-81566704D02*
X61653884Y-81614323D01*
X61653884Y-81614323D02*
X61415789Y-81661942D01*
X61868169Y-81828609D02*
X61868169Y-81495276D01*
X61868169Y-81590514D02*
X61891979Y-81542895D01*
X61891979Y-81542895D02*
X61915788Y-81519085D01*
X61915788Y-81519085D02*
X61963407Y-81495276D01*
X61963407Y-81495276D02*
X62011026Y-81495276D01*
X62106265Y-81495276D02*
X62296741Y-81495276D01*
X62177693Y-81328609D02*
X62177693Y-81757180D01*
X62177693Y-81757180D02*
X62201503Y-81804800D01*
X62201503Y-81804800D02*
X62249122Y-81828609D01*
X62249122Y-81828609D02*
X62296741Y-81828609D01*
X62844359Y-81828609D02*
X62844359Y-81328609D01*
X62844359Y-81328609D02*
X62963407Y-81328609D01*
X62963407Y-81328609D02*
X63034835Y-81352419D01*
X63034835Y-81352419D02*
X63082454Y-81400038D01*
X63082454Y-81400038D02*
X63106264Y-81447657D01*
X63106264Y-81447657D02*
X63130073Y-81542895D01*
X63130073Y-81542895D02*
X63130073Y-81614323D01*
X63130073Y-81614323D02*
X63106264Y-81709561D01*
X63106264Y-81709561D02*
X63082454Y-81757180D01*
X63082454Y-81757180D02*
X63034835Y-81804800D01*
X63034835Y-81804800D02*
X62963407Y-81828609D01*
X62963407Y-81828609D02*
X62844359Y-81828609D01*
X63415788Y-81828609D02*
X63368169Y-81804800D01*
X63368169Y-81804800D02*
X63344359Y-81780990D01*
X63344359Y-81780990D02*
X63320550Y-81733371D01*
X63320550Y-81733371D02*
X63320550Y-81590514D01*
X63320550Y-81590514D02*
X63344359Y-81542895D01*
X63344359Y-81542895D02*
X63368169Y-81519085D01*
X63368169Y-81519085D02*
X63415788Y-81495276D01*
X63415788Y-81495276D02*
X63487216Y-81495276D01*
X63487216Y-81495276D02*
X63534835Y-81519085D01*
X63534835Y-81519085D02*
X63558645Y-81542895D01*
X63558645Y-81542895D02*
X63582454Y-81590514D01*
X63582454Y-81590514D02*
X63582454Y-81733371D01*
X63582454Y-81733371D02*
X63558645Y-81780990D01*
X63558645Y-81780990D02*
X63534835Y-81804800D01*
X63534835Y-81804800D02*
X63487216Y-81828609D01*
X63487216Y-81828609D02*
X63415788Y-81828609D01*
X63796740Y-81828609D02*
X63796740Y-81328609D01*
X63796740Y-81519085D02*
X63844359Y-81495276D01*
X63844359Y-81495276D02*
X63939597Y-81495276D01*
X63939597Y-81495276D02*
X63987216Y-81519085D01*
X63987216Y-81519085D02*
X64011026Y-81542895D01*
X64011026Y-81542895D02*
X64034835Y-81590514D01*
X64034835Y-81590514D02*
X64034835Y-81733371D01*
X64034835Y-81733371D02*
X64011026Y-81780990D01*
X64011026Y-81780990D02*
X63987216Y-81804800D01*
X63987216Y-81804800D02*
X63939597Y-81828609D01*
X63939597Y-81828609D02*
X63844359Y-81828609D01*
X63844359Y-81828609D02*
X63796740Y-81804800D01*
X64249121Y-81828609D02*
X64249121Y-81495276D01*
X64249121Y-81590514D02*
X64272931Y-81542895D01*
X64272931Y-81542895D02*
X64296740Y-81519085D01*
X64296740Y-81519085D02*
X64344359Y-81495276D01*
X64344359Y-81495276D02*
X64391978Y-81495276D01*
X64630074Y-81828609D02*
X64582455Y-81804800D01*
X64582455Y-81804800D02*
X64558645Y-81780990D01*
X64558645Y-81780990D02*
X64534836Y-81733371D01*
X64534836Y-81733371D02*
X64534836Y-81590514D01*
X64534836Y-81590514D02*
X64558645Y-81542895D01*
X64558645Y-81542895D02*
X64582455Y-81519085D01*
X64582455Y-81519085D02*
X64630074Y-81495276D01*
X64630074Y-81495276D02*
X64701502Y-81495276D01*
X64701502Y-81495276D02*
X64749121Y-81519085D01*
X64749121Y-81519085D02*
X64772931Y-81542895D01*
X64772931Y-81542895D02*
X64796740Y-81590514D01*
X64796740Y-81590514D02*
X64796740Y-81733371D01*
X64796740Y-81733371D02*
X64772931Y-81780990D01*
X64772931Y-81780990D02*
X64749121Y-81804800D01*
X64749121Y-81804800D02*
X64701502Y-81828609D01*
X64701502Y-81828609D02*
X64630074Y-81828609D01*
X64963407Y-81495276D02*
X65058645Y-81828609D01*
X65058645Y-81828609D02*
X65153883Y-81590514D01*
X65153883Y-81590514D02*
X65249121Y-81828609D01*
X65249121Y-81828609D02*
X65344359Y-81495276D01*
X65606265Y-81828609D02*
X65558646Y-81804800D01*
X65558646Y-81804800D02*
X65534836Y-81780990D01*
X65534836Y-81780990D02*
X65511027Y-81733371D01*
X65511027Y-81733371D02*
X65511027Y-81590514D01*
X65511027Y-81590514D02*
X65534836Y-81542895D01*
X65534836Y-81542895D02*
X65558646Y-81519085D01*
X65558646Y-81519085D02*
X65606265Y-81495276D01*
X65606265Y-81495276D02*
X65677693Y-81495276D01*
X65677693Y-81495276D02*
X65725312Y-81519085D01*
X65725312Y-81519085D02*
X65749122Y-81542895D01*
X65749122Y-81542895D02*
X65772931Y-81590514D01*
X65772931Y-81590514D02*
X65772931Y-81733371D01*
X65772931Y-81733371D02*
X65749122Y-81780990D01*
X65749122Y-81780990D02*
X65725312Y-81804800D01*
X65725312Y-81804800D02*
X65677693Y-81828609D01*
X65677693Y-81828609D02*
X65606265Y-81828609D01*
X66058646Y-81828609D02*
X66011027Y-81804800D01*
X66011027Y-81804800D02*
X65987217Y-81757180D01*
X65987217Y-81757180D02*
X65987217Y-81328609D01*
X66225313Y-81804800D02*
X66272932Y-81828609D01*
X66272932Y-81828609D02*
X66368170Y-81828609D01*
X66368170Y-81828609D02*
X66415789Y-81804800D01*
X66415789Y-81804800D02*
X66439598Y-81757180D01*
X66439598Y-81757180D02*
X66439598Y-81733371D01*
X66439598Y-81733371D02*
X66415789Y-81685752D01*
X66415789Y-81685752D02*
X66368170Y-81661942D01*
X66368170Y-81661942D02*
X66296741Y-81661942D01*
X66296741Y-81661942D02*
X66249122Y-81638133D01*
X66249122Y-81638133D02*
X66225313Y-81590514D01*
X66225313Y-81590514D02*
X66225313Y-81566704D01*
X66225313Y-81566704D02*
X66249122Y-81519085D01*
X66249122Y-81519085D02*
X66296741Y-81495276D01*
X66296741Y-81495276D02*
X66368170Y-81495276D01*
X66368170Y-81495276D02*
X66415789Y-81519085D01*
X66653884Y-81828609D02*
X66653884Y-81328609D01*
X66701503Y-81638133D02*
X66844360Y-81828609D01*
X66844360Y-81495276D02*
X66653884Y-81685752D01*
X67058646Y-81828609D02*
X67058646Y-81495276D01*
X67058646Y-81328609D02*
X67034837Y-81352419D01*
X67034837Y-81352419D02*
X67058646Y-81376228D01*
X67058646Y-81376228D02*
X67082456Y-81352419D01*
X67082456Y-81352419D02*
X67058646Y-81328609D01*
X67058646Y-81328609D02*
X67058646Y-81376228D01*
X67939598Y-81828609D02*
X67653884Y-81828609D01*
X67796741Y-81828609D02*
X67796741Y-81328609D01*
X67796741Y-81328609D02*
X67749122Y-81400038D01*
X67749122Y-81400038D02*
X67701503Y-81447657D01*
X67701503Y-81447657D02*
X67653884Y-81471466D01*
X68368169Y-81495276D02*
X68368169Y-81828609D01*
X68249121Y-81304800D02*
X68130074Y-81661942D01*
X68130074Y-81661942D02*
X68439597Y-81661942D01*
X68582454Y-81328609D02*
X68915787Y-81328609D01*
X68915787Y-81328609D02*
X68701502Y-81828609D01*
X69344358Y-81328609D02*
X69106263Y-81328609D01*
X69106263Y-81328609D02*
X69082454Y-81566704D01*
X69082454Y-81566704D02*
X69106263Y-81542895D01*
X69106263Y-81542895D02*
X69153882Y-81519085D01*
X69153882Y-81519085D02*
X69272930Y-81519085D01*
X69272930Y-81519085D02*
X69320549Y-81542895D01*
X69320549Y-81542895D02*
X69344358Y-81566704D01*
X69344358Y-81566704D02*
X69368168Y-81614323D01*
X69368168Y-81614323D02*
X69368168Y-81733371D01*
X69368168Y-81733371D02*
X69344358Y-81780990D01*
X69344358Y-81780990D02*
X69320549Y-81804800D01*
X69320549Y-81804800D02*
X69272930Y-81828609D01*
X69272930Y-81828609D02*
X69153882Y-81828609D01*
X69153882Y-81828609D02*
X69106263Y-81804800D01*
X69106263Y-81804800D02*
X69082454Y-81780990D01*
X69534834Y-81328609D02*
X69868167Y-81328609D01*
X69868167Y-81328609D02*
X69653882Y-81828609D01*
X70034834Y-81376228D02*
X70058643Y-81352419D01*
X70058643Y-81352419D02*
X70106262Y-81328609D01*
X70106262Y-81328609D02*
X70225310Y-81328609D01*
X70225310Y-81328609D02*
X70272929Y-81352419D01*
X70272929Y-81352419D02*
X70296738Y-81376228D01*
X70296738Y-81376228D02*
X70320548Y-81423847D01*
X70320548Y-81423847D02*
X70320548Y-81471466D01*
X70320548Y-81471466D02*
X70296738Y-81542895D01*
X70296738Y-81542895D02*
X70011024Y-81828609D01*
X70011024Y-81828609D02*
X70320548Y-81828609D01*
D12*
%TO.P,K2,1*%
%TO.N,/COM_V2*%
X80750000Y-103410000D03*
D13*
%TO.P,K2,2*%
%TO.N,Net-(D13-A)*%
X86800000Y-101460000D03*
D12*
%TO.P,K2,4*%
%TO.N,/Relay2_NC*%
X74750000Y-89210000D03*
D13*
%TO.P,K2,5*%
%TO.N,+24V*%
X74800000Y-101460000D03*
%TD*%
D14*
%TO.P,D11,1,K*%
%TO.N,/COL2*%
X147600000Y-101320000D03*
D15*
%TO.P,D11,2,A*%
%TO.N,Net-(D11-A)*%
X147600000Y-108940000D03*
%TD*%
D16*
%TO.P,J2,1,Pin_1*%
%TO.N,+24V*%
X63380000Y-107465000D03*
D17*
%TO.P,J2,2,Pin_2*%
%TO.N,/Relay1_NO*%
X63380000Y-110005000D03*
%TD*%
D18*
%TO.P,K1,1*%
%TO.N,Net-(D14-A)*%
X89750000Y-109225000D03*
%TO.P,K1,2*%
%TO.N,+24V*%
X89750000Y-116825000D03*
%TO.P,K1,3*%
X77050000Y-109225000D03*
%TO.P,K1,4*%
%TO.N,/Relay1_NO*%
X74510000Y-116825000D03*
%TD*%
D14*
%TO.P,D12,1,K*%
%TO.N,/COL2*%
X147600000Y-111310000D03*
D15*
%TO.P,D12,2,A*%
%TO.N,Net-(D12-A)*%
X147600000Y-118930000D03*
%TD*%
D19*
%TO.P,J1,1,Pin_1*%
%TO.N,/COM_V2*%
X66100000Y-97675000D03*
D20*
%TO.P,J1,2,Pin_2*%
%TO.N,/Relay2_NC*%
X66100000Y-92675000D03*
%TD*%
D14*
%TO.P,D6,1,K*%
%TO.N,/COL1*%
X135350000Y-91280000D03*
D15*
%TO.P,D6,2,A*%
%TO.N,Net-(D6-A)*%
X135350000Y-98900000D03*
%TD*%
D14*
%TO.P,D4,1,K*%
%TO.N,/COL0*%
X122600000Y-111310000D03*
D15*
%TO.P,D4,2,A*%
%TO.N,Net-(D4-A)*%
X122600000Y-118930000D03*
%TD*%
D14*
%TO.P,D3,1,K*%
%TO.N,/COL0*%
X122600000Y-101320000D03*
D15*
%TO.P,D3,2,A*%
%TO.N,Net-(D3-A)*%
X122600000Y-108940000D03*
%TD*%
D16*
%TO.P,J3,1,Pin_1*%
%TO.N,GND*%
X63380000Y-116870000D03*
D17*
%TO.P,J3,2,Pin_2*%
%TO.N,+24V*%
X63380000Y-114330000D03*
%TD*%
D14*
%TO.P,D5,1,K*%
%TO.N,/COL1*%
X135350000Y-81280000D03*
D15*
%TO.P,D5,2,A*%
%TO.N,Net-(D5-A)*%
X135350000Y-88900000D03*
%TD*%
D14*
%TO.P,D2,1,K*%
%TO.N,/COL0*%
X122600000Y-91280000D03*
D15*
%TO.P,D2,2,A*%
%TO.N,Net-(D2-A)*%
X122600000Y-98900000D03*
%TD*%
D14*
%TO.P,U4,1*%
%TO.N,Net-(R13-Pad2)*%
X107850000Y-113690000D03*
D15*
%TO.P,U4,2*%
%TO.N,GND*%
X107850000Y-111150000D03*
%TO.P,U4,3*%
%TO.N,Net-(R12-Pad2)*%
X107850000Y-108610000D03*
%TO.P,U4,4*%
%TO.N,GND*%
X107850000Y-106070000D03*
%TO.P,U4,5*%
%TO.N,Net-(R14-Pad1)*%
X100230000Y-106070000D03*
%TO.P,U4,6*%
%TO.N,+24V*%
X100230000Y-108610000D03*
%TO.P,U4,7*%
%TO.N,Net-(R15-Pad1)*%
X100230000Y-111150000D03*
%TO.P,U4,8*%
%TO.N,+24V*%
X100230000Y-113690000D03*
%TD*%
D14*
%TO.P,D8,1,K*%
%TO.N,/COL1*%
X135350000Y-111310000D03*
D15*
%TO.P,D8,2,A*%
%TO.N,Net-(D8-A)*%
X135350000Y-118930000D03*
%TD*%
D14*
%TO.P,D9,1,K*%
%TO.N,/COL2*%
X147600000Y-81280000D03*
D15*
%TO.P,D9,2,A*%
%TO.N,Net-(D9-A)*%
X147600000Y-88900000D03*
%TD*%
D14*
%TO.P,D7,1,K*%
%TO.N,/COL1*%
X135350000Y-101320000D03*
D15*
%TO.P,D7,2,A*%
%TO.N,Net-(D7-A)*%
X135350000Y-108940000D03*
%TD*%
D14*
%TO.P,D10,1,K*%
%TO.N,/COL2*%
X147600000Y-91280000D03*
D15*
%TO.P,D10,2,A*%
%TO.N,Net-(D10-A)*%
X147600000Y-98900000D03*
%TD*%
D14*
%TO.P,D1,1,K*%
%TO.N,/COL0*%
X122600000Y-81280000D03*
D15*
%TO.P,D1,2,A*%
%TO.N,Net-(D1-A)*%
X122600000Y-88900000D03*
%TD*%
D21*
%TO.P,RFID1,1,SDA*%
%TO.N,/I2C1_SDA*%
X187680000Y-89700000D03*
D22*
%TO.P,RFID1,2,SCK*%
%TO.N,/I2C1_SCL*%
X187680000Y-92240000D03*
%TO.P,RFID1,3,MOSI*%
%TO.N,unconnected-(RFID1-MOSI-Pad3)*%
X187680000Y-94780000D03*
%TO.P,RFID1,4,MISO*%
%TO.N,unconnected-(RFID1-MISO-Pad4)*%
X187680000Y-97320000D03*
%TO.P,RFID1,5,IRQ*%
%TO.N,unconnected-(RFID1-IRQ-Pad5)*%
X187680000Y-99860000D03*
%TO.P,RFID1,6,GND*%
%TO.N,GND*%
X187680000Y-102400000D03*
%TO.P,RFID1,7,RST*%
%TO.N,unconnected-(RFID1-RST-Pad7)*%
X187680000Y-104940000D03*
%TO.P,RFID1,8,3\u002C3V*%
%TO.N,VDD*%
X187680000Y-107480000D03*
%TD*%
D23*
%TO.N,GND*%
X142350000Y-110975000D03*
X155875000Y-95000000D03*
X107950000Y-94050000D03*
X181875000Y-102400000D03*
X164450000Y-90925000D03*
X105425000Y-91800000D03*
X102325000Y-95300000D03*
X91775000Y-91875000D03*
X94150000Y-107925000D03*
X109400000Y-106025000D03*
X117325000Y-110975000D03*
X168125000Y-87875000D03*
X109350000Y-112225000D03*
X155738750Y-105938750D03*
X177975000Y-108325000D03*
X157550000Y-88950000D03*
X63400000Y-119200000D03*
X130125000Y-111000000D03*
X174703130Y-98663716D03*
X179275000Y-117325000D03*
X171100000Y-87250000D03*
%TO.N,VDD*%
X104900000Y-98390000D03*
X171520000Y-81580000D03*
%TO.N,/I2C1_SCL*%
X177900000Y-86660000D03*
X181680000Y-86660000D03*
%TO.N,/I2C1_SDA*%
X177900000Y-85740000D03*
X181680000Y-85740000D03*
%TO.N,/COL1*%
X137100000Y-111290000D03*
%TO.N,/COL2*%
X149200000Y-111310000D03*
%TO.N,/V2_Close*%
X167389640Y-98473895D03*
X113150000Y-108390000D03*
%TO.N,/V1_Open*%
X112200000Y-112390000D03*
X166825500Y-97773288D03*
%TO.N,/USART1_Tx*%
X178398674Y-93463174D03*
X156450000Y-117190000D03*
%TO.N,/USART1_Rx*%
X157000000Y-119240000D03*
X178404029Y-92563687D03*
%TD*%
D24*
%TO.N,GND*%
X187680000Y-102400000D02*
X181875000Y-102400000D01*
D25*
%TO.N,VDD*%
X111300000Y-98390000D02*
X104900000Y-98390000D01*
X171520000Y-81580000D02*
X171520000Y-80760000D01*
X113100000Y-81800000D02*
X113100000Y-96590000D01*
X115560000Y-79340000D02*
X113100000Y-81800000D01*
X170100000Y-79340000D02*
X115560000Y-79340000D01*
X113100000Y-96590000D02*
X111300000Y-98390000D01*
X171520000Y-80760000D02*
X170100000Y-79340000D01*
D24*
%TO.N,/I2C1_SCL*%
X177900000Y-86660000D02*
X181680000Y-86660000D01*
%TO.N,/I2C1_SDA*%
X181680000Y-85740000D02*
X177900000Y-85740000D01*
%TO.N,/COL1*%
X137100000Y-103070000D02*
X135350000Y-101320000D01*
X137100000Y-93030000D02*
X135350000Y-91280000D01*
X137100000Y-111290000D02*
X137100000Y-103070000D01*
X137100000Y-103070000D02*
X137100000Y-93030000D01*
X137100000Y-93030000D02*
X137100000Y-83030000D01*
X137100000Y-83030000D02*
X135350000Y-81280000D01*
%TO.N,/COL2*%
X149300000Y-103020000D02*
X149150000Y-102870000D01*
X149300000Y-111210000D02*
X149300000Y-103020000D01*
X149150000Y-92830000D02*
X147600000Y-91280000D01*
X149150000Y-82830000D02*
X147600000Y-81280000D01*
X149150000Y-102870000D02*
X149150000Y-92830000D01*
X149200000Y-111310000D02*
X149300000Y-111210000D01*
X149150000Y-92830000D02*
X149150000Y-82830000D01*
X149150000Y-102870000D02*
X147600000Y-101320000D01*
%TO.N,/V2_Close*%
X113150000Y-108390000D02*
X113000000Y-108240000D01*
X111200000Y-110340000D02*
X113150000Y-108390000D01*
X167389640Y-98473895D02*
X166373535Y-99490000D01*
X152000000Y-102300000D02*
X152000000Y-110184974D01*
X166373535Y-99490000D02*
X154810000Y-99490000D01*
X111200000Y-113040000D02*
X111200000Y-110340000D01*
X111900000Y-113740000D02*
X111200000Y-113040000D01*
X152000000Y-110184974D02*
X148444974Y-113740000D01*
X154810000Y-99490000D02*
X152000000Y-102300000D01*
X148444974Y-113740000D02*
X111900000Y-113740000D01*
%TO.N,/V1_Open*%
X151650000Y-110040000D02*
X151650000Y-102155025D01*
X112200000Y-112790000D02*
X112800000Y-113390000D01*
X165458788Y-99140000D02*
X166825500Y-97773288D01*
X148300000Y-113390000D02*
X151650000Y-110040000D01*
X154665026Y-99140000D02*
X165458788Y-99140000D01*
X112200000Y-112390000D02*
X112200000Y-112790000D01*
X112800000Y-113390000D02*
X148300000Y-113390000D01*
X151650000Y-102155025D02*
X154665026Y-99140000D01*
%TO.N,/USART1_Tx*%
X156725000Y-116915000D02*
X156725000Y-101965000D01*
X178400000Y-93464500D02*
X178398674Y-93463174D01*
X156450000Y-117190000D02*
X156725000Y-116915000D01*
X178400000Y-97345026D02*
X178400000Y-93464500D01*
X174505026Y-101240000D02*
X178400000Y-97345026D01*
X157450000Y-101240000D02*
X174505026Y-101240000D01*
X156725000Y-101965000D02*
X157450000Y-101240000D01*
%TO.N,/USART1_Rx*%
X157075000Y-119165000D02*
X157000000Y-119240000D01*
X178404029Y-92563687D02*
X178423687Y-92563687D01*
X157075000Y-102115000D02*
X157075000Y-119165000D01*
X157600000Y-101590000D02*
X157075000Y-102115000D01*
X179050000Y-93190000D02*
X179050000Y-97190000D01*
X174650000Y-101590000D02*
X157600000Y-101590000D01*
X178423687Y-92563687D02*
X179050000Y-93190000D01*
X179050000Y-97190000D02*
X174650000Y-101590000D01*
%TD*%
%TA.AperFunction,Conductor*%
%TO.N,GND*%
G36*
X115162291Y-79009407D02*
G01*
X115198255Y-79058907D01*
X115198255Y-79120093D01*
X115174104Y-79159503D01*
X113931841Y-80401766D01*
X112794516Y-81539091D01*
X112794515Y-81539092D01*
X112771950Y-81561658D01*
X112771948Y-81561660D01*
X112760997Y-81583151D01*
X112752887Y-81596385D01*
X112738706Y-81615906D01*
X112738701Y-81615915D01*
X112731249Y-81638852D01*
X112725305Y-81653202D01*
X112714355Y-81674691D01*
X112714352Y-81674701D01*
X112710577Y-81698529D01*
X112706953Y-81713624D01*
X112699501Y-81736562D01*
X112699500Y-81736569D01*
X112699500Y-96383099D01*
X112680593Y-96441290D01*
X112670504Y-96453103D01*
X111163103Y-97960504D01*
X111108586Y-97988281D01*
X111093099Y-97989500D01*
X105357025Y-97989500D01*
X105298834Y-97970593D01*
X105296797Y-97969072D01*
X105190233Y-97887302D01*
X105050236Y-97829313D01*
X105050234Y-97829312D01*
X105050232Y-97829312D01*
X104900001Y-97809534D01*
X104899999Y-97809534D01*
X104749767Y-97829312D01*
X104749761Y-97829314D01*
X104609768Y-97887301D01*
X104489551Y-97979547D01*
X104489547Y-97979551D01*
X104397301Y-98099768D01*
X104339314Y-98239761D01*
X104339312Y-98239767D01*
X104319534Y-98389999D01*
X104319534Y-98390000D01*
X104339312Y-98540232D01*
X104339314Y-98540238D01*
X104383047Y-98645820D01*
X104397302Y-98680233D01*
X104489549Y-98800451D01*
X104609767Y-98892698D01*
X104749764Y-98950687D01*
X104862441Y-98965521D01*
X104899999Y-98970466D01*
X104900000Y-98970466D01*
X104900001Y-98970466D01*
X104930047Y-98966510D01*
X105050236Y-98950687D01*
X105172597Y-98900003D01*
X121594659Y-98900003D01*
X121613974Y-99096126D01*
X121613975Y-99096129D01*
X121671187Y-99284730D01*
X121671188Y-99284732D01*
X121672671Y-99287506D01*
X121764090Y-99458538D01*
X121764092Y-99458540D01*
X121764093Y-99458542D01*
X121889112Y-99610878D01*
X121889121Y-99610887D01*
X121982763Y-99687737D01*
X122041462Y-99735910D01*
X122215273Y-99828814D01*
X122403868Y-99886024D01*
X122403870Y-99886024D01*
X122403873Y-99886025D01*
X122599997Y-99905341D01*
X122600000Y-99905341D01*
X122600003Y-99905341D01*
X122796126Y-99886025D01*
X122796127Y-99886024D01*
X122796132Y-99886024D01*
X122984727Y-99828814D01*
X123158538Y-99735910D01*
X123310883Y-99610883D01*
X123435910Y-99458538D01*
X123528814Y-99284727D01*
X123586024Y-99096132D01*
X123590139Y-99054360D01*
X123605341Y-98900003D01*
X134344659Y-98900003D01*
X134363974Y-99096126D01*
X134363975Y-99096129D01*
X134421187Y-99284730D01*
X134421188Y-99284732D01*
X134422671Y-99287506D01*
X134514090Y-99458538D01*
X134514092Y-99458540D01*
X134514093Y-99458542D01*
X134639112Y-99610878D01*
X134639121Y-99610887D01*
X134732763Y-99687737D01*
X134791462Y-99735910D01*
X134965273Y-99828814D01*
X135153868Y-99886024D01*
X135153870Y-99886024D01*
X135153873Y-99886025D01*
X135349997Y-99905341D01*
X135350000Y-99905341D01*
X135350003Y-99905341D01*
X135546126Y-99886025D01*
X135546127Y-99886024D01*
X135546132Y-99886024D01*
X135734727Y-99828814D01*
X135908538Y-99735910D01*
X136060883Y-99610883D01*
X136185910Y-99458538D01*
X136278814Y-99284727D01*
X136336024Y-99096132D01*
X136340139Y-99054360D01*
X136355341Y-98900003D01*
X136355341Y-98899996D01*
X136336025Y-98703873D01*
X136336024Y-98703870D01*
X136336024Y-98703868D01*
X136278814Y-98515273D01*
X136185910Y-98341462D01*
X136181152Y-98335664D01*
X136060887Y-98189121D01*
X136060878Y-98189112D01*
X135908542Y-98064093D01*
X135908540Y-98064092D01*
X135908538Y-98064090D01*
X135867618Y-98042218D01*
X135734732Y-97971188D01*
X135734730Y-97971187D01*
X135546129Y-97913975D01*
X135546126Y-97913974D01*
X135350003Y-97894659D01*
X135349997Y-97894659D01*
X135153873Y-97913974D01*
X135153870Y-97913975D01*
X134965269Y-97971187D01*
X134965267Y-97971188D01*
X134791467Y-98064087D01*
X134791457Y-98064093D01*
X134639121Y-98189112D01*
X134639112Y-98189121D01*
X134514093Y-98341457D01*
X134514087Y-98341467D01*
X134421188Y-98515267D01*
X134421187Y-98515269D01*
X134363975Y-98703870D01*
X134363974Y-98703873D01*
X134344659Y-98899996D01*
X134344659Y-98900003D01*
X123605341Y-98900003D01*
X123605341Y-98899996D01*
X123586025Y-98703873D01*
X123586024Y-98703870D01*
X123586024Y-98703868D01*
X123528814Y-98515273D01*
X123435910Y-98341462D01*
X123431152Y-98335664D01*
X123310887Y-98189121D01*
X123310878Y-98189112D01*
X123158542Y-98064093D01*
X123158540Y-98064092D01*
X123158538Y-98064090D01*
X123117618Y-98042218D01*
X122984732Y-97971188D01*
X122984730Y-97971187D01*
X122796129Y-97913975D01*
X122796126Y-97913974D01*
X122600003Y-97894659D01*
X122599997Y-97894659D01*
X122403873Y-97913974D01*
X122403870Y-97913975D01*
X122215269Y-97971187D01*
X122215267Y-97971188D01*
X122041467Y-98064087D01*
X122041457Y-98064093D01*
X121889121Y-98189112D01*
X121889112Y-98189121D01*
X121764093Y-98341457D01*
X121764087Y-98341467D01*
X121671188Y-98515267D01*
X121671187Y-98515269D01*
X121613975Y-98703870D01*
X121613974Y-98703873D01*
X121594659Y-98899996D01*
X121594659Y-98900003D01*
X105172597Y-98900003D01*
X105190233Y-98892698D01*
X105296759Y-98810957D01*
X105354433Y-98790534D01*
X105357025Y-98790500D01*
X111363432Y-98790500D01*
X111363433Y-98790500D01*
X111386382Y-98783043D01*
X111401465Y-98779421D01*
X111425304Y-98775646D01*
X111446802Y-98764690D01*
X111461151Y-98758748D01*
X111484090Y-98751296D01*
X111503612Y-98737111D01*
X111516849Y-98729000D01*
X111538342Y-98718050D01*
X111555261Y-98701129D01*
X111555265Y-98701127D01*
X111560906Y-98695485D01*
X111560909Y-98695484D01*
X113405483Y-96850909D01*
X113428050Y-96828342D01*
X113439002Y-96806843D01*
X113447115Y-96793605D01*
X113461296Y-96774090D01*
X113468751Y-96751144D01*
X113474695Y-96736795D01*
X113485646Y-96715304D01*
X113489419Y-96691473D01*
X113493048Y-96676364D01*
X113500498Y-96653435D01*
X113500499Y-96653434D01*
X113500499Y-96623563D01*
X113500500Y-96623538D01*
X113500500Y-92099746D01*
X121599500Y-92099746D01*
X121599501Y-92099758D01*
X121611132Y-92158227D01*
X121611134Y-92158233D01*
X121655445Y-92224548D01*
X121655448Y-92224552D01*
X121721769Y-92268867D01*
X121766231Y-92277711D01*
X121780241Y-92280498D01*
X121780246Y-92280498D01*
X121780252Y-92280500D01*
X121780253Y-92280500D01*
X123419747Y-92280500D01*
X123419748Y-92280500D01*
X123478231Y-92268867D01*
X123544552Y-92224552D01*
X123588867Y-92158231D01*
X123600500Y-92099748D01*
X123600500Y-90460252D01*
X123588867Y-90401769D01*
X123544552Y-90335448D01*
X123544548Y-90335445D01*
X123478233Y-90291134D01*
X123478231Y-90291133D01*
X123478228Y-90291132D01*
X123478227Y-90291132D01*
X123419758Y-90279501D01*
X123419748Y-90279500D01*
X121780252Y-90279500D01*
X121780251Y-90279500D01*
X121780241Y-90279501D01*
X121721772Y-90291132D01*
X121721766Y-90291134D01*
X121655451Y-90335445D01*
X121655445Y-90335451D01*
X121611134Y-90401766D01*
X121611132Y-90401772D01*
X121599501Y-90460241D01*
X121599500Y-90460253D01*
X121599500Y-92099746D01*
X113500500Y-92099746D01*
X113500500Y-88900003D01*
X121594659Y-88900003D01*
X121613974Y-89096126D01*
X121613975Y-89096129D01*
X121671187Y-89284730D01*
X121671188Y-89284732D01*
X121742218Y-89417618D01*
X121764090Y-89458538D01*
X121764092Y-89458540D01*
X121764093Y-89458542D01*
X121889112Y-89610878D01*
X121889121Y-89610887D01*
X122013104Y-89712637D01*
X122041462Y-89735910D01*
X122215273Y-89828814D01*
X122403868Y-89886024D01*
X122403870Y-89886024D01*
X122403873Y-89886025D01*
X122599997Y-89905341D01*
X122600000Y-89905341D01*
X122600003Y-89905341D01*
X122796126Y-89886025D01*
X122796127Y-89886024D01*
X122796132Y-89886024D01*
X122984727Y-89828814D01*
X123158538Y-89735910D01*
X123310883Y-89610883D01*
X123435910Y-89458538D01*
X123528814Y-89284727D01*
X123586024Y-89096132D01*
X123605341Y-88900003D01*
X134344659Y-88900003D01*
X134363974Y-89096126D01*
X134363975Y-89096129D01*
X134421187Y-89284730D01*
X134421188Y-89284732D01*
X134492218Y-89417618D01*
X134514090Y-89458538D01*
X134514092Y-89458540D01*
X134514093Y-89458542D01*
X134639112Y-89610878D01*
X134639121Y-89610887D01*
X134763104Y-89712637D01*
X134791462Y-89735910D01*
X134965273Y-89828814D01*
X135153868Y-89886024D01*
X135153870Y-89886024D01*
X135153873Y-89886025D01*
X135349997Y-89905341D01*
X135350000Y-89905341D01*
X135350003Y-89905341D01*
X135546126Y-89886025D01*
X135546127Y-89886024D01*
X135546132Y-89886024D01*
X135734727Y-89828814D01*
X135908538Y-89735910D01*
X136060883Y-89610883D01*
X136185910Y-89458538D01*
X136278814Y-89284727D01*
X136336024Y-89096132D01*
X136355341Y-88900000D01*
X136350933Y-88855241D01*
X136336025Y-88703873D01*
X136336024Y-88703870D01*
X136336024Y-88703868D01*
X136278814Y-88515273D01*
X136185910Y-88341462D01*
X136185906Y-88341457D01*
X136060887Y-88189121D01*
X136060878Y-88189112D01*
X135908542Y-88064093D01*
X135908540Y-88064092D01*
X135908538Y-88064090D01*
X135867618Y-88042218D01*
X135734732Y-87971188D01*
X135734730Y-87971187D01*
X135546129Y-87913975D01*
X135546126Y-87913974D01*
X135350003Y-87894659D01*
X135349997Y-87894659D01*
X135153873Y-87913974D01*
X135153870Y-87913975D01*
X134965269Y-87971187D01*
X134965267Y-87971188D01*
X134791467Y-88064087D01*
X134791457Y-88064093D01*
X134639121Y-88189112D01*
X134639112Y-88189121D01*
X134514093Y-88341457D01*
X134514087Y-88341467D01*
X134421188Y-88515267D01*
X134421187Y-88515269D01*
X134363975Y-88703870D01*
X134363974Y-88703873D01*
X134344659Y-88899996D01*
X134344659Y-88900003D01*
X123605341Y-88900003D01*
X123605341Y-88900000D01*
X123600933Y-88855241D01*
X123586025Y-88703873D01*
X123586024Y-88703870D01*
X123586024Y-88703868D01*
X123528814Y-88515273D01*
X123435910Y-88341462D01*
X123435906Y-88341457D01*
X123310887Y-88189121D01*
X123310878Y-88189112D01*
X123158542Y-88064093D01*
X123158540Y-88064092D01*
X123158538Y-88064090D01*
X123117618Y-88042218D01*
X122984732Y-87971188D01*
X122984730Y-87971187D01*
X122796129Y-87913975D01*
X122796126Y-87913974D01*
X122600003Y-87894659D01*
X122599997Y-87894659D01*
X122403873Y-87913974D01*
X122403870Y-87913975D01*
X122215269Y-87971187D01*
X122215267Y-87971188D01*
X122041467Y-88064087D01*
X122041457Y-88064093D01*
X121889121Y-88189112D01*
X121889112Y-88189121D01*
X121764093Y-88341457D01*
X121764087Y-88341467D01*
X121671188Y-88515267D01*
X121671187Y-88515269D01*
X121613975Y-88703870D01*
X121613974Y-88703873D01*
X121594659Y-88899996D01*
X121594659Y-88900003D01*
X113500500Y-88900003D01*
X113500500Y-82099746D01*
X121599500Y-82099746D01*
X121599501Y-82099758D01*
X121607643Y-82140687D01*
X121611133Y-82158231D01*
X121655448Y-82224552D01*
X121721769Y-82268867D01*
X121766231Y-82277711D01*
X121780241Y-82280498D01*
X121780246Y-82280498D01*
X121780252Y-82280500D01*
X121780253Y-82280500D01*
X123419747Y-82280500D01*
X123419748Y-82280500D01*
X123478231Y-82268867D01*
X123544552Y-82224552D01*
X123588867Y-82158231D01*
X123600500Y-82099748D01*
X123600500Y-80460252D01*
X123588867Y-80401769D01*
X123544552Y-80335448D01*
X123544548Y-80335445D01*
X123478233Y-80291134D01*
X123478231Y-80291133D01*
X123478228Y-80291132D01*
X123478227Y-80291132D01*
X123419758Y-80279501D01*
X123419748Y-80279500D01*
X121780252Y-80279500D01*
X121780251Y-80279500D01*
X121780241Y-80279501D01*
X121721772Y-80291132D01*
X121721766Y-80291134D01*
X121655451Y-80335445D01*
X121655445Y-80335451D01*
X121611134Y-80401766D01*
X121611132Y-80401772D01*
X121599501Y-80460241D01*
X121599500Y-80460253D01*
X121599500Y-82099746D01*
X113500500Y-82099746D01*
X113500500Y-82006900D01*
X113519407Y-81948709D01*
X113529496Y-81936896D01*
X115696896Y-79769496D01*
X115751413Y-79741719D01*
X115766900Y-79740500D01*
X149423826Y-79740500D01*
X149482017Y-79759407D01*
X149517981Y-79808907D01*
X149522823Y-79840243D01*
X149502720Y-82519487D01*
X149483377Y-82577534D01*
X149433608Y-82613125D01*
X149372425Y-82612666D01*
X149333719Y-82588748D01*
X148629496Y-81884525D01*
X148601719Y-81830008D01*
X148600500Y-81814521D01*
X148600500Y-80460253D01*
X148600498Y-80460241D01*
X148594870Y-80431949D01*
X148588867Y-80401769D01*
X148544552Y-80335448D01*
X148544548Y-80335445D01*
X148478233Y-80291134D01*
X148478231Y-80291133D01*
X148478228Y-80291132D01*
X148478227Y-80291132D01*
X148419758Y-80279501D01*
X148419748Y-80279500D01*
X146780252Y-80279500D01*
X146780251Y-80279500D01*
X146780241Y-80279501D01*
X146721772Y-80291132D01*
X146721766Y-80291134D01*
X146655451Y-80335445D01*
X146655445Y-80335451D01*
X146611134Y-80401766D01*
X146611132Y-80401772D01*
X146599501Y-80460241D01*
X146599500Y-80460253D01*
X146599500Y-82099746D01*
X146599501Y-82099758D01*
X146607643Y-82140687D01*
X146611133Y-82158231D01*
X146655448Y-82224552D01*
X146721769Y-82268867D01*
X146766231Y-82277711D01*
X146780241Y-82280498D01*
X146780246Y-82280498D01*
X146780252Y-82280500D01*
X148134521Y-82280500D01*
X148192712Y-82299407D01*
X148204525Y-82309496D01*
X148820504Y-82925475D01*
X148848281Y-82979992D01*
X148849500Y-82995479D01*
X148849500Y-91865521D01*
X148830593Y-91923712D01*
X148781093Y-91959676D01*
X148719907Y-91959676D01*
X148680496Y-91935525D01*
X148629496Y-91884525D01*
X148601719Y-91830008D01*
X148600500Y-91814521D01*
X148600500Y-90460253D01*
X148600498Y-90460241D01*
X148597711Y-90446231D01*
X148588867Y-90401769D01*
X148544552Y-90335448D01*
X148544548Y-90335445D01*
X148478233Y-90291134D01*
X148478231Y-90291133D01*
X148478228Y-90291132D01*
X148478227Y-90291132D01*
X148419758Y-90279501D01*
X148419748Y-90279500D01*
X146780252Y-90279500D01*
X146780251Y-90279500D01*
X146780241Y-90279501D01*
X146721772Y-90291132D01*
X146721766Y-90291134D01*
X146655451Y-90335445D01*
X146655445Y-90335451D01*
X146611134Y-90401766D01*
X146611132Y-90401772D01*
X146599501Y-90460241D01*
X146599500Y-90460253D01*
X146599500Y-92099746D01*
X146599501Y-92099758D01*
X146611132Y-92158227D01*
X146611134Y-92158233D01*
X146655445Y-92224548D01*
X146655448Y-92224552D01*
X146721769Y-92268867D01*
X146766231Y-92277711D01*
X146780241Y-92280498D01*
X146780246Y-92280498D01*
X146780252Y-92280500D01*
X148134521Y-92280500D01*
X148192712Y-92299407D01*
X148204525Y-92309496D01*
X148820504Y-92925475D01*
X148848281Y-92979992D01*
X148849500Y-92995479D01*
X148849500Y-101905521D01*
X148830593Y-101963712D01*
X148781093Y-101999676D01*
X148719907Y-101999676D01*
X148680496Y-101975525D01*
X148629496Y-101924525D01*
X148601719Y-101870008D01*
X148600500Y-101854521D01*
X148600500Y-100500253D01*
X148600498Y-100500241D01*
X148592887Y-100461981D01*
X148588867Y-100441769D01*
X148544552Y-100375448D01*
X148544548Y-100375445D01*
X148478233Y-100331134D01*
X148478231Y-100331133D01*
X148478228Y-100331132D01*
X148478227Y-100331132D01*
X148419758Y-100319501D01*
X148419748Y-100319500D01*
X146780252Y-100319500D01*
X146780251Y-100319500D01*
X146780241Y-100319501D01*
X146721772Y-100331132D01*
X146721766Y-100331134D01*
X146655451Y-100375445D01*
X146655445Y-100375451D01*
X146611134Y-100441766D01*
X146611132Y-100441772D01*
X146599501Y-100500241D01*
X146599500Y-100500253D01*
X146599500Y-102139746D01*
X146599501Y-102139758D01*
X146611132Y-102198227D01*
X146611134Y-102198233D01*
X146645813Y-102250133D01*
X146655448Y-102264552D01*
X146721769Y-102308867D01*
X146766231Y-102317711D01*
X146780241Y-102320498D01*
X146780246Y-102320498D01*
X146780252Y-102320500D01*
X148134521Y-102320500D01*
X148192712Y-102339407D01*
X148204525Y-102349496D01*
X148904742Y-103049713D01*
X148918909Y-103067600D01*
X148924079Y-103075950D01*
X148924080Y-103075951D01*
X148924081Y-103075952D01*
X148937632Y-103086185D01*
X148949511Y-103095156D01*
X148954690Y-103099662D01*
X148970504Y-103115475D01*
X148998281Y-103169992D01*
X148999500Y-103185479D01*
X148999500Y-110703983D01*
X148980593Y-110762174D01*
X148938387Y-110795447D01*
X148909767Y-110807302D01*
X148789551Y-110899547D01*
X148789546Y-110899552D01*
X148778041Y-110914546D01*
X148727615Y-110949201D01*
X148666451Y-110947598D01*
X148617910Y-110910349D01*
X148600500Y-110854277D01*
X148600500Y-110490253D01*
X148600498Y-110490241D01*
X148595372Y-110464471D01*
X148588867Y-110431769D01*
X148544552Y-110365448D01*
X148537680Y-110360856D01*
X148478233Y-110321134D01*
X148478231Y-110321133D01*
X148478228Y-110321132D01*
X148478227Y-110321132D01*
X148419758Y-110309501D01*
X148419748Y-110309500D01*
X146780252Y-110309500D01*
X146780251Y-110309500D01*
X146780241Y-110309501D01*
X146721772Y-110321132D01*
X146721766Y-110321134D01*
X146655451Y-110365445D01*
X146655445Y-110365451D01*
X146611134Y-110431766D01*
X146611132Y-110431772D01*
X146599501Y-110490241D01*
X146599500Y-110490253D01*
X146599500Y-112129746D01*
X146599501Y-112129758D01*
X146611132Y-112188227D01*
X146611134Y-112188233D01*
X146655445Y-112254548D01*
X146655448Y-112254552D01*
X146721769Y-112298867D01*
X146766231Y-112307711D01*
X146780241Y-112310498D01*
X146780246Y-112310498D01*
X146780252Y-112310500D01*
X146780253Y-112310500D01*
X148419747Y-112310500D01*
X148419748Y-112310500D01*
X148478231Y-112298867D01*
X148544552Y-112254552D01*
X148588867Y-112188231D01*
X148600500Y-112129748D01*
X148600500Y-111765722D01*
X148619407Y-111707531D01*
X148668907Y-111671567D01*
X148730093Y-111671567D01*
X148778042Y-111705455D01*
X148789549Y-111720451D01*
X148909767Y-111812698D01*
X149049764Y-111870687D01*
X149155218Y-111884570D01*
X149210443Y-111910911D01*
X149239638Y-111964682D01*
X149231652Y-112025343D01*
X149212300Y-112052727D01*
X148204525Y-113060504D01*
X148150008Y-113088281D01*
X148134521Y-113089500D01*
X112965479Y-113089500D01*
X112907288Y-113070593D01*
X112895475Y-113060504D01*
X112682684Y-112847713D01*
X112654907Y-112793196D01*
X112664478Y-112732764D01*
X112674147Y-112717440D01*
X112702698Y-112680233D01*
X112760687Y-112540236D01*
X112780466Y-112390000D01*
X112760687Y-112239764D01*
X112715116Y-112129746D01*
X121599500Y-112129746D01*
X121599501Y-112129758D01*
X121611132Y-112188227D01*
X121611134Y-112188233D01*
X121655445Y-112254548D01*
X121655448Y-112254552D01*
X121721769Y-112298867D01*
X121766231Y-112307711D01*
X121780241Y-112310498D01*
X121780246Y-112310498D01*
X121780252Y-112310500D01*
X121780253Y-112310500D01*
X123419747Y-112310500D01*
X123419748Y-112310500D01*
X123478231Y-112298867D01*
X123544552Y-112254552D01*
X123588867Y-112188231D01*
X123600500Y-112129748D01*
X123600500Y-112129746D01*
X134349500Y-112129746D01*
X134349501Y-112129758D01*
X134361132Y-112188227D01*
X134361134Y-112188233D01*
X134405445Y-112254548D01*
X134405448Y-112254552D01*
X134471769Y-112298867D01*
X134516231Y-112307711D01*
X134530241Y-112310498D01*
X134530246Y-112310498D01*
X134530252Y-112310500D01*
X134530253Y-112310500D01*
X136169747Y-112310500D01*
X136169748Y-112310500D01*
X136228231Y-112298867D01*
X136294552Y-112254552D01*
X136338867Y-112188231D01*
X136350500Y-112129748D01*
X136350500Y-111482107D01*
X136369407Y-111423916D01*
X136418907Y-111387952D01*
X136480093Y-111387952D01*
X136529593Y-111423916D01*
X136540962Y-111444218D01*
X136597302Y-111580233D01*
X136689549Y-111700451D01*
X136809767Y-111792698D01*
X136949764Y-111850687D01*
X137062441Y-111865521D01*
X137099999Y-111870466D01*
X137100000Y-111870466D01*
X137100001Y-111870466D01*
X137130047Y-111866510D01*
X137250236Y-111850687D01*
X137390233Y-111792698D01*
X137510451Y-111700451D01*
X137602698Y-111580233D01*
X137660687Y-111440236D01*
X137680466Y-111290000D01*
X137660687Y-111139764D01*
X137602698Y-110999767D01*
X137510451Y-110879549D01*
X137510446Y-110879545D01*
X137510444Y-110879543D01*
X137439232Y-110824899D01*
X137404577Y-110774474D01*
X137400500Y-110746358D01*
X137400500Y-108940003D01*
X146594659Y-108940003D01*
X146613974Y-109136126D01*
X146613975Y-109136129D01*
X146671187Y-109324730D01*
X146671188Y-109324732D01*
X146699320Y-109377362D01*
X146764090Y-109498538D01*
X146764092Y-109498540D01*
X146764093Y-109498542D01*
X146889112Y-109650878D01*
X146889121Y-109650887D01*
X147041457Y-109775906D01*
X147041462Y-109775910D01*
X147215273Y-109868814D01*
X147403868Y-109926024D01*
X147403870Y-109926024D01*
X147403873Y-109926025D01*
X147599997Y-109945341D01*
X147600000Y-109945341D01*
X147600003Y-109945341D01*
X147796126Y-109926025D01*
X147796127Y-109926024D01*
X147796132Y-109926024D01*
X147984727Y-109868814D01*
X148158538Y-109775910D01*
X148310883Y-109650883D01*
X148435910Y-109498538D01*
X148528814Y-109324727D01*
X148586024Y-109136132D01*
X148595158Y-109043398D01*
X148605341Y-108940003D01*
X148605341Y-108939996D01*
X148586025Y-108743873D01*
X148586024Y-108743870D01*
X148586024Y-108743868D01*
X148528814Y-108555273D01*
X148520774Y-108540232D01*
X148462935Y-108432023D01*
X148435910Y-108381462D01*
X148435906Y-108381457D01*
X148310887Y-108229121D01*
X148310878Y-108229112D01*
X148158542Y-108104093D01*
X148158540Y-108104092D01*
X148158538Y-108104090D01*
X148062009Y-108052494D01*
X147984732Y-108011188D01*
X147984730Y-108011187D01*
X147796129Y-107953975D01*
X147796126Y-107953974D01*
X147600003Y-107934659D01*
X147599997Y-107934659D01*
X147403873Y-107953974D01*
X147403870Y-107953975D01*
X147215269Y-108011187D01*
X147215267Y-108011188D01*
X147041467Y-108104087D01*
X147041457Y-108104093D01*
X146889121Y-108229112D01*
X146889112Y-108229121D01*
X146764093Y-108381457D01*
X146764087Y-108381467D01*
X146671188Y-108555267D01*
X146671187Y-108555269D01*
X146613975Y-108743870D01*
X146613974Y-108743873D01*
X146594659Y-108939996D01*
X146594659Y-108940003D01*
X137400500Y-108940003D01*
X137400500Y-103135169D01*
X137402731Y-103121496D01*
X137401505Y-103121325D01*
X137402773Y-103112233D01*
X137400775Y-103069016D01*
X137400552Y-103064208D01*
X137400500Y-103061929D01*
X137400500Y-98900003D01*
X146594659Y-98900003D01*
X146613974Y-99096126D01*
X146613975Y-99096129D01*
X146671187Y-99284730D01*
X146671188Y-99284732D01*
X146672671Y-99287506D01*
X146764090Y-99458538D01*
X146764092Y-99458540D01*
X146764093Y-99458542D01*
X146889112Y-99610878D01*
X146889121Y-99610887D01*
X146982763Y-99687737D01*
X147041462Y-99735910D01*
X147215273Y-99828814D01*
X147403868Y-99886024D01*
X147403870Y-99886024D01*
X147403873Y-99886025D01*
X147599997Y-99905341D01*
X147600000Y-99905341D01*
X147600003Y-99905341D01*
X147796126Y-99886025D01*
X147796127Y-99886024D01*
X147796132Y-99886024D01*
X147984727Y-99828814D01*
X148158538Y-99735910D01*
X148310883Y-99610883D01*
X148435910Y-99458538D01*
X148528814Y-99284727D01*
X148586024Y-99096132D01*
X148590139Y-99054360D01*
X148605341Y-98900003D01*
X148605341Y-98899996D01*
X148586025Y-98703873D01*
X148586024Y-98703870D01*
X148586024Y-98703868D01*
X148528814Y-98515273D01*
X148435910Y-98341462D01*
X148431152Y-98335664D01*
X148310887Y-98189121D01*
X148310878Y-98189112D01*
X148158542Y-98064093D01*
X148158540Y-98064092D01*
X148158538Y-98064090D01*
X148117618Y-98042218D01*
X147984732Y-97971188D01*
X147984730Y-97971187D01*
X147796129Y-97913975D01*
X147796126Y-97913974D01*
X147600003Y-97894659D01*
X147599997Y-97894659D01*
X147403873Y-97913974D01*
X147403870Y-97913975D01*
X147215269Y-97971187D01*
X147215267Y-97971188D01*
X147041467Y-98064087D01*
X147041457Y-98064093D01*
X146889121Y-98189112D01*
X146889112Y-98189121D01*
X146764093Y-98341457D01*
X146764087Y-98341467D01*
X146671188Y-98515267D01*
X146671187Y-98515269D01*
X146613975Y-98703870D01*
X146613974Y-98703873D01*
X146594659Y-98899996D01*
X146594659Y-98900003D01*
X137400500Y-98900003D01*
X137400500Y-93095169D01*
X137402731Y-93081496D01*
X137401505Y-93081325D01*
X137402773Y-93072233D01*
X137400553Y-93024216D01*
X137400500Y-93021929D01*
X137400500Y-88900003D01*
X146594659Y-88900003D01*
X146613974Y-89096126D01*
X146613975Y-89096129D01*
X146671187Y-89284730D01*
X146671188Y-89284732D01*
X146742218Y-89417618D01*
X146764090Y-89458538D01*
X146764092Y-89458540D01*
X146764093Y-89458542D01*
X146889112Y-89610878D01*
X146889121Y-89610887D01*
X147013104Y-89712637D01*
X147041462Y-89735910D01*
X147215273Y-89828814D01*
X147403868Y-89886024D01*
X147403870Y-89886024D01*
X147403873Y-89886025D01*
X147599997Y-89905341D01*
X147600000Y-89905341D01*
X147600003Y-89905341D01*
X147796126Y-89886025D01*
X147796127Y-89886024D01*
X147796132Y-89886024D01*
X147984727Y-89828814D01*
X148158538Y-89735910D01*
X148310883Y-89610883D01*
X148435910Y-89458538D01*
X148528814Y-89284727D01*
X148586024Y-89096132D01*
X148605341Y-88900000D01*
X148600933Y-88855241D01*
X148586025Y-88703873D01*
X148586024Y-88703870D01*
X148586024Y-88703868D01*
X148528814Y-88515273D01*
X148435910Y-88341462D01*
X148435906Y-88341457D01*
X148310887Y-88189121D01*
X148310878Y-88189112D01*
X148158542Y-88064093D01*
X148158540Y-88064092D01*
X148158538Y-88064090D01*
X148117618Y-88042218D01*
X147984732Y-87971188D01*
X147984730Y-87971187D01*
X147796129Y-87913975D01*
X147796126Y-87913974D01*
X147600003Y-87894659D01*
X147599997Y-87894659D01*
X147403873Y-87913974D01*
X147403870Y-87913975D01*
X147215269Y-87971187D01*
X147215267Y-87971188D01*
X147041467Y-88064087D01*
X147041457Y-88064093D01*
X146889121Y-88189112D01*
X146889112Y-88189121D01*
X146764093Y-88341457D01*
X146764087Y-88341467D01*
X146671188Y-88515267D01*
X146671187Y-88515269D01*
X146613975Y-88703870D01*
X146613974Y-88703873D01*
X146594659Y-88899996D01*
X146594659Y-88900003D01*
X137400500Y-88900003D01*
X137400500Y-83095169D01*
X137402731Y-83081496D01*
X137401505Y-83081325D01*
X137402773Y-83072233D01*
X137400553Y-83024216D01*
X137400500Y-83021929D01*
X137400500Y-83002160D01*
X137400500Y-83002156D01*
X137399846Y-82998664D01*
X137399056Y-82991859D01*
X137397585Y-82960009D01*
X137393613Y-82951014D01*
X137386865Y-82929220D01*
X137386165Y-82925475D01*
X137385061Y-82919567D01*
X137368278Y-82892462D01*
X137365085Y-82886406D01*
X137356090Y-82866031D01*
X137352207Y-82857236D01*
X137345257Y-82850286D01*
X137331088Y-82832396D01*
X137325920Y-82824049D01*
X137325919Y-82824048D01*
X137300483Y-82804839D01*
X137295306Y-82800334D01*
X136379496Y-81884525D01*
X136351719Y-81830008D01*
X136350500Y-81814521D01*
X136350500Y-80460253D01*
X136350498Y-80460241D01*
X136344870Y-80431949D01*
X136338867Y-80401769D01*
X136294552Y-80335448D01*
X136294548Y-80335445D01*
X136228233Y-80291134D01*
X136228231Y-80291133D01*
X136228228Y-80291132D01*
X136228227Y-80291132D01*
X136169758Y-80279501D01*
X136169748Y-80279500D01*
X134530252Y-80279500D01*
X134530251Y-80279500D01*
X134530241Y-80279501D01*
X134471772Y-80291132D01*
X134471766Y-80291134D01*
X134405451Y-80335445D01*
X134405445Y-80335451D01*
X134361134Y-80401766D01*
X134361132Y-80401772D01*
X134349501Y-80460241D01*
X134349500Y-80460253D01*
X134349500Y-82099746D01*
X134349501Y-82099758D01*
X134357643Y-82140687D01*
X134361133Y-82158231D01*
X134405448Y-82224552D01*
X134471769Y-82268867D01*
X134516231Y-82277711D01*
X134530241Y-82280498D01*
X134530246Y-82280498D01*
X134530252Y-82280500D01*
X135884521Y-82280500D01*
X135942712Y-82299407D01*
X135954525Y-82309496D01*
X136770504Y-83125475D01*
X136798281Y-83179992D01*
X136799500Y-83195479D01*
X136799500Y-92065521D01*
X136780593Y-92123712D01*
X136731093Y-92159676D01*
X136669907Y-92159676D01*
X136630496Y-92135525D01*
X136379496Y-91884525D01*
X136351719Y-91830008D01*
X136350500Y-91814521D01*
X136350500Y-90460253D01*
X136350498Y-90460241D01*
X136347711Y-90446231D01*
X136338867Y-90401769D01*
X136294552Y-90335448D01*
X136294548Y-90335445D01*
X136228233Y-90291134D01*
X136228231Y-90291133D01*
X136228228Y-90291132D01*
X136228227Y-90291132D01*
X136169758Y-90279501D01*
X136169748Y-90279500D01*
X134530252Y-90279500D01*
X134530251Y-90279500D01*
X134530241Y-90279501D01*
X134471772Y-90291132D01*
X134471766Y-90291134D01*
X134405451Y-90335445D01*
X134405445Y-90335451D01*
X134361134Y-90401766D01*
X134361132Y-90401772D01*
X134349501Y-90460241D01*
X134349500Y-90460253D01*
X134349500Y-92099746D01*
X134349501Y-92099758D01*
X134361132Y-92158227D01*
X134361134Y-92158233D01*
X134405445Y-92224548D01*
X134405448Y-92224552D01*
X134471769Y-92268867D01*
X134516231Y-92277711D01*
X134530241Y-92280498D01*
X134530246Y-92280498D01*
X134530252Y-92280500D01*
X135884521Y-92280500D01*
X135942712Y-92299407D01*
X135954525Y-92309496D01*
X136770504Y-93125475D01*
X136798281Y-93179992D01*
X136799500Y-93195479D01*
X136799500Y-102105521D01*
X136780593Y-102163712D01*
X136731093Y-102199676D01*
X136669907Y-102199676D01*
X136630496Y-102175525D01*
X136379496Y-101924525D01*
X136351719Y-101870008D01*
X136350500Y-101854521D01*
X136350500Y-100500253D01*
X136350498Y-100500241D01*
X136342887Y-100461981D01*
X136338867Y-100441769D01*
X136294552Y-100375448D01*
X136294548Y-100375445D01*
X136228233Y-100331134D01*
X136228231Y-100331133D01*
X136228228Y-100331132D01*
X136228227Y-100331132D01*
X136169758Y-100319501D01*
X136169748Y-100319500D01*
X134530252Y-100319500D01*
X134530251Y-100319500D01*
X134530241Y-100319501D01*
X134471772Y-100331132D01*
X134471766Y-100331134D01*
X134405451Y-100375445D01*
X134405445Y-100375451D01*
X134361134Y-100441766D01*
X134361132Y-100441772D01*
X134349501Y-100500241D01*
X134349500Y-100500253D01*
X134349500Y-102139746D01*
X134349501Y-102139758D01*
X134361132Y-102198227D01*
X134361134Y-102198233D01*
X134395813Y-102250133D01*
X134405448Y-102264552D01*
X134471769Y-102308867D01*
X134516231Y-102317711D01*
X134530241Y-102320498D01*
X134530246Y-102320498D01*
X134530252Y-102320500D01*
X135884521Y-102320500D01*
X135942712Y-102339407D01*
X135954525Y-102349496D01*
X136770504Y-103165475D01*
X136798281Y-103219992D01*
X136799500Y-103235479D01*
X136799500Y-110746358D01*
X136780593Y-110804549D01*
X136760768Y-110824899D01*
X136689555Y-110879543D01*
X136689547Y-110879551D01*
X136597301Y-110999768D01*
X136540964Y-111135778D01*
X136501227Y-111182303D01*
X136441732Y-111196587D01*
X136385205Y-111173172D01*
X136353235Y-111121003D01*
X136350500Y-111097892D01*
X136350500Y-110490253D01*
X136350498Y-110490241D01*
X136345372Y-110464471D01*
X136338867Y-110431769D01*
X136294552Y-110365448D01*
X136287680Y-110360856D01*
X136228233Y-110321134D01*
X136228231Y-110321133D01*
X136228228Y-110321132D01*
X136228227Y-110321132D01*
X136169758Y-110309501D01*
X136169748Y-110309500D01*
X134530252Y-110309500D01*
X134530251Y-110309500D01*
X134530241Y-110309501D01*
X134471772Y-110321132D01*
X134471766Y-110321134D01*
X134405451Y-110365445D01*
X134405445Y-110365451D01*
X134361134Y-110431766D01*
X134361132Y-110431772D01*
X134349501Y-110490241D01*
X134349500Y-110490253D01*
X134349500Y-112129746D01*
X123600500Y-112129746D01*
X123600500Y-110490252D01*
X123588867Y-110431769D01*
X123544552Y-110365448D01*
X123537680Y-110360856D01*
X123478233Y-110321134D01*
X123478231Y-110321133D01*
X123478228Y-110321132D01*
X123478227Y-110321132D01*
X123419758Y-110309501D01*
X123419748Y-110309500D01*
X121780252Y-110309500D01*
X121780251Y-110309500D01*
X121780241Y-110309501D01*
X121721772Y-110321132D01*
X121721766Y-110321134D01*
X121655451Y-110365445D01*
X121655445Y-110365451D01*
X121611134Y-110431766D01*
X121611132Y-110431772D01*
X121599501Y-110490241D01*
X121599500Y-110490253D01*
X121599500Y-112129746D01*
X112715116Y-112129746D01*
X112702698Y-112099767D01*
X112610451Y-111979549D01*
X112490233Y-111887302D01*
X112483637Y-111884570D01*
X112350238Y-111829314D01*
X112350240Y-111829314D01*
X112350236Y-111829313D01*
X112350234Y-111829312D01*
X112350232Y-111829312D01*
X112200001Y-111809534D01*
X112199999Y-111809534D01*
X112049767Y-111829312D01*
X112049761Y-111829314D01*
X111909768Y-111887301D01*
X111789551Y-111979547D01*
X111789547Y-111979551D01*
X111697301Y-112099767D01*
X111690964Y-112115068D01*
X111651226Y-112161593D01*
X111591731Y-112175876D01*
X111535204Y-112152460D01*
X111503235Y-112100291D01*
X111500500Y-112077181D01*
X111500500Y-110505478D01*
X111519407Y-110447287D01*
X111529490Y-110435480D01*
X112978074Y-108986895D01*
X113032589Y-108959120D01*
X113060994Y-108958748D01*
X113150000Y-108970466D01*
X113300236Y-108950687D01*
X113326029Y-108940003D01*
X121594659Y-108940003D01*
X121613974Y-109136126D01*
X121613975Y-109136129D01*
X121671187Y-109324730D01*
X121671188Y-109324732D01*
X121699320Y-109377362D01*
X121764090Y-109498538D01*
X121764092Y-109498540D01*
X121764093Y-109498542D01*
X121889112Y-109650878D01*
X121889121Y-109650887D01*
X122041457Y-109775906D01*
X122041462Y-109775910D01*
X122215273Y-109868814D01*
X122403868Y-109926024D01*
X122403870Y-109926024D01*
X122403873Y-109926025D01*
X122599997Y-109945341D01*
X122600000Y-109945341D01*
X122600003Y-109945341D01*
X122796126Y-109926025D01*
X122796127Y-109926024D01*
X122796132Y-109926024D01*
X122984727Y-109868814D01*
X123158538Y-109775910D01*
X123310883Y-109650883D01*
X123435910Y-109498538D01*
X123528814Y-109324727D01*
X123586024Y-109136132D01*
X123595158Y-109043398D01*
X123605341Y-108940003D01*
X134344659Y-108940003D01*
X134363974Y-109136126D01*
X134363975Y-109136129D01*
X134421187Y-109324730D01*
X134421188Y-109324732D01*
X134449320Y-109377362D01*
X134514090Y-109498538D01*
X134514092Y-109498540D01*
X134514093Y-109498542D01*
X134639112Y-109650878D01*
X134639121Y-109650887D01*
X134791457Y-109775906D01*
X134791462Y-109775910D01*
X134965273Y-109868814D01*
X135153868Y-109926024D01*
X135153870Y-109926024D01*
X135153873Y-109926025D01*
X135349997Y-109945341D01*
X135350000Y-109945341D01*
X135350003Y-109945341D01*
X135546126Y-109926025D01*
X135546127Y-109926024D01*
X135546132Y-109926024D01*
X135734727Y-109868814D01*
X135908538Y-109775910D01*
X136060883Y-109650883D01*
X136185910Y-109498538D01*
X136278814Y-109324727D01*
X136336024Y-109136132D01*
X136345158Y-109043398D01*
X136355341Y-108940003D01*
X136355341Y-108939996D01*
X136336025Y-108743873D01*
X136336024Y-108743870D01*
X136336024Y-108743868D01*
X136278814Y-108555273D01*
X136270774Y-108540232D01*
X136212935Y-108432023D01*
X136185910Y-108381462D01*
X136185906Y-108381457D01*
X136060887Y-108229121D01*
X136060878Y-108229112D01*
X135908542Y-108104093D01*
X135908540Y-108104092D01*
X135908538Y-108104090D01*
X135812009Y-108052494D01*
X135734732Y-108011188D01*
X135734730Y-108011187D01*
X135546129Y-107953975D01*
X135546126Y-107953974D01*
X135350003Y-107934659D01*
X135349997Y-107934659D01*
X135153873Y-107953974D01*
X135153870Y-107953975D01*
X134965269Y-108011187D01*
X134965267Y-108011188D01*
X134791467Y-108104087D01*
X134791457Y-108104093D01*
X134639121Y-108229112D01*
X134639112Y-108229121D01*
X134514093Y-108381457D01*
X134514087Y-108381467D01*
X134421188Y-108555267D01*
X134421187Y-108555269D01*
X134363975Y-108743870D01*
X134363974Y-108743873D01*
X134344659Y-108939996D01*
X134344659Y-108940003D01*
X123605341Y-108940003D01*
X123605341Y-108939996D01*
X123586025Y-108743873D01*
X123586024Y-108743870D01*
X123586024Y-108743868D01*
X123528814Y-108555273D01*
X123520774Y-108540232D01*
X123462935Y-108432023D01*
X123435910Y-108381462D01*
X123435906Y-108381457D01*
X123310887Y-108229121D01*
X123310878Y-108229112D01*
X123158542Y-108104093D01*
X123158540Y-108104092D01*
X123158538Y-108104090D01*
X123062009Y-108052494D01*
X122984732Y-108011188D01*
X122984730Y-108011187D01*
X122796129Y-107953975D01*
X122796126Y-107953974D01*
X122600003Y-107934659D01*
X122599997Y-107934659D01*
X122403873Y-107953974D01*
X122403870Y-107953975D01*
X122215269Y-108011187D01*
X122215267Y-108011188D01*
X122041467Y-108104087D01*
X122041457Y-108104093D01*
X121889121Y-108229112D01*
X121889112Y-108229121D01*
X121764093Y-108381457D01*
X121764087Y-108381467D01*
X121671188Y-108555267D01*
X121671187Y-108555269D01*
X121613975Y-108743870D01*
X121613974Y-108743873D01*
X121594659Y-108939996D01*
X121594659Y-108940003D01*
X113326029Y-108940003D01*
X113440233Y-108892698D01*
X113560451Y-108800451D01*
X113652698Y-108680233D01*
X113710687Y-108540236D01*
X113730466Y-108390000D01*
X113710687Y-108239764D01*
X113652698Y-108099767D01*
X113560451Y-107979549D01*
X113440233Y-107887302D01*
X113300236Y-107829313D01*
X113300234Y-107829312D01*
X113300232Y-107829312D01*
X113150001Y-107809534D01*
X113149999Y-107809534D01*
X112999767Y-107829312D01*
X112999761Y-107829314D01*
X112859768Y-107887301D01*
X112739551Y-107979547D01*
X112739547Y-107979551D01*
X112647301Y-108099768D01*
X112589314Y-108239761D01*
X112589312Y-108239767D01*
X112569534Y-108389999D01*
X112569534Y-108390001D01*
X112581250Y-108479000D01*
X112570099Y-108539161D01*
X112553101Y-108561925D01*
X111033590Y-110081437D01*
X111022361Y-110089550D01*
X111023090Y-110090515D01*
X111015771Y-110096041D01*
X110983372Y-110131580D01*
X110981796Y-110133231D01*
X110967830Y-110147198D01*
X110967817Y-110147213D01*
X110965813Y-110150138D01*
X110961561Y-110155504D01*
X110940084Y-110179065D01*
X110940083Y-110179067D01*
X110936529Y-110188240D01*
X110925896Y-110208412D01*
X110920346Y-110216515D01*
X110920342Y-110216524D01*
X110913045Y-110247545D01*
X110911016Y-110254098D01*
X110899500Y-110283824D01*
X110899500Y-110293651D01*
X110896870Y-110316318D01*
X110894621Y-110325879D01*
X110899025Y-110357452D01*
X110899500Y-110364298D01*
X110899500Y-112974835D01*
X110897280Y-112988513D01*
X110898494Y-112988683D01*
X110897226Y-112997766D01*
X110899447Y-113045783D01*
X110899500Y-113048069D01*
X110899500Y-113067842D01*
X110900152Y-113071332D01*
X110900943Y-113078149D01*
X110902414Y-113109987D01*
X110902415Y-113109994D01*
X110906384Y-113118982D01*
X110913133Y-113140773D01*
X110914939Y-113150433D01*
X110931717Y-113177533D01*
X110934915Y-113183600D01*
X110947793Y-113212763D01*
X110947794Y-113212765D01*
X110954745Y-113219716D01*
X110968907Y-113237596D01*
X110972190Y-113242898D01*
X110974081Y-113245952D01*
X110999511Y-113265156D01*
X111004690Y-113269662D01*
X111641436Y-113906407D01*
X111649537Y-113917647D01*
X111650516Y-113916909D01*
X111656044Y-113924230D01*
X111691569Y-113956616D01*
X111693223Y-113958195D01*
X111700947Y-113965918D01*
X111707203Y-113972174D01*
X111710128Y-113974178D01*
X111715505Y-113978437D01*
X111739064Y-113999914D01*
X111739065Y-113999914D01*
X111739067Y-113999916D01*
X111748230Y-114003466D01*
X111768416Y-114014105D01*
X111776519Y-114019656D01*
X111807553Y-114026955D01*
X111814090Y-114028979D01*
X111843827Y-114040500D01*
X111853652Y-114040500D01*
X111876316Y-114043129D01*
X111885881Y-114045379D01*
X111913645Y-114041506D01*
X111917453Y-114040975D01*
X111924299Y-114040500D01*
X148379810Y-114040500D01*
X148393485Y-114042732D01*
X148393657Y-114041506D01*
X148402738Y-114042772D01*
X148402739Y-114042773D01*
X148402739Y-114042772D01*
X148402740Y-114042773D01*
X148411481Y-114042368D01*
X148450767Y-114040552D01*
X148453044Y-114040500D01*
X148472815Y-114040500D01*
X148472818Y-114040500D01*
X148476311Y-114039846D01*
X148483115Y-114039056D01*
X148514966Y-114037585D01*
X148523950Y-114033617D01*
X148545751Y-114026865D01*
X148555407Y-114025061D01*
X148582517Y-114008274D01*
X148588563Y-114005088D01*
X148617739Y-113992206D01*
X148624683Y-113985260D01*
X148642575Y-113971089D01*
X148650926Y-113965919D01*
X148670139Y-113940474D01*
X148674636Y-113935308D01*
X149116076Y-113493868D01*
X149586456Y-113023487D01*
X149640971Y-112995712D01*
X149701403Y-113005283D01*
X149744668Y-113048548D01*
X149755457Y-113093914D01*
X149747828Y-114887119D01*
X149747828Y-114887120D01*
X152697828Y-114862120D01*
X152743294Y-102022331D01*
X152762407Y-101964210D01*
X152772282Y-101952687D01*
X154905475Y-99819496D01*
X154959992Y-99791719D01*
X154975479Y-99790500D01*
X166308371Y-99790500D01*
X166322046Y-99792732D01*
X166322218Y-99791506D01*
X166331299Y-99792772D01*
X166331300Y-99792773D01*
X166331300Y-99792772D01*
X166331301Y-99792773D01*
X166340042Y-99792368D01*
X166379328Y-99790552D01*
X166381605Y-99790500D01*
X166401376Y-99790500D01*
X166401379Y-99790500D01*
X166404872Y-99789846D01*
X166411676Y-99789056D01*
X166443527Y-99787585D01*
X166452511Y-99783617D01*
X166474312Y-99776865D01*
X166483968Y-99775061D01*
X166511078Y-99758274D01*
X166517124Y-99755088D01*
X166546300Y-99742206D01*
X166553244Y-99735260D01*
X166571136Y-99721089D01*
X166579487Y-99715919D01*
X166598700Y-99690474D01*
X166603197Y-99685308D01*
X166829973Y-99458532D01*
X167217714Y-99070790D01*
X167272229Y-99043015D01*
X167300634Y-99042643D01*
X167389640Y-99054361D01*
X167539876Y-99034582D01*
X167679873Y-98976593D01*
X167800091Y-98884346D01*
X167892338Y-98764128D01*
X167950327Y-98624131D01*
X167970106Y-98473895D01*
X167950327Y-98323659D01*
X167892338Y-98183662D01*
X167800091Y-98063444D01*
X167679873Y-97971197D01*
X167679851Y-97971188D01*
X167617142Y-97945213D01*
X167539876Y-97913208D01*
X167520774Y-97910693D01*
X167488291Y-97906416D01*
X167433067Y-97880074D01*
X167403872Y-97826303D01*
X167403062Y-97795344D01*
X167405966Y-97773288D01*
X167386187Y-97623052D01*
X167328198Y-97483055D01*
X167235951Y-97362837D01*
X167115733Y-97270590D01*
X167056785Y-97246173D01*
X167005336Y-97224862D01*
X166975736Y-97212601D01*
X166975734Y-97212600D01*
X166975732Y-97212600D01*
X166825501Y-97192822D01*
X166825499Y-97192822D01*
X166675267Y-97212600D01*
X166675261Y-97212602D01*
X166535268Y-97270589D01*
X166415051Y-97362835D01*
X166415047Y-97362839D01*
X166322801Y-97483056D01*
X166264814Y-97623049D01*
X166264812Y-97623055D01*
X166245034Y-97773287D01*
X166245034Y-97773289D01*
X166256750Y-97862289D01*
X166245599Y-97922450D01*
X166228601Y-97945213D01*
X165363313Y-98810503D01*
X165308796Y-98838281D01*
X165293309Y-98839500D01*
X154730191Y-98839500D01*
X154716515Y-98837267D01*
X154716344Y-98838494D01*
X154707260Y-98837226D01*
X154666913Y-98839092D01*
X154659233Y-98839447D01*
X154656957Y-98839500D01*
X154637179Y-98839500D01*
X154633684Y-98840153D01*
X154626871Y-98840943D01*
X154595037Y-98842414D01*
X154595033Y-98842415D01*
X154586039Y-98846386D01*
X154564254Y-98853132D01*
X154554597Y-98854937D01*
X154554591Y-98854940D01*
X154527491Y-98871718D01*
X154521422Y-98874917D01*
X154492264Y-98887792D01*
X154492257Y-98887796D01*
X154485312Y-98894742D01*
X154467432Y-98908905D01*
X154459074Y-98914080D01*
X154439865Y-98939515D01*
X154435361Y-98944692D01*
X152918071Y-100461981D01*
X152863554Y-100489758D01*
X152803122Y-100480187D01*
X152759857Y-100436922D01*
X152749068Y-100391628D01*
X152759131Y-97549999D01*
X156324999Y-97549999D01*
X156325000Y-97550000D01*
X163525000Y-97525000D01*
X163506485Y-90544746D01*
X186654500Y-90544746D01*
X186654501Y-90544758D01*
X186666132Y-90603227D01*
X186666133Y-90603231D01*
X186710448Y-90669552D01*
X186776769Y-90713867D01*
X186821231Y-90722711D01*
X186835241Y-90725498D01*
X186835246Y-90725498D01*
X186835252Y-90725500D01*
X186835253Y-90725500D01*
X188524747Y-90725500D01*
X188524748Y-90725500D01*
X188583231Y-90713867D01*
X188649552Y-90669552D01*
X188693867Y-90603231D01*
X188705500Y-90544748D01*
X188705500Y-88855252D01*
X188693867Y-88796769D01*
X188649552Y-88730448D01*
X188649548Y-88730445D01*
X188583233Y-88686134D01*
X188583231Y-88686133D01*
X188583228Y-88686132D01*
X188583227Y-88686132D01*
X188524758Y-88674501D01*
X188524748Y-88674500D01*
X186835252Y-88674500D01*
X186835251Y-88674500D01*
X186835241Y-88674501D01*
X186776772Y-88686132D01*
X186776766Y-88686134D01*
X186710451Y-88730445D01*
X186710445Y-88730451D01*
X186666134Y-88796766D01*
X186666132Y-88796772D01*
X186654501Y-88855241D01*
X186654500Y-88855253D01*
X186654500Y-90544746D01*
X163506485Y-90544746D01*
X163500000Y-88100000D01*
X163499999Y-88100000D01*
X163499999Y-88099999D01*
X158000000Y-88124999D01*
X157999999Y-88125000D01*
X157975404Y-94126406D01*
X157956259Y-94184518D01*
X157906612Y-94220279D01*
X157876405Y-94225000D01*
X156349999Y-94225000D01*
X156324999Y-97549999D01*
X152759131Y-97549999D01*
X152797694Y-86660000D01*
X177319534Y-86660000D01*
X177339313Y-86810236D01*
X177397302Y-86950233D01*
X177489549Y-87070451D01*
X177609767Y-87162698D01*
X177749764Y-87220687D01*
X177862441Y-87235521D01*
X177899999Y-87240466D01*
X177900000Y-87240466D01*
X177900001Y-87240466D01*
X177930047Y-87236510D01*
X178050236Y-87220687D01*
X178190233Y-87162698D01*
X178310451Y-87070451D01*
X178365100Y-86999231D01*
X178415524Y-86964577D01*
X178443641Y-86960500D01*
X181136359Y-86960500D01*
X181194550Y-86979407D01*
X181214898Y-86999229D01*
X181269549Y-87070451D01*
X181389767Y-87162698D01*
X181529764Y-87220687D01*
X181642441Y-87235521D01*
X181679999Y-87240466D01*
X181680000Y-87240466D01*
X181680001Y-87240466D01*
X181710047Y-87236510D01*
X181830236Y-87220687D01*
X181970233Y-87162698D01*
X182090451Y-87070451D01*
X182182698Y-86950233D01*
X182240687Y-86810236D01*
X182260466Y-86660000D01*
X182240687Y-86509764D01*
X182182698Y-86369767D01*
X182182698Y-86369766D01*
X182182697Y-86369765D01*
X182098676Y-86260267D01*
X182078252Y-86202592D01*
X182095629Y-86143926D01*
X182098676Y-86139733D01*
X182182697Y-86030234D01*
X182182698Y-86030233D01*
X182240687Y-85890236D01*
X182260466Y-85740000D01*
X182240687Y-85589764D01*
X182182698Y-85449767D01*
X182090451Y-85329549D01*
X181970233Y-85237302D01*
X181830236Y-85179313D01*
X181830234Y-85179312D01*
X181830232Y-85179312D01*
X181680001Y-85159534D01*
X181679999Y-85159534D01*
X181529767Y-85179312D01*
X181529761Y-85179314D01*
X181389768Y-85237301D01*
X181269551Y-85329547D01*
X181269549Y-85329549D01*
X181214899Y-85400768D01*
X181164476Y-85435423D01*
X181136359Y-85439500D01*
X178443641Y-85439500D01*
X178385450Y-85420593D01*
X178365101Y-85400770D01*
X178310451Y-85329549D01*
X178190233Y-85237302D01*
X178050236Y-85179313D01*
X178050234Y-85179312D01*
X178050232Y-85179312D01*
X177900001Y-85159534D01*
X177899999Y-85159534D01*
X177749767Y-85179312D01*
X177749761Y-85179314D01*
X177609768Y-85237301D01*
X177489551Y-85329547D01*
X177489547Y-85329551D01*
X177397301Y-85449768D01*
X177339314Y-85589761D01*
X177339312Y-85589767D01*
X177319534Y-85739999D01*
X177319534Y-85740000D01*
X177339312Y-85890232D01*
X177339314Y-85890238D01*
X177397301Y-86030233D01*
X177397302Y-86030234D01*
X177481324Y-86139733D01*
X177501748Y-86197408D01*
X177484371Y-86256074D01*
X177481324Y-86260267D01*
X177397302Y-86369765D01*
X177397301Y-86369766D01*
X177339314Y-86509761D01*
X177339312Y-86509767D01*
X177319534Y-86659999D01*
X177319534Y-86660000D01*
X152797694Y-86660000D01*
X152809962Y-83195479D01*
X152821847Y-79839149D01*
X152840960Y-79781026D01*
X152890587Y-79745238D01*
X152920846Y-79740500D01*
X169893099Y-79740500D01*
X169951290Y-79759407D01*
X169963103Y-79769496D01*
X171090504Y-80896896D01*
X171118281Y-80951413D01*
X171119500Y-80966900D01*
X171119500Y-81122974D01*
X171100593Y-81181165D01*
X171099042Y-81183242D01*
X171017301Y-81289768D01*
X170959314Y-81429761D01*
X170959312Y-81429767D01*
X170939534Y-81579999D01*
X170939534Y-81580000D01*
X170956150Y-81706215D01*
X170959313Y-81730236D01*
X171017302Y-81870233D01*
X171109549Y-81990451D01*
X171229767Y-82082698D01*
X171369764Y-82140687D01*
X171482441Y-82155521D01*
X171519999Y-82160466D01*
X171520000Y-82160466D01*
X171520001Y-82160466D01*
X171550047Y-82156510D01*
X171670236Y-82140687D01*
X171810233Y-82082698D01*
X171930451Y-81990451D01*
X172022698Y-81870233D01*
X172080687Y-81730236D01*
X172100466Y-81580000D01*
X172098051Y-81561660D01*
X172080687Y-81429767D01*
X172080687Y-81429764D01*
X172022698Y-81289767D01*
X171940957Y-81183241D01*
X171920534Y-81125566D01*
X171920500Y-81122974D01*
X171920500Y-80726630D01*
X171920499Y-80726601D01*
X171920499Y-80696567D01*
X171920498Y-80696565D01*
X171913047Y-80673633D01*
X171909419Y-80658523D01*
X171905646Y-80634697D01*
X171905646Y-80634696D01*
X171894690Y-80613195D01*
X171888750Y-80598852D01*
X171881297Y-80575913D01*
X171881296Y-80575912D01*
X171881296Y-80575910D01*
X171867117Y-80556395D01*
X171859000Y-80543149D01*
X171848050Y-80521658D01*
X171848049Y-80521657D01*
X171758342Y-80431949D01*
X171066892Y-79740500D01*
X170485895Y-79159502D01*
X170458119Y-79104987D01*
X170467690Y-79044555D01*
X170510955Y-79001290D01*
X170555900Y-78990500D01*
X242940500Y-78990500D01*
X242998691Y-79009407D01*
X243034655Y-79058907D01*
X243039500Y-79089500D01*
X243039500Y-119990500D01*
X243020593Y-120048691D01*
X242971093Y-120084655D01*
X242940500Y-120089500D01*
X157695012Y-120089500D01*
X157636821Y-120070593D01*
X157600857Y-120021093D01*
X157596080Y-119994164D01*
X157592978Y-119910407D01*
X157575000Y-119425000D01*
X157574295Y-119405976D01*
X157565674Y-119390216D01*
X157564806Y-119358948D01*
X157580466Y-119240000D01*
X157560687Y-119089764D01*
X157502698Y-118949767D01*
X157410451Y-118829549D01*
X157410446Y-118829545D01*
X157405862Y-118824961D01*
X157407767Y-118823055D01*
X157379566Y-118781989D01*
X157375500Y-118753908D01*
X157375500Y-107480003D01*
X186649538Y-107480003D01*
X186669336Y-107681028D01*
X186669337Y-107681033D01*
X186727977Y-107874341D01*
X186727979Y-107874346D01*
X186823199Y-108052491D01*
X186913050Y-108161975D01*
X186951353Y-108208647D01*
X186951358Y-108208651D01*
X187107508Y-108336800D01*
X187285653Y-108432020D01*
X187285659Y-108432023D01*
X187420327Y-108472873D01*
X187478966Y-108490662D01*
X187478971Y-108490663D01*
X187679997Y-108510462D01*
X187680000Y-108510462D01*
X187680003Y-108510462D01*
X187881028Y-108490663D01*
X187881033Y-108490662D01*
X187914793Y-108480421D01*
X188074341Y-108432023D01*
X188168943Y-108381457D01*
X188252491Y-108336800D01*
X188252492Y-108336798D01*
X188252494Y-108336798D01*
X188408647Y-108208647D01*
X188536798Y-108052494D01*
X188537353Y-108051457D01*
X188618780Y-107899117D01*
X188632023Y-107874341D01*
X188690662Y-107681033D01*
X188690663Y-107681028D01*
X188710462Y-107480003D01*
X188710462Y-107479996D01*
X188690663Y-107278971D01*
X188690662Y-107278966D01*
X188672873Y-107220327D01*
X188632023Y-107085659D01*
X188626508Y-107075341D01*
X188536800Y-106907508D01*
X188408651Y-106751358D01*
X188408647Y-106751353D01*
X188259001Y-106628542D01*
X188252491Y-106623199D01*
X188074346Y-106527979D01*
X188074341Y-106527977D01*
X187881033Y-106469337D01*
X187881028Y-106469336D01*
X187680003Y-106449538D01*
X187679997Y-106449538D01*
X187478971Y-106469336D01*
X187478966Y-106469337D01*
X187285658Y-106527977D01*
X187285653Y-106527979D01*
X187107508Y-106623199D01*
X186951358Y-106751348D01*
X186951348Y-106751358D01*
X186823199Y-106907508D01*
X186727979Y-107085653D01*
X186727977Y-107085658D01*
X186669337Y-107278966D01*
X186669336Y-107278971D01*
X186649538Y-107479996D01*
X186649538Y-107480003D01*
X157375500Y-107480003D01*
X157375500Y-104940003D01*
X186649538Y-104940003D01*
X186669336Y-105141028D01*
X186669337Y-105141033D01*
X186727977Y-105334341D01*
X186727979Y-105334346D01*
X186823199Y-105512491D01*
X186949371Y-105666232D01*
X186951353Y-105668647D01*
X186951358Y-105668651D01*
X187107508Y-105796800D01*
X187285653Y-105892020D01*
X187285659Y-105892023D01*
X187420327Y-105932873D01*
X187478966Y-105950662D01*
X187478971Y-105950663D01*
X187679997Y-105970462D01*
X187680000Y-105970462D01*
X187680003Y-105970462D01*
X187881028Y-105950663D01*
X187881033Y-105950662D01*
X187899698Y-105945000D01*
X188074341Y-105892023D01*
X188186720Y-105831955D01*
X188252491Y-105796800D01*
X188252492Y-105796798D01*
X188252494Y-105796798D01*
X188408647Y-105668647D01*
X188536798Y-105512494D01*
X188537353Y-105511457D01*
X188618780Y-105359117D01*
X188632023Y-105334341D01*
X188690662Y-105141033D01*
X188690663Y-105141028D01*
X188710462Y-104940003D01*
X188710462Y-104939996D01*
X188690663Y-104738971D01*
X188690662Y-104738966D01*
X188672873Y-104680327D01*
X188632023Y-104545659D01*
X188632020Y-104545653D01*
X188536800Y-104367508D01*
X188408651Y-104211358D01*
X188408647Y-104211353D01*
X188333754Y-104149890D01*
X188252491Y-104083199D01*
X188074346Y-103987979D01*
X188074341Y-103987977D01*
X187881033Y-103929337D01*
X187881028Y-103929336D01*
X187680003Y-103909538D01*
X187679997Y-103909538D01*
X187478971Y-103929336D01*
X187478966Y-103929337D01*
X187285658Y-103987977D01*
X187285653Y-103987979D01*
X187107508Y-104083199D01*
X186951358Y-104211348D01*
X186951348Y-104211358D01*
X186823199Y-104367508D01*
X186727979Y-104545653D01*
X186727977Y-104545658D01*
X186669337Y-104738966D01*
X186669336Y-104738971D01*
X186649538Y-104939996D01*
X186649538Y-104940003D01*
X157375500Y-104940003D01*
X157375500Y-102400000D01*
X186600395Y-102400000D01*
X186618777Y-102598376D01*
X186673299Y-102790000D01*
X186762097Y-102968331D01*
X186762106Y-102968346D01*
X186836440Y-103066781D01*
X187283010Y-102620211D01*
X187285887Y-102627541D01*
X187370465Y-102733599D01*
X187461266Y-102795507D01*
X187011522Y-103245251D01*
X187011523Y-103245252D01*
X187029392Y-103261542D01*
X187198780Y-103366422D01*
X187384554Y-103438392D01*
X187580387Y-103475000D01*
X187779613Y-103475000D01*
X187975445Y-103438392D01*
X188161221Y-103366422D01*
X188161226Y-103366419D01*
X188330607Y-103261542D01*
X188330612Y-103261539D01*
X188348475Y-103245252D01*
X187897798Y-102794575D01*
X187936357Y-102776007D01*
X188035798Y-102683740D01*
X188074127Y-102617350D01*
X188523557Y-103066780D01*
X188597897Y-102968340D01*
X188597902Y-102968331D01*
X188686700Y-102790000D01*
X188741222Y-102598376D01*
X188759604Y-102400000D01*
X188741222Y-102201623D01*
X188686700Y-102009999D01*
X188597902Y-101831668D01*
X188597897Y-101831659D01*
X188523557Y-101733218D01*
X188076988Y-102179786D01*
X188074113Y-102172459D01*
X187989535Y-102066401D01*
X187898730Y-102004490D01*
X188348475Y-101554746D01*
X188330607Y-101538457D01*
X188161219Y-101433577D01*
X187975445Y-101361607D01*
X187779613Y-101325000D01*
X187580387Y-101325000D01*
X187384554Y-101361607D01*
X187198778Y-101433577D01*
X187198773Y-101433580D01*
X187029396Y-101538454D01*
X187011523Y-101554746D01*
X187462201Y-102005424D01*
X187423643Y-102023993D01*
X187324202Y-102116260D01*
X187285872Y-102182648D01*
X186836441Y-101733216D01*
X186762106Y-101831653D01*
X186762097Y-101831668D01*
X186673299Y-102009999D01*
X186618777Y-102201623D01*
X186600395Y-102400000D01*
X157375500Y-102400000D01*
X157375500Y-102280479D01*
X157394407Y-102222288D01*
X157404496Y-102210475D01*
X157695475Y-101919496D01*
X157749992Y-101891719D01*
X157765479Y-101890500D01*
X174584836Y-101890500D01*
X174598511Y-101892732D01*
X174598683Y-101891506D01*
X174607764Y-101892772D01*
X174607765Y-101892773D01*
X174607765Y-101892772D01*
X174607766Y-101892773D01*
X174616507Y-101892368D01*
X174655793Y-101890552D01*
X174658070Y-101890500D01*
X174677841Y-101890500D01*
X174677844Y-101890500D01*
X174681337Y-101889846D01*
X174688141Y-101889056D01*
X174719992Y-101887585D01*
X174728976Y-101883617D01*
X174750777Y-101876865D01*
X174760433Y-101875061D01*
X174787543Y-101858274D01*
X174793589Y-101855088D01*
X174822765Y-101842206D01*
X174829709Y-101835260D01*
X174847601Y-101821089D01*
X174855952Y-101815919D01*
X174875165Y-101790474D01*
X174879662Y-101785308D01*
X176804967Y-99860003D01*
X186649538Y-99860003D01*
X186669336Y-100061028D01*
X186669337Y-100061033D01*
X186727977Y-100254341D01*
X186727979Y-100254346D01*
X186823199Y-100432491D01*
X186932796Y-100566035D01*
X186951353Y-100588647D01*
X186951358Y-100588651D01*
X187107508Y-100716800D01*
X187285653Y-100812020D01*
X187285659Y-100812023D01*
X187420327Y-100852873D01*
X187478966Y-100870662D01*
X187478971Y-100870663D01*
X187679997Y-100890462D01*
X187680000Y-100890462D01*
X187680003Y-100890462D01*
X187881028Y-100870663D01*
X187881033Y-100870662D01*
X188074341Y-100812023D01*
X188158073Y-100767267D01*
X188252491Y-100716800D01*
X188252492Y-100716798D01*
X188252494Y-100716798D01*
X188408647Y-100588647D01*
X188536798Y-100432494D01*
X188558643Y-100391626D01*
X188632020Y-100254346D01*
X188632023Y-100254341D01*
X188690662Y-100061033D01*
X188690663Y-100061028D01*
X188710462Y-99860003D01*
X188710462Y-99859996D01*
X188690663Y-99658971D01*
X188690662Y-99658966D01*
X188672873Y-99600327D01*
X188632023Y-99465659D01*
X188628214Y-99458532D01*
X188536800Y-99287508D01*
X188408651Y-99131358D01*
X188408647Y-99131353D01*
X188365730Y-99096132D01*
X188252491Y-99003199D01*
X188074346Y-98907979D01*
X188074341Y-98907977D01*
X187881033Y-98849337D01*
X187881028Y-98849336D01*
X187680003Y-98829538D01*
X187679997Y-98829538D01*
X187478971Y-98849336D01*
X187478966Y-98849337D01*
X187285658Y-98907977D01*
X187285653Y-98907979D01*
X187107508Y-99003199D01*
X186951358Y-99131348D01*
X186951348Y-99131358D01*
X186823199Y-99287508D01*
X186727979Y-99465653D01*
X186727977Y-99465658D01*
X186669337Y-99658966D01*
X186669336Y-99658971D01*
X186649538Y-99859996D01*
X186649538Y-99860003D01*
X176804967Y-99860003D01*
X177006004Y-99658966D01*
X179216405Y-97448564D01*
X179227664Y-97440493D01*
X179226905Y-97439487D01*
X179234221Y-97433961D01*
X179234228Y-97433958D01*
X179266632Y-97398411D01*
X179268186Y-97396783D01*
X179282174Y-97382797D01*
X179284181Y-97379865D01*
X179288440Y-97374490D01*
X179309916Y-97350933D01*
X179313466Y-97341767D01*
X179324107Y-97321581D01*
X179325188Y-97320003D01*
X186649538Y-97320003D01*
X186669336Y-97521028D01*
X186669337Y-97521033D01*
X186727977Y-97714341D01*
X186727979Y-97714346D01*
X186823199Y-97892491D01*
X186901812Y-97988281D01*
X186951353Y-98048647D01*
X186951358Y-98048651D01*
X187107508Y-98176800D01*
X187225312Y-98239767D01*
X187285659Y-98272023D01*
X187420327Y-98312873D01*
X187478966Y-98330662D01*
X187478971Y-98330663D01*
X187679997Y-98350462D01*
X187680000Y-98350462D01*
X187680003Y-98350462D01*
X187881028Y-98330663D01*
X187881033Y-98330662D01*
X187904119Y-98323659D01*
X188074341Y-98272023D01*
X188154925Y-98228949D01*
X188252491Y-98176800D01*
X188252492Y-98176798D01*
X188252494Y-98176798D01*
X188408647Y-98048647D01*
X188536798Y-97892494D01*
X188539574Y-97887302D01*
X188588949Y-97794925D01*
X188632023Y-97714341D01*
X188690662Y-97521033D01*
X188690663Y-97521028D01*
X188710462Y-97320003D01*
X188710462Y-97319996D01*
X188690663Y-97118971D01*
X188690662Y-97118966D01*
X188672873Y-97060327D01*
X188632023Y-96925659D01*
X188632020Y-96925653D01*
X188536800Y-96747508D01*
X188433408Y-96621525D01*
X188408647Y-96591353D01*
X188346619Y-96540448D01*
X188252491Y-96463199D01*
X188074346Y-96367979D01*
X188074341Y-96367977D01*
X187881033Y-96309337D01*
X187881028Y-96309336D01*
X187680003Y-96289538D01*
X187679997Y-96289538D01*
X187478971Y-96309336D01*
X187478966Y-96309337D01*
X187285658Y-96367977D01*
X187285653Y-96367979D01*
X187107508Y-96463199D01*
X186951358Y-96591348D01*
X186951348Y-96591358D01*
X186823199Y-96747508D01*
X186727979Y-96925653D01*
X186727977Y-96925658D01*
X186669337Y-97118966D01*
X186669336Y-97118971D01*
X186649538Y-97319996D01*
X186649538Y-97320003D01*
X179325188Y-97320003D01*
X179329657Y-97313480D01*
X179336956Y-97282443D01*
X179338980Y-97275908D01*
X179350500Y-97246173D01*
X179350500Y-97236348D01*
X179353129Y-97213683D01*
X179355379Y-97204119D01*
X179350975Y-97172546D01*
X179350500Y-97165699D01*
X179350500Y-94780003D01*
X186649538Y-94780003D01*
X186669336Y-94981028D01*
X186669337Y-94981033D01*
X186727977Y-95174341D01*
X186727979Y-95174346D01*
X186823199Y-95352491D01*
X186951348Y-95508641D01*
X186951353Y-95508647D01*
X186951358Y-95508651D01*
X187107508Y-95636800D01*
X187285653Y-95732020D01*
X187285659Y-95732023D01*
X187420327Y-95772873D01*
X187478966Y-95790662D01*
X187478971Y-95790663D01*
X187679997Y-95810462D01*
X187680000Y-95810462D01*
X187680003Y-95810462D01*
X187881028Y-95790663D01*
X187881033Y-95790662D01*
X188074341Y-95732023D01*
X188154925Y-95688949D01*
X188252491Y-95636800D01*
X188252492Y-95636798D01*
X188252494Y-95636798D01*
X188408647Y-95508647D01*
X188536798Y-95352494D01*
X188632023Y-95174341D01*
X188690662Y-94981033D01*
X188690663Y-94981028D01*
X188710462Y-94780003D01*
X188710462Y-94779996D01*
X188690663Y-94578971D01*
X188690662Y-94578966D01*
X188672873Y-94520327D01*
X188632023Y-94385659D01*
X188632020Y-94385653D01*
X188536800Y-94207508D01*
X188408651Y-94051358D01*
X188408647Y-94051353D01*
X188408641Y-94051348D01*
X188252491Y-93923199D01*
X188074346Y-93827979D01*
X188074341Y-93827977D01*
X187881033Y-93769337D01*
X187881028Y-93769336D01*
X187680003Y-93749538D01*
X187679997Y-93749538D01*
X187478971Y-93769336D01*
X187478966Y-93769337D01*
X187285658Y-93827977D01*
X187285653Y-93827979D01*
X187107508Y-93923199D01*
X186951358Y-94051348D01*
X186951348Y-94051358D01*
X186823199Y-94207508D01*
X186727979Y-94385653D01*
X186727977Y-94385658D01*
X186669337Y-94578966D01*
X186669336Y-94578971D01*
X186649538Y-94779996D01*
X186649538Y-94780003D01*
X179350500Y-94780003D01*
X179350500Y-93255168D01*
X179352731Y-93241495D01*
X179351505Y-93241324D01*
X179352773Y-93232232D01*
X179350553Y-93184215D01*
X179350500Y-93181928D01*
X179350500Y-93162160D01*
X179350500Y-93162156D01*
X179349846Y-93158664D01*
X179349056Y-93151859D01*
X179347585Y-93120008D01*
X179343614Y-93111016D01*
X179336864Y-93089214D01*
X179335421Y-93081496D01*
X179335061Y-93079567D01*
X179318276Y-93052458D01*
X179315088Y-93046410D01*
X179302206Y-93017234D01*
X179302205Y-93017233D01*
X179302204Y-93017231D01*
X179295254Y-93010281D01*
X179281088Y-92992395D01*
X179275921Y-92984051D01*
X179275920Y-92984049D01*
X179250485Y-92964841D01*
X179245306Y-92960335D01*
X179003213Y-92718241D01*
X178975436Y-92663725D01*
X178975064Y-92635320D01*
X178984495Y-92563687D01*
X178964716Y-92413451D01*
X178906727Y-92273454D01*
X178881059Y-92240003D01*
X186649538Y-92240003D01*
X186669336Y-92441028D01*
X186669337Y-92441033D01*
X186727977Y-92634341D01*
X186727979Y-92634346D01*
X186823199Y-92812491D01*
X186951348Y-92968641D01*
X186951353Y-92968647D01*
X186970123Y-92984051D01*
X187107508Y-93096800D01*
X187271051Y-93184215D01*
X187285659Y-93192023D01*
X187418211Y-93232232D01*
X187478966Y-93250662D01*
X187478971Y-93250663D01*
X187679997Y-93270462D01*
X187680000Y-93270462D01*
X187680003Y-93270462D01*
X187881028Y-93250663D01*
X187881033Y-93250662D01*
X188074341Y-93192023D01*
X188154925Y-93148949D01*
X188252491Y-93096800D01*
X188252492Y-93096798D01*
X188252494Y-93096798D01*
X188408647Y-92968647D01*
X188536798Y-92812494D01*
X188632023Y-92634341D01*
X188690662Y-92441033D01*
X188690663Y-92441028D01*
X188710462Y-92240003D01*
X188710462Y-92239996D01*
X188690663Y-92038971D01*
X188690662Y-92038966D01*
X188655700Y-91923712D01*
X188632023Y-91845659D01*
X188632020Y-91845653D01*
X188536800Y-91667508D01*
X188408651Y-91511358D01*
X188408647Y-91511353D01*
X188394517Y-91499757D01*
X188252491Y-91383199D01*
X188074346Y-91287979D01*
X188074341Y-91287977D01*
X187881033Y-91229337D01*
X187881028Y-91229336D01*
X187680003Y-91209538D01*
X187679997Y-91209538D01*
X187478971Y-91229336D01*
X187478966Y-91229337D01*
X187285658Y-91287977D01*
X187285653Y-91287979D01*
X187107508Y-91383199D01*
X186951358Y-91511348D01*
X186951348Y-91511358D01*
X186823199Y-91667508D01*
X186727979Y-91845653D01*
X186727977Y-91845658D01*
X186669337Y-92038966D01*
X186669336Y-92038971D01*
X186649538Y-92239996D01*
X186649538Y-92240003D01*
X178881059Y-92240003D01*
X178814480Y-92153236D01*
X178694262Y-92060989D01*
X178554265Y-92003000D01*
X178554263Y-92002999D01*
X178554261Y-92002999D01*
X178404030Y-91983221D01*
X178404028Y-91983221D01*
X178253796Y-92002999D01*
X178253790Y-92003001D01*
X178113797Y-92060988D01*
X177993580Y-92153234D01*
X177993576Y-92153238D01*
X177901330Y-92273455D01*
X177843343Y-92413448D01*
X177843341Y-92413454D01*
X177823563Y-92563686D01*
X177823563Y-92563687D01*
X177843341Y-92713919D01*
X177843343Y-92713925D01*
X177901330Y-92853920D01*
X177901331Y-92853921D01*
X177974805Y-92949674D01*
X177995229Y-93007350D01*
X177977851Y-93066015D01*
X177974805Y-93070208D01*
X177895976Y-93172939D01*
X177895975Y-93172940D01*
X177837988Y-93312935D01*
X177837986Y-93312941D01*
X177818208Y-93463173D01*
X177818208Y-93463174D01*
X177830765Y-93558559D01*
X177837987Y-93613410D01*
X177895976Y-93753407D01*
X177988223Y-93873625D01*
X177988227Y-93873628D01*
X177988228Y-93873629D01*
X178060767Y-93929290D01*
X178095423Y-93979714D01*
X178099500Y-94007832D01*
X178099500Y-97179547D01*
X178080593Y-97237738D01*
X178070504Y-97249551D01*
X174409551Y-100910504D01*
X174355034Y-100938281D01*
X174339547Y-100939500D01*
X157515165Y-100939500D01*
X157501489Y-100937267D01*
X157501318Y-100938494D01*
X157492234Y-100937226D01*
X157451887Y-100939092D01*
X157444207Y-100939447D01*
X157441931Y-100939500D01*
X157422153Y-100939500D01*
X157418658Y-100940153D01*
X157411845Y-100940943D01*
X157380011Y-100942414D01*
X157380007Y-100942415D01*
X157371013Y-100946386D01*
X157349228Y-100953132D01*
X157339571Y-100954937D01*
X157339565Y-100954940D01*
X157312465Y-100971718D01*
X157306396Y-100974917D01*
X157277238Y-100987792D01*
X157277231Y-100987796D01*
X157270286Y-100994742D01*
X157252406Y-101008905D01*
X157244048Y-101014080D01*
X157224839Y-101039515D01*
X157220335Y-101044692D01*
X156558590Y-101706437D01*
X156547361Y-101714550D01*
X156548090Y-101715515D01*
X156540771Y-101721041D01*
X156508372Y-101756580D01*
X156506796Y-101758231D01*
X156492830Y-101772198D01*
X156492817Y-101772213D01*
X156490813Y-101775138D01*
X156486561Y-101780504D01*
X156465084Y-101804065D01*
X156465083Y-101804067D01*
X156461529Y-101813240D01*
X156450896Y-101833412D01*
X156445346Y-101841515D01*
X156445342Y-101841524D01*
X156438045Y-101872545D01*
X156436016Y-101879098D01*
X156424500Y-101908824D01*
X156424500Y-101918651D01*
X156421870Y-101941318D01*
X156419621Y-101950881D01*
X156422531Y-101971742D01*
X156424025Y-101982452D01*
X156424500Y-101989298D01*
X156424500Y-116526070D01*
X156405593Y-116584261D01*
X156356093Y-116620225D01*
X156338423Y-116624223D01*
X156299764Y-116629312D01*
X156159768Y-116687301D01*
X156039551Y-116779547D01*
X156039547Y-116779551D01*
X155947301Y-116899768D01*
X155889314Y-117039761D01*
X155889312Y-117039767D01*
X155869534Y-117189999D01*
X155869534Y-117190000D01*
X155884101Y-117300652D01*
X155889313Y-117340236D01*
X155947302Y-117480233D01*
X156039549Y-117600451D01*
X156159767Y-117692698D01*
X156299764Y-117750687D01*
X156412441Y-117765521D01*
X156449999Y-117770466D01*
X156450000Y-117770466D01*
X156450001Y-117770466D01*
X156480047Y-117766510D01*
X156600236Y-117750687D01*
X156637615Y-117735203D01*
X156698610Y-117730403D01*
X156750780Y-117762372D01*
X156774195Y-117818900D01*
X156774500Y-117826668D01*
X156774500Y-118644338D01*
X156755593Y-118702529D01*
X156713392Y-118735800D01*
X156709768Y-118737301D01*
X156589551Y-118829547D01*
X156589547Y-118829551D01*
X156497301Y-118949768D01*
X156439314Y-119089761D01*
X156439312Y-119089767D01*
X156419534Y-119239999D01*
X156419534Y-119240000D01*
X156438265Y-119382277D01*
X156427115Y-119442438D01*
X156425000Y-119445302D01*
X156425000Y-119990500D01*
X156406093Y-120048691D01*
X156356593Y-120084655D01*
X156326000Y-120089500D01*
X147891661Y-120089500D01*
X147833470Y-120070593D01*
X147797506Y-120021093D01*
X147797506Y-119959907D01*
X147833470Y-119910407D01*
X147862923Y-119895763D01*
X147984727Y-119858814D01*
X148158538Y-119765910D01*
X148310883Y-119640883D01*
X148435910Y-119488538D01*
X148528814Y-119314727D01*
X148586024Y-119126132D01*
X148589607Y-119089761D01*
X148605341Y-118930003D01*
X148605341Y-118929996D01*
X148586025Y-118733873D01*
X148586024Y-118733870D01*
X148586024Y-118733868D01*
X148528814Y-118545273D01*
X148435910Y-118371462D01*
X148435906Y-118371457D01*
X148310887Y-118219121D01*
X148310878Y-118219112D01*
X148158542Y-118094093D01*
X148158540Y-118094092D01*
X148158538Y-118094090D01*
X148117618Y-118072218D01*
X147984732Y-118001188D01*
X147984730Y-118001187D01*
X147796129Y-117943975D01*
X147796126Y-117943974D01*
X147600003Y-117924659D01*
X147599997Y-117924659D01*
X147403873Y-117943974D01*
X147403870Y-117943975D01*
X147215269Y-118001187D01*
X147215267Y-118001188D01*
X147041467Y-118094087D01*
X147041457Y-118094093D01*
X146889121Y-118219112D01*
X146889112Y-118219121D01*
X146764093Y-118371457D01*
X146764087Y-118371467D01*
X146671188Y-118545267D01*
X146671187Y-118545269D01*
X146613975Y-118733870D01*
X146613974Y-118733873D01*
X146594659Y-118929996D01*
X146594659Y-118930003D01*
X146613974Y-119126126D01*
X146613975Y-119126129D01*
X146671187Y-119314730D01*
X146671188Y-119314732D01*
X146730128Y-119425000D01*
X146764090Y-119488538D01*
X146764092Y-119488540D01*
X146764093Y-119488542D01*
X146889112Y-119640878D01*
X146889121Y-119640887D01*
X147041457Y-119765906D01*
X147041462Y-119765910D01*
X147215273Y-119858814D01*
X147337077Y-119895763D01*
X147387274Y-119930748D01*
X147407320Y-119988557D01*
X147389559Y-120047107D01*
X147340774Y-120084036D01*
X147308339Y-120089500D01*
X135641661Y-120089500D01*
X135583470Y-120070593D01*
X135547506Y-120021093D01*
X135547506Y-119959907D01*
X135583470Y-119910407D01*
X135612923Y-119895763D01*
X135734727Y-119858814D01*
X135908538Y-119765910D01*
X136060883Y-119640883D01*
X136185910Y-119488538D01*
X136278814Y-119314727D01*
X136336024Y-119126132D01*
X136339607Y-119089761D01*
X136355341Y-118930003D01*
X136355341Y-118929996D01*
X136336025Y-118733873D01*
X136336024Y-118733870D01*
X136336024Y-118733868D01*
X136278814Y-118545273D01*
X136185910Y-118371462D01*
X136185906Y-118371457D01*
X136060887Y-118219121D01*
X136060878Y-118219112D01*
X135908542Y-118094093D01*
X135908540Y-118094092D01*
X135908538Y-118094090D01*
X135867618Y-118072218D01*
X135734732Y-118001188D01*
X135734730Y-118001187D01*
X135546129Y-117943975D01*
X135546126Y-117943974D01*
X135350003Y-117924659D01*
X135349997Y-117924659D01*
X135153873Y-117943974D01*
X135153870Y-117943975D01*
X134965269Y-118001187D01*
X134965267Y-118001188D01*
X134791467Y-118094087D01*
X134791457Y-118094093D01*
X134639121Y-118219112D01*
X134639112Y-118219121D01*
X134514093Y-118371457D01*
X134514087Y-118371467D01*
X134421188Y-118545267D01*
X134421187Y-118545269D01*
X134363975Y-118733870D01*
X134363974Y-118733873D01*
X134344659Y-118929996D01*
X134344659Y-118930003D01*
X134363974Y-119126126D01*
X134363975Y-119126129D01*
X134421187Y-119314730D01*
X134421188Y-119314732D01*
X134480128Y-119425000D01*
X134514090Y-119488538D01*
X134514092Y-119488540D01*
X134514093Y-119488542D01*
X134639112Y-119640878D01*
X134639121Y-119640887D01*
X134791457Y-119765906D01*
X134791462Y-119765910D01*
X134965273Y-119858814D01*
X135087077Y-119895763D01*
X135137274Y-119930748D01*
X135157320Y-119988557D01*
X135139559Y-120047107D01*
X135090774Y-120084036D01*
X135058339Y-120089500D01*
X122891661Y-120089500D01*
X122833470Y-120070593D01*
X122797506Y-120021093D01*
X122797506Y-119959907D01*
X122833470Y-119910407D01*
X122862923Y-119895763D01*
X122984727Y-119858814D01*
X123158538Y-119765910D01*
X123310883Y-119640883D01*
X123435910Y-119488538D01*
X123528814Y-119314727D01*
X123586024Y-119126132D01*
X123589607Y-119089761D01*
X123605341Y-118930003D01*
X123605341Y-118929996D01*
X123586025Y-118733873D01*
X123586024Y-118733870D01*
X123586024Y-118733868D01*
X123528814Y-118545273D01*
X123435910Y-118371462D01*
X123435906Y-118371457D01*
X123310887Y-118219121D01*
X123310878Y-118219112D01*
X123158542Y-118094093D01*
X123158540Y-118094092D01*
X123158538Y-118094090D01*
X123117618Y-118072218D01*
X122984732Y-118001188D01*
X122984730Y-118001187D01*
X122796129Y-117943975D01*
X122796126Y-117943974D01*
X122600003Y-117924659D01*
X122599997Y-117924659D01*
X122403873Y-117943974D01*
X122403870Y-117943975D01*
X122215269Y-118001187D01*
X122215267Y-118001188D01*
X122041467Y-118094087D01*
X122041457Y-118094093D01*
X121889121Y-118219112D01*
X121889112Y-118219121D01*
X121764093Y-118371457D01*
X121764087Y-118371467D01*
X121671188Y-118545267D01*
X121671187Y-118545269D01*
X121613975Y-118733870D01*
X121613974Y-118733873D01*
X121594659Y-118929996D01*
X121594659Y-118930003D01*
X121613974Y-119126126D01*
X121613975Y-119126129D01*
X121671187Y-119314730D01*
X121671188Y-119314732D01*
X121730128Y-119425000D01*
X121764090Y-119488538D01*
X121764092Y-119488540D01*
X121764093Y-119488542D01*
X121889112Y-119640878D01*
X121889121Y-119640887D01*
X122041457Y-119765906D01*
X122041462Y-119765910D01*
X122215273Y-119858814D01*
X122337077Y-119895763D01*
X122387274Y-119930748D01*
X122407320Y-119988557D01*
X122389559Y-120047107D01*
X122340774Y-120084036D01*
X122308339Y-120089500D01*
X59049500Y-120089500D01*
X58991309Y-120070593D01*
X58955345Y-120021093D01*
X58950500Y-119990500D01*
X58950500Y-117944624D01*
X62080000Y-117944624D01*
X62094506Y-118017546D01*
X62094507Y-118017548D01*
X62149758Y-118100237D01*
X62149762Y-118100241D01*
X62232451Y-118155492D01*
X62232453Y-118155493D01*
X62305375Y-118169999D01*
X62305377Y-118170000D01*
X63254999Y-118170000D01*
X63255000Y-118169999D01*
X63255000Y-117406157D01*
X63304404Y-117420000D01*
X63417622Y-117420000D01*
X63505000Y-117407990D01*
X63505000Y-118169999D01*
X63505001Y-118170000D01*
X64454623Y-118170000D01*
X64454624Y-118169999D01*
X64527546Y-118155493D01*
X64527548Y-118155492D01*
X64610237Y-118100241D01*
X64610241Y-118100237D01*
X64665492Y-118017548D01*
X64665493Y-118017546D01*
X64679999Y-117944624D01*
X64680000Y-117944622D01*
X64680000Y-116995001D01*
X64679999Y-116995000D01*
X63919277Y-116995000D01*
X63923559Y-116982953D01*
X63933877Y-116832114D01*
X63932399Y-116825000D01*
X73404785Y-116825000D01*
X73423603Y-117028083D01*
X73479418Y-117224250D01*
X73570327Y-117406821D01*
X73693236Y-117569579D01*
X73843959Y-117706981D01*
X74017363Y-117814348D01*
X74207544Y-117888024D01*
X74408024Y-117925500D01*
X74611976Y-117925500D01*
X74812456Y-117888024D01*
X75002637Y-117814348D01*
X75176041Y-117706981D01*
X75326764Y-117569579D01*
X75449673Y-117406821D01*
X75540582Y-117224250D01*
X75596397Y-117028083D01*
X75615215Y-116825000D01*
X88644785Y-116825000D01*
X88663603Y-117028083D01*
X88719418Y-117224250D01*
X88810327Y-117406821D01*
X88933236Y-117569579D01*
X89083959Y-117706981D01*
X89257363Y-117814348D01*
X89447544Y-117888024D01*
X89648024Y-117925500D01*
X89851976Y-117925500D01*
X90052456Y-117888024D01*
X90242637Y-117814348D01*
X90416041Y-117706981D01*
X90566764Y-117569579D01*
X90689673Y-117406821D01*
X90780582Y-117224250D01*
X90836397Y-117028083D01*
X90855215Y-116825000D01*
X90836397Y-116621917D01*
X90780582Y-116425750D01*
X90689673Y-116243179D01*
X90566764Y-116080421D01*
X90416041Y-115943019D01*
X90242637Y-115835652D01*
X90052456Y-115761976D01*
X90052455Y-115761975D01*
X90052453Y-115761975D01*
X89851976Y-115724500D01*
X89648024Y-115724500D01*
X89447546Y-115761975D01*
X89377632Y-115789059D01*
X89257363Y-115835652D01*
X89083959Y-115943019D01*
X88933237Y-116080420D01*
X88810328Y-116243177D01*
X88810323Y-116243186D01*
X88734405Y-116395651D01*
X88719418Y-116425750D01*
X88663603Y-116621917D01*
X88644785Y-116825000D01*
X75615215Y-116825000D01*
X75596397Y-116621917D01*
X75540582Y-116425750D01*
X75449673Y-116243179D01*
X75326764Y-116080421D01*
X75176041Y-115943019D01*
X75002637Y-115835652D01*
X74812456Y-115761976D01*
X74812455Y-115761975D01*
X74812453Y-115761975D01*
X74611976Y-115724500D01*
X74408024Y-115724500D01*
X74207546Y-115761975D01*
X74137632Y-115789059D01*
X74017363Y-115835652D01*
X73843959Y-115943019D01*
X73693237Y-116080420D01*
X73570328Y-116243177D01*
X73570323Y-116243186D01*
X73494405Y-116395651D01*
X73479418Y-116425750D01*
X73423603Y-116621917D01*
X73404785Y-116825000D01*
X63932399Y-116825000D01*
X63915774Y-116745000D01*
X64679999Y-116745000D01*
X64680000Y-116744999D01*
X64680000Y-115795377D01*
X64679999Y-115795375D01*
X64665493Y-115722453D01*
X64665492Y-115722451D01*
X64610241Y-115639762D01*
X64610237Y-115639758D01*
X64527548Y-115584507D01*
X64527546Y-115584506D01*
X64454624Y-115570000D01*
X64103265Y-115570000D01*
X64045074Y-115551093D01*
X64009110Y-115501593D01*
X64009110Y-115440407D01*
X64045074Y-115390907D01*
X64046441Y-115389931D01*
X64186877Y-115291598D01*
X64341598Y-115136877D01*
X64467102Y-114957639D01*
X64559575Y-114759330D01*
X64616207Y-114547977D01*
X64618138Y-114525912D01*
X64635277Y-114330003D01*
X64635277Y-114329996D01*
X64616208Y-114112030D01*
X64616207Y-114112027D01*
X64616207Y-114112023D01*
X64559575Y-113900670D01*
X64467102Y-113702362D01*
X64458448Y-113690003D01*
X99224659Y-113690003D01*
X99243974Y-113886126D01*
X99243975Y-113886129D01*
X99265357Y-113956616D01*
X99291108Y-114041506D01*
X99301187Y-114074730D01*
X99301188Y-114074732D01*
X99372218Y-114207618D01*
X99394090Y-114248538D01*
X99394092Y-114248540D01*
X99394093Y-114248542D01*
X99519112Y-114400878D01*
X99519121Y-114400887D01*
X99651781Y-114509758D01*
X99671462Y-114525910D01*
X99845273Y-114618814D01*
X100033868Y-114676024D01*
X100033870Y-114676024D01*
X100033873Y-114676025D01*
X100229997Y-114695341D01*
X100230000Y-114695341D01*
X100230003Y-114695341D01*
X100426126Y-114676025D01*
X100426127Y-114676024D01*
X100426132Y-114676024D01*
X100614727Y-114618814D01*
X100788538Y-114525910D01*
X100808234Y-114509746D01*
X106849500Y-114509746D01*
X106849501Y-114509758D01*
X106861132Y-114568227D01*
X106861134Y-114568233D01*
X106894932Y-114618814D01*
X106905448Y-114634552D01*
X106971769Y-114678867D01*
X107016231Y-114687711D01*
X107030241Y-114690498D01*
X107030246Y-114690498D01*
X107030252Y-114690500D01*
X107030253Y-114690500D01*
X108669747Y-114690500D01*
X108669748Y-114690500D01*
X108728231Y-114678867D01*
X108794552Y-114634552D01*
X108838867Y-114568231D01*
X108850500Y-114509748D01*
X108850500Y-112870252D01*
X108838867Y-112811769D01*
X108794552Y-112745448D01*
X108794548Y-112745445D01*
X108728233Y-112701134D01*
X108728231Y-112701133D01*
X108728228Y-112701132D01*
X108728227Y-112701132D01*
X108669758Y-112689501D01*
X108669748Y-112689500D01*
X107030252Y-112689500D01*
X107030251Y-112689500D01*
X107030241Y-112689501D01*
X106971772Y-112701132D01*
X106971766Y-112701134D01*
X106905451Y-112745445D01*
X106905445Y-112745451D01*
X106861134Y-112811766D01*
X106861132Y-112811772D01*
X106849501Y-112870241D01*
X106849500Y-112870253D01*
X106849500Y-114509746D01*
X100808234Y-114509746D01*
X100940883Y-114400883D01*
X101065910Y-114248538D01*
X101158814Y-114074727D01*
X101216024Y-113886132D01*
X101234123Y-113702372D01*
X101235341Y-113690003D01*
X101235341Y-113689996D01*
X101216025Y-113493873D01*
X101216024Y-113493870D01*
X101216024Y-113493868D01*
X101158814Y-113305273D01*
X101065910Y-113131462D01*
X101034994Y-113093791D01*
X100940887Y-112979121D01*
X100940878Y-112979112D01*
X100788542Y-112854093D01*
X100788540Y-112854092D01*
X100788538Y-112854090D01*
X100709361Y-112811769D01*
X100614732Y-112761188D01*
X100614730Y-112761187D01*
X100426129Y-112703975D01*
X100426126Y-112703974D01*
X100230003Y-112684659D01*
X100229997Y-112684659D01*
X100033873Y-112703974D01*
X100033870Y-112703975D01*
X99845269Y-112761187D01*
X99845267Y-112761188D01*
X99671467Y-112854087D01*
X99671457Y-112854093D01*
X99519121Y-112979112D01*
X99519112Y-112979121D01*
X99394093Y-113131457D01*
X99394087Y-113131467D01*
X99301188Y-113305267D01*
X99301187Y-113305269D01*
X99243975Y-113493870D01*
X99243974Y-113493873D01*
X99224659Y-113689996D01*
X99224659Y-113690003D01*
X64458448Y-113690003D01*
X64341598Y-113523123D01*
X64186877Y-113368402D01*
X64186873Y-113368399D01*
X64186872Y-113368398D01*
X64042393Y-113267233D01*
X64007639Y-113242898D01*
X63809330Y-113150425D01*
X63597977Y-113093793D01*
X63597976Y-113093792D01*
X63597969Y-113093791D01*
X63380003Y-113074723D01*
X63379997Y-113074723D01*
X63162030Y-113093791D01*
X62950666Y-113150426D01*
X62752372Y-113242892D01*
X62752364Y-113242896D01*
X62573127Y-113368398D01*
X62418398Y-113523127D01*
X62292896Y-113702364D01*
X62292892Y-113702372D01*
X62200426Y-113900666D01*
X62143791Y-114112030D01*
X62124723Y-114329996D01*
X62124723Y-114330003D01*
X62143791Y-114547969D01*
X62143792Y-114547976D01*
X62143793Y-114547977D01*
X62200425Y-114759330D01*
X62292898Y-114957639D01*
X62418402Y-115136877D01*
X62573123Y-115291598D01*
X62713519Y-115389905D01*
X62750341Y-115438768D01*
X62751409Y-115499944D01*
X62716315Y-115550065D01*
X62658463Y-115569985D01*
X62656735Y-115570000D01*
X62305375Y-115570000D01*
X62232453Y-115584506D01*
X62232451Y-115584507D01*
X62149762Y-115639758D01*
X62149758Y-115639762D01*
X62094507Y-115722451D01*
X62094506Y-115722453D01*
X62080000Y-115795375D01*
X62080000Y-116744999D01*
X62080001Y-116745000D01*
X62840723Y-116745000D01*
X62836441Y-116757047D01*
X62826123Y-116907886D01*
X62844226Y-116995000D01*
X62080001Y-116995000D01*
X62080000Y-116995001D01*
X62080000Y-117944624D01*
X58950500Y-117944624D01*
X58950500Y-110005003D01*
X62124723Y-110005003D01*
X62143791Y-110222969D01*
X62143792Y-110222976D01*
X62143793Y-110222977D01*
X62200425Y-110434330D01*
X62260816Y-110563839D01*
X62292897Y-110632637D01*
X62415198Y-110807302D01*
X62418402Y-110811877D01*
X62573123Y-110966598D01*
X62752361Y-111092102D01*
X62950670Y-111184575D01*
X63162023Y-111241207D01*
X63162027Y-111241207D01*
X63162030Y-111241208D01*
X63379997Y-111260277D01*
X63380000Y-111260277D01*
X63380003Y-111260277D01*
X63597969Y-111241208D01*
X63597970Y-111241207D01*
X63597977Y-111241207D01*
X63809330Y-111184575D01*
X63883470Y-111150003D01*
X99224659Y-111150003D01*
X99243974Y-111346126D01*
X99243975Y-111346129D01*
X99301187Y-111534730D01*
X99301188Y-111534732D01*
X99372218Y-111667618D01*
X99394090Y-111708538D01*
X99394092Y-111708540D01*
X99394093Y-111708542D01*
X99519112Y-111860878D01*
X99519121Y-111860887D01*
X99671457Y-111985906D01*
X99671462Y-111985910D01*
X99845273Y-112078814D01*
X100033868Y-112136024D01*
X100033870Y-112136024D01*
X100033873Y-112136025D01*
X100229997Y-112155341D01*
X100230000Y-112155341D01*
X100230003Y-112155341D01*
X100426126Y-112136025D01*
X100426127Y-112136024D01*
X100426132Y-112136024D01*
X100614727Y-112078814D01*
X100788538Y-111985910D01*
X100940883Y-111860883D01*
X101065910Y-111708538D01*
X101158814Y-111534727D01*
X101216024Y-111346132D01*
X101221553Y-111290000D01*
X101223030Y-111275000D01*
X106807229Y-111275000D01*
X106815190Y-111355830D01*
X106815191Y-111355836D01*
X106875232Y-111553762D01*
X106875234Y-111553767D01*
X106972724Y-111736160D01*
X106972731Y-111736170D01*
X107103940Y-111896050D01*
X107103949Y-111896059D01*
X107263829Y-112027268D01*
X107263839Y-112027275D01*
X107446232Y-112124765D01*
X107446237Y-112124767D01*
X107644166Y-112184808D01*
X107724998Y-112192769D01*
X107725000Y-112192768D01*
X107725000Y-111535188D01*
X107818519Y-111550000D01*
X107881481Y-111550000D01*
X107975000Y-111535188D01*
X107975000Y-112192768D01*
X107975001Y-112192769D01*
X108055833Y-112184808D01*
X108253762Y-112124767D01*
X108253767Y-112124765D01*
X108436160Y-112027275D01*
X108436170Y-112027268D01*
X108596050Y-111896059D01*
X108596059Y-111896050D01*
X108727268Y-111736170D01*
X108727275Y-111736160D01*
X108824765Y-111553767D01*
X108824767Y-111553762D01*
X108884808Y-111355836D01*
X108884809Y-111355830D01*
X108892771Y-111275000D01*
X108235188Y-111275000D01*
X108254986Y-111150000D01*
X108235188Y-111025000D01*
X108892770Y-111025000D01*
X108892770Y-111024999D01*
X108884809Y-110944169D01*
X108884808Y-110944163D01*
X108824767Y-110746237D01*
X108824765Y-110746232D01*
X108727275Y-110563839D01*
X108727268Y-110563829D01*
X108596059Y-110403949D01*
X108596050Y-110403940D01*
X108436170Y-110272731D01*
X108436160Y-110272724D01*
X108253767Y-110175234D01*
X108253762Y-110175232D01*
X108055836Y-110115191D01*
X108055830Y-110115190D01*
X107975000Y-110107229D01*
X107975000Y-110764811D01*
X107881481Y-110750000D01*
X107818519Y-110750000D01*
X107725000Y-110764811D01*
X107725000Y-110107229D01*
X107724999Y-110107229D01*
X107644169Y-110115190D01*
X107644163Y-110115191D01*
X107446237Y-110175232D01*
X107446232Y-110175234D01*
X107263839Y-110272724D01*
X107263829Y-110272731D01*
X107103949Y-110403940D01*
X107103940Y-110403949D01*
X106972731Y-110563829D01*
X106972724Y-110563839D01*
X106875234Y-110746232D01*
X106875232Y-110746237D01*
X106815191Y-110944163D01*
X106815190Y-110944169D01*
X106807229Y-111024999D01*
X106807230Y-111025000D01*
X107464812Y-111025000D01*
X107445014Y-111150000D01*
X107464812Y-111275000D01*
X106807229Y-111275000D01*
X101223030Y-111275000D01*
X101235341Y-111150003D01*
X101235341Y-111149996D01*
X101216025Y-110953873D01*
X101216024Y-110953870D01*
X101216024Y-110953868D01*
X101158814Y-110765273D01*
X101150650Y-110750000D01*
X101126054Y-110703983D01*
X101065910Y-110591462D01*
X101043232Y-110563829D01*
X100940887Y-110439121D01*
X100940878Y-110439112D01*
X100788542Y-110314093D01*
X100788540Y-110314092D01*
X100788538Y-110314090D01*
X100711148Y-110272724D01*
X100614732Y-110221188D01*
X100614730Y-110221187D01*
X100599358Y-110216524D01*
X100475880Y-110179067D01*
X100426129Y-110163975D01*
X100426126Y-110163974D01*
X100230003Y-110144659D01*
X100229997Y-110144659D01*
X100033873Y-110163974D01*
X100033870Y-110163975D01*
X99845269Y-110221187D01*
X99845267Y-110221188D01*
X99671467Y-110314087D01*
X99671457Y-110314093D01*
X99519121Y-110439112D01*
X99519112Y-110439121D01*
X99394093Y-110591457D01*
X99394087Y-110591467D01*
X99301188Y-110765267D01*
X99301187Y-110765269D01*
X99243975Y-110953870D01*
X99243974Y-110953873D01*
X99224659Y-111149996D01*
X99224659Y-111150003D01*
X63883470Y-111150003D01*
X64007639Y-111092102D01*
X64186877Y-110966598D01*
X64341598Y-110811877D01*
X64467102Y-110632639D01*
X64559575Y-110434330D01*
X64616207Y-110222977D01*
X64616773Y-110216515D01*
X64635277Y-110005003D01*
X64635277Y-110004996D01*
X64616208Y-109787030D01*
X64616207Y-109787027D01*
X64616207Y-109787023D01*
X64559575Y-109575670D01*
X64467102Y-109377362D01*
X64383292Y-109257668D01*
X64360418Y-109225000D01*
X75944785Y-109225000D01*
X75963603Y-109428083D01*
X76019418Y-109624250D01*
X76110327Y-109806821D01*
X76233236Y-109969579D01*
X76383959Y-110106981D01*
X76557363Y-110214348D01*
X76747544Y-110288024D01*
X76948024Y-110325500D01*
X77151976Y-110325500D01*
X77352456Y-110288024D01*
X77542637Y-110214348D01*
X77716041Y-110106981D01*
X77866764Y-109969579D01*
X77989673Y-109806821D01*
X78080582Y-109624250D01*
X78136397Y-109428083D01*
X78155215Y-109225000D01*
X88644785Y-109225000D01*
X88663603Y-109428083D01*
X88719418Y-109624250D01*
X88810327Y-109806821D01*
X88933236Y-109969579D01*
X89083959Y-110106981D01*
X89257363Y-110214348D01*
X89447544Y-110288024D01*
X89648024Y-110325500D01*
X89851976Y-110325500D01*
X90052456Y-110288024D01*
X90242637Y-110214348D01*
X90416041Y-110106981D01*
X90566764Y-109969579D01*
X90689673Y-109806821D01*
X90780582Y-109624250D01*
X90836397Y-109428083D01*
X90855215Y-109225000D01*
X90836397Y-109021917D01*
X90780582Y-108825750D01*
X90689673Y-108643179D01*
X90664620Y-108610003D01*
X99224659Y-108610003D01*
X99243974Y-108806126D01*
X99243975Y-108806129D01*
X99249926Y-108825747D01*
X99293826Y-108970466D01*
X99301187Y-108994730D01*
X99301188Y-108994732D01*
X99315719Y-109021917D01*
X99394090Y-109168538D01*
X99394092Y-109168540D01*
X99394093Y-109168542D01*
X99519112Y-109320878D01*
X99519121Y-109320887D01*
X99649740Y-109428083D01*
X99671462Y-109445910D01*
X99845273Y-109538814D01*
X100033868Y-109596024D01*
X100033870Y-109596024D01*
X100033873Y-109596025D01*
X100229997Y-109615341D01*
X100230000Y-109615341D01*
X100230003Y-109615341D01*
X100426126Y-109596025D01*
X100426127Y-109596024D01*
X100426132Y-109596024D01*
X100614727Y-109538814D01*
X100788538Y-109445910D01*
X100940883Y-109320883D01*
X101065910Y-109168538D01*
X101158814Y-108994727D01*
X101216024Y-108806132D01*
X101216389Y-108802435D01*
X101235341Y-108610003D01*
X106844659Y-108610003D01*
X106863974Y-108806126D01*
X106863975Y-108806129D01*
X106869926Y-108825747D01*
X106913826Y-108970466D01*
X106921187Y-108994730D01*
X106921188Y-108994732D01*
X106935719Y-109021917D01*
X107014090Y-109168538D01*
X107014092Y-109168540D01*
X107014093Y-109168542D01*
X107139112Y-109320878D01*
X107139121Y-109320887D01*
X107269740Y-109428083D01*
X107291462Y-109445910D01*
X107465273Y-109538814D01*
X107653868Y-109596024D01*
X107653870Y-109596024D01*
X107653873Y-109596025D01*
X107849997Y-109615341D01*
X107850000Y-109615341D01*
X107850003Y-109615341D01*
X108046126Y-109596025D01*
X108046127Y-109596024D01*
X108046132Y-109596024D01*
X108234727Y-109538814D01*
X108408538Y-109445910D01*
X108560883Y-109320883D01*
X108685910Y-109168538D01*
X108778814Y-108994727D01*
X108836024Y-108806132D01*
X108836389Y-108802435D01*
X108855341Y-108610003D01*
X108855341Y-108609996D01*
X108836025Y-108413873D01*
X108836024Y-108413870D01*
X108836024Y-108413868D01*
X108778814Y-108225273D01*
X108685910Y-108051462D01*
X108626894Y-107979551D01*
X108560887Y-107899121D01*
X108560878Y-107899112D01*
X108408542Y-107774093D01*
X108408540Y-107774092D01*
X108408538Y-107774090D01*
X108367618Y-107752218D01*
X108234732Y-107681188D01*
X108234730Y-107681187D01*
X108234222Y-107681033D01*
X108046132Y-107623976D01*
X108046129Y-107623975D01*
X108046126Y-107623974D01*
X107850003Y-107604659D01*
X107849997Y-107604659D01*
X107653873Y-107623974D01*
X107653870Y-107623975D01*
X107465269Y-107681187D01*
X107465267Y-107681188D01*
X107291467Y-107774087D01*
X107291457Y-107774093D01*
X107139121Y-107899112D01*
X107139112Y-107899121D01*
X107014093Y-108051457D01*
X107014087Y-108051467D01*
X106921188Y-108225267D01*
X106921187Y-108225269D01*
X106863975Y-108413870D01*
X106863974Y-108413873D01*
X106844659Y-108609996D01*
X106844659Y-108610003D01*
X101235341Y-108610003D01*
X101235341Y-108609996D01*
X101216025Y-108413873D01*
X101216024Y-108413870D01*
X101216024Y-108413868D01*
X101158814Y-108225273D01*
X101065910Y-108051462D01*
X101006894Y-107979551D01*
X100940887Y-107899121D01*
X100940878Y-107899112D01*
X100788542Y-107774093D01*
X100788540Y-107774092D01*
X100788538Y-107774090D01*
X100747618Y-107752218D01*
X100614732Y-107681188D01*
X100614730Y-107681187D01*
X100614222Y-107681033D01*
X100426132Y-107623976D01*
X100426129Y-107623975D01*
X100426126Y-107623974D01*
X100230003Y-107604659D01*
X100229997Y-107604659D01*
X100033873Y-107623974D01*
X100033870Y-107623975D01*
X99845269Y-107681187D01*
X99845267Y-107681188D01*
X99671467Y-107774087D01*
X99671457Y-107774093D01*
X99519121Y-107899112D01*
X99519112Y-107899121D01*
X99394093Y-108051457D01*
X99394087Y-108051467D01*
X99301188Y-108225267D01*
X99301187Y-108225269D01*
X99243975Y-108413870D01*
X99243974Y-108413873D01*
X99224659Y-108609996D01*
X99224659Y-108610003D01*
X90664620Y-108610003D01*
X90566764Y-108480421D01*
X90416041Y-108343019D01*
X90242637Y-108235652D01*
X90052456Y-108161976D01*
X90052455Y-108161975D01*
X90052453Y-108161975D01*
X89851976Y-108124500D01*
X89648024Y-108124500D01*
X89447546Y-108161975D01*
X89377632Y-108189059D01*
X89257363Y-108235652D01*
X89094006Y-108336798D01*
X89083959Y-108343019D01*
X89041784Y-108381467D01*
X88933236Y-108480421D01*
X88925502Y-108490663D01*
X88810328Y-108643177D01*
X88810323Y-108643186D01*
X88719419Y-108825747D01*
X88719418Y-108825750D01*
X88663603Y-109021917D01*
X88644785Y-109225000D01*
X78155215Y-109225000D01*
X78136397Y-109021917D01*
X78080582Y-108825750D01*
X77989673Y-108643179D01*
X77866764Y-108480421D01*
X77716041Y-108343019D01*
X77542637Y-108235652D01*
X77352456Y-108161976D01*
X77352455Y-108161975D01*
X77352453Y-108161975D01*
X77151976Y-108124500D01*
X76948024Y-108124500D01*
X76747546Y-108161975D01*
X76677632Y-108189059D01*
X76557363Y-108235652D01*
X76394006Y-108336798D01*
X76383959Y-108343019D01*
X76341784Y-108381467D01*
X76233236Y-108480421D01*
X76225502Y-108490663D01*
X76110328Y-108643177D01*
X76110323Y-108643186D01*
X76019419Y-108825747D01*
X76019418Y-108825750D01*
X75963603Y-109021917D01*
X75944785Y-109225000D01*
X64360418Y-109225000D01*
X64341601Y-109198127D01*
X64341600Y-109198126D01*
X64341598Y-109198123D01*
X64186877Y-109043402D01*
X64186873Y-109043399D01*
X64186872Y-109043398D01*
X64065979Y-108958748D01*
X64007639Y-108917898D01*
X63978316Y-108904224D01*
X63933569Y-108862496D01*
X63921894Y-108802435D01*
X63947752Y-108746982D01*
X64001266Y-108717319D01*
X64020156Y-108715500D01*
X64449747Y-108715500D01*
X64449748Y-108715500D01*
X64508231Y-108703867D01*
X64574552Y-108659552D01*
X64618867Y-108593231D01*
X64630500Y-108534748D01*
X64630500Y-106395252D01*
X64618867Y-106336769D01*
X64574552Y-106270448D01*
X64568093Y-106266132D01*
X64508233Y-106226134D01*
X64508231Y-106226133D01*
X64508228Y-106226132D01*
X64508227Y-106226132D01*
X64449758Y-106214501D01*
X64449748Y-106214500D01*
X62310252Y-106214500D01*
X62310251Y-106214500D01*
X62310241Y-106214501D01*
X62251772Y-106226132D01*
X62251766Y-106226134D01*
X62185451Y-106270445D01*
X62185445Y-106270451D01*
X62141134Y-106336766D01*
X62141132Y-106336772D01*
X62129501Y-106395241D01*
X62129500Y-106395253D01*
X62129500Y-108534746D01*
X62129501Y-108534758D01*
X62141132Y-108593227D01*
X62141134Y-108593233D01*
X62174512Y-108643186D01*
X62185448Y-108659552D01*
X62251769Y-108703867D01*
X62296231Y-108712711D01*
X62310241Y-108715498D01*
X62310246Y-108715498D01*
X62310252Y-108715500D01*
X62310253Y-108715500D01*
X62739845Y-108715500D01*
X62798036Y-108734407D01*
X62834000Y-108783907D01*
X62834000Y-108845093D01*
X62798036Y-108894593D01*
X62781684Y-108904225D01*
X62752363Y-108917897D01*
X62573127Y-109043398D01*
X62418398Y-109198127D01*
X62292896Y-109377364D01*
X62292892Y-109377372D01*
X62200426Y-109575666D01*
X62143791Y-109787030D01*
X62124723Y-110004996D01*
X62124723Y-110005003D01*
X58950500Y-110005003D01*
X58950500Y-106070003D01*
X99224659Y-106070003D01*
X99243974Y-106266126D01*
X99243975Y-106266129D01*
X99301187Y-106454730D01*
X99301188Y-106454732D01*
X99311360Y-106473762D01*
X99394090Y-106628538D01*
X99394092Y-106628540D01*
X99394093Y-106628542D01*
X99519112Y-106780878D01*
X99519121Y-106780887D01*
X99671457Y-106905906D01*
X99671462Y-106905910D01*
X99845273Y-106998814D01*
X100033868Y-107056024D01*
X100033870Y-107056024D01*
X100033873Y-107056025D01*
X100229997Y-107075341D01*
X100230000Y-107075341D01*
X100230003Y-107075341D01*
X100426126Y-107056025D01*
X100426127Y-107056024D01*
X100426132Y-107056024D01*
X100614727Y-106998814D01*
X100788538Y-106905910D01*
X100940883Y-106780883D01*
X101065910Y-106628538D01*
X101158814Y-106454727D01*
X101216024Y-106266132D01*
X101219964Y-106226134D01*
X101223030Y-106195000D01*
X106807229Y-106195000D01*
X106815190Y-106275830D01*
X106815191Y-106275836D01*
X106875232Y-106473762D01*
X106875234Y-106473767D01*
X106972724Y-106656160D01*
X106972731Y-106656170D01*
X107103940Y-106816050D01*
X107103949Y-106816059D01*
X107263829Y-106947268D01*
X107263839Y-106947275D01*
X107446232Y-107044765D01*
X107446237Y-107044767D01*
X107644166Y-107104808D01*
X107724998Y-107112769D01*
X107725000Y-107112768D01*
X107725000Y-106455188D01*
X107818519Y-106470000D01*
X107881481Y-106470000D01*
X107975000Y-106455188D01*
X107975000Y-107112768D01*
X107975001Y-107112769D01*
X108055833Y-107104808D01*
X108253762Y-107044767D01*
X108253767Y-107044765D01*
X108436160Y-106947275D01*
X108436170Y-106947268D01*
X108596050Y-106816059D01*
X108596059Y-106816050D01*
X108727268Y-106656170D01*
X108727275Y-106656160D01*
X108824765Y-106473767D01*
X108824767Y-106473762D01*
X108884808Y-106275836D01*
X108884809Y-106275830D01*
X108892771Y-106195000D01*
X108235188Y-106195000D01*
X108254986Y-106070000D01*
X108235188Y-105945000D01*
X108892770Y-105945000D01*
X108892770Y-105944999D01*
X108884809Y-105864169D01*
X108884808Y-105864163D01*
X108824767Y-105666237D01*
X108824765Y-105666232D01*
X108727275Y-105483839D01*
X108727268Y-105483829D01*
X108596059Y-105323949D01*
X108596050Y-105323940D01*
X108436170Y-105192731D01*
X108436160Y-105192724D01*
X108253767Y-105095234D01*
X108253762Y-105095232D01*
X108055836Y-105035191D01*
X108055830Y-105035190D01*
X107975000Y-105027229D01*
X107975000Y-105684811D01*
X107881481Y-105670000D01*
X107818519Y-105670000D01*
X107725000Y-105684811D01*
X107725000Y-105027229D01*
X107724999Y-105027229D01*
X107644169Y-105035190D01*
X107644163Y-105035191D01*
X107446237Y-105095232D01*
X107446232Y-105095234D01*
X107263839Y-105192724D01*
X107263829Y-105192731D01*
X107103949Y-105323940D01*
X107103940Y-105323949D01*
X106972731Y-105483829D01*
X106972724Y-105483839D01*
X106875234Y-105666232D01*
X106875232Y-105666237D01*
X106815191Y-105864163D01*
X106815190Y-105864169D01*
X106807229Y-105944999D01*
X106807230Y-105945000D01*
X107464812Y-105945000D01*
X107445014Y-106070000D01*
X107464812Y-106195000D01*
X106807229Y-106195000D01*
X101223030Y-106195000D01*
X101235341Y-106070003D01*
X101235341Y-106069996D01*
X101216025Y-105873873D01*
X101216024Y-105873870D01*
X101216024Y-105873868D01*
X101158814Y-105685273D01*
X101150650Y-105670000D01*
X101136942Y-105644353D01*
X101065910Y-105511462D01*
X101043232Y-105483829D01*
X100940887Y-105359121D01*
X100940878Y-105359112D01*
X100788542Y-105234093D01*
X100788540Y-105234092D01*
X100788538Y-105234090D01*
X100711148Y-105192724D01*
X100614732Y-105141188D01*
X100614730Y-105141187D01*
X100614222Y-105141033D01*
X100513566Y-105110499D01*
X100426129Y-105083975D01*
X100426126Y-105083974D01*
X100230003Y-105064659D01*
X100229997Y-105064659D01*
X100033873Y-105083974D01*
X100033870Y-105083975D01*
X99845269Y-105141187D01*
X99845267Y-105141188D01*
X99671467Y-105234087D01*
X99671457Y-105234093D01*
X99519121Y-105359112D01*
X99519112Y-105359121D01*
X99394093Y-105511457D01*
X99394087Y-105511467D01*
X99301188Y-105685267D01*
X99301187Y-105685269D01*
X99243975Y-105873870D01*
X99243974Y-105873873D01*
X99224659Y-106069996D01*
X99224659Y-106070003D01*
X58950500Y-106070003D01*
X58950500Y-103410002D01*
X79044732Y-103410002D01*
X79063777Y-103664152D01*
X79063779Y-103664161D01*
X79120492Y-103912639D01*
X79187433Y-104083199D01*
X79213607Y-104149888D01*
X79341041Y-104370612D01*
X79341045Y-104370618D01*
X79341047Y-104370620D01*
X79499940Y-104569866D01*
X79499951Y-104569878D01*
X79686776Y-104743226D01*
X79686778Y-104743227D01*
X79686783Y-104743232D01*
X79897366Y-104886805D01*
X80126996Y-104997389D01*
X80370542Y-105072513D01*
X80622565Y-105110500D01*
X80622570Y-105110500D01*
X80877430Y-105110500D01*
X80877435Y-105110500D01*
X81129458Y-105072513D01*
X81373004Y-104997389D01*
X81602634Y-104886805D01*
X81813217Y-104743232D01*
X82000050Y-104569877D01*
X82158959Y-104370612D01*
X82286393Y-104149888D01*
X82379508Y-103912637D01*
X82436222Y-103664157D01*
X82455268Y-103410000D01*
X82436222Y-103155843D01*
X82379508Y-102907363D01*
X82356994Y-102850000D01*
X82311310Y-102733599D01*
X82286393Y-102670112D01*
X82158959Y-102449388D01*
X82146694Y-102434008D01*
X82000059Y-102250133D01*
X82000048Y-102250121D01*
X81813223Y-102076773D01*
X81813220Y-102076771D01*
X81813217Y-102076768D01*
X81602634Y-101933195D01*
X81601367Y-101932585D01*
X81373004Y-101822611D01*
X81129462Y-101747488D01*
X81129459Y-101747487D01*
X81129458Y-101747487D01*
X81129453Y-101747486D01*
X81129452Y-101747486D01*
X80877438Y-101709500D01*
X80877435Y-101709500D01*
X80622565Y-101709500D01*
X80622561Y-101709500D01*
X80370547Y-101747486D01*
X80370537Y-101747488D01*
X80126995Y-101822611D01*
X79897373Y-101933191D01*
X79897369Y-101933193D01*
X79897366Y-101933195D01*
X79766625Y-102022333D01*
X79686776Y-102076773D01*
X79499951Y-102250121D01*
X79499940Y-102250133D01*
X79341047Y-102449379D01*
X79341043Y-102449384D01*
X79341041Y-102449388D01*
X79311090Y-102501265D01*
X79213608Y-102670109D01*
X79213604Y-102670118D01*
X79120492Y-102907360D01*
X79063779Y-103155838D01*
X79063777Y-103155847D01*
X79044732Y-103409997D01*
X79044732Y-103410002D01*
X58950500Y-103410002D01*
X58950500Y-101460000D01*
X73344529Y-101460000D01*
X73364379Y-101699561D01*
X73364379Y-101699562D01*
X73423388Y-101932585D01*
X73423390Y-101932591D01*
X73463483Y-102023993D01*
X73519950Y-102152727D01*
X73519953Y-102152732D01*
X73651425Y-102353964D01*
X73651427Y-102353966D01*
X73651429Y-102353969D01*
X73814236Y-102530825D01*
X74003933Y-102678472D01*
X74105799Y-102733599D01*
X74210018Y-102790000D01*
X74215344Y-102792882D01*
X74442703Y-102870934D01*
X74679808Y-102910500D01*
X74920192Y-102910500D01*
X75157297Y-102870934D01*
X75384656Y-102792882D01*
X75596067Y-102678472D01*
X75785764Y-102530825D01*
X75948571Y-102353969D01*
X76080049Y-102152728D01*
X76176610Y-101932591D01*
X76235620Y-101699563D01*
X76255471Y-101460000D01*
X85344529Y-101460000D01*
X85364379Y-101699561D01*
X85364379Y-101699562D01*
X85423388Y-101932585D01*
X85423390Y-101932591D01*
X85463483Y-102023993D01*
X85519950Y-102152727D01*
X85519953Y-102152732D01*
X85651425Y-102353964D01*
X85651427Y-102353966D01*
X85651429Y-102353969D01*
X85814236Y-102530825D01*
X86003933Y-102678472D01*
X86105799Y-102733599D01*
X86210018Y-102790000D01*
X86215344Y-102792882D01*
X86442703Y-102870934D01*
X86679808Y-102910500D01*
X86920192Y-102910500D01*
X87157297Y-102870934D01*
X87384656Y-102792882D01*
X87596067Y-102678472D01*
X87785764Y-102530825D01*
X87948571Y-102353969D01*
X88080049Y-102152728D01*
X88085743Y-102139746D01*
X121599500Y-102139746D01*
X121599501Y-102139758D01*
X121611132Y-102198227D01*
X121611134Y-102198233D01*
X121645813Y-102250133D01*
X121655448Y-102264552D01*
X121721769Y-102308867D01*
X121766231Y-102317711D01*
X121780241Y-102320498D01*
X121780246Y-102320498D01*
X121780252Y-102320500D01*
X121780253Y-102320500D01*
X123419747Y-102320500D01*
X123419748Y-102320500D01*
X123478231Y-102308867D01*
X123544552Y-102264552D01*
X123588867Y-102198231D01*
X123600500Y-102139748D01*
X123600500Y-100500252D01*
X123588867Y-100441769D01*
X123544552Y-100375448D01*
X123544548Y-100375445D01*
X123478233Y-100331134D01*
X123478231Y-100331133D01*
X123478228Y-100331132D01*
X123478227Y-100331132D01*
X123419758Y-100319501D01*
X123419748Y-100319500D01*
X121780252Y-100319500D01*
X121780251Y-100319500D01*
X121780241Y-100319501D01*
X121721772Y-100331132D01*
X121721766Y-100331134D01*
X121655451Y-100375445D01*
X121655445Y-100375451D01*
X121611134Y-100441766D01*
X121611132Y-100441772D01*
X121599501Y-100500241D01*
X121599500Y-100500253D01*
X121599500Y-102139746D01*
X88085743Y-102139746D01*
X88176610Y-101932591D01*
X88235620Y-101699563D01*
X88255471Y-101460000D01*
X88235620Y-101220437D01*
X88176610Y-100987409D01*
X88080049Y-100767272D01*
X87991563Y-100631835D01*
X87948574Y-100566035D01*
X87948572Y-100566033D01*
X87948571Y-100566031D01*
X87785764Y-100389175D01*
X87696247Y-100319501D01*
X87596070Y-100241530D01*
X87596067Y-100241528D01*
X87384659Y-100127119D01*
X87367796Y-100121330D01*
X87157297Y-100049066D01*
X87157294Y-100049065D01*
X87157293Y-100049065D01*
X86920192Y-100009500D01*
X86679808Y-100009500D01*
X86442706Y-100049065D01*
X86215340Y-100127119D01*
X86003932Y-100241528D01*
X86003929Y-100241530D01*
X85814239Y-100389172D01*
X85651425Y-100566035D01*
X85519953Y-100767267D01*
X85519950Y-100767272D01*
X85444846Y-100938494D01*
X85428870Y-100974917D01*
X85423388Y-100987414D01*
X85364379Y-101220437D01*
X85364379Y-101220438D01*
X85344529Y-101460000D01*
X76255471Y-101460000D01*
X76235620Y-101220437D01*
X76176610Y-100987409D01*
X76080049Y-100767272D01*
X75991563Y-100631835D01*
X75948574Y-100566035D01*
X75948572Y-100566033D01*
X75948571Y-100566031D01*
X75785764Y-100389175D01*
X75696247Y-100319501D01*
X75596070Y-100241530D01*
X75596067Y-100241528D01*
X75384659Y-100127119D01*
X75367796Y-100121330D01*
X75157297Y-100049066D01*
X75157294Y-100049065D01*
X75157293Y-100049065D01*
X74920192Y-100009500D01*
X74679808Y-100009500D01*
X74442706Y-100049065D01*
X74215340Y-100127119D01*
X74003932Y-100241528D01*
X74003929Y-100241530D01*
X73814239Y-100389172D01*
X73651425Y-100566035D01*
X73519953Y-100767267D01*
X73519950Y-100767272D01*
X73444846Y-100938494D01*
X73428870Y-100974917D01*
X73423388Y-100987414D01*
X73364379Y-101220437D01*
X73364379Y-101220438D01*
X73344529Y-101460000D01*
X58950500Y-101460000D01*
X58950500Y-98684746D01*
X63919500Y-98684746D01*
X63919501Y-98684758D01*
X63931132Y-98743227D01*
X63931134Y-98743233D01*
X63969367Y-98800452D01*
X63975448Y-98809552D01*
X64041769Y-98853867D01*
X64086231Y-98862711D01*
X64100241Y-98865498D01*
X64100246Y-98865498D01*
X64100252Y-98865500D01*
X64100253Y-98865500D01*
X68099747Y-98865500D01*
X68099748Y-98865500D01*
X68158231Y-98853867D01*
X68224552Y-98809552D01*
X68268867Y-98743231D01*
X68280500Y-98684748D01*
X68280500Y-96665252D01*
X68268867Y-96606769D01*
X68224552Y-96540448D01*
X68224548Y-96540445D01*
X68158233Y-96496134D01*
X68158231Y-96496133D01*
X68158228Y-96496132D01*
X68158227Y-96496132D01*
X68099758Y-96484501D01*
X68099748Y-96484500D01*
X64100252Y-96484500D01*
X64100251Y-96484500D01*
X64100241Y-96484501D01*
X64041772Y-96496132D01*
X64041766Y-96496134D01*
X63975451Y-96540445D01*
X63975445Y-96540451D01*
X63931134Y-96606766D01*
X63931132Y-96606772D01*
X63919501Y-96665241D01*
X63919500Y-96665253D01*
X63919500Y-98684746D01*
X58950500Y-98684746D01*
X58950500Y-92785316D01*
X63919500Y-92785316D01*
X63931603Y-92850062D01*
X63960035Y-93002163D01*
X63960041Y-93002191D01*
X64026189Y-93172939D01*
X64039743Y-93207925D01*
X64039746Y-93207930D01*
X64104762Y-93312935D01*
X64155891Y-93395510D01*
X64304529Y-93558559D01*
X64480598Y-93691520D01*
X64678099Y-93789864D01*
X64890309Y-93850243D01*
X65054961Y-93865500D01*
X65054966Y-93865500D01*
X67145034Y-93865500D01*
X67145039Y-93865500D01*
X67309691Y-93850243D01*
X67521901Y-93789864D01*
X67719402Y-93691520D01*
X67895471Y-93558559D01*
X68044109Y-93395510D01*
X68160257Y-93207925D01*
X68239959Y-93002191D01*
X68280500Y-92785316D01*
X68280500Y-92564684D01*
X68239959Y-92347809D01*
X68160257Y-92142075D01*
X68044109Y-91954490D01*
X67895471Y-91791441D01*
X67719402Y-91658480D01*
X67521901Y-91560136D01*
X67309691Y-91499757D01*
X67254807Y-91494671D01*
X67145041Y-91484500D01*
X67145039Y-91484500D01*
X65054961Y-91484500D01*
X65054958Y-91484500D01*
X64890309Y-91499757D01*
X64678099Y-91560136D01*
X64678098Y-91560136D01*
X64678096Y-91560137D01*
X64480605Y-91658476D01*
X64480596Y-91658481D01*
X64304528Y-91791442D01*
X64155891Y-91954489D01*
X64155889Y-91954492D01*
X64039746Y-92142069D01*
X64039743Y-92142074D01*
X63960040Y-92347811D01*
X63942615Y-92441028D01*
X63919500Y-92564684D01*
X63919500Y-92785316D01*
X58950500Y-92785316D01*
X58950500Y-89210002D01*
X73044732Y-89210002D01*
X73063777Y-89464152D01*
X73063779Y-89464161D01*
X73120492Y-89712639D01*
X73188542Y-89886024D01*
X73213607Y-89949888D01*
X73341041Y-90170612D01*
X73341045Y-90170618D01*
X73341047Y-90170620D01*
X73499940Y-90369866D01*
X73499951Y-90369878D01*
X73686776Y-90543226D01*
X73686778Y-90543227D01*
X73686783Y-90543232D01*
X73897366Y-90686805D01*
X74126996Y-90797389D01*
X74370542Y-90872513D01*
X74622565Y-90910500D01*
X74622570Y-90910500D01*
X74877430Y-90910500D01*
X74877435Y-90910500D01*
X75129458Y-90872513D01*
X75373004Y-90797389D01*
X75602634Y-90686805D01*
X75813217Y-90543232D01*
X76000050Y-90369877D01*
X76158959Y-90170612D01*
X76286393Y-89949888D01*
X76379508Y-89712637D01*
X76436222Y-89464157D01*
X76455268Y-89210000D01*
X76436222Y-88955843D01*
X76379508Y-88707363D01*
X76371175Y-88686132D01*
X76348469Y-88628279D01*
X76286393Y-88470112D01*
X76158959Y-88249388D01*
X76110898Y-88189121D01*
X76000059Y-88050133D01*
X76000048Y-88050121D01*
X75813223Y-87876773D01*
X75813220Y-87876771D01*
X75813217Y-87876768D01*
X75602634Y-87733195D01*
X75373004Y-87622611D01*
X75129462Y-87547488D01*
X75129459Y-87547487D01*
X75129458Y-87547487D01*
X75129453Y-87547486D01*
X75129452Y-87547486D01*
X74877438Y-87509500D01*
X74877435Y-87509500D01*
X74622565Y-87509500D01*
X74622561Y-87509500D01*
X74370547Y-87547486D01*
X74370537Y-87547488D01*
X74126995Y-87622611D01*
X73897373Y-87733191D01*
X73897369Y-87733193D01*
X73897366Y-87733195D01*
X73686783Y-87876768D01*
X73686776Y-87876773D01*
X73499951Y-88050121D01*
X73499940Y-88050133D01*
X73341047Y-88249379D01*
X73341043Y-88249384D01*
X73341041Y-88249388D01*
X73287880Y-88341467D01*
X73213608Y-88470109D01*
X73213604Y-88470118D01*
X73120492Y-88707360D01*
X73063779Y-88955838D01*
X73063777Y-88955847D01*
X73044732Y-89209997D01*
X73044732Y-89210002D01*
X58950500Y-89210002D01*
X58950500Y-79463988D01*
X59780215Y-79463988D01*
X59780215Y-82083230D01*
X59780216Y-82083230D01*
X70575167Y-82083230D01*
X70575168Y-82083230D01*
X70575168Y-79463988D01*
X59780215Y-79463988D01*
X58950500Y-79463988D01*
X58950500Y-79089500D01*
X58969407Y-79031309D01*
X59018907Y-78995345D01*
X59049500Y-78990500D01*
X115104100Y-78990500D01*
X115162291Y-79009407D01*
G37*
%TD.AperFunction*%
%TD*%
M02*
