M48
; DRILL file {KiCad 7.0.9} date Mon Dec  4 18:13:52 2023
; FORMAT={-:-/ absolute / metric / decimal}
; #@! TF.CreationDate,2023-12-04T18:13:52+01:00
; #@! TF.GenerationSoftware,Kicad,Pcbnew,7.0.9
; #@! TF.FileFunction,Plated,1,2,PTH
FMAT,2
METRIC
; #@! TA.AperFunction,Plated,PTH,ViaDrill
T1C0.500
; #@! TA.AperFunction,Plated,PTH,ComponentDrill
T2C0.800
; #@! TA.AperFunction,Plated,PTH,ComponentDrill
T3C0.900
; #@! TA.AperFunction,Plated,PTH,ComponentDrill
T4C1.000
; #@! TA.AperFunction,Plated,PTH,ComponentDrill
T5C1.100
; #@! TA.AperFunction,Plated,PTH,ComponentDrill
T6C1.300
; #@! TA.AperFunction,Plated,PTH,ComponentDrill
T7C1.320
%
G90
G05
T1
X63.4Y-119.2
X91.775Y-91.875
X94.15Y-107.925
X102.325Y-95.3
X104.9Y-98.39
X105.425Y-91.8
X107.95Y-94.05
X109.35Y-112.225
X109.4Y-106.025
X112.2Y-112.39
X113.15Y-108.39
X117.325Y-110.975
X130.125Y-111.0
X137.1Y-111.29
X142.35Y-110.975
X149.2Y-111.31
X155.739Y-105.939
X155.875Y-95.0
X156.45Y-117.19
X157.0Y-119.24
X157.55Y-88.95
X164.45Y-90.925
X166.826Y-97.773
X167.39Y-98.474
X168.125Y-87.875
X171.1Y-87.25
X171.52Y-81.58
X174.703Y-98.664
X177.9Y-85.74
X177.9Y-86.66
X177.975Y-108.325
X178.399Y-93.463
X178.404Y-92.564
X179.275Y-117.325
X181.68Y-85.74
X181.68Y-86.66
X181.875Y-102.4
T2
X100.23Y-106.07
X100.23Y-108.61
X100.23Y-111.15
X100.23Y-113.69
X107.85Y-106.07
X107.85Y-108.61
X107.85Y-111.15
X107.85Y-113.69
X122.6Y-81.28
X122.6Y-88.9
X122.6Y-91.28
X122.6Y-98.9
X122.6Y-101.32
X122.6Y-108.94
X122.6Y-111.31
X122.6Y-118.93
X135.35Y-81.28
X135.35Y-88.9
X135.35Y-91.28
X135.35Y-98.9
X135.35Y-101.32
X135.35Y-108.94
X135.35Y-111.31
X135.35Y-118.93
X147.6Y-81.28
X147.6Y-88.9
X147.6Y-91.28
X147.6Y-98.9
X147.6Y-101.32
X147.6Y-108.94
X147.6Y-111.31
X147.6Y-118.93
T3
X187.68Y-89.7
X187.68Y-92.24
X187.68Y-94.78
X187.68Y-97.32
X187.68Y-99.86
X187.68Y-102.4
X187.68Y-104.94
X187.68Y-107.48
T4
X74.8Y-101.46
X86.8Y-101.46
T5
X63.38Y-107.465
X63.38Y-110.005
X63.38Y-114.33
X63.38Y-116.87
T6
X74.51Y-116.825
X74.75Y-89.21
X77.05Y-109.225
X80.75Y-103.41
X89.75Y-109.225
X89.75Y-116.825
T7
X66.1Y-92.675
X66.1Y-97.675
T0
M30
