%TF.GenerationSoftware,KiCad,Pcbnew,7.0.9*%
%TF.CreationDate,2023-12-04T18:13:03+01:00*%
%TF.ProjectId,projekt1,70726f6a-656b-4743-912e-6b696361645f,rev?*%
%TF.SameCoordinates,Original*%
%TF.FileFunction,Legend,Top*%
%TF.FilePolarity,Positive*%
%FSLAX46Y46*%
G04 Gerber Fmt 4.6, Leading zero omitted, Abs format (unit mm)*
G04 Created by KiCad (PCBNEW 7.0.9) date 2023-12-04 18:13:03*
%MOMM*%
%LPD*%
G01*
G04 APERTURE LIST*
%ADD10C,0.150000*%
%ADD11C,0.100000*%
%ADD12C,0.254000*%
%ADD13C,0.120000*%
%ADD14C,0.200000*%
G04 APERTURE END LIST*
D10*
X141040476Y-106757200D02*
X141183333Y-106804819D01*
X141183333Y-106804819D02*
X141421428Y-106804819D01*
X141421428Y-106804819D02*
X141516666Y-106757200D01*
X141516666Y-106757200D02*
X141564285Y-106709580D01*
X141564285Y-106709580D02*
X141611904Y-106614342D01*
X141611904Y-106614342D02*
X141611904Y-106519104D01*
X141611904Y-106519104D02*
X141564285Y-106423866D01*
X141564285Y-106423866D02*
X141516666Y-106376247D01*
X141516666Y-106376247D02*
X141421428Y-106328628D01*
X141421428Y-106328628D02*
X141230952Y-106281009D01*
X141230952Y-106281009D02*
X141135714Y-106233390D01*
X141135714Y-106233390D02*
X141088095Y-106185771D01*
X141088095Y-106185771D02*
X141040476Y-106090533D01*
X141040476Y-106090533D02*
X141040476Y-105995295D01*
X141040476Y-105995295D02*
X141088095Y-105900057D01*
X141088095Y-105900057D02*
X141135714Y-105852438D01*
X141135714Y-105852438D02*
X141230952Y-105804819D01*
X141230952Y-105804819D02*
X141469047Y-105804819D01*
X141469047Y-105804819D02*
X141611904Y-105852438D01*
X141945238Y-105804819D02*
X142183333Y-106804819D01*
X142183333Y-106804819D02*
X142373809Y-106090533D01*
X142373809Y-106090533D02*
X142564285Y-106804819D01*
X142564285Y-106804819D02*
X142802381Y-105804819D01*
X143707142Y-106804819D02*
X143135714Y-106804819D01*
X143421428Y-106804819D02*
X143421428Y-105804819D01*
X143421428Y-105804819D02*
X143326190Y-105947676D01*
X143326190Y-105947676D02*
X143230952Y-106042914D01*
X143230952Y-106042914D02*
X143135714Y-106090533D01*
X144659523Y-106804819D02*
X144088095Y-106804819D01*
X144373809Y-106804819D02*
X144373809Y-105804819D01*
X144373809Y-105804819D02*
X144278571Y-105947676D01*
X144278571Y-105947676D02*
X144183333Y-106042914D01*
X144183333Y-106042914D02*
X144088095Y-106090533D01*
X128666667Y-116737200D02*
X128809524Y-116784819D01*
X128809524Y-116784819D02*
X129047619Y-116784819D01*
X129047619Y-116784819D02*
X129142857Y-116737200D01*
X129142857Y-116737200D02*
X129190476Y-116689580D01*
X129190476Y-116689580D02*
X129238095Y-116594342D01*
X129238095Y-116594342D02*
X129238095Y-116499104D01*
X129238095Y-116499104D02*
X129190476Y-116403866D01*
X129190476Y-116403866D02*
X129142857Y-116356247D01*
X129142857Y-116356247D02*
X129047619Y-116308628D01*
X129047619Y-116308628D02*
X128857143Y-116261009D01*
X128857143Y-116261009D02*
X128761905Y-116213390D01*
X128761905Y-116213390D02*
X128714286Y-116165771D01*
X128714286Y-116165771D02*
X128666667Y-116070533D01*
X128666667Y-116070533D02*
X128666667Y-115975295D01*
X128666667Y-115975295D02*
X128714286Y-115880057D01*
X128714286Y-115880057D02*
X128761905Y-115832438D01*
X128761905Y-115832438D02*
X128857143Y-115784819D01*
X128857143Y-115784819D02*
X129095238Y-115784819D01*
X129095238Y-115784819D02*
X129238095Y-115832438D01*
X129571429Y-115784819D02*
X129809524Y-116784819D01*
X129809524Y-116784819D02*
X130000000Y-116070533D01*
X130000000Y-116070533D02*
X130190476Y-116784819D01*
X130190476Y-116784819D02*
X130428572Y-115784819D01*
X130952381Y-116213390D02*
X130857143Y-116165771D01*
X130857143Y-116165771D02*
X130809524Y-116118152D01*
X130809524Y-116118152D02*
X130761905Y-116022914D01*
X130761905Y-116022914D02*
X130761905Y-115975295D01*
X130761905Y-115975295D02*
X130809524Y-115880057D01*
X130809524Y-115880057D02*
X130857143Y-115832438D01*
X130857143Y-115832438D02*
X130952381Y-115784819D01*
X130952381Y-115784819D02*
X131142857Y-115784819D01*
X131142857Y-115784819D02*
X131238095Y-115832438D01*
X131238095Y-115832438D02*
X131285714Y-115880057D01*
X131285714Y-115880057D02*
X131333333Y-115975295D01*
X131333333Y-115975295D02*
X131333333Y-116022914D01*
X131333333Y-116022914D02*
X131285714Y-116118152D01*
X131285714Y-116118152D02*
X131238095Y-116165771D01*
X131238095Y-116165771D02*
X131142857Y-116213390D01*
X131142857Y-116213390D02*
X130952381Y-116213390D01*
X130952381Y-116213390D02*
X130857143Y-116261009D01*
X130857143Y-116261009D02*
X130809524Y-116308628D01*
X130809524Y-116308628D02*
X130761905Y-116403866D01*
X130761905Y-116403866D02*
X130761905Y-116594342D01*
X130761905Y-116594342D02*
X130809524Y-116689580D01*
X130809524Y-116689580D02*
X130857143Y-116737200D01*
X130857143Y-116737200D02*
X130952381Y-116784819D01*
X130952381Y-116784819D02*
X131142857Y-116784819D01*
X131142857Y-116784819D02*
X131238095Y-116737200D01*
X131238095Y-116737200D02*
X131285714Y-116689580D01*
X131285714Y-116689580D02*
X131333333Y-116594342D01*
X131333333Y-116594342D02*
X131333333Y-116403866D01*
X131333333Y-116403866D02*
X131285714Y-116308628D01*
X131285714Y-116308628D02*
X131238095Y-116261009D01*
X131238095Y-116261009D02*
X131142857Y-116213390D01*
X110009580Y-99006666D02*
X110057200Y-99054285D01*
X110057200Y-99054285D02*
X110104819Y-99197142D01*
X110104819Y-99197142D02*
X110104819Y-99292380D01*
X110104819Y-99292380D02*
X110057200Y-99435237D01*
X110057200Y-99435237D02*
X109961961Y-99530475D01*
X109961961Y-99530475D02*
X109866723Y-99578094D01*
X109866723Y-99578094D02*
X109676247Y-99625713D01*
X109676247Y-99625713D02*
X109533390Y-99625713D01*
X109533390Y-99625713D02*
X109342914Y-99578094D01*
X109342914Y-99578094D02*
X109247676Y-99530475D01*
X109247676Y-99530475D02*
X109152438Y-99435237D01*
X109152438Y-99435237D02*
X109104819Y-99292380D01*
X109104819Y-99292380D02*
X109104819Y-99197142D01*
X109104819Y-99197142D02*
X109152438Y-99054285D01*
X109152438Y-99054285D02*
X109200057Y-99006666D01*
X109533390Y-98435237D02*
X109485771Y-98530475D01*
X109485771Y-98530475D02*
X109438152Y-98578094D01*
X109438152Y-98578094D02*
X109342914Y-98625713D01*
X109342914Y-98625713D02*
X109295295Y-98625713D01*
X109295295Y-98625713D02*
X109200057Y-98578094D01*
X109200057Y-98578094D02*
X109152438Y-98530475D01*
X109152438Y-98530475D02*
X109104819Y-98435237D01*
X109104819Y-98435237D02*
X109104819Y-98244761D01*
X109104819Y-98244761D02*
X109152438Y-98149523D01*
X109152438Y-98149523D02*
X109200057Y-98101904D01*
X109200057Y-98101904D02*
X109295295Y-98054285D01*
X109295295Y-98054285D02*
X109342914Y-98054285D01*
X109342914Y-98054285D02*
X109438152Y-98101904D01*
X109438152Y-98101904D02*
X109485771Y-98149523D01*
X109485771Y-98149523D02*
X109533390Y-98244761D01*
X109533390Y-98244761D02*
X109533390Y-98435237D01*
X109533390Y-98435237D02*
X109581009Y-98530475D01*
X109581009Y-98530475D02*
X109628628Y-98578094D01*
X109628628Y-98578094D02*
X109723866Y-98625713D01*
X109723866Y-98625713D02*
X109914342Y-98625713D01*
X109914342Y-98625713D02*
X110009580Y-98578094D01*
X110009580Y-98578094D02*
X110057200Y-98530475D01*
X110057200Y-98530475D02*
X110104819Y-98435237D01*
X110104819Y-98435237D02*
X110104819Y-98244761D01*
X110104819Y-98244761D02*
X110057200Y-98149523D01*
X110057200Y-98149523D02*
X110009580Y-98101904D01*
X110009580Y-98101904D02*
X109914342Y-98054285D01*
X109914342Y-98054285D02*
X109723866Y-98054285D01*
X109723866Y-98054285D02*
X109628628Y-98101904D01*
X109628628Y-98101904D02*
X109581009Y-98149523D01*
X109581009Y-98149523D02*
X109533390Y-98244761D01*
X155338095Y-120694819D02*
X155338095Y-121504342D01*
X155338095Y-121504342D02*
X155385714Y-121599580D01*
X155385714Y-121599580D02*
X155433333Y-121647200D01*
X155433333Y-121647200D02*
X155528571Y-121694819D01*
X155528571Y-121694819D02*
X155719047Y-121694819D01*
X155719047Y-121694819D02*
X155814285Y-121647200D01*
X155814285Y-121647200D02*
X155861904Y-121599580D01*
X155861904Y-121599580D02*
X155909523Y-121504342D01*
X155909523Y-121504342D02*
X155909523Y-120694819D01*
X156338095Y-120790057D02*
X156385714Y-120742438D01*
X156385714Y-120742438D02*
X156480952Y-120694819D01*
X156480952Y-120694819D02*
X156719047Y-120694819D01*
X156719047Y-120694819D02*
X156814285Y-120742438D01*
X156814285Y-120742438D02*
X156861904Y-120790057D01*
X156861904Y-120790057D02*
X156909523Y-120885295D01*
X156909523Y-120885295D02*
X156909523Y-120980533D01*
X156909523Y-120980533D02*
X156861904Y-121123390D01*
X156861904Y-121123390D02*
X156290476Y-121694819D01*
X156290476Y-121694819D02*
X156909523Y-121694819D01*
X164759580Y-98457857D02*
X164807200Y-98505476D01*
X164807200Y-98505476D02*
X164854819Y-98648333D01*
X164854819Y-98648333D02*
X164854819Y-98743571D01*
X164854819Y-98743571D02*
X164807200Y-98886428D01*
X164807200Y-98886428D02*
X164711961Y-98981666D01*
X164711961Y-98981666D02*
X164616723Y-99029285D01*
X164616723Y-99029285D02*
X164426247Y-99076904D01*
X164426247Y-99076904D02*
X164283390Y-99076904D01*
X164283390Y-99076904D02*
X164092914Y-99029285D01*
X164092914Y-99029285D02*
X163997676Y-98981666D01*
X163997676Y-98981666D02*
X163902438Y-98886428D01*
X163902438Y-98886428D02*
X163854819Y-98743571D01*
X163854819Y-98743571D02*
X163854819Y-98648333D01*
X163854819Y-98648333D02*
X163902438Y-98505476D01*
X163902438Y-98505476D02*
X163950057Y-98457857D01*
X164854819Y-97505476D02*
X164854819Y-98076904D01*
X164854819Y-97791190D02*
X163854819Y-97791190D01*
X163854819Y-97791190D02*
X163997676Y-97886428D01*
X163997676Y-97886428D02*
X164092914Y-97981666D01*
X164092914Y-97981666D02*
X164140533Y-98076904D01*
X164854819Y-96553095D02*
X164854819Y-97124523D01*
X164854819Y-96838809D02*
X163854819Y-96838809D01*
X163854819Y-96838809D02*
X163997676Y-96934047D01*
X163997676Y-96934047D02*
X164092914Y-97029285D01*
X164092914Y-97029285D02*
X164140533Y-97124523D01*
X104533333Y-89394819D02*
X104057143Y-89394819D01*
X104057143Y-89394819D02*
X104057143Y-88394819D01*
X105390476Y-89394819D02*
X104819048Y-89394819D01*
X105104762Y-89394819D02*
X105104762Y-88394819D01*
X105104762Y-88394819D02*
X105009524Y-88537676D01*
X105009524Y-88537676D02*
X104914286Y-88632914D01*
X104914286Y-88632914D02*
X104819048Y-88680533D01*
X166063333Y-81939580D02*
X166015714Y-81987200D01*
X166015714Y-81987200D02*
X165872857Y-82034819D01*
X165872857Y-82034819D02*
X165777619Y-82034819D01*
X165777619Y-82034819D02*
X165634762Y-81987200D01*
X165634762Y-81987200D02*
X165539524Y-81891961D01*
X165539524Y-81891961D02*
X165491905Y-81796723D01*
X165491905Y-81796723D02*
X165444286Y-81606247D01*
X165444286Y-81606247D02*
X165444286Y-81463390D01*
X165444286Y-81463390D02*
X165491905Y-81272914D01*
X165491905Y-81272914D02*
X165539524Y-81177676D01*
X165539524Y-81177676D02*
X165634762Y-81082438D01*
X165634762Y-81082438D02*
X165777619Y-81034819D01*
X165777619Y-81034819D02*
X165872857Y-81034819D01*
X165872857Y-81034819D02*
X166015714Y-81082438D01*
X166015714Y-81082438D02*
X166063333Y-81130057D01*
X166396667Y-81034819D02*
X167063333Y-81034819D01*
X167063333Y-81034819D02*
X166634762Y-82034819D01*
X86911905Y-83894819D02*
X86911905Y-82894819D01*
X87483333Y-83894819D02*
X87054762Y-83323390D01*
X87483333Y-82894819D02*
X86911905Y-83466247D01*
X87864286Y-82990057D02*
X87911905Y-82942438D01*
X87911905Y-82942438D02*
X88007143Y-82894819D01*
X88007143Y-82894819D02*
X88245238Y-82894819D01*
X88245238Y-82894819D02*
X88340476Y-82942438D01*
X88340476Y-82942438D02*
X88388095Y-82990057D01*
X88388095Y-82990057D02*
X88435714Y-83085295D01*
X88435714Y-83085295D02*
X88435714Y-83180533D01*
X88435714Y-83180533D02*
X88388095Y-83323390D01*
X88388095Y-83323390D02*
X87816667Y-83894819D01*
X87816667Y-83894819D02*
X88435714Y-83894819D01*
X115976667Y-86517200D02*
X116119524Y-86564819D01*
X116119524Y-86564819D02*
X116357619Y-86564819D01*
X116357619Y-86564819D02*
X116452857Y-86517200D01*
X116452857Y-86517200D02*
X116500476Y-86469580D01*
X116500476Y-86469580D02*
X116548095Y-86374342D01*
X116548095Y-86374342D02*
X116548095Y-86279104D01*
X116548095Y-86279104D02*
X116500476Y-86183866D01*
X116500476Y-86183866D02*
X116452857Y-86136247D01*
X116452857Y-86136247D02*
X116357619Y-86088628D01*
X116357619Y-86088628D02*
X116167143Y-86041009D01*
X116167143Y-86041009D02*
X116071905Y-85993390D01*
X116071905Y-85993390D02*
X116024286Y-85945771D01*
X116024286Y-85945771D02*
X115976667Y-85850533D01*
X115976667Y-85850533D02*
X115976667Y-85755295D01*
X115976667Y-85755295D02*
X116024286Y-85660057D01*
X116024286Y-85660057D02*
X116071905Y-85612438D01*
X116071905Y-85612438D02*
X116167143Y-85564819D01*
X116167143Y-85564819D02*
X116405238Y-85564819D01*
X116405238Y-85564819D02*
X116548095Y-85612438D01*
X116881429Y-85564819D02*
X117119524Y-86564819D01*
X117119524Y-86564819D02*
X117310000Y-85850533D01*
X117310000Y-85850533D02*
X117500476Y-86564819D01*
X117500476Y-86564819D02*
X117738572Y-85564819D01*
X118643333Y-86564819D02*
X118071905Y-86564819D01*
X118357619Y-86564819D02*
X118357619Y-85564819D01*
X118357619Y-85564819D02*
X118262381Y-85707676D01*
X118262381Y-85707676D02*
X118167143Y-85802914D01*
X118167143Y-85802914D02*
X118071905Y-85850533D01*
X150054819Y-106344285D02*
X149054819Y-106344285D01*
X149054819Y-106344285D02*
X149054819Y-106106190D01*
X149054819Y-106106190D02*
X149102438Y-105963333D01*
X149102438Y-105963333D02*
X149197676Y-105868095D01*
X149197676Y-105868095D02*
X149292914Y-105820476D01*
X149292914Y-105820476D02*
X149483390Y-105772857D01*
X149483390Y-105772857D02*
X149626247Y-105772857D01*
X149626247Y-105772857D02*
X149816723Y-105820476D01*
X149816723Y-105820476D02*
X149911961Y-105868095D01*
X149911961Y-105868095D02*
X150007200Y-105963333D01*
X150007200Y-105963333D02*
X150054819Y-106106190D01*
X150054819Y-106106190D02*
X150054819Y-106344285D01*
X150054819Y-104820476D02*
X150054819Y-105391904D01*
X150054819Y-105106190D02*
X149054819Y-105106190D01*
X149054819Y-105106190D02*
X149197676Y-105201428D01*
X149197676Y-105201428D02*
X149292914Y-105296666D01*
X149292914Y-105296666D02*
X149340533Y-105391904D01*
X150054819Y-103868095D02*
X150054819Y-104439523D01*
X150054819Y-104153809D02*
X149054819Y-104153809D01*
X149054819Y-104153809D02*
X149197676Y-104249047D01*
X149197676Y-104249047D02*
X149292914Y-104344285D01*
X149292914Y-104344285D02*
X149340533Y-104439523D01*
X145488095Y-102944819D02*
X145488095Y-101944819D01*
X146059523Y-102944819D02*
X145630952Y-102373390D01*
X146059523Y-101944819D02*
X145488095Y-102516247D01*
X128766667Y-86517200D02*
X128909524Y-86564819D01*
X128909524Y-86564819D02*
X129147619Y-86564819D01*
X129147619Y-86564819D02*
X129242857Y-86517200D01*
X129242857Y-86517200D02*
X129290476Y-86469580D01*
X129290476Y-86469580D02*
X129338095Y-86374342D01*
X129338095Y-86374342D02*
X129338095Y-86279104D01*
X129338095Y-86279104D02*
X129290476Y-86183866D01*
X129290476Y-86183866D02*
X129242857Y-86136247D01*
X129242857Y-86136247D02*
X129147619Y-86088628D01*
X129147619Y-86088628D02*
X128957143Y-86041009D01*
X128957143Y-86041009D02*
X128861905Y-85993390D01*
X128861905Y-85993390D02*
X128814286Y-85945771D01*
X128814286Y-85945771D02*
X128766667Y-85850533D01*
X128766667Y-85850533D02*
X128766667Y-85755295D01*
X128766667Y-85755295D02*
X128814286Y-85660057D01*
X128814286Y-85660057D02*
X128861905Y-85612438D01*
X128861905Y-85612438D02*
X128957143Y-85564819D01*
X128957143Y-85564819D02*
X129195238Y-85564819D01*
X129195238Y-85564819D02*
X129338095Y-85612438D01*
X129671429Y-85564819D02*
X129909524Y-86564819D01*
X129909524Y-86564819D02*
X130100000Y-85850533D01*
X130100000Y-85850533D02*
X130290476Y-86564819D01*
X130290476Y-86564819D02*
X130528572Y-85564819D01*
X131385714Y-85564819D02*
X130909524Y-85564819D01*
X130909524Y-85564819D02*
X130861905Y-86041009D01*
X130861905Y-86041009D02*
X130909524Y-85993390D01*
X130909524Y-85993390D02*
X131004762Y-85945771D01*
X131004762Y-85945771D02*
X131242857Y-85945771D01*
X131242857Y-85945771D02*
X131338095Y-85993390D01*
X131338095Y-85993390D02*
X131385714Y-86041009D01*
X131385714Y-86041009D02*
X131433333Y-86136247D01*
X131433333Y-86136247D02*
X131433333Y-86374342D01*
X131433333Y-86374342D02*
X131385714Y-86469580D01*
X131385714Y-86469580D02*
X131338095Y-86517200D01*
X131338095Y-86517200D02*
X131242857Y-86564819D01*
X131242857Y-86564819D02*
X131004762Y-86564819D01*
X131004762Y-86564819D02*
X130909524Y-86517200D01*
X130909524Y-86517200D02*
X130861905Y-86469580D01*
X176559819Y-111456666D02*
X176083628Y-111789999D01*
X176559819Y-112028094D02*
X175559819Y-112028094D01*
X175559819Y-112028094D02*
X175559819Y-111647142D01*
X175559819Y-111647142D02*
X175607438Y-111551904D01*
X175607438Y-111551904D02*
X175655057Y-111504285D01*
X175655057Y-111504285D02*
X175750295Y-111456666D01*
X175750295Y-111456666D02*
X175893152Y-111456666D01*
X175893152Y-111456666D02*
X175988390Y-111504285D01*
X175988390Y-111504285D02*
X176036009Y-111551904D01*
X176036009Y-111551904D02*
X176083628Y-111647142D01*
X176083628Y-111647142D02*
X176083628Y-112028094D01*
X175988390Y-110885237D02*
X175940771Y-110980475D01*
X175940771Y-110980475D02*
X175893152Y-111028094D01*
X175893152Y-111028094D02*
X175797914Y-111075713D01*
X175797914Y-111075713D02*
X175750295Y-111075713D01*
X175750295Y-111075713D02*
X175655057Y-111028094D01*
X175655057Y-111028094D02*
X175607438Y-110980475D01*
X175607438Y-110980475D02*
X175559819Y-110885237D01*
X175559819Y-110885237D02*
X175559819Y-110694761D01*
X175559819Y-110694761D02*
X175607438Y-110599523D01*
X175607438Y-110599523D02*
X175655057Y-110551904D01*
X175655057Y-110551904D02*
X175750295Y-110504285D01*
X175750295Y-110504285D02*
X175797914Y-110504285D01*
X175797914Y-110504285D02*
X175893152Y-110551904D01*
X175893152Y-110551904D02*
X175940771Y-110599523D01*
X175940771Y-110599523D02*
X175988390Y-110694761D01*
X175988390Y-110694761D02*
X175988390Y-110885237D01*
X175988390Y-110885237D02*
X176036009Y-110980475D01*
X176036009Y-110980475D02*
X176083628Y-111028094D01*
X176083628Y-111028094D02*
X176178866Y-111075713D01*
X176178866Y-111075713D02*
X176369342Y-111075713D01*
X176369342Y-111075713D02*
X176464580Y-111028094D01*
X176464580Y-111028094D02*
X176512200Y-110980475D01*
X176512200Y-110980475D02*
X176559819Y-110885237D01*
X176559819Y-110885237D02*
X176559819Y-110694761D01*
X176559819Y-110694761D02*
X176512200Y-110599523D01*
X176512200Y-110599523D02*
X176464580Y-110551904D01*
X176464580Y-110551904D02*
X176369342Y-110504285D01*
X176369342Y-110504285D02*
X176178866Y-110504285D01*
X176178866Y-110504285D02*
X176083628Y-110551904D01*
X176083628Y-110551904D02*
X176036009Y-110599523D01*
X176036009Y-110599523D02*
X175988390Y-110694761D01*
X179533333Y-116829819D02*
X179200000Y-116353628D01*
X178961905Y-116829819D02*
X178961905Y-115829819D01*
X178961905Y-115829819D02*
X179342857Y-115829819D01*
X179342857Y-115829819D02*
X179438095Y-115877438D01*
X179438095Y-115877438D02*
X179485714Y-115925057D01*
X179485714Y-115925057D02*
X179533333Y-116020295D01*
X179533333Y-116020295D02*
X179533333Y-116163152D01*
X179533333Y-116163152D02*
X179485714Y-116258390D01*
X179485714Y-116258390D02*
X179438095Y-116306009D01*
X179438095Y-116306009D02*
X179342857Y-116353628D01*
X179342857Y-116353628D02*
X178961905Y-116353628D01*
X179866667Y-115829819D02*
X180533333Y-115829819D01*
X180533333Y-115829819D02*
X180104762Y-116829819D01*
X159159580Y-87356666D02*
X159207200Y-87404285D01*
X159207200Y-87404285D02*
X159254819Y-87547142D01*
X159254819Y-87547142D02*
X159254819Y-87642380D01*
X159254819Y-87642380D02*
X159207200Y-87785237D01*
X159207200Y-87785237D02*
X159111961Y-87880475D01*
X159111961Y-87880475D02*
X159016723Y-87928094D01*
X159016723Y-87928094D02*
X158826247Y-87975713D01*
X158826247Y-87975713D02*
X158683390Y-87975713D01*
X158683390Y-87975713D02*
X158492914Y-87928094D01*
X158492914Y-87928094D02*
X158397676Y-87880475D01*
X158397676Y-87880475D02*
X158302438Y-87785237D01*
X158302438Y-87785237D02*
X158254819Y-87642380D01*
X158254819Y-87642380D02*
X158254819Y-87547142D01*
X158254819Y-87547142D02*
X158302438Y-87404285D01*
X158302438Y-87404285D02*
X158350057Y-87356666D01*
X159254819Y-86404285D02*
X159254819Y-86975713D01*
X159254819Y-86689999D02*
X158254819Y-86689999D01*
X158254819Y-86689999D02*
X158397676Y-86785237D01*
X158397676Y-86785237D02*
X158492914Y-86880475D01*
X158492914Y-86880475D02*
X158540533Y-86975713D01*
X67691666Y-105629819D02*
X67691666Y-106344104D01*
X67691666Y-106344104D02*
X67644047Y-106486961D01*
X67644047Y-106486961D02*
X67548809Y-106582200D01*
X67548809Y-106582200D02*
X67405952Y-106629819D01*
X67405952Y-106629819D02*
X67310714Y-106629819D01*
X68120238Y-105725057D02*
X68167857Y-105677438D01*
X68167857Y-105677438D02*
X68263095Y-105629819D01*
X68263095Y-105629819D02*
X68501190Y-105629819D01*
X68501190Y-105629819D02*
X68596428Y-105677438D01*
X68596428Y-105677438D02*
X68644047Y-105725057D01*
X68644047Y-105725057D02*
X68691666Y-105820295D01*
X68691666Y-105820295D02*
X68691666Y-105915533D01*
X68691666Y-105915533D02*
X68644047Y-106058390D01*
X68644047Y-106058390D02*
X68072619Y-106629819D01*
X68072619Y-106629819D02*
X68691666Y-106629819D01*
X116108333Y-111404819D02*
X115775000Y-110928628D01*
X115536905Y-111404819D02*
X115536905Y-110404819D01*
X115536905Y-110404819D02*
X115917857Y-110404819D01*
X115917857Y-110404819D02*
X116013095Y-110452438D01*
X116013095Y-110452438D02*
X116060714Y-110500057D01*
X116060714Y-110500057D02*
X116108333Y-110595295D01*
X116108333Y-110595295D02*
X116108333Y-110738152D01*
X116108333Y-110738152D02*
X116060714Y-110833390D01*
X116060714Y-110833390D02*
X116013095Y-110881009D01*
X116013095Y-110881009D02*
X115917857Y-110928628D01*
X115917857Y-110928628D02*
X115536905Y-110928628D01*
X117060714Y-111404819D02*
X116489286Y-111404819D01*
X116775000Y-111404819D02*
X116775000Y-110404819D01*
X116775000Y-110404819D02*
X116679762Y-110547676D01*
X116679762Y-110547676D02*
X116584524Y-110642914D01*
X116584524Y-110642914D02*
X116489286Y-110690533D01*
X175988095Y-87794819D02*
X175988095Y-88604342D01*
X175988095Y-88604342D02*
X176035714Y-88699580D01*
X176035714Y-88699580D02*
X176083333Y-88747200D01*
X176083333Y-88747200D02*
X176178571Y-88794819D01*
X176178571Y-88794819D02*
X176369047Y-88794819D01*
X176369047Y-88794819D02*
X176464285Y-88747200D01*
X176464285Y-88747200D02*
X176511904Y-88699580D01*
X176511904Y-88699580D02*
X176559523Y-88604342D01*
X176559523Y-88604342D02*
X176559523Y-87794819D01*
X177559523Y-88794819D02*
X176988095Y-88794819D01*
X177273809Y-88794819D02*
X177273809Y-87794819D01*
X177273809Y-87794819D02*
X177178571Y-87937676D01*
X177178571Y-87937676D02*
X177083333Y-88032914D01*
X177083333Y-88032914D02*
X176988095Y-88080533D01*
X179557142Y-119699580D02*
X179509523Y-119747200D01*
X179509523Y-119747200D02*
X179366666Y-119794819D01*
X179366666Y-119794819D02*
X179271428Y-119794819D01*
X179271428Y-119794819D02*
X179128571Y-119747200D01*
X179128571Y-119747200D02*
X179033333Y-119651961D01*
X179033333Y-119651961D02*
X178985714Y-119556723D01*
X178985714Y-119556723D02*
X178938095Y-119366247D01*
X178938095Y-119366247D02*
X178938095Y-119223390D01*
X178938095Y-119223390D02*
X178985714Y-119032914D01*
X178985714Y-119032914D02*
X179033333Y-118937676D01*
X179033333Y-118937676D02*
X179128571Y-118842438D01*
X179128571Y-118842438D02*
X179271428Y-118794819D01*
X179271428Y-118794819D02*
X179366666Y-118794819D01*
X179366666Y-118794819D02*
X179509523Y-118842438D01*
X179509523Y-118842438D02*
X179557142Y-118890057D01*
X180509523Y-119794819D02*
X179938095Y-119794819D01*
X180223809Y-119794819D02*
X180223809Y-118794819D01*
X180223809Y-118794819D02*
X180128571Y-118937676D01*
X180128571Y-118937676D02*
X180033333Y-119032914D01*
X180033333Y-119032914D02*
X179938095Y-119080533D01*
X181414285Y-118794819D02*
X180938095Y-118794819D01*
X180938095Y-118794819D02*
X180890476Y-119271009D01*
X180890476Y-119271009D02*
X180938095Y-119223390D01*
X180938095Y-119223390D02*
X181033333Y-119175771D01*
X181033333Y-119175771D02*
X181271428Y-119175771D01*
X181271428Y-119175771D02*
X181366666Y-119223390D01*
X181366666Y-119223390D02*
X181414285Y-119271009D01*
X181414285Y-119271009D02*
X181461904Y-119366247D01*
X181461904Y-119366247D02*
X181461904Y-119604342D01*
X181461904Y-119604342D02*
X181414285Y-119699580D01*
X181414285Y-119699580D02*
X181366666Y-119747200D01*
X181366666Y-119747200D02*
X181271428Y-119794819D01*
X181271428Y-119794819D02*
X181033333Y-119794819D01*
X181033333Y-119794819D02*
X180938095Y-119747200D01*
X180938095Y-119747200D02*
X180890476Y-119699580D01*
X94135714Y-113044819D02*
X94135714Y-112044819D01*
X94135714Y-112044819D02*
X94373809Y-112044819D01*
X94373809Y-112044819D02*
X94516666Y-112092438D01*
X94516666Y-112092438D02*
X94611904Y-112187676D01*
X94611904Y-112187676D02*
X94659523Y-112282914D01*
X94659523Y-112282914D02*
X94707142Y-112473390D01*
X94707142Y-112473390D02*
X94707142Y-112616247D01*
X94707142Y-112616247D02*
X94659523Y-112806723D01*
X94659523Y-112806723D02*
X94611904Y-112901961D01*
X94611904Y-112901961D02*
X94516666Y-112997200D01*
X94516666Y-112997200D02*
X94373809Y-113044819D01*
X94373809Y-113044819D02*
X94135714Y-113044819D01*
X95659523Y-113044819D02*
X95088095Y-113044819D01*
X95373809Y-113044819D02*
X95373809Y-112044819D01*
X95373809Y-112044819D02*
X95278571Y-112187676D01*
X95278571Y-112187676D02*
X95183333Y-112282914D01*
X95183333Y-112282914D02*
X95088095Y-112330533D01*
X96516666Y-112378152D02*
X96516666Y-113044819D01*
X96278571Y-111997200D02*
X96040476Y-112711485D01*
X96040476Y-112711485D02*
X96659523Y-112711485D01*
X93057142Y-92094819D02*
X92723809Y-91618628D01*
X92485714Y-92094819D02*
X92485714Y-91094819D01*
X92485714Y-91094819D02*
X92866666Y-91094819D01*
X92866666Y-91094819D02*
X92961904Y-91142438D01*
X92961904Y-91142438D02*
X93009523Y-91190057D01*
X93009523Y-91190057D02*
X93057142Y-91285295D01*
X93057142Y-91285295D02*
X93057142Y-91428152D01*
X93057142Y-91428152D02*
X93009523Y-91523390D01*
X93009523Y-91523390D02*
X92961904Y-91571009D01*
X92961904Y-91571009D02*
X92866666Y-91618628D01*
X92866666Y-91618628D02*
X92485714Y-91618628D01*
X94009523Y-92094819D02*
X93438095Y-92094819D01*
X93723809Y-92094819D02*
X93723809Y-91094819D01*
X93723809Y-91094819D02*
X93628571Y-91237676D01*
X93628571Y-91237676D02*
X93533333Y-91332914D01*
X93533333Y-91332914D02*
X93438095Y-91380533D01*
X94866666Y-91428152D02*
X94866666Y-92094819D01*
X94628571Y-91047200D02*
X94390476Y-91761485D01*
X94390476Y-91761485D02*
X95009523Y-91761485D01*
X115926667Y-106497200D02*
X116069524Y-106544819D01*
X116069524Y-106544819D02*
X116307619Y-106544819D01*
X116307619Y-106544819D02*
X116402857Y-106497200D01*
X116402857Y-106497200D02*
X116450476Y-106449580D01*
X116450476Y-106449580D02*
X116498095Y-106354342D01*
X116498095Y-106354342D02*
X116498095Y-106259104D01*
X116498095Y-106259104D02*
X116450476Y-106163866D01*
X116450476Y-106163866D02*
X116402857Y-106116247D01*
X116402857Y-106116247D02*
X116307619Y-106068628D01*
X116307619Y-106068628D02*
X116117143Y-106021009D01*
X116117143Y-106021009D02*
X116021905Y-105973390D01*
X116021905Y-105973390D02*
X115974286Y-105925771D01*
X115974286Y-105925771D02*
X115926667Y-105830533D01*
X115926667Y-105830533D02*
X115926667Y-105735295D01*
X115926667Y-105735295D02*
X115974286Y-105640057D01*
X115974286Y-105640057D02*
X116021905Y-105592438D01*
X116021905Y-105592438D02*
X116117143Y-105544819D01*
X116117143Y-105544819D02*
X116355238Y-105544819D01*
X116355238Y-105544819D02*
X116498095Y-105592438D01*
X116831429Y-105544819D02*
X117069524Y-106544819D01*
X117069524Y-106544819D02*
X117260000Y-105830533D01*
X117260000Y-105830533D02*
X117450476Y-106544819D01*
X117450476Y-106544819D02*
X117688572Y-105544819D01*
X117974286Y-105544819D02*
X118593333Y-105544819D01*
X118593333Y-105544819D02*
X118260000Y-105925771D01*
X118260000Y-105925771D02*
X118402857Y-105925771D01*
X118402857Y-105925771D02*
X118498095Y-105973390D01*
X118498095Y-105973390D02*
X118545714Y-106021009D01*
X118545714Y-106021009D02*
X118593333Y-106116247D01*
X118593333Y-106116247D02*
X118593333Y-106354342D01*
X118593333Y-106354342D02*
X118545714Y-106449580D01*
X118545714Y-106449580D02*
X118498095Y-106497200D01*
X118498095Y-106497200D02*
X118402857Y-106544819D01*
X118402857Y-106544819D02*
X118117143Y-106544819D01*
X118117143Y-106544819D02*
X118021905Y-106497200D01*
X118021905Y-106497200D02*
X117974286Y-106449580D01*
X128633333Y-111354819D02*
X128300000Y-110878628D01*
X128061905Y-111354819D02*
X128061905Y-110354819D01*
X128061905Y-110354819D02*
X128442857Y-110354819D01*
X128442857Y-110354819D02*
X128538095Y-110402438D01*
X128538095Y-110402438D02*
X128585714Y-110450057D01*
X128585714Y-110450057D02*
X128633333Y-110545295D01*
X128633333Y-110545295D02*
X128633333Y-110688152D01*
X128633333Y-110688152D02*
X128585714Y-110783390D01*
X128585714Y-110783390D02*
X128538095Y-110831009D01*
X128538095Y-110831009D02*
X128442857Y-110878628D01*
X128442857Y-110878628D02*
X128061905Y-110878628D01*
X129014286Y-110450057D02*
X129061905Y-110402438D01*
X129061905Y-110402438D02*
X129157143Y-110354819D01*
X129157143Y-110354819D02*
X129395238Y-110354819D01*
X129395238Y-110354819D02*
X129490476Y-110402438D01*
X129490476Y-110402438D02*
X129538095Y-110450057D01*
X129538095Y-110450057D02*
X129585714Y-110545295D01*
X129585714Y-110545295D02*
X129585714Y-110640533D01*
X129585714Y-110640533D02*
X129538095Y-110783390D01*
X129538095Y-110783390D02*
X128966667Y-111354819D01*
X128966667Y-111354819D02*
X129585714Y-111354819D01*
X110607142Y-110294819D02*
X110273809Y-109818628D01*
X110035714Y-110294819D02*
X110035714Y-109294819D01*
X110035714Y-109294819D02*
X110416666Y-109294819D01*
X110416666Y-109294819D02*
X110511904Y-109342438D01*
X110511904Y-109342438D02*
X110559523Y-109390057D01*
X110559523Y-109390057D02*
X110607142Y-109485295D01*
X110607142Y-109485295D02*
X110607142Y-109628152D01*
X110607142Y-109628152D02*
X110559523Y-109723390D01*
X110559523Y-109723390D02*
X110511904Y-109771009D01*
X110511904Y-109771009D02*
X110416666Y-109818628D01*
X110416666Y-109818628D02*
X110035714Y-109818628D01*
X111559523Y-110294819D02*
X110988095Y-110294819D01*
X111273809Y-110294819D02*
X111273809Y-109294819D01*
X111273809Y-109294819D02*
X111178571Y-109437676D01*
X111178571Y-109437676D02*
X111083333Y-109532914D01*
X111083333Y-109532914D02*
X110988095Y-109580533D01*
X111892857Y-109294819D02*
X112511904Y-109294819D01*
X112511904Y-109294819D02*
X112178571Y-109675771D01*
X112178571Y-109675771D02*
X112321428Y-109675771D01*
X112321428Y-109675771D02*
X112416666Y-109723390D01*
X112416666Y-109723390D02*
X112464285Y-109771009D01*
X112464285Y-109771009D02*
X112511904Y-109866247D01*
X112511904Y-109866247D02*
X112511904Y-110104342D01*
X112511904Y-110104342D02*
X112464285Y-110199580D01*
X112464285Y-110199580D02*
X112416666Y-110247200D01*
X112416666Y-110247200D02*
X112321428Y-110294819D01*
X112321428Y-110294819D02*
X112035714Y-110294819D01*
X112035714Y-110294819D02*
X111940476Y-110247200D01*
X111940476Y-110247200D02*
X111892857Y-110199580D01*
X157509580Y-98656666D02*
X157557200Y-98704285D01*
X157557200Y-98704285D02*
X157604819Y-98847142D01*
X157604819Y-98847142D02*
X157604819Y-98942380D01*
X157604819Y-98942380D02*
X157557200Y-99085237D01*
X157557200Y-99085237D02*
X157461961Y-99180475D01*
X157461961Y-99180475D02*
X157366723Y-99228094D01*
X157366723Y-99228094D02*
X157176247Y-99275713D01*
X157176247Y-99275713D02*
X157033390Y-99275713D01*
X157033390Y-99275713D02*
X156842914Y-99228094D01*
X156842914Y-99228094D02*
X156747676Y-99180475D01*
X156747676Y-99180475D02*
X156652438Y-99085237D01*
X156652438Y-99085237D02*
X156604819Y-98942380D01*
X156604819Y-98942380D02*
X156604819Y-98847142D01*
X156604819Y-98847142D02*
X156652438Y-98704285D01*
X156652438Y-98704285D02*
X156700057Y-98656666D01*
X156604819Y-97799523D02*
X156604819Y-97989999D01*
X156604819Y-97989999D02*
X156652438Y-98085237D01*
X156652438Y-98085237D02*
X156700057Y-98132856D01*
X156700057Y-98132856D02*
X156842914Y-98228094D01*
X156842914Y-98228094D02*
X157033390Y-98275713D01*
X157033390Y-98275713D02*
X157414342Y-98275713D01*
X157414342Y-98275713D02*
X157509580Y-98228094D01*
X157509580Y-98228094D02*
X157557200Y-98180475D01*
X157557200Y-98180475D02*
X157604819Y-98085237D01*
X157604819Y-98085237D02*
X157604819Y-97894761D01*
X157604819Y-97894761D02*
X157557200Y-97799523D01*
X157557200Y-97799523D02*
X157509580Y-97751904D01*
X157509580Y-97751904D02*
X157414342Y-97704285D01*
X157414342Y-97704285D02*
X157176247Y-97704285D01*
X157176247Y-97704285D02*
X157081009Y-97751904D01*
X157081009Y-97751904D02*
X157033390Y-97799523D01*
X157033390Y-97799523D02*
X156985771Y-97894761D01*
X156985771Y-97894761D02*
X156985771Y-98085237D01*
X156985771Y-98085237D02*
X157033390Y-98180475D01*
X157033390Y-98180475D02*
X157081009Y-98228094D01*
X157081009Y-98228094D02*
X157176247Y-98275713D01*
X100204819Y-99706666D02*
X99728628Y-100039999D01*
X100204819Y-100278094D02*
X99204819Y-100278094D01*
X99204819Y-100278094D02*
X99204819Y-99897142D01*
X99204819Y-99897142D02*
X99252438Y-99801904D01*
X99252438Y-99801904D02*
X99300057Y-99754285D01*
X99300057Y-99754285D02*
X99395295Y-99706666D01*
X99395295Y-99706666D02*
X99538152Y-99706666D01*
X99538152Y-99706666D02*
X99633390Y-99754285D01*
X99633390Y-99754285D02*
X99681009Y-99801904D01*
X99681009Y-99801904D02*
X99728628Y-99897142D01*
X99728628Y-99897142D02*
X99728628Y-100278094D01*
X99204819Y-98849523D02*
X99204819Y-99039999D01*
X99204819Y-99039999D02*
X99252438Y-99135237D01*
X99252438Y-99135237D02*
X99300057Y-99182856D01*
X99300057Y-99182856D02*
X99442914Y-99278094D01*
X99442914Y-99278094D02*
X99633390Y-99325713D01*
X99633390Y-99325713D02*
X100014342Y-99325713D01*
X100014342Y-99325713D02*
X100109580Y-99278094D01*
X100109580Y-99278094D02*
X100157200Y-99230475D01*
X100157200Y-99230475D02*
X100204819Y-99135237D01*
X100204819Y-99135237D02*
X100204819Y-98944761D01*
X100204819Y-98944761D02*
X100157200Y-98849523D01*
X100157200Y-98849523D02*
X100109580Y-98801904D01*
X100109580Y-98801904D02*
X100014342Y-98754285D01*
X100014342Y-98754285D02*
X99776247Y-98754285D01*
X99776247Y-98754285D02*
X99681009Y-98801904D01*
X99681009Y-98801904D02*
X99633390Y-98849523D01*
X99633390Y-98849523D02*
X99585771Y-98944761D01*
X99585771Y-98944761D02*
X99585771Y-99135237D01*
X99585771Y-99135237D02*
X99633390Y-99230475D01*
X99633390Y-99230475D02*
X99681009Y-99278094D01*
X99681009Y-99278094D02*
X99776247Y-99325713D01*
D11*
X89436905Y-107832419D02*
X89436905Y-106832419D01*
X90008333Y-107832419D02*
X89579762Y-107260990D01*
X90008333Y-106832419D02*
X89436905Y-107403847D01*
X90960714Y-107832419D02*
X90389286Y-107832419D01*
X90675000Y-107832419D02*
X90675000Y-106832419D01*
X90675000Y-106832419D02*
X90579762Y-106975276D01*
X90579762Y-106975276D02*
X90484524Y-107070514D01*
X90484524Y-107070514D02*
X90389286Y-107118133D01*
D10*
X150174819Y-116334285D02*
X149174819Y-116334285D01*
X149174819Y-116334285D02*
X149174819Y-116096190D01*
X149174819Y-116096190D02*
X149222438Y-115953333D01*
X149222438Y-115953333D02*
X149317676Y-115858095D01*
X149317676Y-115858095D02*
X149412914Y-115810476D01*
X149412914Y-115810476D02*
X149603390Y-115762857D01*
X149603390Y-115762857D02*
X149746247Y-115762857D01*
X149746247Y-115762857D02*
X149936723Y-115810476D01*
X149936723Y-115810476D02*
X150031961Y-115858095D01*
X150031961Y-115858095D02*
X150127200Y-115953333D01*
X150127200Y-115953333D02*
X150174819Y-116096190D01*
X150174819Y-116096190D02*
X150174819Y-116334285D01*
X150174819Y-114810476D02*
X150174819Y-115381904D01*
X150174819Y-115096190D02*
X149174819Y-115096190D01*
X149174819Y-115096190D02*
X149317676Y-115191428D01*
X149317676Y-115191428D02*
X149412914Y-115286666D01*
X149412914Y-115286666D02*
X149460533Y-115381904D01*
X149270057Y-114429523D02*
X149222438Y-114381904D01*
X149222438Y-114381904D02*
X149174819Y-114286666D01*
X149174819Y-114286666D02*
X149174819Y-114048571D01*
X149174819Y-114048571D02*
X149222438Y-113953333D01*
X149222438Y-113953333D02*
X149270057Y-113905714D01*
X149270057Y-113905714D02*
X149365295Y-113858095D01*
X149365295Y-113858095D02*
X149460533Y-113858095D01*
X149460533Y-113858095D02*
X149603390Y-113905714D01*
X149603390Y-113905714D02*
X150174819Y-114477142D01*
X150174819Y-114477142D02*
X150174819Y-113858095D01*
X145488095Y-112934819D02*
X145488095Y-111934819D01*
X146059523Y-112934819D02*
X145630952Y-112363390D01*
X146059523Y-111934819D02*
X145488095Y-112506247D01*
X106659580Y-99932857D02*
X106707200Y-99980476D01*
X106707200Y-99980476D02*
X106754819Y-100123333D01*
X106754819Y-100123333D02*
X106754819Y-100218571D01*
X106754819Y-100218571D02*
X106707200Y-100361428D01*
X106707200Y-100361428D02*
X106611961Y-100456666D01*
X106611961Y-100456666D02*
X106516723Y-100504285D01*
X106516723Y-100504285D02*
X106326247Y-100551904D01*
X106326247Y-100551904D02*
X106183390Y-100551904D01*
X106183390Y-100551904D02*
X105992914Y-100504285D01*
X105992914Y-100504285D02*
X105897676Y-100456666D01*
X105897676Y-100456666D02*
X105802438Y-100361428D01*
X105802438Y-100361428D02*
X105754819Y-100218571D01*
X105754819Y-100218571D02*
X105754819Y-100123333D01*
X105754819Y-100123333D02*
X105802438Y-99980476D01*
X105802438Y-99980476D02*
X105850057Y-99932857D01*
X106754819Y-98980476D02*
X106754819Y-99551904D01*
X106754819Y-99266190D02*
X105754819Y-99266190D01*
X105754819Y-99266190D02*
X105897676Y-99361428D01*
X105897676Y-99361428D02*
X105992914Y-99456666D01*
X105992914Y-99456666D02*
X106040533Y-99551904D01*
X105850057Y-98599523D02*
X105802438Y-98551904D01*
X105802438Y-98551904D02*
X105754819Y-98456666D01*
X105754819Y-98456666D02*
X105754819Y-98218571D01*
X105754819Y-98218571D02*
X105802438Y-98123333D01*
X105802438Y-98123333D02*
X105850057Y-98075714D01*
X105850057Y-98075714D02*
X105945295Y-98028095D01*
X105945295Y-98028095D02*
X106040533Y-98028095D01*
X106040533Y-98028095D02*
X106183390Y-98075714D01*
X106183390Y-98075714D02*
X106754819Y-98647142D01*
X106754819Y-98647142D02*
X106754819Y-98028095D01*
X115976667Y-96517200D02*
X116119524Y-96564819D01*
X116119524Y-96564819D02*
X116357619Y-96564819D01*
X116357619Y-96564819D02*
X116452857Y-96517200D01*
X116452857Y-96517200D02*
X116500476Y-96469580D01*
X116500476Y-96469580D02*
X116548095Y-96374342D01*
X116548095Y-96374342D02*
X116548095Y-96279104D01*
X116548095Y-96279104D02*
X116500476Y-96183866D01*
X116500476Y-96183866D02*
X116452857Y-96136247D01*
X116452857Y-96136247D02*
X116357619Y-96088628D01*
X116357619Y-96088628D02*
X116167143Y-96041009D01*
X116167143Y-96041009D02*
X116071905Y-95993390D01*
X116071905Y-95993390D02*
X116024286Y-95945771D01*
X116024286Y-95945771D02*
X115976667Y-95850533D01*
X115976667Y-95850533D02*
X115976667Y-95755295D01*
X115976667Y-95755295D02*
X116024286Y-95660057D01*
X116024286Y-95660057D02*
X116071905Y-95612438D01*
X116071905Y-95612438D02*
X116167143Y-95564819D01*
X116167143Y-95564819D02*
X116405238Y-95564819D01*
X116405238Y-95564819D02*
X116548095Y-95612438D01*
X116881429Y-95564819D02*
X117119524Y-96564819D01*
X117119524Y-96564819D02*
X117310000Y-95850533D01*
X117310000Y-95850533D02*
X117500476Y-96564819D01*
X117500476Y-96564819D02*
X117738572Y-95564819D01*
X118071905Y-95660057D02*
X118119524Y-95612438D01*
X118119524Y-95612438D02*
X118214762Y-95564819D01*
X118214762Y-95564819D02*
X118452857Y-95564819D01*
X118452857Y-95564819D02*
X118548095Y-95612438D01*
X118548095Y-95612438D02*
X118595714Y-95660057D01*
X118595714Y-95660057D02*
X118643333Y-95755295D01*
X118643333Y-95755295D02*
X118643333Y-95850533D01*
X118643333Y-95850533D02*
X118595714Y-95993390D01*
X118595714Y-95993390D02*
X118024286Y-96564819D01*
X118024286Y-96564819D02*
X118643333Y-96564819D01*
X116211667Y-116487200D02*
X116354524Y-116534819D01*
X116354524Y-116534819D02*
X116592619Y-116534819D01*
X116592619Y-116534819D02*
X116687857Y-116487200D01*
X116687857Y-116487200D02*
X116735476Y-116439580D01*
X116735476Y-116439580D02*
X116783095Y-116344342D01*
X116783095Y-116344342D02*
X116783095Y-116249104D01*
X116783095Y-116249104D02*
X116735476Y-116153866D01*
X116735476Y-116153866D02*
X116687857Y-116106247D01*
X116687857Y-116106247D02*
X116592619Y-116058628D01*
X116592619Y-116058628D02*
X116402143Y-116011009D01*
X116402143Y-116011009D02*
X116306905Y-115963390D01*
X116306905Y-115963390D02*
X116259286Y-115915771D01*
X116259286Y-115915771D02*
X116211667Y-115820533D01*
X116211667Y-115820533D02*
X116211667Y-115725295D01*
X116211667Y-115725295D02*
X116259286Y-115630057D01*
X116259286Y-115630057D02*
X116306905Y-115582438D01*
X116306905Y-115582438D02*
X116402143Y-115534819D01*
X116402143Y-115534819D02*
X116640238Y-115534819D01*
X116640238Y-115534819D02*
X116783095Y-115582438D01*
X117116429Y-115534819D02*
X117354524Y-116534819D01*
X117354524Y-116534819D02*
X117545000Y-115820533D01*
X117545000Y-115820533D02*
X117735476Y-116534819D01*
X117735476Y-116534819D02*
X117973572Y-115534819D01*
X118783095Y-115868152D02*
X118783095Y-116534819D01*
X118545000Y-115487200D02*
X118306905Y-116201485D01*
X118306905Y-116201485D02*
X118925952Y-116201485D01*
X166559580Y-97481666D02*
X166607200Y-97529285D01*
X166607200Y-97529285D02*
X166654819Y-97672142D01*
X166654819Y-97672142D02*
X166654819Y-97767380D01*
X166654819Y-97767380D02*
X166607200Y-97910237D01*
X166607200Y-97910237D02*
X166511961Y-98005475D01*
X166511961Y-98005475D02*
X166416723Y-98053094D01*
X166416723Y-98053094D02*
X166226247Y-98100713D01*
X166226247Y-98100713D02*
X166083390Y-98100713D01*
X166083390Y-98100713D02*
X165892914Y-98053094D01*
X165892914Y-98053094D02*
X165797676Y-98005475D01*
X165797676Y-98005475D02*
X165702438Y-97910237D01*
X165702438Y-97910237D02*
X165654819Y-97767380D01*
X165654819Y-97767380D02*
X165654819Y-97672142D01*
X165654819Y-97672142D02*
X165702438Y-97529285D01*
X165702438Y-97529285D02*
X165750057Y-97481666D01*
X166654819Y-97005475D02*
X166654819Y-96814999D01*
X166654819Y-96814999D02*
X166607200Y-96719761D01*
X166607200Y-96719761D02*
X166559580Y-96672142D01*
X166559580Y-96672142D02*
X166416723Y-96576904D01*
X166416723Y-96576904D02*
X166226247Y-96529285D01*
X166226247Y-96529285D02*
X165845295Y-96529285D01*
X165845295Y-96529285D02*
X165750057Y-96576904D01*
X165750057Y-96576904D02*
X165702438Y-96624523D01*
X165702438Y-96624523D02*
X165654819Y-96719761D01*
X165654819Y-96719761D02*
X165654819Y-96910237D01*
X165654819Y-96910237D02*
X165702438Y-97005475D01*
X165702438Y-97005475D02*
X165750057Y-97053094D01*
X165750057Y-97053094D02*
X165845295Y-97100713D01*
X165845295Y-97100713D02*
X166083390Y-97100713D01*
X166083390Y-97100713D02*
X166178628Y-97053094D01*
X166178628Y-97053094D02*
X166226247Y-97005475D01*
X166226247Y-97005475D02*
X166273866Y-96910237D01*
X166273866Y-96910237D02*
X166273866Y-96719761D01*
X166273866Y-96719761D02*
X166226247Y-96624523D01*
X166226247Y-96624523D02*
X166178628Y-96576904D01*
X166178628Y-96576904D02*
X166083390Y-96529285D01*
X91765714Y-97094819D02*
X91765714Y-96094819D01*
X91765714Y-96094819D02*
X92003809Y-96094819D01*
X92003809Y-96094819D02*
X92146666Y-96142438D01*
X92146666Y-96142438D02*
X92241904Y-96237676D01*
X92241904Y-96237676D02*
X92289523Y-96332914D01*
X92289523Y-96332914D02*
X92337142Y-96523390D01*
X92337142Y-96523390D02*
X92337142Y-96666247D01*
X92337142Y-96666247D02*
X92289523Y-96856723D01*
X92289523Y-96856723D02*
X92241904Y-96951961D01*
X92241904Y-96951961D02*
X92146666Y-97047200D01*
X92146666Y-97047200D02*
X92003809Y-97094819D01*
X92003809Y-97094819D02*
X91765714Y-97094819D01*
X93289523Y-97094819D02*
X92718095Y-97094819D01*
X93003809Y-97094819D02*
X93003809Y-96094819D01*
X93003809Y-96094819D02*
X92908571Y-96237676D01*
X92908571Y-96237676D02*
X92813333Y-96332914D01*
X92813333Y-96332914D02*
X92718095Y-96380533D01*
X93622857Y-96094819D02*
X94241904Y-96094819D01*
X94241904Y-96094819D02*
X93908571Y-96475771D01*
X93908571Y-96475771D02*
X94051428Y-96475771D01*
X94051428Y-96475771D02*
X94146666Y-96523390D01*
X94146666Y-96523390D02*
X94194285Y-96571009D01*
X94194285Y-96571009D02*
X94241904Y-96666247D01*
X94241904Y-96666247D02*
X94241904Y-96904342D01*
X94241904Y-96904342D02*
X94194285Y-96999580D01*
X94194285Y-96999580D02*
X94146666Y-97047200D01*
X94146666Y-97047200D02*
X94051428Y-97094819D01*
X94051428Y-97094819D02*
X93765714Y-97094819D01*
X93765714Y-97094819D02*
X93670476Y-97047200D01*
X93670476Y-97047200D02*
X93622857Y-96999580D01*
X99909580Y-87382857D02*
X99957200Y-87430476D01*
X99957200Y-87430476D02*
X100004819Y-87573333D01*
X100004819Y-87573333D02*
X100004819Y-87668571D01*
X100004819Y-87668571D02*
X99957200Y-87811428D01*
X99957200Y-87811428D02*
X99861961Y-87906666D01*
X99861961Y-87906666D02*
X99766723Y-87954285D01*
X99766723Y-87954285D02*
X99576247Y-88001904D01*
X99576247Y-88001904D02*
X99433390Y-88001904D01*
X99433390Y-88001904D02*
X99242914Y-87954285D01*
X99242914Y-87954285D02*
X99147676Y-87906666D01*
X99147676Y-87906666D02*
X99052438Y-87811428D01*
X99052438Y-87811428D02*
X99004819Y-87668571D01*
X99004819Y-87668571D02*
X99004819Y-87573333D01*
X99004819Y-87573333D02*
X99052438Y-87430476D01*
X99052438Y-87430476D02*
X99100057Y-87382857D01*
X100004819Y-86430476D02*
X100004819Y-87001904D01*
X100004819Y-86716190D02*
X99004819Y-86716190D01*
X99004819Y-86716190D02*
X99147676Y-86811428D01*
X99147676Y-86811428D02*
X99242914Y-86906666D01*
X99242914Y-86906666D02*
X99290533Y-87001904D01*
X99004819Y-85573333D02*
X99004819Y-85763809D01*
X99004819Y-85763809D02*
X99052438Y-85859047D01*
X99052438Y-85859047D02*
X99100057Y-85906666D01*
X99100057Y-85906666D02*
X99242914Y-86001904D01*
X99242914Y-86001904D02*
X99433390Y-86049523D01*
X99433390Y-86049523D02*
X99814342Y-86049523D01*
X99814342Y-86049523D02*
X99909580Y-86001904D01*
X99909580Y-86001904D02*
X99957200Y-85954285D01*
X99957200Y-85954285D02*
X100004819Y-85859047D01*
X100004819Y-85859047D02*
X100004819Y-85668571D01*
X100004819Y-85668571D02*
X99957200Y-85573333D01*
X99957200Y-85573333D02*
X99909580Y-85525714D01*
X99909580Y-85525714D02*
X99814342Y-85478095D01*
X99814342Y-85478095D02*
X99576247Y-85478095D01*
X99576247Y-85478095D02*
X99481009Y-85525714D01*
X99481009Y-85525714D02*
X99433390Y-85573333D01*
X99433390Y-85573333D02*
X99385771Y-85668571D01*
X99385771Y-85668571D02*
X99385771Y-85859047D01*
X99385771Y-85859047D02*
X99433390Y-85954285D01*
X99433390Y-85954285D02*
X99481009Y-86001904D01*
X99481009Y-86001904D02*
X99576247Y-86049523D01*
X108309580Y-99982857D02*
X108357200Y-100030476D01*
X108357200Y-100030476D02*
X108404819Y-100173333D01*
X108404819Y-100173333D02*
X108404819Y-100268571D01*
X108404819Y-100268571D02*
X108357200Y-100411428D01*
X108357200Y-100411428D02*
X108261961Y-100506666D01*
X108261961Y-100506666D02*
X108166723Y-100554285D01*
X108166723Y-100554285D02*
X107976247Y-100601904D01*
X107976247Y-100601904D02*
X107833390Y-100601904D01*
X107833390Y-100601904D02*
X107642914Y-100554285D01*
X107642914Y-100554285D02*
X107547676Y-100506666D01*
X107547676Y-100506666D02*
X107452438Y-100411428D01*
X107452438Y-100411428D02*
X107404819Y-100268571D01*
X107404819Y-100268571D02*
X107404819Y-100173333D01*
X107404819Y-100173333D02*
X107452438Y-100030476D01*
X107452438Y-100030476D02*
X107500057Y-99982857D01*
X108404819Y-99030476D02*
X108404819Y-99601904D01*
X108404819Y-99316190D02*
X107404819Y-99316190D01*
X107404819Y-99316190D02*
X107547676Y-99411428D01*
X107547676Y-99411428D02*
X107642914Y-99506666D01*
X107642914Y-99506666D02*
X107690533Y-99601904D01*
X107404819Y-98411428D02*
X107404819Y-98316190D01*
X107404819Y-98316190D02*
X107452438Y-98220952D01*
X107452438Y-98220952D02*
X107500057Y-98173333D01*
X107500057Y-98173333D02*
X107595295Y-98125714D01*
X107595295Y-98125714D02*
X107785771Y-98078095D01*
X107785771Y-98078095D02*
X108023866Y-98078095D01*
X108023866Y-98078095D02*
X108214342Y-98125714D01*
X108214342Y-98125714D02*
X108309580Y-98173333D01*
X108309580Y-98173333D02*
X108357200Y-98220952D01*
X108357200Y-98220952D02*
X108404819Y-98316190D01*
X108404819Y-98316190D02*
X108404819Y-98411428D01*
X108404819Y-98411428D02*
X108357200Y-98506666D01*
X108357200Y-98506666D02*
X108309580Y-98554285D01*
X108309580Y-98554285D02*
X108214342Y-98601904D01*
X108214342Y-98601904D02*
X108023866Y-98649523D01*
X108023866Y-98649523D02*
X107785771Y-98649523D01*
X107785771Y-98649523D02*
X107595295Y-98601904D01*
X107595295Y-98601904D02*
X107500057Y-98554285D01*
X107500057Y-98554285D02*
X107452438Y-98506666D01*
X107452438Y-98506666D02*
X107404819Y-98411428D01*
X70516666Y-88094819D02*
X70516666Y-88809104D01*
X70516666Y-88809104D02*
X70469047Y-88951961D01*
X70469047Y-88951961D02*
X70373809Y-89047200D01*
X70373809Y-89047200D02*
X70230952Y-89094819D01*
X70230952Y-89094819D02*
X70135714Y-89094819D01*
X71516666Y-89094819D02*
X70945238Y-89094819D01*
X71230952Y-89094819D02*
X71230952Y-88094819D01*
X71230952Y-88094819D02*
X71135714Y-88237676D01*
X71135714Y-88237676D02*
X71040476Y-88332914D01*
X71040476Y-88332914D02*
X70945238Y-88380533D01*
X162223809Y-87418628D02*
X162223809Y-87894819D01*
X161890476Y-86894819D02*
X162223809Y-87418628D01*
X162223809Y-87418628D02*
X162557142Y-86894819D01*
X163414285Y-87894819D02*
X162842857Y-87894819D01*
X163128571Y-87894819D02*
X163128571Y-86894819D01*
X163128571Y-86894819D02*
X163033333Y-87037676D01*
X163033333Y-87037676D02*
X162938095Y-87132914D01*
X162938095Y-87132914D02*
X162842857Y-87180533D01*
X159354819Y-98656666D02*
X158878628Y-98989999D01*
X159354819Y-99228094D02*
X158354819Y-99228094D01*
X158354819Y-99228094D02*
X158354819Y-98847142D01*
X158354819Y-98847142D02*
X158402438Y-98751904D01*
X158402438Y-98751904D02*
X158450057Y-98704285D01*
X158450057Y-98704285D02*
X158545295Y-98656666D01*
X158545295Y-98656666D02*
X158688152Y-98656666D01*
X158688152Y-98656666D02*
X158783390Y-98704285D01*
X158783390Y-98704285D02*
X158831009Y-98751904D01*
X158831009Y-98751904D02*
X158878628Y-98847142D01*
X158878628Y-98847142D02*
X158878628Y-99228094D01*
X158354819Y-98323332D02*
X158354819Y-97704285D01*
X158354819Y-97704285D02*
X158735771Y-98037618D01*
X158735771Y-98037618D02*
X158735771Y-97894761D01*
X158735771Y-97894761D02*
X158783390Y-97799523D01*
X158783390Y-97799523D02*
X158831009Y-97751904D01*
X158831009Y-97751904D02*
X158926247Y-97704285D01*
X158926247Y-97704285D02*
X159164342Y-97704285D01*
X159164342Y-97704285D02*
X159259580Y-97751904D01*
X159259580Y-97751904D02*
X159307200Y-97799523D01*
X159307200Y-97799523D02*
X159354819Y-97894761D01*
X159354819Y-97894761D02*
X159354819Y-98180475D01*
X159354819Y-98180475D02*
X159307200Y-98275713D01*
X159307200Y-98275713D02*
X159259580Y-98323332D01*
X137924819Y-95828094D02*
X136924819Y-95828094D01*
X136924819Y-95828094D02*
X136924819Y-95589999D01*
X136924819Y-95589999D02*
X136972438Y-95447142D01*
X136972438Y-95447142D02*
X137067676Y-95351904D01*
X137067676Y-95351904D02*
X137162914Y-95304285D01*
X137162914Y-95304285D02*
X137353390Y-95256666D01*
X137353390Y-95256666D02*
X137496247Y-95256666D01*
X137496247Y-95256666D02*
X137686723Y-95304285D01*
X137686723Y-95304285D02*
X137781961Y-95351904D01*
X137781961Y-95351904D02*
X137877200Y-95447142D01*
X137877200Y-95447142D02*
X137924819Y-95589999D01*
X137924819Y-95589999D02*
X137924819Y-95828094D01*
X136924819Y-94399523D02*
X136924819Y-94589999D01*
X136924819Y-94589999D02*
X136972438Y-94685237D01*
X136972438Y-94685237D02*
X137020057Y-94732856D01*
X137020057Y-94732856D02*
X137162914Y-94828094D01*
X137162914Y-94828094D02*
X137353390Y-94875713D01*
X137353390Y-94875713D02*
X137734342Y-94875713D01*
X137734342Y-94875713D02*
X137829580Y-94828094D01*
X137829580Y-94828094D02*
X137877200Y-94780475D01*
X137877200Y-94780475D02*
X137924819Y-94685237D01*
X137924819Y-94685237D02*
X137924819Y-94494761D01*
X137924819Y-94494761D02*
X137877200Y-94399523D01*
X137877200Y-94399523D02*
X137829580Y-94351904D01*
X137829580Y-94351904D02*
X137734342Y-94304285D01*
X137734342Y-94304285D02*
X137496247Y-94304285D01*
X137496247Y-94304285D02*
X137401009Y-94351904D01*
X137401009Y-94351904D02*
X137353390Y-94399523D01*
X137353390Y-94399523D02*
X137305771Y-94494761D01*
X137305771Y-94494761D02*
X137305771Y-94685237D01*
X137305771Y-94685237D02*
X137353390Y-94780475D01*
X137353390Y-94780475D02*
X137401009Y-94828094D01*
X137401009Y-94828094D02*
X137496247Y-94875713D01*
X133188095Y-92864819D02*
X133188095Y-91864819D01*
X133759523Y-92864819D02*
X133330952Y-92293390D01*
X133759523Y-91864819D02*
X133188095Y-92436247D01*
X125174819Y-115858094D02*
X124174819Y-115858094D01*
X124174819Y-115858094D02*
X124174819Y-115619999D01*
X124174819Y-115619999D02*
X124222438Y-115477142D01*
X124222438Y-115477142D02*
X124317676Y-115381904D01*
X124317676Y-115381904D02*
X124412914Y-115334285D01*
X124412914Y-115334285D02*
X124603390Y-115286666D01*
X124603390Y-115286666D02*
X124746247Y-115286666D01*
X124746247Y-115286666D02*
X124936723Y-115334285D01*
X124936723Y-115334285D02*
X125031961Y-115381904D01*
X125031961Y-115381904D02*
X125127200Y-115477142D01*
X125127200Y-115477142D02*
X125174819Y-115619999D01*
X125174819Y-115619999D02*
X125174819Y-115858094D01*
X124508152Y-114429523D02*
X125174819Y-114429523D01*
X124127200Y-114667618D02*
X124841485Y-114905713D01*
X124841485Y-114905713D02*
X124841485Y-114286666D01*
X120438095Y-112894819D02*
X120438095Y-111894819D01*
X121009523Y-112894819D02*
X120580952Y-112323390D01*
X121009523Y-111894819D02*
X120438095Y-112466247D01*
X178309580Y-103345357D02*
X178357200Y-103392976D01*
X178357200Y-103392976D02*
X178404819Y-103535833D01*
X178404819Y-103535833D02*
X178404819Y-103631071D01*
X178404819Y-103631071D02*
X178357200Y-103773928D01*
X178357200Y-103773928D02*
X178261961Y-103869166D01*
X178261961Y-103869166D02*
X178166723Y-103916785D01*
X178166723Y-103916785D02*
X177976247Y-103964404D01*
X177976247Y-103964404D02*
X177833390Y-103964404D01*
X177833390Y-103964404D02*
X177642914Y-103916785D01*
X177642914Y-103916785D02*
X177547676Y-103869166D01*
X177547676Y-103869166D02*
X177452438Y-103773928D01*
X177452438Y-103773928D02*
X177404819Y-103631071D01*
X177404819Y-103631071D02*
X177404819Y-103535833D01*
X177404819Y-103535833D02*
X177452438Y-103392976D01*
X177452438Y-103392976D02*
X177500057Y-103345357D01*
X178404819Y-102392976D02*
X178404819Y-102964404D01*
X178404819Y-102678690D02*
X177404819Y-102678690D01*
X177404819Y-102678690D02*
X177547676Y-102773928D01*
X177547676Y-102773928D02*
X177642914Y-102869166D01*
X177642914Y-102869166D02*
X177690533Y-102964404D01*
X177404819Y-102059642D02*
X177404819Y-101440595D01*
X177404819Y-101440595D02*
X177785771Y-101773928D01*
X177785771Y-101773928D02*
X177785771Y-101631071D01*
X177785771Y-101631071D02*
X177833390Y-101535833D01*
X177833390Y-101535833D02*
X177881009Y-101488214D01*
X177881009Y-101488214D02*
X177976247Y-101440595D01*
X177976247Y-101440595D02*
X178214342Y-101440595D01*
X178214342Y-101440595D02*
X178309580Y-101488214D01*
X178309580Y-101488214D02*
X178357200Y-101535833D01*
X178357200Y-101535833D02*
X178404819Y-101631071D01*
X178404819Y-101631071D02*
X178404819Y-101916785D01*
X178404819Y-101916785D02*
X178357200Y-102012023D01*
X178357200Y-102012023D02*
X178309580Y-102059642D01*
X166063333Y-85249580D02*
X166015714Y-85297200D01*
X166015714Y-85297200D02*
X165872857Y-85344819D01*
X165872857Y-85344819D02*
X165777619Y-85344819D01*
X165777619Y-85344819D02*
X165634762Y-85297200D01*
X165634762Y-85297200D02*
X165539524Y-85201961D01*
X165539524Y-85201961D02*
X165491905Y-85106723D01*
X165491905Y-85106723D02*
X165444286Y-84916247D01*
X165444286Y-84916247D02*
X165444286Y-84773390D01*
X165444286Y-84773390D02*
X165491905Y-84582914D01*
X165491905Y-84582914D02*
X165539524Y-84487676D01*
X165539524Y-84487676D02*
X165634762Y-84392438D01*
X165634762Y-84392438D02*
X165777619Y-84344819D01*
X165777619Y-84344819D02*
X165872857Y-84344819D01*
X165872857Y-84344819D02*
X166015714Y-84392438D01*
X166015714Y-84392438D02*
X166063333Y-84440057D01*
X166396667Y-84344819D02*
X167015714Y-84344819D01*
X167015714Y-84344819D02*
X166682381Y-84725771D01*
X166682381Y-84725771D02*
X166825238Y-84725771D01*
X166825238Y-84725771D02*
X166920476Y-84773390D01*
X166920476Y-84773390D02*
X166968095Y-84821009D01*
X166968095Y-84821009D02*
X167015714Y-84916247D01*
X167015714Y-84916247D02*
X167015714Y-85154342D01*
X167015714Y-85154342D02*
X166968095Y-85249580D01*
X166968095Y-85249580D02*
X166920476Y-85297200D01*
X166920476Y-85297200D02*
X166825238Y-85344819D01*
X166825238Y-85344819D02*
X166539524Y-85344819D01*
X166539524Y-85344819D02*
X166444286Y-85297200D01*
X166444286Y-85297200D02*
X166396667Y-85249580D01*
X96957142Y-107494819D02*
X96623809Y-107018628D01*
X96385714Y-107494819D02*
X96385714Y-106494819D01*
X96385714Y-106494819D02*
X96766666Y-106494819D01*
X96766666Y-106494819D02*
X96861904Y-106542438D01*
X96861904Y-106542438D02*
X96909523Y-106590057D01*
X96909523Y-106590057D02*
X96957142Y-106685295D01*
X96957142Y-106685295D02*
X96957142Y-106828152D01*
X96957142Y-106828152D02*
X96909523Y-106923390D01*
X96909523Y-106923390D02*
X96861904Y-106971009D01*
X96861904Y-106971009D02*
X96766666Y-107018628D01*
X96766666Y-107018628D02*
X96385714Y-107018628D01*
X97909523Y-107494819D02*
X97338095Y-107494819D01*
X97623809Y-107494819D02*
X97623809Y-106494819D01*
X97623809Y-106494819D02*
X97528571Y-106637676D01*
X97528571Y-106637676D02*
X97433333Y-106732914D01*
X97433333Y-106732914D02*
X97338095Y-106780533D01*
X98814285Y-106494819D02*
X98338095Y-106494819D01*
X98338095Y-106494819D02*
X98290476Y-106971009D01*
X98290476Y-106971009D02*
X98338095Y-106923390D01*
X98338095Y-106923390D02*
X98433333Y-106875771D01*
X98433333Y-106875771D02*
X98671428Y-106875771D01*
X98671428Y-106875771D02*
X98766666Y-106923390D01*
X98766666Y-106923390D02*
X98814285Y-106971009D01*
X98814285Y-106971009D02*
X98861904Y-107066247D01*
X98861904Y-107066247D02*
X98861904Y-107304342D01*
X98861904Y-107304342D02*
X98814285Y-107399580D01*
X98814285Y-107399580D02*
X98766666Y-107447200D01*
X98766666Y-107447200D02*
X98671428Y-107494819D01*
X98671428Y-107494819D02*
X98433333Y-107494819D01*
X98433333Y-107494819D02*
X98338095Y-107447200D01*
X98338095Y-107447200D02*
X98290476Y-107399580D01*
X101509580Y-87382857D02*
X101557200Y-87430476D01*
X101557200Y-87430476D02*
X101604819Y-87573333D01*
X101604819Y-87573333D02*
X101604819Y-87668571D01*
X101604819Y-87668571D02*
X101557200Y-87811428D01*
X101557200Y-87811428D02*
X101461961Y-87906666D01*
X101461961Y-87906666D02*
X101366723Y-87954285D01*
X101366723Y-87954285D02*
X101176247Y-88001904D01*
X101176247Y-88001904D02*
X101033390Y-88001904D01*
X101033390Y-88001904D02*
X100842914Y-87954285D01*
X100842914Y-87954285D02*
X100747676Y-87906666D01*
X100747676Y-87906666D02*
X100652438Y-87811428D01*
X100652438Y-87811428D02*
X100604819Y-87668571D01*
X100604819Y-87668571D02*
X100604819Y-87573333D01*
X100604819Y-87573333D02*
X100652438Y-87430476D01*
X100652438Y-87430476D02*
X100700057Y-87382857D01*
X101604819Y-86430476D02*
X101604819Y-87001904D01*
X101604819Y-86716190D02*
X100604819Y-86716190D01*
X100604819Y-86716190D02*
X100747676Y-86811428D01*
X100747676Y-86811428D02*
X100842914Y-86906666D01*
X100842914Y-86906666D02*
X100890533Y-87001904D01*
X100938152Y-85573333D02*
X101604819Y-85573333D01*
X100557200Y-85811428D02*
X101271485Y-86049523D01*
X101271485Y-86049523D02*
X101271485Y-85430476D01*
X125174819Y-105868094D02*
X124174819Y-105868094D01*
X124174819Y-105868094D02*
X124174819Y-105629999D01*
X124174819Y-105629999D02*
X124222438Y-105487142D01*
X124222438Y-105487142D02*
X124317676Y-105391904D01*
X124317676Y-105391904D02*
X124412914Y-105344285D01*
X124412914Y-105344285D02*
X124603390Y-105296666D01*
X124603390Y-105296666D02*
X124746247Y-105296666D01*
X124746247Y-105296666D02*
X124936723Y-105344285D01*
X124936723Y-105344285D02*
X125031961Y-105391904D01*
X125031961Y-105391904D02*
X125127200Y-105487142D01*
X125127200Y-105487142D02*
X125174819Y-105629999D01*
X125174819Y-105629999D02*
X125174819Y-105868094D01*
X124174819Y-104963332D02*
X124174819Y-104344285D01*
X124174819Y-104344285D02*
X124555771Y-104677618D01*
X124555771Y-104677618D02*
X124555771Y-104534761D01*
X124555771Y-104534761D02*
X124603390Y-104439523D01*
X124603390Y-104439523D02*
X124651009Y-104391904D01*
X124651009Y-104391904D02*
X124746247Y-104344285D01*
X124746247Y-104344285D02*
X124984342Y-104344285D01*
X124984342Y-104344285D02*
X125079580Y-104391904D01*
X125079580Y-104391904D02*
X125127200Y-104439523D01*
X125127200Y-104439523D02*
X125174819Y-104534761D01*
X125174819Y-104534761D02*
X125174819Y-104820475D01*
X125174819Y-104820475D02*
X125127200Y-104915713D01*
X125127200Y-104915713D02*
X125079580Y-104963332D01*
X120438095Y-102904819D02*
X120438095Y-101904819D01*
X121009523Y-102904819D02*
X120580952Y-102333390D01*
X121009523Y-101904819D02*
X120438095Y-102476247D01*
X67716666Y-112579819D02*
X67716666Y-113294104D01*
X67716666Y-113294104D02*
X67669047Y-113436961D01*
X67669047Y-113436961D02*
X67573809Y-113532200D01*
X67573809Y-113532200D02*
X67430952Y-113579819D01*
X67430952Y-113579819D02*
X67335714Y-113579819D01*
X68097619Y-112579819D02*
X68716666Y-112579819D01*
X68716666Y-112579819D02*
X68383333Y-112960771D01*
X68383333Y-112960771D02*
X68526190Y-112960771D01*
X68526190Y-112960771D02*
X68621428Y-113008390D01*
X68621428Y-113008390D02*
X68669047Y-113056009D01*
X68669047Y-113056009D02*
X68716666Y-113151247D01*
X68716666Y-113151247D02*
X68716666Y-113389342D01*
X68716666Y-113389342D02*
X68669047Y-113484580D01*
X68669047Y-113484580D02*
X68621428Y-113532200D01*
X68621428Y-113532200D02*
X68526190Y-113579819D01*
X68526190Y-113579819D02*
X68240476Y-113579819D01*
X68240476Y-113579819D02*
X68145238Y-113532200D01*
X68145238Y-113532200D02*
X68097619Y-113484580D01*
X137924819Y-85828094D02*
X136924819Y-85828094D01*
X136924819Y-85828094D02*
X136924819Y-85589999D01*
X136924819Y-85589999D02*
X136972438Y-85447142D01*
X136972438Y-85447142D02*
X137067676Y-85351904D01*
X137067676Y-85351904D02*
X137162914Y-85304285D01*
X137162914Y-85304285D02*
X137353390Y-85256666D01*
X137353390Y-85256666D02*
X137496247Y-85256666D01*
X137496247Y-85256666D02*
X137686723Y-85304285D01*
X137686723Y-85304285D02*
X137781961Y-85351904D01*
X137781961Y-85351904D02*
X137877200Y-85447142D01*
X137877200Y-85447142D02*
X137924819Y-85589999D01*
X137924819Y-85589999D02*
X137924819Y-85828094D01*
X136924819Y-84351904D02*
X136924819Y-84828094D01*
X136924819Y-84828094D02*
X137401009Y-84875713D01*
X137401009Y-84875713D02*
X137353390Y-84828094D01*
X137353390Y-84828094D02*
X137305771Y-84732856D01*
X137305771Y-84732856D02*
X137305771Y-84494761D01*
X137305771Y-84494761D02*
X137353390Y-84399523D01*
X137353390Y-84399523D02*
X137401009Y-84351904D01*
X137401009Y-84351904D02*
X137496247Y-84304285D01*
X137496247Y-84304285D02*
X137734342Y-84304285D01*
X137734342Y-84304285D02*
X137829580Y-84351904D01*
X137829580Y-84351904D02*
X137877200Y-84399523D01*
X137877200Y-84399523D02*
X137924819Y-84494761D01*
X137924819Y-84494761D02*
X137924819Y-84732856D01*
X137924819Y-84732856D02*
X137877200Y-84828094D01*
X137877200Y-84828094D02*
X137829580Y-84875713D01*
X133188095Y-82864819D02*
X133188095Y-81864819D01*
X133759523Y-82864819D02*
X133330952Y-82293390D01*
X133759523Y-81864819D02*
X133188095Y-82436247D01*
X125174819Y-95828094D02*
X124174819Y-95828094D01*
X124174819Y-95828094D02*
X124174819Y-95589999D01*
X124174819Y-95589999D02*
X124222438Y-95447142D01*
X124222438Y-95447142D02*
X124317676Y-95351904D01*
X124317676Y-95351904D02*
X124412914Y-95304285D01*
X124412914Y-95304285D02*
X124603390Y-95256666D01*
X124603390Y-95256666D02*
X124746247Y-95256666D01*
X124746247Y-95256666D02*
X124936723Y-95304285D01*
X124936723Y-95304285D02*
X125031961Y-95351904D01*
X125031961Y-95351904D02*
X125127200Y-95447142D01*
X125127200Y-95447142D02*
X125174819Y-95589999D01*
X125174819Y-95589999D02*
X125174819Y-95828094D01*
X124270057Y-94875713D02*
X124222438Y-94828094D01*
X124222438Y-94828094D02*
X124174819Y-94732856D01*
X124174819Y-94732856D02*
X124174819Y-94494761D01*
X124174819Y-94494761D02*
X124222438Y-94399523D01*
X124222438Y-94399523D02*
X124270057Y-94351904D01*
X124270057Y-94351904D02*
X124365295Y-94304285D01*
X124365295Y-94304285D02*
X124460533Y-94304285D01*
X124460533Y-94304285D02*
X124603390Y-94351904D01*
X124603390Y-94351904D02*
X125174819Y-94923332D01*
X125174819Y-94923332D02*
X125174819Y-94304285D01*
X120438095Y-92864819D02*
X120438095Y-91864819D01*
X121009523Y-92864819D02*
X120580952Y-92293390D01*
X121009523Y-91864819D02*
X120438095Y-92436247D01*
X166233333Y-88899580D02*
X166185714Y-88947200D01*
X166185714Y-88947200D02*
X166042857Y-88994819D01*
X166042857Y-88994819D02*
X165947619Y-88994819D01*
X165947619Y-88994819D02*
X165804762Y-88947200D01*
X165804762Y-88947200D02*
X165709524Y-88851961D01*
X165709524Y-88851961D02*
X165661905Y-88756723D01*
X165661905Y-88756723D02*
X165614286Y-88566247D01*
X165614286Y-88566247D02*
X165614286Y-88423390D01*
X165614286Y-88423390D02*
X165661905Y-88232914D01*
X165661905Y-88232914D02*
X165709524Y-88137676D01*
X165709524Y-88137676D02*
X165804762Y-88042438D01*
X165804762Y-88042438D02*
X165947619Y-87994819D01*
X165947619Y-87994819D02*
X166042857Y-87994819D01*
X166042857Y-87994819D02*
X166185714Y-88042438D01*
X166185714Y-88042438D02*
X166233333Y-88090057D01*
X167138095Y-87994819D02*
X166661905Y-87994819D01*
X166661905Y-87994819D02*
X166614286Y-88471009D01*
X166614286Y-88471009D02*
X166661905Y-88423390D01*
X166661905Y-88423390D02*
X166757143Y-88375771D01*
X166757143Y-88375771D02*
X166995238Y-88375771D01*
X166995238Y-88375771D02*
X167090476Y-88423390D01*
X167090476Y-88423390D02*
X167138095Y-88471009D01*
X167138095Y-88471009D02*
X167185714Y-88566247D01*
X167185714Y-88566247D02*
X167185714Y-88804342D01*
X167185714Y-88804342D02*
X167138095Y-88899580D01*
X167138095Y-88899580D02*
X167090476Y-88947200D01*
X167090476Y-88947200D02*
X166995238Y-88994819D01*
X166995238Y-88994819D02*
X166757143Y-88994819D01*
X166757143Y-88994819D02*
X166661905Y-88947200D01*
X166661905Y-88947200D02*
X166614286Y-88899580D01*
X129266667Y-106757200D02*
X129409524Y-106804819D01*
X129409524Y-106804819D02*
X129647619Y-106804819D01*
X129647619Y-106804819D02*
X129742857Y-106757200D01*
X129742857Y-106757200D02*
X129790476Y-106709580D01*
X129790476Y-106709580D02*
X129838095Y-106614342D01*
X129838095Y-106614342D02*
X129838095Y-106519104D01*
X129838095Y-106519104D02*
X129790476Y-106423866D01*
X129790476Y-106423866D02*
X129742857Y-106376247D01*
X129742857Y-106376247D02*
X129647619Y-106328628D01*
X129647619Y-106328628D02*
X129457143Y-106281009D01*
X129457143Y-106281009D02*
X129361905Y-106233390D01*
X129361905Y-106233390D02*
X129314286Y-106185771D01*
X129314286Y-106185771D02*
X129266667Y-106090533D01*
X129266667Y-106090533D02*
X129266667Y-105995295D01*
X129266667Y-105995295D02*
X129314286Y-105900057D01*
X129314286Y-105900057D02*
X129361905Y-105852438D01*
X129361905Y-105852438D02*
X129457143Y-105804819D01*
X129457143Y-105804819D02*
X129695238Y-105804819D01*
X129695238Y-105804819D02*
X129838095Y-105852438D01*
X130171429Y-105804819D02*
X130409524Y-106804819D01*
X130409524Y-106804819D02*
X130600000Y-106090533D01*
X130600000Y-106090533D02*
X130790476Y-106804819D01*
X130790476Y-106804819D02*
X131028572Y-105804819D01*
X131314286Y-105804819D02*
X131980952Y-105804819D01*
X131980952Y-105804819D02*
X131552381Y-106804819D01*
X151457142Y-107694819D02*
X151123809Y-107218628D01*
X150885714Y-107694819D02*
X150885714Y-106694819D01*
X150885714Y-106694819D02*
X151266666Y-106694819D01*
X151266666Y-106694819D02*
X151361904Y-106742438D01*
X151361904Y-106742438D02*
X151409523Y-106790057D01*
X151409523Y-106790057D02*
X151457142Y-106885295D01*
X151457142Y-106885295D02*
X151457142Y-107028152D01*
X151457142Y-107028152D02*
X151409523Y-107123390D01*
X151409523Y-107123390D02*
X151361904Y-107171009D01*
X151361904Y-107171009D02*
X151266666Y-107218628D01*
X151266666Y-107218628D02*
X150885714Y-107218628D01*
X152409523Y-107694819D02*
X151838095Y-107694819D01*
X152123809Y-107694819D02*
X152123809Y-106694819D01*
X152123809Y-106694819D02*
X152028571Y-106837676D01*
X152028571Y-106837676D02*
X151933333Y-106932914D01*
X151933333Y-106932914D02*
X151838095Y-106980533D01*
X153028571Y-106694819D02*
X153123809Y-106694819D01*
X153123809Y-106694819D02*
X153219047Y-106742438D01*
X153219047Y-106742438D02*
X153266666Y-106790057D01*
X153266666Y-106790057D02*
X153314285Y-106885295D01*
X153314285Y-106885295D02*
X153361904Y-107075771D01*
X153361904Y-107075771D02*
X153361904Y-107313866D01*
X153361904Y-107313866D02*
X153314285Y-107504342D01*
X153314285Y-107504342D02*
X153266666Y-107599580D01*
X153266666Y-107599580D02*
X153219047Y-107647200D01*
X153219047Y-107647200D02*
X153123809Y-107694819D01*
X153123809Y-107694819D02*
X153028571Y-107694819D01*
X153028571Y-107694819D02*
X152933333Y-107647200D01*
X152933333Y-107647200D02*
X152885714Y-107599580D01*
X152885714Y-107599580D02*
X152838095Y-107504342D01*
X152838095Y-107504342D02*
X152790476Y-107313866D01*
X152790476Y-107313866D02*
X152790476Y-107075771D01*
X152790476Y-107075771D02*
X152838095Y-106885295D01*
X152838095Y-106885295D02*
X152885714Y-106790057D01*
X152885714Y-106790057D02*
X152933333Y-106742438D01*
X152933333Y-106742438D02*
X153028571Y-106694819D01*
X103278095Y-115474819D02*
X103278095Y-116284342D01*
X103278095Y-116284342D02*
X103325714Y-116379580D01*
X103325714Y-116379580D02*
X103373333Y-116427200D01*
X103373333Y-116427200D02*
X103468571Y-116474819D01*
X103468571Y-116474819D02*
X103659047Y-116474819D01*
X103659047Y-116474819D02*
X103754285Y-116427200D01*
X103754285Y-116427200D02*
X103801904Y-116379580D01*
X103801904Y-116379580D02*
X103849523Y-116284342D01*
X103849523Y-116284342D02*
X103849523Y-115474819D01*
X104754285Y-115808152D02*
X104754285Y-116474819D01*
X104516190Y-115427200D02*
X104278095Y-116141485D01*
X104278095Y-116141485D02*
X104897142Y-116141485D01*
X140940476Y-116537200D02*
X141083333Y-116584819D01*
X141083333Y-116584819D02*
X141321428Y-116584819D01*
X141321428Y-116584819D02*
X141416666Y-116537200D01*
X141416666Y-116537200D02*
X141464285Y-116489580D01*
X141464285Y-116489580D02*
X141511904Y-116394342D01*
X141511904Y-116394342D02*
X141511904Y-116299104D01*
X141511904Y-116299104D02*
X141464285Y-116203866D01*
X141464285Y-116203866D02*
X141416666Y-116156247D01*
X141416666Y-116156247D02*
X141321428Y-116108628D01*
X141321428Y-116108628D02*
X141130952Y-116061009D01*
X141130952Y-116061009D02*
X141035714Y-116013390D01*
X141035714Y-116013390D02*
X140988095Y-115965771D01*
X140988095Y-115965771D02*
X140940476Y-115870533D01*
X140940476Y-115870533D02*
X140940476Y-115775295D01*
X140940476Y-115775295D02*
X140988095Y-115680057D01*
X140988095Y-115680057D02*
X141035714Y-115632438D01*
X141035714Y-115632438D02*
X141130952Y-115584819D01*
X141130952Y-115584819D02*
X141369047Y-115584819D01*
X141369047Y-115584819D02*
X141511904Y-115632438D01*
X141845238Y-115584819D02*
X142083333Y-116584819D01*
X142083333Y-116584819D02*
X142273809Y-115870533D01*
X142273809Y-115870533D02*
X142464285Y-116584819D01*
X142464285Y-116584819D02*
X142702381Y-115584819D01*
X143607142Y-116584819D02*
X143035714Y-116584819D01*
X143321428Y-116584819D02*
X143321428Y-115584819D01*
X143321428Y-115584819D02*
X143226190Y-115727676D01*
X143226190Y-115727676D02*
X143130952Y-115822914D01*
X143130952Y-115822914D02*
X143035714Y-115870533D01*
X143988095Y-115680057D02*
X144035714Y-115632438D01*
X144035714Y-115632438D02*
X144130952Y-115584819D01*
X144130952Y-115584819D02*
X144369047Y-115584819D01*
X144369047Y-115584819D02*
X144464285Y-115632438D01*
X144464285Y-115632438D02*
X144511904Y-115680057D01*
X144511904Y-115680057D02*
X144559523Y-115775295D01*
X144559523Y-115775295D02*
X144559523Y-115870533D01*
X144559523Y-115870533D02*
X144511904Y-116013390D01*
X144511904Y-116013390D02*
X143940476Y-116584819D01*
X143940476Y-116584819D02*
X144559523Y-116584819D01*
X140833333Y-111304819D02*
X140500000Y-110828628D01*
X140261905Y-111304819D02*
X140261905Y-110304819D01*
X140261905Y-110304819D02*
X140642857Y-110304819D01*
X140642857Y-110304819D02*
X140738095Y-110352438D01*
X140738095Y-110352438D02*
X140785714Y-110400057D01*
X140785714Y-110400057D02*
X140833333Y-110495295D01*
X140833333Y-110495295D02*
X140833333Y-110638152D01*
X140833333Y-110638152D02*
X140785714Y-110733390D01*
X140785714Y-110733390D02*
X140738095Y-110781009D01*
X140738095Y-110781009D02*
X140642857Y-110828628D01*
X140642857Y-110828628D02*
X140261905Y-110828628D01*
X141690476Y-110638152D02*
X141690476Y-111304819D01*
X141452381Y-110257200D02*
X141214286Y-110971485D01*
X141214286Y-110971485D02*
X141833333Y-110971485D01*
X137924819Y-115858094D02*
X136924819Y-115858094D01*
X136924819Y-115858094D02*
X136924819Y-115619999D01*
X136924819Y-115619999D02*
X136972438Y-115477142D01*
X136972438Y-115477142D02*
X137067676Y-115381904D01*
X137067676Y-115381904D02*
X137162914Y-115334285D01*
X137162914Y-115334285D02*
X137353390Y-115286666D01*
X137353390Y-115286666D02*
X137496247Y-115286666D01*
X137496247Y-115286666D02*
X137686723Y-115334285D01*
X137686723Y-115334285D02*
X137781961Y-115381904D01*
X137781961Y-115381904D02*
X137877200Y-115477142D01*
X137877200Y-115477142D02*
X137924819Y-115619999D01*
X137924819Y-115619999D02*
X137924819Y-115858094D01*
X137353390Y-114715237D02*
X137305771Y-114810475D01*
X137305771Y-114810475D02*
X137258152Y-114858094D01*
X137258152Y-114858094D02*
X137162914Y-114905713D01*
X137162914Y-114905713D02*
X137115295Y-114905713D01*
X137115295Y-114905713D02*
X137020057Y-114858094D01*
X137020057Y-114858094D02*
X136972438Y-114810475D01*
X136972438Y-114810475D02*
X136924819Y-114715237D01*
X136924819Y-114715237D02*
X136924819Y-114524761D01*
X136924819Y-114524761D02*
X136972438Y-114429523D01*
X136972438Y-114429523D02*
X137020057Y-114381904D01*
X137020057Y-114381904D02*
X137115295Y-114334285D01*
X137115295Y-114334285D02*
X137162914Y-114334285D01*
X137162914Y-114334285D02*
X137258152Y-114381904D01*
X137258152Y-114381904D02*
X137305771Y-114429523D01*
X137305771Y-114429523D02*
X137353390Y-114524761D01*
X137353390Y-114524761D02*
X137353390Y-114715237D01*
X137353390Y-114715237D02*
X137401009Y-114810475D01*
X137401009Y-114810475D02*
X137448628Y-114858094D01*
X137448628Y-114858094D02*
X137543866Y-114905713D01*
X137543866Y-114905713D02*
X137734342Y-114905713D01*
X137734342Y-114905713D02*
X137829580Y-114858094D01*
X137829580Y-114858094D02*
X137877200Y-114810475D01*
X137877200Y-114810475D02*
X137924819Y-114715237D01*
X137924819Y-114715237D02*
X137924819Y-114524761D01*
X137924819Y-114524761D02*
X137877200Y-114429523D01*
X137877200Y-114429523D02*
X137829580Y-114381904D01*
X137829580Y-114381904D02*
X137734342Y-114334285D01*
X137734342Y-114334285D02*
X137543866Y-114334285D01*
X137543866Y-114334285D02*
X137448628Y-114381904D01*
X137448628Y-114381904D02*
X137401009Y-114429523D01*
X137401009Y-114429523D02*
X137353390Y-114524761D01*
X133188095Y-112894819D02*
X133188095Y-111894819D01*
X133759523Y-112894819D02*
X133330952Y-112323390D01*
X133759523Y-111894819D02*
X133188095Y-112466247D01*
X140540476Y-96517200D02*
X140683333Y-96564819D01*
X140683333Y-96564819D02*
X140921428Y-96564819D01*
X140921428Y-96564819D02*
X141016666Y-96517200D01*
X141016666Y-96517200D02*
X141064285Y-96469580D01*
X141064285Y-96469580D02*
X141111904Y-96374342D01*
X141111904Y-96374342D02*
X141111904Y-96279104D01*
X141111904Y-96279104D02*
X141064285Y-96183866D01*
X141064285Y-96183866D02*
X141016666Y-96136247D01*
X141016666Y-96136247D02*
X140921428Y-96088628D01*
X140921428Y-96088628D02*
X140730952Y-96041009D01*
X140730952Y-96041009D02*
X140635714Y-95993390D01*
X140635714Y-95993390D02*
X140588095Y-95945771D01*
X140588095Y-95945771D02*
X140540476Y-95850533D01*
X140540476Y-95850533D02*
X140540476Y-95755295D01*
X140540476Y-95755295D02*
X140588095Y-95660057D01*
X140588095Y-95660057D02*
X140635714Y-95612438D01*
X140635714Y-95612438D02*
X140730952Y-95564819D01*
X140730952Y-95564819D02*
X140969047Y-95564819D01*
X140969047Y-95564819D02*
X141111904Y-95612438D01*
X141445238Y-95564819D02*
X141683333Y-96564819D01*
X141683333Y-96564819D02*
X141873809Y-95850533D01*
X141873809Y-95850533D02*
X142064285Y-96564819D01*
X142064285Y-96564819D02*
X142302381Y-95564819D01*
X143207142Y-96564819D02*
X142635714Y-96564819D01*
X142921428Y-96564819D02*
X142921428Y-95564819D01*
X142921428Y-95564819D02*
X142826190Y-95707676D01*
X142826190Y-95707676D02*
X142730952Y-95802914D01*
X142730952Y-95802914D02*
X142635714Y-95850533D01*
X143826190Y-95564819D02*
X143921428Y-95564819D01*
X143921428Y-95564819D02*
X144016666Y-95612438D01*
X144016666Y-95612438D02*
X144064285Y-95660057D01*
X144064285Y-95660057D02*
X144111904Y-95755295D01*
X144111904Y-95755295D02*
X144159523Y-95945771D01*
X144159523Y-95945771D02*
X144159523Y-96183866D01*
X144159523Y-96183866D02*
X144111904Y-96374342D01*
X144111904Y-96374342D02*
X144064285Y-96469580D01*
X144064285Y-96469580D02*
X144016666Y-96517200D01*
X144016666Y-96517200D02*
X143921428Y-96564819D01*
X143921428Y-96564819D02*
X143826190Y-96564819D01*
X143826190Y-96564819D02*
X143730952Y-96517200D01*
X143730952Y-96517200D02*
X143683333Y-96469580D01*
X143683333Y-96469580D02*
X143635714Y-96374342D01*
X143635714Y-96374342D02*
X143588095Y-96183866D01*
X143588095Y-96183866D02*
X143588095Y-95945771D01*
X143588095Y-95945771D02*
X143635714Y-95755295D01*
X143635714Y-95755295D02*
X143683333Y-95660057D01*
X143683333Y-95660057D02*
X143730952Y-95612438D01*
X143730952Y-95612438D02*
X143826190Y-95564819D01*
X141016667Y-86517200D02*
X141159524Y-86564819D01*
X141159524Y-86564819D02*
X141397619Y-86564819D01*
X141397619Y-86564819D02*
X141492857Y-86517200D01*
X141492857Y-86517200D02*
X141540476Y-86469580D01*
X141540476Y-86469580D02*
X141588095Y-86374342D01*
X141588095Y-86374342D02*
X141588095Y-86279104D01*
X141588095Y-86279104D02*
X141540476Y-86183866D01*
X141540476Y-86183866D02*
X141492857Y-86136247D01*
X141492857Y-86136247D02*
X141397619Y-86088628D01*
X141397619Y-86088628D02*
X141207143Y-86041009D01*
X141207143Y-86041009D02*
X141111905Y-85993390D01*
X141111905Y-85993390D02*
X141064286Y-85945771D01*
X141064286Y-85945771D02*
X141016667Y-85850533D01*
X141016667Y-85850533D02*
X141016667Y-85755295D01*
X141016667Y-85755295D02*
X141064286Y-85660057D01*
X141064286Y-85660057D02*
X141111905Y-85612438D01*
X141111905Y-85612438D02*
X141207143Y-85564819D01*
X141207143Y-85564819D02*
X141445238Y-85564819D01*
X141445238Y-85564819D02*
X141588095Y-85612438D01*
X141921429Y-85564819D02*
X142159524Y-86564819D01*
X142159524Y-86564819D02*
X142350000Y-85850533D01*
X142350000Y-85850533D02*
X142540476Y-86564819D01*
X142540476Y-86564819D02*
X142778572Y-85564819D01*
X143207143Y-86564819D02*
X143397619Y-86564819D01*
X143397619Y-86564819D02*
X143492857Y-86517200D01*
X143492857Y-86517200D02*
X143540476Y-86469580D01*
X143540476Y-86469580D02*
X143635714Y-86326723D01*
X143635714Y-86326723D02*
X143683333Y-86136247D01*
X143683333Y-86136247D02*
X143683333Y-85755295D01*
X143683333Y-85755295D02*
X143635714Y-85660057D01*
X143635714Y-85660057D02*
X143588095Y-85612438D01*
X143588095Y-85612438D02*
X143492857Y-85564819D01*
X143492857Y-85564819D02*
X143302381Y-85564819D01*
X143302381Y-85564819D02*
X143207143Y-85612438D01*
X143207143Y-85612438D02*
X143159524Y-85660057D01*
X143159524Y-85660057D02*
X143111905Y-85755295D01*
X143111905Y-85755295D02*
X143111905Y-85993390D01*
X143111905Y-85993390D02*
X143159524Y-86088628D01*
X143159524Y-86088628D02*
X143207143Y-86136247D01*
X143207143Y-86136247D02*
X143302381Y-86183866D01*
X143302381Y-86183866D02*
X143492857Y-86183866D01*
X143492857Y-86183866D02*
X143588095Y-86136247D01*
X143588095Y-86136247D02*
X143635714Y-86088628D01*
X143635714Y-86088628D02*
X143683333Y-85993390D01*
X150174819Y-85828094D02*
X149174819Y-85828094D01*
X149174819Y-85828094D02*
X149174819Y-85589999D01*
X149174819Y-85589999D02*
X149222438Y-85447142D01*
X149222438Y-85447142D02*
X149317676Y-85351904D01*
X149317676Y-85351904D02*
X149412914Y-85304285D01*
X149412914Y-85304285D02*
X149603390Y-85256666D01*
X149603390Y-85256666D02*
X149746247Y-85256666D01*
X149746247Y-85256666D02*
X149936723Y-85304285D01*
X149936723Y-85304285D02*
X150031961Y-85351904D01*
X150031961Y-85351904D02*
X150127200Y-85447142D01*
X150127200Y-85447142D02*
X150174819Y-85589999D01*
X150174819Y-85589999D02*
X150174819Y-85828094D01*
X150174819Y-84780475D02*
X150174819Y-84589999D01*
X150174819Y-84589999D02*
X150127200Y-84494761D01*
X150127200Y-84494761D02*
X150079580Y-84447142D01*
X150079580Y-84447142D02*
X149936723Y-84351904D01*
X149936723Y-84351904D02*
X149746247Y-84304285D01*
X149746247Y-84304285D02*
X149365295Y-84304285D01*
X149365295Y-84304285D02*
X149270057Y-84351904D01*
X149270057Y-84351904D02*
X149222438Y-84399523D01*
X149222438Y-84399523D02*
X149174819Y-84494761D01*
X149174819Y-84494761D02*
X149174819Y-84685237D01*
X149174819Y-84685237D02*
X149222438Y-84780475D01*
X149222438Y-84780475D02*
X149270057Y-84828094D01*
X149270057Y-84828094D02*
X149365295Y-84875713D01*
X149365295Y-84875713D02*
X149603390Y-84875713D01*
X149603390Y-84875713D02*
X149698628Y-84828094D01*
X149698628Y-84828094D02*
X149746247Y-84780475D01*
X149746247Y-84780475D02*
X149793866Y-84685237D01*
X149793866Y-84685237D02*
X149793866Y-84494761D01*
X149793866Y-84494761D02*
X149746247Y-84399523D01*
X149746247Y-84399523D02*
X149698628Y-84351904D01*
X149698628Y-84351904D02*
X149603390Y-84304285D01*
X145388095Y-82864819D02*
X145388095Y-81864819D01*
X145959523Y-82864819D02*
X145530952Y-82293390D01*
X145959523Y-81864819D02*
X145388095Y-82436247D01*
X137924819Y-105868094D02*
X136924819Y-105868094D01*
X136924819Y-105868094D02*
X136924819Y-105629999D01*
X136924819Y-105629999D02*
X136972438Y-105487142D01*
X136972438Y-105487142D02*
X137067676Y-105391904D01*
X137067676Y-105391904D02*
X137162914Y-105344285D01*
X137162914Y-105344285D02*
X137353390Y-105296666D01*
X137353390Y-105296666D02*
X137496247Y-105296666D01*
X137496247Y-105296666D02*
X137686723Y-105344285D01*
X137686723Y-105344285D02*
X137781961Y-105391904D01*
X137781961Y-105391904D02*
X137877200Y-105487142D01*
X137877200Y-105487142D02*
X137924819Y-105629999D01*
X137924819Y-105629999D02*
X137924819Y-105868094D01*
X136924819Y-104963332D02*
X136924819Y-104296666D01*
X136924819Y-104296666D02*
X137924819Y-104725237D01*
X133188095Y-102904819D02*
X133188095Y-101904819D01*
X133759523Y-102904819D02*
X133330952Y-102333390D01*
X133759523Y-101904819D02*
X133188095Y-102476247D01*
X166063333Y-83499580D02*
X166015714Y-83547200D01*
X166015714Y-83547200D02*
X165872857Y-83594819D01*
X165872857Y-83594819D02*
X165777619Y-83594819D01*
X165777619Y-83594819D02*
X165634762Y-83547200D01*
X165634762Y-83547200D02*
X165539524Y-83451961D01*
X165539524Y-83451961D02*
X165491905Y-83356723D01*
X165491905Y-83356723D02*
X165444286Y-83166247D01*
X165444286Y-83166247D02*
X165444286Y-83023390D01*
X165444286Y-83023390D02*
X165491905Y-82832914D01*
X165491905Y-82832914D02*
X165539524Y-82737676D01*
X165539524Y-82737676D02*
X165634762Y-82642438D01*
X165634762Y-82642438D02*
X165777619Y-82594819D01*
X165777619Y-82594819D02*
X165872857Y-82594819D01*
X165872857Y-82594819D02*
X166015714Y-82642438D01*
X166015714Y-82642438D02*
X166063333Y-82690057D01*
X166920476Y-82928152D02*
X166920476Y-83594819D01*
X166682381Y-82547200D02*
X166444286Y-83261485D01*
X166444286Y-83261485D02*
X167063333Y-83261485D01*
X150174819Y-96304285D02*
X149174819Y-96304285D01*
X149174819Y-96304285D02*
X149174819Y-96066190D01*
X149174819Y-96066190D02*
X149222438Y-95923333D01*
X149222438Y-95923333D02*
X149317676Y-95828095D01*
X149317676Y-95828095D02*
X149412914Y-95780476D01*
X149412914Y-95780476D02*
X149603390Y-95732857D01*
X149603390Y-95732857D02*
X149746247Y-95732857D01*
X149746247Y-95732857D02*
X149936723Y-95780476D01*
X149936723Y-95780476D02*
X150031961Y-95828095D01*
X150031961Y-95828095D02*
X150127200Y-95923333D01*
X150127200Y-95923333D02*
X150174819Y-96066190D01*
X150174819Y-96066190D02*
X150174819Y-96304285D01*
X150174819Y-94780476D02*
X150174819Y-95351904D01*
X150174819Y-95066190D02*
X149174819Y-95066190D01*
X149174819Y-95066190D02*
X149317676Y-95161428D01*
X149317676Y-95161428D02*
X149412914Y-95256666D01*
X149412914Y-95256666D02*
X149460533Y-95351904D01*
X149174819Y-94161428D02*
X149174819Y-94066190D01*
X149174819Y-94066190D02*
X149222438Y-93970952D01*
X149222438Y-93970952D02*
X149270057Y-93923333D01*
X149270057Y-93923333D02*
X149365295Y-93875714D01*
X149365295Y-93875714D02*
X149555771Y-93828095D01*
X149555771Y-93828095D02*
X149793866Y-93828095D01*
X149793866Y-93828095D02*
X149984342Y-93875714D01*
X149984342Y-93875714D02*
X150079580Y-93923333D01*
X150079580Y-93923333D02*
X150127200Y-93970952D01*
X150127200Y-93970952D02*
X150174819Y-94066190D01*
X150174819Y-94066190D02*
X150174819Y-94161428D01*
X150174819Y-94161428D02*
X150127200Y-94256666D01*
X150127200Y-94256666D02*
X150079580Y-94304285D01*
X150079580Y-94304285D02*
X149984342Y-94351904D01*
X149984342Y-94351904D02*
X149793866Y-94399523D01*
X149793866Y-94399523D02*
X149555771Y-94399523D01*
X149555771Y-94399523D02*
X149365295Y-94351904D01*
X149365295Y-94351904D02*
X149270057Y-94304285D01*
X149270057Y-94304285D02*
X149222438Y-94256666D01*
X149222438Y-94256666D02*
X149174819Y-94161428D01*
X145488095Y-92904819D02*
X145488095Y-91904819D01*
X146059523Y-92904819D02*
X145630952Y-92333390D01*
X146059523Y-91904819D02*
X145488095Y-92476247D01*
X110507142Y-107394819D02*
X110173809Y-106918628D01*
X109935714Y-107394819D02*
X109935714Y-106394819D01*
X109935714Y-106394819D02*
X110316666Y-106394819D01*
X110316666Y-106394819D02*
X110411904Y-106442438D01*
X110411904Y-106442438D02*
X110459523Y-106490057D01*
X110459523Y-106490057D02*
X110507142Y-106585295D01*
X110507142Y-106585295D02*
X110507142Y-106728152D01*
X110507142Y-106728152D02*
X110459523Y-106823390D01*
X110459523Y-106823390D02*
X110411904Y-106871009D01*
X110411904Y-106871009D02*
X110316666Y-106918628D01*
X110316666Y-106918628D02*
X109935714Y-106918628D01*
X111459523Y-107394819D02*
X110888095Y-107394819D01*
X111173809Y-107394819D02*
X111173809Y-106394819D01*
X111173809Y-106394819D02*
X111078571Y-106537676D01*
X111078571Y-106537676D02*
X110983333Y-106632914D01*
X110983333Y-106632914D02*
X110888095Y-106680533D01*
X111840476Y-106490057D02*
X111888095Y-106442438D01*
X111888095Y-106442438D02*
X111983333Y-106394819D01*
X111983333Y-106394819D02*
X112221428Y-106394819D01*
X112221428Y-106394819D02*
X112316666Y-106442438D01*
X112316666Y-106442438D02*
X112364285Y-106490057D01*
X112364285Y-106490057D02*
X112411904Y-106585295D01*
X112411904Y-106585295D02*
X112411904Y-106680533D01*
X112411904Y-106680533D02*
X112364285Y-106823390D01*
X112364285Y-106823390D02*
X111792857Y-107394819D01*
X111792857Y-107394819D02*
X112411904Y-107394819D01*
X101768319Y-99706666D02*
X101292128Y-100039999D01*
X101768319Y-100278094D02*
X100768319Y-100278094D01*
X100768319Y-100278094D02*
X100768319Y-99897142D01*
X100768319Y-99897142D02*
X100815938Y-99801904D01*
X100815938Y-99801904D02*
X100863557Y-99754285D01*
X100863557Y-99754285D02*
X100958795Y-99706666D01*
X100958795Y-99706666D02*
X101101652Y-99706666D01*
X101101652Y-99706666D02*
X101196890Y-99754285D01*
X101196890Y-99754285D02*
X101244509Y-99801904D01*
X101244509Y-99801904D02*
X101292128Y-99897142D01*
X101292128Y-99897142D02*
X101292128Y-100278094D01*
X100768319Y-98801904D02*
X100768319Y-99278094D01*
X100768319Y-99278094D02*
X101244509Y-99325713D01*
X101244509Y-99325713D02*
X101196890Y-99278094D01*
X101196890Y-99278094D02*
X101149271Y-99182856D01*
X101149271Y-99182856D02*
X101149271Y-98944761D01*
X101149271Y-98944761D02*
X101196890Y-98849523D01*
X101196890Y-98849523D02*
X101244509Y-98801904D01*
X101244509Y-98801904D02*
X101339747Y-98754285D01*
X101339747Y-98754285D02*
X101577842Y-98754285D01*
X101577842Y-98754285D02*
X101673080Y-98801904D01*
X101673080Y-98801904D02*
X101720700Y-98849523D01*
X101720700Y-98849523D02*
X101768319Y-98944761D01*
X101768319Y-98944761D02*
X101768319Y-99182856D01*
X101768319Y-99182856D02*
X101720700Y-99278094D01*
X101720700Y-99278094D02*
X101673080Y-99325713D01*
X125174819Y-85828094D02*
X124174819Y-85828094D01*
X124174819Y-85828094D02*
X124174819Y-85589999D01*
X124174819Y-85589999D02*
X124222438Y-85447142D01*
X124222438Y-85447142D02*
X124317676Y-85351904D01*
X124317676Y-85351904D02*
X124412914Y-85304285D01*
X124412914Y-85304285D02*
X124603390Y-85256666D01*
X124603390Y-85256666D02*
X124746247Y-85256666D01*
X124746247Y-85256666D02*
X124936723Y-85304285D01*
X124936723Y-85304285D02*
X125031961Y-85351904D01*
X125031961Y-85351904D02*
X125127200Y-85447142D01*
X125127200Y-85447142D02*
X125174819Y-85589999D01*
X125174819Y-85589999D02*
X125174819Y-85828094D01*
X125174819Y-84304285D02*
X125174819Y-84875713D01*
X125174819Y-84589999D02*
X124174819Y-84589999D01*
X124174819Y-84589999D02*
X124317676Y-84685237D01*
X124317676Y-84685237D02*
X124412914Y-84780475D01*
X124412914Y-84780475D02*
X124460533Y-84875713D01*
X120438095Y-82864819D02*
X120438095Y-81864819D01*
X121009523Y-82864819D02*
X120580952Y-82293390D01*
X121009523Y-81864819D02*
X120438095Y-82436247D01*
X128766667Y-96517200D02*
X128909524Y-96564819D01*
X128909524Y-96564819D02*
X129147619Y-96564819D01*
X129147619Y-96564819D02*
X129242857Y-96517200D01*
X129242857Y-96517200D02*
X129290476Y-96469580D01*
X129290476Y-96469580D02*
X129338095Y-96374342D01*
X129338095Y-96374342D02*
X129338095Y-96279104D01*
X129338095Y-96279104D02*
X129290476Y-96183866D01*
X129290476Y-96183866D02*
X129242857Y-96136247D01*
X129242857Y-96136247D02*
X129147619Y-96088628D01*
X129147619Y-96088628D02*
X128957143Y-96041009D01*
X128957143Y-96041009D02*
X128861905Y-95993390D01*
X128861905Y-95993390D02*
X128814286Y-95945771D01*
X128814286Y-95945771D02*
X128766667Y-95850533D01*
X128766667Y-95850533D02*
X128766667Y-95755295D01*
X128766667Y-95755295D02*
X128814286Y-95660057D01*
X128814286Y-95660057D02*
X128861905Y-95612438D01*
X128861905Y-95612438D02*
X128957143Y-95564819D01*
X128957143Y-95564819D02*
X129195238Y-95564819D01*
X129195238Y-95564819D02*
X129338095Y-95612438D01*
X129671429Y-95564819D02*
X129909524Y-96564819D01*
X129909524Y-96564819D02*
X130100000Y-95850533D01*
X130100000Y-95850533D02*
X130290476Y-96564819D01*
X130290476Y-96564819D02*
X130528572Y-95564819D01*
X131338095Y-95564819D02*
X131147619Y-95564819D01*
X131147619Y-95564819D02*
X131052381Y-95612438D01*
X131052381Y-95612438D02*
X131004762Y-95660057D01*
X131004762Y-95660057D02*
X130909524Y-95802914D01*
X130909524Y-95802914D02*
X130861905Y-95993390D01*
X130861905Y-95993390D02*
X130861905Y-96374342D01*
X130861905Y-96374342D02*
X130909524Y-96469580D01*
X130909524Y-96469580D02*
X130957143Y-96517200D01*
X130957143Y-96517200D02*
X131052381Y-96564819D01*
X131052381Y-96564819D02*
X131242857Y-96564819D01*
X131242857Y-96564819D02*
X131338095Y-96517200D01*
X131338095Y-96517200D02*
X131385714Y-96469580D01*
X131385714Y-96469580D02*
X131433333Y-96374342D01*
X131433333Y-96374342D02*
X131433333Y-96136247D01*
X131433333Y-96136247D02*
X131385714Y-96041009D01*
X131385714Y-96041009D02*
X131338095Y-95993390D01*
X131338095Y-95993390D02*
X131242857Y-95945771D01*
X131242857Y-95945771D02*
X131052381Y-95945771D01*
X131052381Y-95945771D02*
X130957143Y-95993390D01*
X130957143Y-95993390D02*
X130909524Y-96041009D01*
X130909524Y-96041009D02*
X130861905Y-96136247D01*
X89654761Y-92240057D02*
X89559523Y-92192438D01*
X89559523Y-92192438D02*
X89464285Y-92097200D01*
X89464285Y-92097200D02*
X89321428Y-91954342D01*
X89321428Y-91954342D02*
X89226190Y-91906723D01*
X89226190Y-91906723D02*
X89130952Y-91906723D01*
X89178571Y-92144819D02*
X89083333Y-92097200D01*
X89083333Y-92097200D02*
X88988095Y-92001961D01*
X88988095Y-92001961D02*
X88940476Y-91811485D01*
X88940476Y-91811485D02*
X88940476Y-91478152D01*
X88940476Y-91478152D02*
X88988095Y-91287676D01*
X88988095Y-91287676D02*
X89083333Y-91192438D01*
X89083333Y-91192438D02*
X89178571Y-91144819D01*
X89178571Y-91144819D02*
X89369047Y-91144819D01*
X89369047Y-91144819D02*
X89464285Y-91192438D01*
X89464285Y-91192438D02*
X89559523Y-91287676D01*
X89559523Y-91287676D02*
X89607142Y-91478152D01*
X89607142Y-91478152D02*
X89607142Y-91811485D01*
X89607142Y-91811485D02*
X89559523Y-92001961D01*
X89559523Y-92001961D02*
X89464285Y-92097200D01*
X89464285Y-92097200D02*
X89369047Y-92144819D01*
X89369047Y-92144819D02*
X89178571Y-92144819D01*
X90559523Y-92144819D02*
X89988095Y-92144819D01*
X90273809Y-92144819D02*
X90273809Y-91144819D01*
X90273809Y-91144819D02*
X90178571Y-91287676D01*
X90178571Y-91287676D02*
X90083333Y-91382914D01*
X90083333Y-91382914D02*
X89988095Y-91430533D01*
X92104761Y-108140057D02*
X92009523Y-108092438D01*
X92009523Y-108092438D02*
X91914285Y-107997200D01*
X91914285Y-107997200D02*
X91771428Y-107854342D01*
X91771428Y-107854342D02*
X91676190Y-107806723D01*
X91676190Y-107806723D02*
X91580952Y-107806723D01*
X91628571Y-108044819D02*
X91533333Y-107997200D01*
X91533333Y-107997200D02*
X91438095Y-107901961D01*
X91438095Y-107901961D02*
X91390476Y-107711485D01*
X91390476Y-107711485D02*
X91390476Y-107378152D01*
X91390476Y-107378152D02*
X91438095Y-107187676D01*
X91438095Y-107187676D02*
X91533333Y-107092438D01*
X91533333Y-107092438D02*
X91628571Y-107044819D01*
X91628571Y-107044819D02*
X91819047Y-107044819D01*
X91819047Y-107044819D02*
X91914285Y-107092438D01*
X91914285Y-107092438D02*
X92009523Y-107187676D01*
X92009523Y-107187676D02*
X92057142Y-107378152D01*
X92057142Y-107378152D02*
X92057142Y-107711485D01*
X92057142Y-107711485D02*
X92009523Y-107901961D01*
X92009523Y-107901961D02*
X91914285Y-107997200D01*
X91914285Y-107997200D02*
X91819047Y-108044819D01*
X91819047Y-108044819D02*
X91628571Y-108044819D01*
X92438095Y-107140057D02*
X92485714Y-107092438D01*
X92485714Y-107092438D02*
X92580952Y-107044819D01*
X92580952Y-107044819D02*
X92819047Y-107044819D01*
X92819047Y-107044819D02*
X92914285Y-107092438D01*
X92914285Y-107092438D02*
X92961904Y-107140057D01*
X92961904Y-107140057D02*
X93009523Y-107235295D01*
X93009523Y-107235295D02*
X93009523Y-107330533D01*
X93009523Y-107330533D02*
X92961904Y-107473390D01*
X92961904Y-107473390D02*
X92390476Y-108044819D01*
X92390476Y-108044819D02*
X93009523Y-108044819D01*
X151633333Y-111794819D02*
X151300000Y-111318628D01*
X151061905Y-111794819D02*
X151061905Y-110794819D01*
X151061905Y-110794819D02*
X151442857Y-110794819D01*
X151442857Y-110794819D02*
X151538095Y-110842438D01*
X151538095Y-110842438D02*
X151585714Y-110890057D01*
X151585714Y-110890057D02*
X151633333Y-110985295D01*
X151633333Y-110985295D02*
X151633333Y-111128152D01*
X151633333Y-111128152D02*
X151585714Y-111223390D01*
X151585714Y-111223390D02*
X151538095Y-111271009D01*
X151538095Y-111271009D02*
X151442857Y-111318628D01*
X151442857Y-111318628D02*
X151061905Y-111318628D01*
X152109524Y-111794819D02*
X152300000Y-111794819D01*
X152300000Y-111794819D02*
X152395238Y-111747200D01*
X152395238Y-111747200D02*
X152442857Y-111699580D01*
X152442857Y-111699580D02*
X152538095Y-111556723D01*
X152538095Y-111556723D02*
X152585714Y-111366247D01*
X152585714Y-111366247D02*
X152585714Y-110985295D01*
X152585714Y-110985295D02*
X152538095Y-110890057D01*
X152538095Y-110890057D02*
X152490476Y-110842438D01*
X152490476Y-110842438D02*
X152395238Y-110794819D01*
X152395238Y-110794819D02*
X152204762Y-110794819D01*
X152204762Y-110794819D02*
X152109524Y-110842438D01*
X152109524Y-110842438D02*
X152061905Y-110890057D01*
X152061905Y-110890057D02*
X152014286Y-110985295D01*
X152014286Y-110985295D02*
X152014286Y-111223390D01*
X152014286Y-111223390D02*
X152061905Y-111318628D01*
X152061905Y-111318628D02*
X152109524Y-111366247D01*
X152109524Y-111366247D02*
X152204762Y-111413866D01*
X152204762Y-111413866D02*
X152395238Y-111413866D01*
X152395238Y-111413866D02*
X152490476Y-111366247D01*
X152490476Y-111366247D02*
X152538095Y-111318628D01*
X152538095Y-111318628D02*
X152585714Y-111223390D01*
X151657142Y-109794819D02*
X151323809Y-109318628D01*
X151085714Y-109794819D02*
X151085714Y-108794819D01*
X151085714Y-108794819D02*
X151466666Y-108794819D01*
X151466666Y-108794819D02*
X151561904Y-108842438D01*
X151561904Y-108842438D02*
X151609523Y-108890057D01*
X151609523Y-108890057D02*
X151657142Y-108985295D01*
X151657142Y-108985295D02*
X151657142Y-109128152D01*
X151657142Y-109128152D02*
X151609523Y-109223390D01*
X151609523Y-109223390D02*
X151561904Y-109271009D01*
X151561904Y-109271009D02*
X151466666Y-109318628D01*
X151466666Y-109318628D02*
X151085714Y-109318628D01*
X152609523Y-109794819D02*
X152038095Y-109794819D01*
X152323809Y-109794819D02*
X152323809Y-108794819D01*
X152323809Y-108794819D02*
X152228571Y-108937676D01*
X152228571Y-108937676D02*
X152133333Y-109032914D01*
X152133333Y-109032914D02*
X152038095Y-109080533D01*
X153561904Y-109794819D02*
X152990476Y-109794819D01*
X153276190Y-109794819D02*
X153276190Y-108794819D01*
X153276190Y-108794819D02*
X153180952Y-108937676D01*
X153180952Y-108937676D02*
X153085714Y-109032914D01*
X153085714Y-109032914D02*
X152990476Y-109080533D01*
X166063333Y-86999580D02*
X166015714Y-87047200D01*
X166015714Y-87047200D02*
X165872857Y-87094819D01*
X165872857Y-87094819D02*
X165777619Y-87094819D01*
X165777619Y-87094819D02*
X165634762Y-87047200D01*
X165634762Y-87047200D02*
X165539524Y-86951961D01*
X165539524Y-86951961D02*
X165491905Y-86856723D01*
X165491905Y-86856723D02*
X165444286Y-86666247D01*
X165444286Y-86666247D02*
X165444286Y-86523390D01*
X165444286Y-86523390D02*
X165491905Y-86332914D01*
X165491905Y-86332914D02*
X165539524Y-86237676D01*
X165539524Y-86237676D02*
X165634762Y-86142438D01*
X165634762Y-86142438D02*
X165777619Y-86094819D01*
X165777619Y-86094819D02*
X165872857Y-86094819D01*
X165872857Y-86094819D02*
X166015714Y-86142438D01*
X166015714Y-86142438D02*
X166063333Y-86190057D01*
X166444286Y-86190057D02*
X166491905Y-86142438D01*
X166491905Y-86142438D02*
X166587143Y-86094819D01*
X166587143Y-86094819D02*
X166825238Y-86094819D01*
X166825238Y-86094819D02*
X166920476Y-86142438D01*
X166920476Y-86142438D02*
X166968095Y-86190057D01*
X166968095Y-86190057D02*
X167015714Y-86285295D01*
X167015714Y-86285295D02*
X167015714Y-86380533D01*
X167015714Y-86380533D02*
X166968095Y-86523390D01*
X166968095Y-86523390D02*
X166396667Y-87094819D01*
X166396667Y-87094819D02*
X167015714Y-87094819D01*
X183806666Y-82534819D02*
X183473333Y-82058628D01*
X183235238Y-82534819D02*
X183235238Y-81534819D01*
X183235238Y-81534819D02*
X183616190Y-81534819D01*
X183616190Y-81534819D02*
X183711428Y-81582438D01*
X183711428Y-81582438D02*
X183759047Y-81630057D01*
X183759047Y-81630057D02*
X183806666Y-81725295D01*
X183806666Y-81725295D02*
X183806666Y-81868152D01*
X183806666Y-81868152D02*
X183759047Y-81963390D01*
X183759047Y-81963390D02*
X183711428Y-82011009D01*
X183711428Y-82011009D02*
X183616190Y-82058628D01*
X183616190Y-82058628D02*
X183235238Y-82058628D01*
X184568571Y-82011009D02*
X184235238Y-82011009D01*
X184235238Y-82534819D02*
X184235238Y-81534819D01*
X184235238Y-81534819D02*
X184711428Y-81534819D01*
X185092381Y-82534819D02*
X185092381Y-81534819D01*
X185568571Y-82534819D02*
X185568571Y-81534819D01*
X185568571Y-81534819D02*
X185806666Y-81534819D01*
X185806666Y-81534819D02*
X185949523Y-81582438D01*
X185949523Y-81582438D02*
X186044761Y-81677676D01*
X186044761Y-81677676D02*
X186092380Y-81772914D01*
X186092380Y-81772914D02*
X186139999Y-81963390D01*
X186139999Y-81963390D02*
X186139999Y-82106247D01*
X186139999Y-82106247D02*
X186092380Y-82296723D01*
X186092380Y-82296723D02*
X186044761Y-82391961D01*
X186044761Y-82391961D02*
X185949523Y-82487200D01*
X185949523Y-82487200D02*
X185806666Y-82534819D01*
X185806666Y-82534819D02*
X185568571Y-82534819D01*
X187092380Y-82534819D02*
X186520952Y-82534819D01*
X186806666Y-82534819D02*
X186806666Y-81534819D01*
X186806666Y-81534819D02*
X186711428Y-81677676D01*
X186711428Y-81677676D02*
X186616190Y-81772914D01*
X186616190Y-81772914D02*
X186520952Y-81820533D01*
D11*
X195549961Y-91384836D02*
X196502342Y-90718169D01*
X195549961Y-90241979D02*
X197549961Y-90241979D01*
X197549961Y-90241979D02*
X197549961Y-91003884D01*
X197549961Y-91003884D02*
X197454723Y-91194360D01*
X197454723Y-91194360D02*
X197359485Y-91289598D01*
X197359485Y-91289598D02*
X197169009Y-91384836D01*
X197169009Y-91384836D02*
X196883295Y-91384836D01*
X196883295Y-91384836D02*
X196692819Y-91289598D01*
X196692819Y-91289598D02*
X196597580Y-91194360D01*
X196597580Y-91194360D02*
X196502342Y-91003884D01*
X196502342Y-91003884D02*
X196502342Y-90241979D01*
X196597580Y-92908646D02*
X196597580Y-92241979D01*
X195549961Y-92241979D02*
X197549961Y-92241979D01*
X197549961Y-92241979D02*
X197549961Y-93194360D01*
X195549961Y-93956265D02*
X197549961Y-93956265D01*
X195549961Y-94908646D02*
X197549961Y-94908646D01*
X197549961Y-94908646D02*
X197549961Y-95384836D01*
X197549961Y-95384836D02*
X197454723Y-95670551D01*
X197454723Y-95670551D02*
X197264247Y-95861027D01*
X197264247Y-95861027D02*
X197073771Y-95956265D01*
X197073771Y-95956265D02*
X196692819Y-96051503D01*
X196692819Y-96051503D02*
X196407104Y-96051503D01*
X196407104Y-96051503D02*
X196026152Y-95956265D01*
X196026152Y-95956265D02*
X195835676Y-95861027D01*
X195835676Y-95861027D02*
X195645200Y-95670551D01*
X195645200Y-95670551D02*
X195549961Y-95384836D01*
X195549961Y-95384836D02*
X195549961Y-94908646D01*
X196311866Y-96908646D02*
X196311866Y-98432456D01*
X195549961Y-100527693D02*
X196502342Y-99861026D01*
X195549961Y-99384836D02*
X197549961Y-99384836D01*
X197549961Y-99384836D02*
X197549961Y-100146741D01*
X197549961Y-100146741D02*
X197454723Y-100337217D01*
X197454723Y-100337217D02*
X197359485Y-100432455D01*
X197359485Y-100432455D02*
X197169009Y-100527693D01*
X197169009Y-100527693D02*
X196883295Y-100527693D01*
X196883295Y-100527693D02*
X196692819Y-100432455D01*
X196692819Y-100432455D02*
X196597580Y-100337217D01*
X196597580Y-100337217D02*
X196502342Y-100146741D01*
X196502342Y-100146741D02*
X196502342Y-99384836D01*
X195740438Y-102527693D02*
X195645200Y-102432455D01*
X195645200Y-102432455D02*
X195549961Y-102146741D01*
X195549961Y-102146741D02*
X195549961Y-101956265D01*
X195549961Y-101956265D02*
X195645200Y-101670550D01*
X195645200Y-101670550D02*
X195835676Y-101480074D01*
X195835676Y-101480074D02*
X196026152Y-101384836D01*
X196026152Y-101384836D02*
X196407104Y-101289598D01*
X196407104Y-101289598D02*
X196692819Y-101289598D01*
X196692819Y-101289598D02*
X197073771Y-101384836D01*
X197073771Y-101384836D02*
X197264247Y-101480074D01*
X197264247Y-101480074D02*
X197454723Y-101670550D01*
X197454723Y-101670550D02*
X197549961Y-101956265D01*
X197549961Y-101956265D02*
X197549961Y-102146741D01*
X197549961Y-102146741D02*
X197454723Y-102432455D01*
X197454723Y-102432455D02*
X197359485Y-102527693D01*
X197549961Y-104337217D02*
X197549961Y-103384836D01*
X197549961Y-103384836D02*
X196597580Y-103289598D01*
X196597580Y-103289598D02*
X196692819Y-103384836D01*
X196692819Y-103384836D02*
X196788057Y-103575312D01*
X196788057Y-103575312D02*
X196788057Y-104051503D01*
X196788057Y-104051503D02*
X196692819Y-104241979D01*
X196692819Y-104241979D02*
X196597580Y-104337217D01*
X196597580Y-104337217D02*
X196407104Y-104432455D01*
X196407104Y-104432455D02*
X195930914Y-104432455D01*
X195930914Y-104432455D02*
X195740438Y-104337217D01*
X195740438Y-104337217D02*
X195645200Y-104241979D01*
X195645200Y-104241979D02*
X195549961Y-104051503D01*
X195549961Y-104051503D02*
X195549961Y-103575312D01*
X195549961Y-103575312D02*
X195645200Y-103384836D01*
X195645200Y-103384836D02*
X195740438Y-103289598D01*
X197359485Y-105194360D02*
X197454723Y-105289598D01*
X197454723Y-105289598D02*
X197549961Y-105480074D01*
X197549961Y-105480074D02*
X197549961Y-105956265D01*
X197549961Y-105956265D02*
X197454723Y-106146741D01*
X197454723Y-106146741D02*
X197359485Y-106241979D01*
X197359485Y-106241979D02*
X197169009Y-106337217D01*
X197169009Y-106337217D02*
X196978533Y-106337217D01*
X196978533Y-106337217D02*
X196692819Y-106241979D01*
X196692819Y-106241979D02*
X195549961Y-105099122D01*
X195549961Y-105099122D02*
X195549961Y-106337217D01*
X197359485Y-107099122D02*
X197454723Y-107194360D01*
X197454723Y-107194360D02*
X197549961Y-107384836D01*
X197549961Y-107384836D02*
X197549961Y-107861027D01*
X197549961Y-107861027D02*
X197454723Y-108051503D01*
X197454723Y-108051503D02*
X197359485Y-108146741D01*
X197359485Y-108146741D02*
X197169009Y-108241979D01*
X197169009Y-108241979D02*
X196978533Y-108241979D01*
X196978533Y-108241979D02*
X196692819Y-108146741D01*
X196692819Y-108146741D02*
X195549961Y-107003884D01*
X195549961Y-107003884D02*
X195549961Y-108241979D01*
D10*
X176759580Y-103345357D02*
X176807200Y-103392976D01*
X176807200Y-103392976D02*
X176854819Y-103535833D01*
X176854819Y-103535833D02*
X176854819Y-103631071D01*
X176854819Y-103631071D02*
X176807200Y-103773928D01*
X176807200Y-103773928D02*
X176711961Y-103869166D01*
X176711961Y-103869166D02*
X176616723Y-103916785D01*
X176616723Y-103916785D02*
X176426247Y-103964404D01*
X176426247Y-103964404D02*
X176283390Y-103964404D01*
X176283390Y-103964404D02*
X176092914Y-103916785D01*
X176092914Y-103916785D02*
X175997676Y-103869166D01*
X175997676Y-103869166D02*
X175902438Y-103773928D01*
X175902438Y-103773928D02*
X175854819Y-103631071D01*
X175854819Y-103631071D02*
X175854819Y-103535833D01*
X175854819Y-103535833D02*
X175902438Y-103392976D01*
X175902438Y-103392976D02*
X175950057Y-103345357D01*
X176854819Y-102392976D02*
X176854819Y-102964404D01*
X176854819Y-102678690D02*
X175854819Y-102678690D01*
X175854819Y-102678690D02*
X175997676Y-102773928D01*
X175997676Y-102773928D02*
X176092914Y-102869166D01*
X176092914Y-102869166D02*
X176140533Y-102964404D01*
X175854819Y-102059642D02*
X175854819Y-101392976D01*
X175854819Y-101392976D02*
X176854819Y-101821547D01*
D12*
X105910237Y-92314318D02*
X105910237Y-91044318D01*
X107240714Y-92193365D02*
X107180238Y-92253842D01*
X107180238Y-92253842D02*
X106998809Y-92314318D01*
X106998809Y-92314318D02*
X106877857Y-92314318D01*
X106877857Y-92314318D02*
X106696428Y-92253842D01*
X106696428Y-92253842D02*
X106575476Y-92132889D01*
X106575476Y-92132889D02*
X106514999Y-92011937D01*
X106514999Y-92011937D02*
X106454523Y-91770032D01*
X106454523Y-91770032D02*
X106454523Y-91588603D01*
X106454523Y-91588603D02*
X106514999Y-91346699D01*
X106514999Y-91346699D02*
X106575476Y-91225746D01*
X106575476Y-91225746D02*
X106696428Y-91104794D01*
X106696428Y-91104794D02*
X106877857Y-91044318D01*
X106877857Y-91044318D02*
X106998809Y-91044318D01*
X106998809Y-91044318D02*
X107180238Y-91104794D01*
X107180238Y-91104794D02*
X107240714Y-91165270D01*
X108450238Y-92314318D02*
X107724523Y-92314318D01*
X108087380Y-92314318D02*
X108087380Y-91044318D01*
X108087380Y-91044318D02*
X107966428Y-91225746D01*
X107966428Y-91225746D02*
X107845476Y-91346699D01*
X107845476Y-91346699D02*
X107724523Y-91407175D01*
D13*
%TO.C,SW11*%
X139160000Y-107710000D02*
X139739000Y-107710000D01*
X139739000Y-107060000D02*
X139739000Y-107710000D01*
X139739000Y-107060000D02*
X145260000Y-107060000D01*
X139739000Y-109010000D02*
X139739000Y-109720000D01*
X139739000Y-109720000D02*
X145260000Y-109720000D01*
X145260000Y-107060000D02*
X145260000Y-107770000D01*
X145260000Y-109010000D02*
X145260000Y-109720000D01*
%TO.C,SW8*%
X126910000Y-117700000D02*
X127489000Y-117700000D01*
X127489000Y-117050000D02*
X127489000Y-117700000D01*
X127489000Y-117050000D02*
X133010000Y-117050000D01*
X127489000Y-119000000D02*
X127489000Y-119710000D01*
X127489000Y-119710000D02*
X133010000Y-119710000D01*
X133010000Y-117050000D02*
X133010000Y-117760000D01*
X133010000Y-119000000D02*
X133010000Y-119710000D01*
%TO.C,C8*%
X109140000Y-96373767D02*
X109140000Y-96081233D01*
X110160000Y-96373767D02*
X110160000Y-96081233D01*
%TO.C,U2*%
X174470000Y-127860000D02*
X158230000Y-127860000D01*
X174470000Y-120240000D02*
X175080000Y-120240000D01*
X174470000Y-120240000D02*
X174470000Y-127860000D01*
X174470000Y-103620000D02*
X174470000Y-104240000D01*
X172350000Y-103620000D02*
X174470000Y-103620000D01*
X158230000Y-127860000D02*
X158230000Y-120240000D01*
X158230000Y-104240000D02*
X158230000Y-103620000D01*
X158230000Y-103620000D02*
X160350000Y-103620000D01*
%TO.C,C11*%
X163890000Y-94711267D02*
X163890000Y-94418733D01*
X164910000Y-94711267D02*
X164910000Y-94418733D01*
%TO.C,L1*%
X103628733Y-89830000D02*
X103971267Y-89830000D01*
X103628733Y-90850000D02*
X103971267Y-90850000D01*
%TO.C,C7*%
X169126267Y-82090000D02*
X168833733Y-82090000D01*
X169126267Y-81070000D02*
X168833733Y-81070000D01*
%TO.C,K2*%
X72950000Y-104810000D02*
X79550000Y-104810000D01*
X72950000Y-104810000D02*
X72950000Y-85010000D01*
X81950000Y-104810000D02*
X88550000Y-104810000D01*
X80800000Y-100760000D02*
X80800000Y-101560000D01*
X80800000Y-100760000D02*
X84400000Y-100760000D01*
X86800000Y-99860000D02*
X86800000Y-97360000D01*
X79000000Y-99360000D02*
X79000000Y-95360000D01*
X82600000Y-99360000D02*
X79000000Y-99360000D01*
X74800000Y-97360000D02*
X74800000Y-99860000D01*
X74800000Y-97360000D02*
X79000000Y-97360000D01*
X82600000Y-97360000D02*
X86800000Y-97360000D01*
X79000000Y-95360000D02*
X82600000Y-95360000D01*
X82600000Y-95360000D02*
X79000000Y-99360000D01*
X82600000Y-95360000D02*
X82600000Y-99360000D01*
X80800000Y-93960000D02*
X84400000Y-93960000D01*
X80800000Y-93960000D02*
X80800000Y-92460000D01*
X84400000Y-93960000D02*
X84400000Y-100760000D01*
X80800000Y-92460000D02*
X78300000Y-87860000D01*
X76550000Y-89260000D02*
X79050000Y-89260000D01*
X72950000Y-85010000D02*
X88550000Y-85010000D01*
X88550000Y-85010000D02*
X88550000Y-104810000D01*
%TO.C,SW1*%
X114120000Y-87670000D02*
X114699000Y-87670000D01*
X114699000Y-87020000D02*
X114699000Y-87670000D01*
X114699000Y-87020000D02*
X120220000Y-87020000D01*
X114699000Y-88970000D02*
X114699000Y-89680000D01*
X114699000Y-89680000D02*
X120220000Y-89680000D01*
X120220000Y-87020000D02*
X120220000Y-87730000D01*
X120220000Y-88970000D02*
X120220000Y-89680000D01*
%TO.C,D11*%
X147600000Y-102360000D02*
X147600000Y-103010000D01*
X148720000Y-103010000D02*
X146480000Y-103010000D01*
X146480000Y-103010000D02*
X146480000Y-107250000D01*
X148720000Y-103610000D02*
X146480000Y-103610000D01*
X148720000Y-103730000D02*
X146480000Y-103730000D01*
X148720000Y-103850000D02*
X146480000Y-103850000D01*
X148720000Y-107250000D02*
X148720000Y-103010000D01*
X146480000Y-107250000D02*
X148720000Y-107250000D01*
X147600000Y-107900000D02*
X147600000Y-107250000D01*
%TO.C,SW5*%
X126910000Y-87670000D02*
X127489000Y-87670000D01*
X127489000Y-87020000D02*
X127489000Y-87670000D01*
X127489000Y-87020000D02*
X133010000Y-87020000D01*
X127489000Y-88970000D02*
X127489000Y-89680000D01*
X127489000Y-89680000D02*
X133010000Y-89680000D01*
X133010000Y-87020000D02*
X133010000Y-87730000D01*
X133010000Y-88970000D02*
X133010000Y-89680000D01*
%TO.C,R8*%
X176872500Y-114035276D02*
X176872500Y-114544724D01*
X175827500Y-114035276D02*
X175827500Y-114544724D01*
%TO.C,R7*%
X175827500Y-118494724D02*
X175827500Y-117985276D01*
X176872500Y-118494724D02*
X176872500Y-117985276D01*
%TO.C,C1*%
X159260000Y-89643733D02*
X159260000Y-89936267D01*
X158240000Y-89643733D02*
X158240000Y-89936267D01*
%TO.C,J2*%
X60410000Y-105605000D02*
X59770000Y-105605000D01*
X59770000Y-105605000D02*
X59770000Y-106005000D01*
X66750000Y-105845000D02*
X60010000Y-105845000D01*
X66750000Y-105845000D02*
X66750000Y-111625000D01*
X65630000Y-105845000D02*
X65630000Y-111625000D01*
X60530000Y-105845000D02*
X60530000Y-111625000D01*
X60010000Y-105845000D02*
X60010000Y-111625000D01*
X66750000Y-111625000D02*
X60010000Y-111625000D01*
%TO.C,R1*%
X119155276Y-110467500D02*
X119664724Y-110467500D01*
X119155276Y-111512500D02*
X119664724Y-111512500D01*
%TO.C,U1*%
X168990000Y-89117500D02*
X168990000Y-89567500D01*
X168990000Y-89567500D02*
X167700000Y-89567500D01*
X168990000Y-96337500D02*
X168990000Y-95887500D01*
X169440000Y-89117500D02*
X168990000Y-89117500D01*
X169440000Y-96337500D02*
X168990000Y-96337500D01*
X175760000Y-89117500D02*
X176210000Y-89117500D01*
X175760000Y-96337500D02*
X176210000Y-96337500D01*
X176210000Y-89117500D02*
X176210000Y-89567500D01*
X176210000Y-96337500D02*
X176210000Y-95887500D01*
%TO.C,C15*%
X177540000Y-118386267D02*
X177540000Y-118093733D01*
X178560000Y-118386267D02*
X178560000Y-118093733D01*
%TO.C,D14*%
X93790000Y-113190000D02*
X93790000Y-111990000D01*
X91830000Y-113190000D02*
X93790000Y-113190000D01*
X91830000Y-111990000D02*
X93790000Y-111990000D01*
%TO.C,R14*%
X94222500Y-93785276D02*
X94222500Y-94294724D01*
X93177500Y-93785276D02*
X93177500Y-94294724D01*
%TO.C,SW3*%
X114120000Y-107710000D02*
X114699000Y-107710000D01*
X114699000Y-107060000D02*
X114699000Y-107710000D01*
X114699000Y-107060000D02*
X120220000Y-107060000D01*
X114699000Y-109010000D02*
X114699000Y-109720000D01*
X114699000Y-109720000D02*
X120220000Y-109720000D01*
X120220000Y-107060000D02*
X120220000Y-107770000D01*
X120220000Y-109010000D02*
X120220000Y-109720000D01*
%TO.C,R2*%
X131945276Y-110467500D02*
X132454724Y-110467500D01*
X131945276Y-111512500D02*
X132454724Y-111512500D01*
%TO.C,R13*%
X111554724Y-111712500D02*
X111045276Y-111712500D01*
X111554724Y-110667500D02*
X111045276Y-110667500D01*
%TO.C,C6*%
X157610000Y-95743733D02*
X157610000Y-96036267D01*
X156590000Y-95743733D02*
X156590000Y-96036267D01*
%TO.C,R6*%
X99101500Y-96482224D02*
X99101500Y-95972776D01*
X100146500Y-96482224D02*
X100146500Y-95972776D01*
D11*
%TO.C,K1*%
X91000000Y-118125000D02*
X72800000Y-118125000D01*
X72800000Y-118125000D02*
X72800000Y-108025000D01*
X72800000Y-108025000D02*
X91000000Y-108025000D01*
X91000000Y-108025000D02*
X91000000Y-118125000D01*
D13*
%TO.C,D12*%
X147600000Y-112350000D02*
X147600000Y-113000000D01*
X148720000Y-113000000D02*
X146480000Y-113000000D01*
X146480000Y-113000000D02*
X146480000Y-117240000D01*
X148720000Y-113600000D02*
X146480000Y-113600000D01*
X148720000Y-113720000D02*
X146480000Y-113720000D01*
X148720000Y-113840000D02*
X146480000Y-113840000D01*
X148720000Y-117240000D02*
X148720000Y-113000000D01*
X146480000Y-117240000D02*
X148720000Y-117240000D01*
X147600000Y-117890000D02*
X147600000Y-117240000D01*
%TO.C,C12*%
X106760000Y-96081233D02*
X106760000Y-96373767D01*
X105740000Y-96081233D02*
X105740000Y-96373767D01*
%TO.C,SW2*%
X114120000Y-97670000D02*
X114699000Y-97670000D01*
X114699000Y-97020000D02*
X114699000Y-97670000D01*
X114699000Y-97020000D02*
X120220000Y-97020000D01*
X114699000Y-98970000D02*
X114699000Y-99680000D01*
X114699000Y-99680000D02*
X120220000Y-99680000D01*
X120220000Y-97020000D02*
X120220000Y-97730000D01*
X120220000Y-98970000D02*
X120220000Y-99680000D01*
%TO.C,SW4*%
X114405000Y-117700000D02*
X114984000Y-117700000D01*
X114984000Y-117050000D02*
X114984000Y-117700000D01*
X114984000Y-117050000D02*
X120505000Y-117050000D01*
X114984000Y-119000000D02*
X114984000Y-119710000D01*
X114984000Y-119710000D02*
X120505000Y-119710000D01*
X120505000Y-117050000D02*
X120505000Y-117760000D01*
X120505000Y-119000000D02*
X120505000Y-119710000D01*
%TO.C,C9*%
X165690000Y-94711267D02*
X165690000Y-94418733D01*
X166710000Y-94711267D02*
X166710000Y-94418733D01*
%TO.C,D13*%
X91440000Y-97240000D02*
X91440000Y-96040000D01*
X89480000Y-97240000D02*
X91440000Y-97240000D01*
X89480000Y-96040000D02*
X91440000Y-96040000D01*
%TO.C,C16*%
X100060000Y-90193733D02*
X100060000Y-90486267D01*
X99040000Y-90193733D02*
X99040000Y-90486267D01*
%TO.C,C10*%
X107440000Y-96373767D02*
X107440000Y-96081233D01*
X108460000Y-96373767D02*
X108460000Y-96081233D01*
%TO.C,J1*%
X59800000Y-100325000D02*
X72400000Y-100325000D01*
X72400000Y-100325000D02*
X72400000Y-89975000D01*
X64600000Y-89975000D02*
X64900000Y-89475000D01*
X70000000Y-89975000D02*
X64600000Y-89975000D01*
X71450000Y-89975000D02*
X71700000Y-89475000D01*
X72400000Y-89975000D02*
X71450000Y-89975000D01*
X59800000Y-89475000D02*
X59800000Y-100325000D01*
X64900000Y-89475000D02*
X59800000Y-89475000D01*
X69750000Y-89475000D02*
X70000000Y-89975000D01*
X69800000Y-89475000D02*
X69750000Y-89475000D01*
X71700000Y-89475000D02*
X69800000Y-89475000D01*
%TO.C,Y1*%
X163400000Y-88177500D02*
X159800000Y-88177500D01*
X159800000Y-88177500D02*
X159800000Y-95502500D01*
X163400000Y-95502500D02*
X163400000Y-88177500D01*
%TO.C,R3*%
X159272500Y-95802742D02*
X159272500Y-96277258D01*
X158227500Y-95802742D02*
X158227500Y-96277258D01*
%TO.C,D6*%
X135350000Y-92320000D02*
X135350000Y-92970000D01*
X136470000Y-92970000D02*
X134230000Y-92970000D01*
X134230000Y-92970000D02*
X134230000Y-97210000D01*
X136470000Y-93570000D02*
X134230000Y-93570000D01*
X136470000Y-93690000D02*
X134230000Y-93690000D01*
X136470000Y-93810000D02*
X134230000Y-93810000D01*
X136470000Y-97210000D02*
X136470000Y-92970000D01*
X134230000Y-97210000D02*
X136470000Y-97210000D01*
X135350000Y-97860000D02*
X135350000Y-97210000D01*
%TO.C,D4*%
X122600000Y-112350000D02*
X122600000Y-113000000D01*
X123720000Y-113000000D02*
X121480000Y-113000000D01*
X121480000Y-113000000D02*
X121480000Y-117240000D01*
X123720000Y-113600000D02*
X121480000Y-113600000D01*
X123720000Y-113720000D02*
X121480000Y-113720000D01*
X123720000Y-113840000D02*
X121480000Y-113840000D01*
X123720000Y-117240000D02*
X123720000Y-113000000D01*
X121480000Y-117240000D02*
X123720000Y-117240000D01*
X122600000Y-117890000D02*
X122600000Y-117240000D01*
%TO.C,C13*%
X178460000Y-106106233D02*
X178460000Y-106398767D01*
X177440000Y-106106233D02*
X177440000Y-106398767D01*
%TO.C,C3*%
X169126267Y-85400000D02*
X168833733Y-85400000D01*
X169126267Y-84380000D02*
X168833733Y-84380000D01*
%TO.C,R15*%
X95540000Y-110244724D02*
X95540000Y-109735276D01*
X96585000Y-110244724D02*
X96585000Y-109735276D01*
%TO.C,C14*%
X100640000Y-90486267D02*
X100640000Y-90193733D01*
X101660000Y-90486267D02*
X101660000Y-90193733D01*
%TO.C,D3*%
X122600000Y-102360000D02*
X122600000Y-103010000D01*
X123720000Y-103010000D02*
X121480000Y-103010000D01*
X121480000Y-103010000D02*
X121480000Y-107250000D01*
X123720000Y-103610000D02*
X121480000Y-103610000D01*
X123720000Y-103730000D02*
X121480000Y-103730000D01*
X123720000Y-103850000D02*
X121480000Y-103850000D01*
X123720000Y-107250000D02*
X123720000Y-103010000D01*
X121480000Y-107250000D02*
X123720000Y-107250000D01*
X122600000Y-107900000D02*
X122600000Y-107250000D01*
%TO.C,J3*%
X66350000Y-118730000D02*
X66990000Y-118730000D01*
X66990000Y-118730000D02*
X66990000Y-118330000D01*
X60010000Y-118490000D02*
X66750000Y-118490000D01*
X60010000Y-118490000D02*
X60010000Y-112710000D01*
X61130000Y-118490000D02*
X61130000Y-112710000D01*
X66230000Y-118490000D02*
X66230000Y-112710000D01*
X66750000Y-118490000D02*
X66750000Y-112710000D01*
X60010000Y-112710000D02*
X66750000Y-112710000D01*
%TO.C,D5*%
X135350000Y-82320000D02*
X135350000Y-82970000D01*
X136470000Y-82970000D02*
X134230000Y-82970000D01*
X134230000Y-82970000D02*
X134230000Y-87210000D01*
X136470000Y-83570000D02*
X134230000Y-83570000D01*
X136470000Y-83690000D02*
X134230000Y-83690000D01*
X136470000Y-83810000D02*
X134230000Y-83810000D01*
X136470000Y-87210000D02*
X136470000Y-82970000D01*
X134230000Y-87210000D02*
X136470000Y-87210000D01*
X135350000Y-87860000D02*
X135350000Y-87210000D01*
%TO.C,D2*%
X122600000Y-92320000D02*
X122600000Y-92970000D01*
X123720000Y-92970000D02*
X121480000Y-92970000D01*
X121480000Y-92970000D02*
X121480000Y-97210000D01*
X123720000Y-93570000D02*
X121480000Y-93570000D01*
X123720000Y-93690000D02*
X121480000Y-93690000D01*
X123720000Y-93810000D02*
X121480000Y-93810000D01*
X123720000Y-97210000D02*
X123720000Y-92970000D01*
X121480000Y-97210000D02*
X123720000Y-97210000D01*
X122600000Y-97860000D02*
X122600000Y-97210000D01*
%TO.C,C5*%
X165446267Y-92600000D02*
X165153733Y-92600000D01*
X165446267Y-91580000D02*
X165153733Y-91580000D01*
%TO.C,SW7*%
X126910000Y-107710000D02*
X127489000Y-107710000D01*
X127489000Y-107060000D02*
X127489000Y-107710000D01*
X127489000Y-107060000D02*
X133010000Y-107060000D01*
X127489000Y-109010000D02*
X127489000Y-109720000D01*
X127489000Y-109720000D02*
X133010000Y-109720000D01*
X133010000Y-107060000D02*
X133010000Y-107770000D01*
X133010000Y-109010000D02*
X133010000Y-109720000D01*
%TO.C,R10*%
X155604724Y-107762500D02*
X155095276Y-107762500D01*
X155604724Y-106717500D02*
X155095276Y-106717500D01*
%TO.C,U4*%
X106690000Y-115020000D02*
X106690000Y-104740000D01*
X106690000Y-104740000D02*
X101390000Y-104740000D01*
X105040000Y-115020000D02*
X106690000Y-115020000D01*
X101390000Y-115020000D02*
X103040000Y-115020000D01*
X101390000Y-104740000D02*
X101390000Y-115020000D01*
X105040000Y-115020000D02*
G75*
G03*
X103040000Y-115020000I-1000000J0D01*
G01*
%TO.C,SW12*%
X139160000Y-117700000D02*
X139739000Y-117700000D01*
X139739000Y-117050000D02*
X139739000Y-117700000D01*
X139739000Y-117050000D02*
X145260000Y-117050000D01*
X139739000Y-119000000D02*
X139739000Y-119710000D01*
X139739000Y-119710000D02*
X145260000Y-119710000D01*
X145260000Y-117050000D02*
X145260000Y-117760000D01*
X145260000Y-119000000D02*
X145260000Y-119710000D01*
%TO.C,R4*%
X144195276Y-110467500D02*
X144704724Y-110467500D01*
X144195276Y-111512500D02*
X144704724Y-111512500D01*
%TO.C,D8*%
X135350000Y-112350000D02*
X135350000Y-113000000D01*
X136470000Y-113000000D02*
X134230000Y-113000000D01*
X134230000Y-113000000D02*
X134230000Y-117240000D01*
X136470000Y-113600000D02*
X134230000Y-113600000D01*
X136470000Y-113720000D02*
X134230000Y-113720000D01*
X136470000Y-113840000D02*
X134230000Y-113840000D01*
X136470000Y-117240000D02*
X136470000Y-113000000D01*
X134230000Y-117240000D02*
X136470000Y-117240000D01*
X135350000Y-117890000D02*
X135350000Y-117240000D01*
%TO.C,SW10*%
X139160000Y-97670000D02*
X139739000Y-97670000D01*
X139739000Y-97020000D02*
X139739000Y-97670000D01*
X139739000Y-97020000D02*
X145260000Y-97020000D01*
X139739000Y-98970000D02*
X139739000Y-99680000D01*
X139739000Y-99680000D02*
X145260000Y-99680000D01*
X145260000Y-97020000D02*
X145260000Y-97730000D01*
X145260000Y-98970000D02*
X145260000Y-99680000D01*
%TO.C,SW9*%
X139160000Y-87670000D02*
X139739000Y-87670000D01*
X139739000Y-87020000D02*
X139739000Y-87670000D01*
X139739000Y-87020000D02*
X145260000Y-87020000D01*
X139739000Y-88970000D02*
X139739000Y-89680000D01*
X139739000Y-89680000D02*
X145260000Y-89680000D01*
X145260000Y-87020000D02*
X145260000Y-87730000D01*
X145260000Y-88970000D02*
X145260000Y-89680000D01*
%TO.C,D9*%
X147600000Y-82320000D02*
X147600000Y-82970000D01*
X148720000Y-82970000D02*
X146480000Y-82970000D01*
X146480000Y-82970000D02*
X146480000Y-87210000D01*
X148720000Y-83570000D02*
X146480000Y-83570000D01*
X148720000Y-83690000D02*
X146480000Y-83690000D01*
X148720000Y-83810000D02*
X146480000Y-83810000D01*
X148720000Y-87210000D02*
X148720000Y-82970000D01*
X146480000Y-87210000D02*
X148720000Y-87210000D01*
X147600000Y-87860000D02*
X147600000Y-87210000D01*
%TO.C,D7*%
X135350000Y-102360000D02*
X135350000Y-103010000D01*
X136470000Y-103010000D02*
X134230000Y-103010000D01*
X134230000Y-103010000D02*
X134230000Y-107250000D01*
X136470000Y-103610000D02*
X134230000Y-103610000D01*
X136470000Y-103730000D02*
X134230000Y-103730000D01*
X136470000Y-103850000D02*
X134230000Y-103850000D01*
X136470000Y-107250000D02*
X136470000Y-103010000D01*
X134230000Y-107250000D02*
X136470000Y-107250000D01*
X135350000Y-107900000D02*
X135350000Y-107250000D01*
%TO.C,C4*%
X169126267Y-83650000D02*
X168833733Y-83650000D01*
X169126267Y-82630000D02*
X168833733Y-82630000D01*
%TO.C,D10*%
X147600000Y-92320000D02*
X147600000Y-92970000D01*
X148720000Y-92970000D02*
X146480000Y-92970000D01*
X146480000Y-92970000D02*
X146480000Y-97210000D01*
X148720000Y-93570000D02*
X146480000Y-93570000D01*
X148720000Y-93690000D02*
X146480000Y-93690000D01*
X148720000Y-93810000D02*
X146480000Y-93810000D01*
X148720000Y-97210000D02*
X148720000Y-92970000D01*
X146480000Y-97210000D02*
X148720000Y-97210000D01*
X147600000Y-97860000D02*
X147600000Y-97210000D01*
%TO.C,R12*%
X111554724Y-108912500D02*
X111045276Y-108912500D01*
X111554724Y-107867500D02*
X111045276Y-107867500D01*
%TO.C,R5*%
X101822500Y-95972776D02*
X101822500Y-96482224D01*
X100777500Y-95972776D02*
X100777500Y-96482224D01*
%TO.C,D1*%
X122600000Y-82320000D02*
X122600000Y-82970000D01*
X123720000Y-82970000D02*
X121480000Y-82970000D01*
X121480000Y-82970000D02*
X121480000Y-87210000D01*
X123720000Y-83570000D02*
X121480000Y-83570000D01*
X123720000Y-83690000D02*
X121480000Y-83690000D01*
X123720000Y-83810000D02*
X121480000Y-83810000D01*
X123720000Y-87210000D02*
X123720000Y-82970000D01*
X121480000Y-87210000D02*
X123720000Y-87210000D01*
X122600000Y-87860000D02*
X122600000Y-87210000D01*
%TO.C,SW6*%
X126910000Y-97670000D02*
X127489000Y-97670000D01*
X127489000Y-97020000D02*
X127489000Y-97670000D01*
X127489000Y-97020000D02*
X133010000Y-97020000D01*
X127489000Y-98970000D02*
X127489000Y-99680000D01*
X127489000Y-99680000D02*
X133010000Y-99680000D01*
X133010000Y-97020000D02*
X133010000Y-97730000D01*
X133010000Y-98970000D02*
X133010000Y-99680000D01*
%TO.C,Q1*%
X90850000Y-95650000D02*
X92525000Y-95650000D01*
X90850000Y-95650000D02*
X90200000Y-95650000D01*
X90850000Y-92530000D02*
X91500000Y-92530000D01*
X90850000Y-92530000D02*
X90200000Y-92530000D01*
%TO.C,Q2*%
X93200000Y-111600000D02*
X94875000Y-111600000D01*
X93200000Y-111600000D02*
X92550000Y-111600000D01*
X93200000Y-108480000D02*
X93850000Y-108480000D01*
X93200000Y-108480000D02*
X92550000Y-108480000D01*
%TO.C,R9*%
X155095276Y-110717500D02*
X155604724Y-110717500D01*
X155095276Y-111762500D02*
X155604724Y-111762500D01*
%TO.C,R11*%
X155095276Y-108717500D02*
X155604724Y-108717500D01*
X155095276Y-109762500D02*
X155604724Y-109762500D01*
%TO.C,C2*%
X169126267Y-87150000D02*
X168833733Y-87150000D01*
X169126267Y-86130000D02*
X168833733Y-86130000D01*
D11*
%TO.C,RFID1*%
X182600000Y-79540000D02*
X182600000Y-119540000D01*
X182600000Y-79540000D02*
X242600000Y-79540000D01*
X182600000Y-119540000D02*
X242600000Y-119540000D01*
X242600000Y-119540000D02*
X242600000Y-79540000D01*
X214599030Y-91474692D02*
G75*
G03*
X214599029Y-107984687I8255000J-8254998D01*
G01*
X215869030Y-92744692D02*
G75*
G03*
X215869029Y-106714687I6985000J-6984998D01*
G01*
X217139029Y-94014691D02*
G75*
G03*
X217139028Y-105444688I5715001J-5714999D01*
G01*
X218409029Y-95284691D02*
G75*
G03*
X218409028Y-104174688I4445001J-4444999D01*
G01*
X219679029Y-96554691D02*
G75*
G03*
X219679028Y-102904688I3175001J-3174999D01*
G01*
X220949030Y-97824692D02*
G75*
G03*
X220949029Y-101634687I1905000J-1904998D01*
G01*
X224990923Y-101764999D02*
G75*
G03*
X224990923Y-97955001I-1905023J1904999D01*
G01*
X226260923Y-103034999D02*
G75*
G03*
X226260923Y-96685001I-3174993J3174999D01*
G01*
X227530923Y-104304999D02*
G75*
G03*
X227530923Y-95415001I-4445003J4444999D01*
G01*
X228800922Y-105574998D02*
G75*
G03*
X228800922Y-94145002I-5715002J5714998D01*
G01*
X230070923Y-106844999D02*
G75*
G03*
X230070923Y-92875001I-6985003J6984999D01*
G01*
X231340923Y-108114999D02*
G75*
G03*
X231340923Y-91605001I-8254993J8254999D01*
G01*
X223489027Y-99729689D02*
G75*
G03*
X223489027Y-99729689I-635000J0D01*
G01*
D13*
%TO.C,C17*%
X176910000Y-106106233D02*
X176910000Y-106398767D01*
X175890000Y-106106233D02*
X175890000Y-106398767D01*
D14*
%TO.C,IC1*%
X104861000Y-94127500D02*
X104386000Y-94127500D01*
X104036000Y-94027500D02*
X103536000Y-94027500D01*
X104036000Y-91927500D02*
X104036000Y-94027500D01*
X103536000Y-94027500D02*
X103536000Y-91927500D01*
X103536000Y-91927500D02*
X104036000Y-91927500D01*
%TD*%
M02*
