%TF.GenerationSoftware,KiCad,Pcbnew,7.0.9*%
%TF.CreationDate,2023-12-04T18:13:03+01:00*%
%TF.ProjectId,projekt1,70726f6a-656b-4743-912e-6b696361645f,rev?*%
%TF.SameCoordinates,Original*%
%TF.FileFunction,Copper,L1,Top*%
%TF.FilePolarity,Positive*%
%FSLAX46Y46*%
G04 Gerber Fmt 4.6, Leading zero omitted, Abs format (unit mm)*
G04 Created by KiCad (PCBNEW 7.0.9) date 2023-12-04 18:13:03*
%MOMM*%
%LPD*%
G01*
G04 APERTURE LIST*
G04 Aperture macros list*
%AMRoundRect*
0 Rectangle with rounded corners*
0 $1 Rounding radius*
0 $2 $3 $4 $5 $6 $7 $8 $9 X,Y pos of 4 corners*
0 Add a 4 corners polygon primitive as box body*
4,1,4,$2,$3,$4,$5,$6,$7,$8,$9,$2,$3,0*
0 Add four circle primitives for the rounded corners*
1,1,$1+$1,$2,$3*
1,1,$1+$1,$4,$5*
1,1,$1+$1,$6,$7*
1,1,$1+$1,$8,$9*
0 Add four rect primitives between the rounded corners*
20,1,$1+$1,$2,$3,$4,$5,0*
20,1,$1+$1,$4,$5,$6,$7,0*
20,1,$1+$1,$6,$7,$8,$9,0*
20,1,$1+$1,$8,$9,$2,$3,0*%
G04 Aperture macros list end*
%TA.AperFunction,SMDPad,CuDef*%
%ADD10R,1.600000X0.760000*%
%TD*%
%TA.AperFunction,SMDPad,CuDef*%
%ADD11RoundRect,0.237500X0.237500X-0.300000X0.237500X0.300000X-0.237500X0.300000X-0.237500X-0.300000X0*%
%TD*%
%TA.AperFunction,SMDPad,CuDef*%
%ADD12R,2.500000X1.000000*%
%TD*%
%TA.AperFunction,SMDPad,CuDef*%
%ADD13R,1.000000X1.800000*%
%TD*%
%TA.AperFunction,SMDPad,CuDef*%
%ADD14RoundRect,0.237500X-0.287500X-0.237500X0.287500X-0.237500X0.287500X0.237500X-0.287500X0.237500X0*%
%TD*%
%TA.AperFunction,SMDPad,CuDef*%
%ADD15RoundRect,0.237500X0.300000X0.237500X-0.300000X0.237500X-0.300000X-0.237500X0.300000X-0.237500X0*%
%TD*%
%TA.AperFunction,ComponentPad*%
%ADD16C,3.000000*%
%TD*%
%TA.AperFunction,ComponentPad*%
%ADD17C,2.500000*%
%TD*%
%TA.AperFunction,ComponentPad*%
%ADD18R,1.600000X1.600000*%
%TD*%
%TA.AperFunction,ComponentPad*%
%ADD19O,1.600000X1.600000*%
%TD*%
%TA.AperFunction,SMDPad,CuDef*%
%ADD20RoundRect,0.237500X-0.237500X0.250000X-0.237500X-0.250000X0.237500X-0.250000X0.237500X0.250000X0*%
%TD*%
%TA.AperFunction,SMDPad,CuDef*%
%ADD21RoundRect,0.237500X0.237500X-0.250000X0.237500X0.250000X-0.237500X0.250000X-0.237500X-0.250000X0*%
%TD*%
%TA.AperFunction,SMDPad,CuDef*%
%ADD22RoundRect,0.237500X-0.237500X0.300000X-0.237500X-0.300000X0.237500X-0.300000X0.237500X0.300000X0*%
%TD*%
%TA.AperFunction,ComponentPad*%
%ADD23R,2.100000X2.100000*%
%TD*%
%TA.AperFunction,ComponentPad*%
%ADD24C,2.100000*%
%TD*%
%TA.AperFunction,SMDPad,CuDef*%
%ADD25RoundRect,0.237500X-0.250000X-0.237500X0.250000X-0.237500X0.250000X0.237500X-0.250000X0.237500X0*%
%TD*%
%TA.AperFunction,SMDPad,CuDef*%
%ADD26RoundRect,0.075000X-0.662500X-0.075000X0.662500X-0.075000X0.662500X0.075000X-0.662500X0.075000X0*%
%TD*%
%TA.AperFunction,SMDPad,CuDef*%
%ADD27RoundRect,0.075000X-0.075000X-0.662500X0.075000X-0.662500X0.075000X0.662500X-0.075000X0.662500X0*%
%TD*%
%TA.AperFunction,SMDPad,CuDef*%
%ADD28RoundRect,0.150000X-0.150000X-0.200000X0.150000X-0.200000X0.150000X0.200000X-0.150000X0.200000X0*%
%TD*%
%TA.AperFunction,SMDPad,CuDef*%
%ADD29RoundRect,0.237500X0.250000X0.237500X-0.250000X0.237500X-0.250000X-0.237500X0.250000X-0.237500X0*%
%TD*%
%TA.AperFunction,ComponentPad*%
%ADD30C,1.800000*%
%TD*%
%TA.AperFunction,ComponentPad*%
%ADD31R,3.960000X1.980000*%
%TD*%
%TA.AperFunction,ComponentPad*%
%ADD32O,3.960000X1.980000*%
%TD*%
%TA.AperFunction,SMDPad,CuDef*%
%ADD33R,2.400000X3.325000*%
%TD*%
%TA.AperFunction,SMDPad,CuDef*%
%ADD34RoundRect,0.200000X-0.275000X0.200000X-0.275000X-0.200000X0.275000X-0.200000X0.275000X0.200000X0*%
%TD*%
%TA.AperFunction,SMDPad,CuDef*%
%ADD35RoundRect,0.150000X0.587500X0.150000X-0.587500X0.150000X-0.587500X-0.150000X0.587500X-0.150000X0*%
%TD*%
%TA.AperFunction,ComponentPad*%
%ADD36R,1.650000X1.650000*%
%TD*%
%TA.AperFunction,ComponentPad*%
%ADD37C,1.650000*%
%TD*%
%TA.AperFunction,SMDPad,CuDef*%
%ADD38R,0.475000X0.300000*%
%TD*%
%TA.AperFunction,ViaPad*%
%ADD39C,0.750000*%
%TD*%
%TA.AperFunction,Conductor*%
%ADD40C,0.200000*%
%TD*%
%TA.AperFunction,Conductor*%
%ADD41C,0.400000*%
%TD*%
G04 APERTURE END LIST*
D10*
%TO.P,SW11,1,1*%
%TO.N,/ROW2*%
X139960000Y-108390000D03*
%TO.P,SW11,2,2*%
%TO.N,Net-(D11-A)*%
X145040000Y-108390000D03*
%TD*%
%TO.P,SW8,1,1*%
%TO.N,/ROW3*%
X127710000Y-118380000D03*
%TO.P,SW8,2,2*%
%TO.N,Net-(D8-A)*%
X132790000Y-118380000D03*
%TD*%
D11*
%TO.P,C8,1*%
%TO.N,+24V*%
X109650000Y-97090000D03*
%TO.P,C8,2*%
%TO.N,GND*%
X109650000Y-95365000D03*
%TD*%
D12*
%TO.P,U2,1,~{RST}*%
%TO.N,/ESP_NRST1*%
X173950000Y-119240000D03*
%TO.P,U2,2,ADC*%
%TO.N,unconnected-(U2-ADC-Pad2)*%
X173950000Y-117240000D03*
%TO.P,U2,3,EN*%
%TO.N,Net-(U2-EN)*%
X173950000Y-115240000D03*
%TO.P,U2,4,GPIO16*%
%TO.N,unconnected-(U2-GPIO16-Pad4)*%
X173950000Y-113240000D03*
%TO.P,U2,5,GPIO14*%
%TO.N,unconnected-(U2-GPIO14-Pad5)*%
X173950000Y-111240000D03*
%TO.P,U2,6,GPIO12*%
%TO.N,unconnected-(U2-GPIO12-Pad6)*%
X173950000Y-109240000D03*
%TO.P,U2,7,GPIO13*%
%TO.N,unconnected-(U2-GPIO13-Pad7)*%
X173950000Y-107240000D03*
%TO.P,U2,8,VCC*%
%TO.N,VDD*%
X173950000Y-105240000D03*
D13*
%TO.P,U2,9,CS0*%
%TO.N,unconnected-(U2-CS0-Pad9)*%
X171350000Y-103740000D03*
%TO.P,U2,10,MISO*%
%TO.N,unconnected-(U2-MISO-Pad10)*%
X169350000Y-103740000D03*
%TO.P,U2,11,GPIO9*%
%TO.N,unconnected-(U2-GPIO9-Pad11)*%
X167350000Y-103740000D03*
%TO.P,U2,12,GPIO10*%
%TO.N,unconnected-(U2-GPIO10-Pad12)*%
X165350000Y-103740000D03*
%TO.P,U2,13,MOSI*%
%TO.N,unconnected-(U2-MOSI-Pad13)*%
X163350000Y-103740000D03*
%TO.P,U2,14,SCLK*%
%TO.N,unconnected-(U2-SCLK-Pad14)*%
X161350000Y-103740000D03*
D12*
%TO.P,U2,15,GND*%
%TO.N,GND*%
X158750000Y-105240000D03*
%TO.P,U2,16,GPIO15*%
%TO.N,Net-(U2-GPIO15)*%
X158750000Y-107240000D03*
%TO.P,U2,17,GPIO2*%
%TO.N,Net-(U2-GPIO2)*%
X158750000Y-109240000D03*
%TO.P,U2,18,GPIO0*%
%TO.N,Net-(U2-GPIO0)*%
X158750000Y-111240000D03*
%TO.P,U2,19,GPIO4*%
%TO.N,unconnected-(U2-GPIO4-Pad19)*%
X158750000Y-113240000D03*
%TO.P,U2,20,GPIO5*%
%TO.N,unconnected-(U2-GPIO5-Pad20)*%
X158750000Y-115240000D03*
%TO.P,U2,21,GPIO3/RXD*%
%TO.N,/USART1_Tx*%
X158750000Y-117240000D03*
%TO.P,U2,22,GPIO1/TXD*%
%TO.N,/USART1_Rx*%
X158750000Y-119240000D03*
%TD*%
D11*
%TO.P,C11,1*%
%TO.N,VDDA*%
X164400000Y-95427500D03*
%TO.P,C11,2*%
%TO.N,GND*%
X164400000Y-93702500D03*
%TD*%
D14*
%TO.P,L1,1,1*%
%TO.N,Net-(C14-Pad2)*%
X102925000Y-90340000D03*
%TO.P,L1,2,2*%
%TO.N,Net-(IC1-SW)*%
X104675000Y-90340000D03*
%TD*%
D15*
%TO.P,C7,1*%
%TO.N,VDD*%
X169842500Y-81580000D03*
%TO.P,C7,2*%
%TO.N,GND*%
X168117500Y-81580000D03*
%TD*%
D16*
%TO.P,K2,1*%
%TO.N,/COM_V2*%
X80750000Y-103410000D03*
D17*
%TO.P,K2,2*%
%TO.N,Net-(D13-A)*%
X86800000Y-101460000D03*
D16*
%TO.P,K2,4*%
%TO.N,/Relay2_NC*%
X74750000Y-89210000D03*
D17*
%TO.P,K2,5*%
%TO.N,+24V*%
X74800000Y-101460000D03*
%TD*%
D10*
%TO.P,SW1,1,1*%
%TO.N,/ROW0*%
X114920000Y-88350000D03*
%TO.P,SW1,2,2*%
%TO.N,Net-(D1-A)*%
X120000000Y-88350000D03*
%TD*%
D18*
%TO.P,D11,1,K*%
%TO.N,/COL2*%
X147600000Y-101320000D03*
D19*
%TO.P,D11,2,A*%
%TO.N,Net-(D11-A)*%
X147600000Y-108940000D03*
%TD*%
D10*
%TO.P,SW5,1,1*%
%TO.N,/ROW0*%
X127710000Y-88350000D03*
%TO.P,SW5,2,2*%
%TO.N,Net-(D5-A)*%
X132790000Y-88350000D03*
%TD*%
D20*
%TO.P,R8,1*%
%TO.N,VDD*%
X176350000Y-113377500D03*
%TO.P,R8,2*%
%TO.N,Net-(U2-EN)*%
X176350000Y-115202500D03*
%TD*%
D21*
%TO.P,R7,1*%
%TO.N,/ESP_NRST1*%
X176350000Y-119152500D03*
%TO.P,R7,2*%
%TO.N,VDD*%
X176350000Y-117327500D03*
%TD*%
D22*
%TO.P,C1,1*%
%TO.N,GND*%
X158750000Y-88927500D03*
%TO.P,C1,2*%
%TO.N,Net-(U1-PF0)*%
X158750000Y-90652500D03*
%TD*%
D23*
%TO.P,J2,1,Pin_1*%
%TO.N,+24V*%
X63380000Y-107465000D03*
D24*
%TO.P,J2,2,Pin_2*%
%TO.N,/Relay1_NO*%
X63380000Y-110005000D03*
%TD*%
D25*
%TO.P,R1,1*%
%TO.N,GND*%
X118497500Y-110990000D03*
%TO.P,R1,2*%
%TO.N,/COL0*%
X120322500Y-110990000D03*
%TD*%
D26*
%TO.P,U1,1,VDD*%
%TO.N,VDD*%
X168437500Y-89977500D03*
%TO.P,U1,2,PC13*%
%TO.N,unconnected-(U1-PC13-Pad2)*%
X168437500Y-90477500D03*
%TO.P,U1,3,PC14*%
%TO.N,unconnected-(U1-PC14-Pad3)*%
X168437500Y-90977500D03*
%TO.P,U1,4,PC15*%
%TO.N,unconnected-(U1-PC15-Pad4)*%
X168437500Y-91477500D03*
%TO.P,U1,5,PF0*%
%TO.N,Net-(U1-PF0)*%
X168437500Y-91977500D03*
%TO.P,U1,6,PF1*%
X168437500Y-92477500D03*
%TO.P,U1,7,NRST*%
%TO.N,Net-(U1-NRST)*%
X168437500Y-92977500D03*
%TO.P,U1,8,VSSA*%
%TO.N,GND*%
X168437500Y-93477500D03*
%TO.P,U1,9,VDDA*%
%TO.N,VDDA*%
X168437500Y-93977500D03*
%TO.P,U1,10,PA0*%
%TO.N,/V1_Open*%
X168437500Y-94477500D03*
%TO.P,U1,11,PA1*%
%TO.N,/V2_Close*%
X168437500Y-94977500D03*
%TO.P,U1,12,PA2*%
%TO.N,unconnected-(U1-PA2-Pad12)*%
X168437500Y-95477500D03*
D27*
%TO.P,U1,13,PA3*%
%TO.N,unconnected-(U1-PA3-Pad13)*%
X169850000Y-96890000D03*
%TO.P,U1,14,PA4*%
%TO.N,unconnected-(U1-PA4-Pad14)*%
X170350000Y-96890000D03*
%TO.P,U1,15,PA5*%
%TO.N,unconnected-(U1-PA5-Pad15)*%
X170850000Y-96890000D03*
%TO.P,U1,16,PA6*%
%TO.N,unconnected-(U1-PA6-Pad16)*%
X171350000Y-96890000D03*
%TO.P,U1,17,PA7*%
%TO.N,unconnected-(U1-PA7-Pad17)*%
X171850000Y-96890000D03*
%TO.P,U1,18,PB0*%
%TO.N,unconnected-(U1-PB0-Pad18)*%
X172350000Y-96890000D03*
%TO.P,U1,19,PB1*%
%TO.N,/ROW0*%
X172850000Y-96890000D03*
%TO.P,U1,20,PB2*%
%TO.N,/ROW1*%
X173350000Y-96890000D03*
%TO.P,U1,21,PB10*%
%TO.N,/ROW2*%
X173850000Y-96890000D03*
%TO.P,U1,22,PB11*%
%TO.N,/ROW3*%
X174350000Y-96890000D03*
%TO.P,U1,23,VSS*%
%TO.N,GND*%
X174850000Y-96890000D03*
%TO.P,U1,24,VDD*%
%TO.N,VDD*%
X175350000Y-96890000D03*
D26*
%TO.P,U1,25,PB12*%
%TO.N,/COL0*%
X176762500Y-95477500D03*
%TO.P,U1,26,PB13*%
%TO.N,/COL1*%
X176762500Y-94977500D03*
%TO.P,U1,27,PB14*%
%TO.N,/COL2*%
X176762500Y-94477500D03*
%TO.P,U1,28,PB15*%
%TO.N,unconnected-(U1-PB15-Pad28)*%
X176762500Y-93977500D03*
%TO.P,U1,29,PA8*%
%TO.N,unconnected-(U1-PA8-Pad29)*%
X176762500Y-93477500D03*
%TO.P,U1,30,PA9*%
%TO.N,/USART1_Tx*%
X176762500Y-92977500D03*
%TO.P,U1,31,PA10*%
%TO.N,/USART1_Rx*%
X176762500Y-92477500D03*
%TO.P,U1,32,PA11*%
%TO.N,unconnected-(U1-PA11-Pad32)*%
X176762500Y-91977500D03*
%TO.P,U1,33,PA12*%
%TO.N,unconnected-(U1-PA12-Pad33)*%
X176762500Y-91477500D03*
%TO.P,U1,34,PA13*%
%TO.N,unconnected-(U1-PA13-Pad34)*%
X176762500Y-90977500D03*
%TO.P,U1,35,PF6*%
%TO.N,unconnected-(U1-PF6-Pad35)*%
X176762500Y-90477500D03*
%TO.P,U1,36,PF7*%
%TO.N,unconnected-(U1-PF7-Pad36)*%
X176762500Y-89977500D03*
D27*
%TO.P,U1,37,PA14*%
%TO.N,unconnected-(U1-PA14-Pad37)*%
X175350000Y-88565000D03*
%TO.P,U1,38,PA15*%
%TO.N,unconnected-(U1-PA15-Pad38)*%
X174850000Y-88565000D03*
%TO.P,U1,39,PB3*%
%TO.N,unconnected-(U1-PB3-Pad39)*%
X174350000Y-88565000D03*
%TO.P,U1,40,PB4*%
%TO.N,unconnected-(U1-PB4-Pad40)*%
X173850000Y-88565000D03*
%TO.P,U1,41,PB5*%
%TO.N,unconnected-(U1-PB5-Pad41)*%
X173350000Y-88565000D03*
%TO.P,U1,42,PB6*%
%TO.N,/I2C1_SCL*%
X172850000Y-88565000D03*
%TO.P,U1,43,PB7*%
%TO.N,/I2C1_SDA*%
X172350000Y-88565000D03*
%TO.P,U1,44,BOOT0*%
%TO.N,GND*%
X171850000Y-88565000D03*
%TO.P,U1,45,PB8*%
%TO.N,unconnected-(U1-PB8-Pad45)*%
X171350000Y-88565000D03*
%TO.P,U1,46,PB9*%
%TO.N,unconnected-(U1-PB9-Pad46)*%
X170850000Y-88565000D03*
%TO.P,U1,47,VSS*%
%TO.N,GND*%
X170350000Y-88565000D03*
%TO.P,U1,48,VDD*%
%TO.N,VDD*%
X169850000Y-88565000D03*
%TD*%
D11*
%TO.P,C15,1*%
%TO.N,/ESP_NRST1*%
X178050000Y-119102500D03*
%TO.P,C15,2*%
%TO.N,GND*%
X178050000Y-117377500D03*
%TD*%
D28*
%TO.P,D14,1,K*%
%TO.N,+24V*%
X93230000Y-112590000D03*
%TO.P,D14,2,A*%
%TO.N,Net-(D14-A)*%
X91830000Y-112590000D03*
%TD*%
D20*
%TO.P,R14,1*%
%TO.N,Net-(R14-Pad1)*%
X93700000Y-93127500D03*
%TO.P,R14,2*%
%TO.N,Net-(Q1-B)*%
X93700000Y-94952500D03*
%TD*%
D10*
%TO.P,SW3,1,1*%
%TO.N,/ROW2*%
X114920000Y-108390000D03*
%TO.P,SW3,2,2*%
%TO.N,Net-(D3-A)*%
X120000000Y-108390000D03*
%TD*%
D25*
%TO.P,R2,1*%
%TO.N,GND*%
X131287500Y-110990000D03*
%TO.P,R2,2*%
%TO.N,/COL1*%
X133112500Y-110990000D03*
%TD*%
D29*
%TO.P,R13,1*%
%TO.N,/V1_Open*%
X112212500Y-111190000D03*
%TO.P,R13,2*%
%TO.N,Net-(R13-Pad2)*%
X110387500Y-111190000D03*
%TD*%
D22*
%TO.P,C6,1*%
%TO.N,GND*%
X157100000Y-95027500D03*
%TO.P,C6,2*%
%TO.N,Net-(C6-Pad2)*%
X157100000Y-96752500D03*
%TD*%
D21*
%TO.P,R6,1*%
%TO.N,Net-(IC1-SW)*%
X99624000Y-97140000D03*
%TO.P,R6,2*%
%TO.N,VDD*%
X99624000Y-95315000D03*
%TD*%
D30*
%TO.P,K1,1*%
%TO.N,Net-(D14-A)*%
X89750000Y-109225000D03*
%TO.P,K1,2*%
%TO.N,+24V*%
X89750000Y-116825000D03*
%TO.P,K1,3*%
X77050000Y-109225000D03*
%TO.P,K1,4*%
%TO.N,/Relay1_NO*%
X74510000Y-116825000D03*
%TD*%
D18*
%TO.P,D12,1,K*%
%TO.N,/COL2*%
X147600000Y-111310000D03*
D19*
%TO.P,D12,2,A*%
%TO.N,Net-(D12-A)*%
X147600000Y-118930000D03*
%TD*%
D22*
%TO.P,C12,1*%
%TO.N,GND*%
X106250000Y-95365000D03*
%TO.P,C12,2*%
%TO.N,VDD*%
X106250000Y-97090000D03*
%TD*%
D10*
%TO.P,SW2,1,1*%
%TO.N,/ROW1*%
X114920000Y-98350000D03*
%TO.P,SW2,2,2*%
%TO.N,Net-(D2-A)*%
X120000000Y-98350000D03*
%TD*%
%TO.P,SW4,1,1*%
%TO.N,/ROW3*%
X115205000Y-118380000D03*
%TO.P,SW4,2,2*%
%TO.N,Net-(D4-A)*%
X120285000Y-118380000D03*
%TD*%
D11*
%TO.P,C9,1*%
%TO.N,VDDA*%
X166200000Y-95427500D03*
%TO.P,C9,2*%
%TO.N,GND*%
X166200000Y-93702500D03*
%TD*%
D28*
%TO.P,D13,1,K*%
%TO.N,+24V*%
X90880000Y-96640000D03*
%TO.P,D13,2,A*%
%TO.N,Net-(D13-A)*%
X89480000Y-96640000D03*
%TD*%
D22*
%TO.P,C16,1*%
%TO.N,Net-(IC1-SW)*%
X99550000Y-89477500D03*
%TO.P,C16,2*%
%TO.N,VDD*%
X99550000Y-91202500D03*
%TD*%
D11*
%TO.P,C10,1*%
%TO.N,+24V*%
X107950000Y-97090000D03*
%TO.P,C10,2*%
%TO.N,GND*%
X107950000Y-95365000D03*
%TD*%
D31*
%TO.P,J1,1,Pin_1*%
%TO.N,/COM_V2*%
X66100000Y-97675000D03*
D32*
%TO.P,J1,2,Pin_2*%
%TO.N,/Relay2_NC*%
X66100000Y-92675000D03*
%TD*%
D33*
%TO.P,Y1,1,1*%
%TO.N,Net-(U1-PF0)*%
X161600000Y-90040000D03*
%TO.P,Y1,2,2*%
%TO.N,Net-(C6-Pad2)*%
X161600000Y-95565000D03*
%TD*%
D34*
%TO.P,R3,1*%
%TO.N,Net-(U1-PF0)*%
X158750000Y-95215000D03*
%TO.P,R3,2*%
%TO.N,Net-(C6-Pad2)*%
X158750000Y-96865000D03*
%TD*%
D18*
%TO.P,D6,1,K*%
%TO.N,/COL1*%
X135350000Y-91280000D03*
D19*
%TO.P,D6,2,A*%
%TO.N,Net-(D6-A)*%
X135350000Y-98900000D03*
%TD*%
D18*
%TO.P,D4,1,K*%
%TO.N,/COL0*%
X122600000Y-111310000D03*
D19*
%TO.P,D4,2,A*%
%TO.N,Net-(D4-A)*%
X122600000Y-118930000D03*
%TD*%
D22*
%TO.P,C13,1*%
%TO.N,VDD*%
X177950000Y-105390000D03*
%TO.P,C13,2*%
%TO.N,GND*%
X177950000Y-107115000D03*
%TD*%
D15*
%TO.P,C3,1*%
%TO.N,VDD*%
X169842500Y-84890000D03*
%TO.P,C3,2*%
%TO.N,GND*%
X168117500Y-84890000D03*
%TD*%
D21*
%TO.P,R15,1*%
%TO.N,Net-(R15-Pad1)*%
X96062500Y-110902500D03*
%TO.P,R15,2*%
%TO.N,Net-(Q2-B)*%
X96062500Y-109077500D03*
%TD*%
D11*
%TO.P,C14,1*%
%TO.N,Net-(IC1-BST)*%
X101150000Y-91202500D03*
%TO.P,C14,2*%
%TO.N,Net-(C14-Pad2)*%
X101150000Y-89477500D03*
%TD*%
D18*
%TO.P,D3,1,K*%
%TO.N,/COL0*%
X122600000Y-101320000D03*
D19*
%TO.P,D3,2,A*%
%TO.N,Net-(D3-A)*%
X122600000Y-108940000D03*
%TD*%
D23*
%TO.P,J3,1,Pin_1*%
%TO.N,GND*%
X63380000Y-116870000D03*
D24*
%TO.P,J3,2,Pin_2*%
%TO.N,+24V*%
X63380000Y-114330000D03*
%TD*%
D18*
%TO.P,D5,1,K*%
%TO.N,/COL1*%
X135350000Y-81280000D03*
D19*
%TO.P,D5,2,A*%
%TO.N,Net-(D5-A)*%
X135350000Y-88900000D03*
%TD*%
D18*
%TO.P,D2,1,K*%
%TO.N,/COL0*%
X122600000Y-91280000D03*
D19*
%TO.P,D2,2,A*%
%TO.N,Net-(D2-A)*%
X122600000Y-98900000D03*
%TD*%
D15*
%TO.P,C5,1*%
%TO.N,Net-(U1-NRST)*%
X166162500Y-92090000D03*
%TO.P,C5,2*%
%TO.N,GND*%
X164437500Y-92090000D03*
%TD*%
D10*
%TO.P,SW7,1,1*%
%TO.N,/ROW2*%
X127710000Y-108390000D03*
%TO.P,SW7,2,2*%
%TO.N,Net-(D7-A)*%
X132790000Y-108390000D03*
%TD*%
D29*
%TO.P,R10,1*%
%TO.N,Net-(U2-GPIO15)*%
X156262500Y-107240000D03*
%TO.P,R10,2*%
%TO.N,GND*%
X154437500Y-107240000D03*
%TD*%
D18*
%TO.P,U4,1*%
%TO.N,Net-(R13-Pad2)*%
X107850000Y-113690000D03*
D19*
%TO.P,U4,2*%
%TO.N,GND*%
X107850000Y-111150000D03*
%TO.P,U4,3*%
%TO.N,Net-(R12-Pad2)*%
X107850000Y-108610000D03*
%TO.P,U4,4*%
%TO.N,GND*%
X107850000Y-106070000D03*
%TO.P,U4,5*%
%TO.N,Net-(R14-Pad1)*%
X100230000Y-106070000D03*
%TO.P,U4,6*%
%TO.N,+24V*%
X100230000Y-108610000D03*
%TO.P,U4,7*%
%TO.N,Net-(R15-Pad1)*%
X100230000Y-111150000D03*
%TO.P,U4,8*%
%TO.N,+24V*%
X100230000Y-113690000D03*
%TD*%
D10*
%TO.P,SW12,1,1*%
%TO.N,/ROW3*%
X139960000Y-118380000D03*
%TO.P,SW12,2,2*%
%TO.N,Net-(D12-A)*%
X145040000Y-118380000D03*
%TD*%
D25*
%TO.P,R4,1*%
%TO.N,GND*%
X143537500Y-110990000D03*
%TO.P,R4,2*%
%TO.N,/COL2*%
X145362500Y-110990000D03*
%TD*%
D18*
%TO.P,D8,1,K*%
%TO.N,/COL1*%
X135350000Y-111310000D03*
D19*
%TO.P,D8,2,A*%
%TO.N,Net-(D8-A)*%
X135350000Y-118930000D03*
%TD*%
D10*
%TO.P,SW10,1,1*%
%TO.N,/ROW1*%
X139960000Y-98350000D03*
%TO.P,SW10,2,2*%
%TO.N,Net-(D10-A)*%
X145040000Y-98350000D03*
%TD*%
%TO.P,SW9,1,1*%
%TO.N,/ROW0*%
X139960000Y-88350000D03*
%TO.P,SW9,2,2*%
%TO.N,Net-(D9-A)*%
X145040000Y-88350000D03*
%TD*%
D18*
%TO.P,D9,1,K*%
%TO.N,/COL2*%
X147600000Y-81280000D03*
D19*
%TO.P,D9,2,A*%
%TO.N,Net-(D9-A)*%
X147600000Y-88900000D03*
%TD*%
D18*
%TO.P,D7,1,K*%
%TO.N,/COL1*%
X135350000Y-101320000D03*
D19*
%TO.P,D7,2,A*%
%TO.N,Net-(D7-A)*%
X135350000Y-108940000D03*
%TD*%
D15*
%TO.P,C4,1*%
%TO.N,VDD*%
X169842500Y-83140000D03*
%TO.P,C4,2*%
%TO.N,GND*%
X168117500Y-83140000D03*
%TD*%
D18*
%TO.P,D10,1,K*%
%TO.N,/COL2*%
X147600000Y-91280000D03*
D19*
%TO.P,D10,2,A*%
%TO.N,Net-(D10-A)*%
X147600000Y-98900000D03*
%TD*%
D29*
%TO.P,R12,1*%
%TO.N,/V2_Close*%
X112212500Y-108390000D03*
%TO.P,R12,2*%
%TO.N,Net-(R12-Pad2)*%
X110387500Y-108390000D03*
%TD*%
D20*
%TO.P,R5,1*%
%TO.N,GND*%
X101300000Y-95315000D03*
%TO.P,R5,2*%
%TO.N,Net-(IC1-SW)*%
X101300000Y-97140000D03*
%TD*%
D18*
%TO.P,D1,1,K*%
%TO.N,/COL0*%
X122600000Y-81280000D03*
D19*
%TO.P,D1,2,A*%
%TO.N,Net-(D1-A)*%
X122600000Y-88900000D03*
%TD*%
D10*
%TO.P,SW6,1,1*%
%TO.N,/ROW1*%
X127710000Y-98350000D03*
%TO.P,SW6,2,2*%
%TO.N,Net-(D6-A)*%
X132790000Y-98350000D03*
%TD*%
D35*
%TO.P,Q1,1,B*%
%TO.N,Net-(Q1-B)*%
X91787500Y-95040000D03*
%TO.P,Q1,2,E*%
%TO.N,GND*%
X91787500Y-93140000D03*
%TO.P,Q1,3,C*%
%TO.N,Net-(D13-A)*%
X89912500Y-94090000D03*
%TD*%
%TO.P,Q2,1,B*%
%TO.N,Net-(Q2-B)*%
X94137500Y-110990000D03*
%TO.P,Q2,2,E*%
%TO.N,GND*%
X94137500Y-109090000D03*
%TO.P,Q2,3,C*%
%TO.N,Net-(D14-A)*%
X92262500Y-110040000D03*
%TD*%
D25*
%TO.P,R9,1*%
%TO.N,VDD*%
X154437500Y-111240000D03*
%TO.P,R9,2*%
%TO.N,Net-(U2-GPIO0)*%
X156262500Y-111240000D03*
%TD*%
%TO.P,R11,1*%
%TO.N,VDD*%
X154437500Y-109240000D03*
%TO.P,R11,2*%
%TO.N,Net-(U2-GPIO2)*%
X156262500Y-109240000D03*
%TD*%
D15*
%TO.P,C2,1*%
%TO.N,VDD*%
X169842500Y-86640000D03*
%TO.P,C2,2*%
%TO.N,GND*%
X168117500Y-86640000D03*
%TD*%
D36*
%TO.P,RFID1,1,SDA*%
%TO.N,/I2C1_SDA*%
X187680000Y-89700000D03*
D37*
%TO.P,RFID1,2,SCK*%
%TO.N,/I2C1_SCL*%
X187680000Y-92240000D03*
%TO.P,RFID1,3,MOSI*%
%TO.N,unconnected-(RFID1-MOSI-Pad3)*%
X187680000Y-94780000D03*
%TO.P,RFID1,4,MISO*%
%TO.N,unconnected-(RFID1-MISO-Pad4)*%
X187680000Y-97320000D03*
%TO.P,RFID1,5,IRQ*%
%TO.N,unconnected-(RFID1-IRQ-Pad5)*%
X187680000Y-99860000D03*
%TO.P,RFID1,6,GND*%
%TO.N,GND*%
X187680000Y-102400000D03*
%TO.P,RFID1,7,RST*%
%TO.N,unconnected-(RFID1-RST-Pad7)*%
X187680000Y-104940000D03*
%TO.P,RFID1,8,3\u002C3V*%
%TO.N,VDD*%
X187680000Y-107480000D03*
%TD*%
D22*
%TO.P,C17,1*%
%TO.N,VDD*%
X176400000Y-105390000D03*
%TO.P,C17,2*%
%TO.N,GND*%
X176400000Y-107115000D03*
%TD*%
D38*
%TO.P,IC1,1,NC*%
%TO.N,unconnected-(IC1-NC-Pad1)*%
X104624000Y-93727500D03*
%TO.P,IC1,2,EN*%
%TO.N,unconnected-(IC1-EN-Pad2)*%
X104624000Y-93227500D03*
%TO.P,IC1,3,VIN*%
%TO.N,+24V*%
X104624000Y-92727500D03*
%TO.P,IC1,4,GND*%
%TO.N,GND*%
X104624000Y-92227500D03*
%TO.P,IC1,5,SW*%
%TO.N,Net-(IC1-SW)*%
X102948000Y-92227500D03*
%TO.P,IC1,6,BST*%
%TO.N,Net-(IC1-BST)*%
X102948000Y-92727500D03*
%TO.P,IC1,7,NC*%
%TO.N,unconnected-(IC1-NC-Pad7)*%
X102948000Y-93227500D03*
%TO.P,IC1,8,FB*%
%TO.N,VDD*%
X102948000Y-93727500D03*
%TD*%
D39*
%TO.N,GND*%
X142350000Y-110975000D03*
X155875000Y-95000000D03*
X107950000Y-94050000D03*
X181875000Y-102400000D03*
X164450000Y-90925000D03*
X105425000Y-91800000D03*
X102325000Y-95300000D03*
X91775000Y-91875000D03*
X94150000Y-107925000D03*
X109400000Y-106025000D03*
X117325000Y-110975000D03*
X168125000Y-87875000D03*
X109350000Y-112225000D03*
X155738750Y-105938750D03*
X177975000Y-108325000D03*
X157550000Y-88950000D03*
X63400000Y-119200000D03*
X130125000Y-111000000D03*
X174703130Y-98663716D03*
X179275000Y-117325000D03*
X171100000Y-87250000D03*
%TO.N,VDD*%
X104900000Y-98390000D03*
X171520000Y-81580000D03*
%TO.N,/I2C1_SCL*%
X177900000Y-86660000D03*
X181680000Y-86660000D03*
%TO.N,/I2C1_SDA*%
X177900000Y-85740000D03*
X181680000Y-85740000D03*
%TO.N,/COL1*%
X137100000Y-111290000D03*
%TO.N,/COL2*%
X149200000Y-111310000D03*
%TO.N,/V2_Close*%
X167389640Y-98473895D03*
X113150000Y-108390000D03*
%TO.N,/V1_Open*%
X112200000Y-112390000D03*
X166825500Y-97773288D03*
%TO.N,/USART1_Tx*%
X178398674Y-93463174D03*
X156450000Y-117190000D03*
%TO.N,/USART1_Rx*%
X157000000Y-119240000D03*
X178404029Y-92563687D03*
%TD*%
D40*
%TO.N,GND*%
X158750000Y-88927500D02*
X157572500Y-88927500D01*
X170927501Y-87250000D02*
X171100000Y-87250000D01*
X177950000Y-108300000D02*
X177975000Y-108325000D01*
X168117500Y-86640000D02*
X168117500Y-87867500D01*
X164437500Y-90937500D02*
X164450000Y-90925000D01*
D41*
X63380000Y-116870000D02*
X63380000Y-119180000D01*
D40*
X108275000Y-111150000D02*
X109350000Y-112225000D01*
X178050000Y-117377500D02*
X179222500Y-117377500D01*
X118497500Y-110990000D02*
X117340000Y-110990000D01*
X177950000Y-107115000D02*
X177950000Y-108300000D01*
X168437500Y-93477500D02*
X166425000Y-93477500D01*
X168117500Y-87867500D02*
X168125000Y-87875000D01*
X164437500Y-92090000D02*
X164437500Y-90937500D01*
X154437500Y-107240000D02*
X156437500Y-105240000D01*
X104997500Y-92227500D02*
X104624000Y-92227500D01*
X179222500Y-117377500D02*
X179275000Y-117325000D01*
X156437500Y-105240000D02*
X158750000Y-105240000D01*
X117340000Y-110990000D02*
X117325000Y-110975000D01*
X109355000Y-106070000D02*
X109400000Y-106025000D01*
X130135000Y-110990000D02*
X130125000Y-111000000D01*
X164400000Y-93702500D02*
X164400000Y-92127500D01*
X143537500Y-110990000D02*
X142365000Y-110990000D01*
X157572500Y-88927500D02*
X157550000Y-88950000D01*
X94137500Y-107937500D02*
X94137500Y-109090000D01*
X91787500Y-93140000D02*
X91787500Y-91887500D01*
X107850000Y-106070000D02*
X109355000Y-106070000D01*
X107850000Y-111150000D02*
X108275000Y-111150000D01*
X106250000Y-95365000D02*
X109650000Y-95365000D01*
X170350000Y-88565000D02*
X170350000Y-87827501D01*
X94150000Y-107925000D02*
X94137500Y-107937500D01*
X176400000Y-107115000D02*
X177950000Y-107115000D01*
X174850000Y-96890000D02*
X174850000Y-98516846D01*
X142365000Y-110990000D02*
X142350000Y-110975000D01*
X171272499Y-87250000D02*
X171100000Y-87250000D01*
X157100000Y-95027500D02*
X155902500Y-95027500D01*
X107950000Y-95365000D02*
X107950000Y-94050000D01*
X166425000Y-93477500D02*
X166200000Y-93702500D01*
X91787500Y-91887500D02*
X91775000Y-91875000D01*
X164400000Y-92127500D02*
X164437500Y-92090000D01*
D41*
X63380000Y-119180000D02*
X63400000Y-119200000D01*
D40*
X166200000Y-93702500D02*
X164400000Y-93702500D01*
X105425000Y-91800000D02*
X104997500Y-92227500D01*
X174850000Y-98516846D02*
X174703130Y-98663716D01*
X155902500Y-95027500D02*
X155875000Y-95000000D01*
X102310000Y-95315000D02*
X102325000Y-95300000D01*
X171272499Y-87250000D02*
X171850000Y-87827501D01*
X131287500Y-110990000D02*
X130135000Y-110990000D01*
X168117500Y-81580000D02*
X168117500Y-86640000D01*
X101300000Y-95315000D02*
X102310000Y-95315000D01*
X171850000Y-87827501D02*
X171850000Y-88565000D01*
X170350000Y-87827501D02*
X170927501Y-87250000D01*
%TO.N,Net-(U1-PF0)*%
X164250000Y-90040000D02*
X161600000Y-90040000D01*
X163450000Y-92090000D02*
X163450000Y-90840000D01*
X168437500Y-92477500D02*
X168437500Y-91977500D01*
X161012500Y-92790000D02*
X162750000Y-92790000D01*
X168437500Y-91977500D02*
X167700001Y-91977500D01*
X158750000Y-95215000D02*
X158750000Y-95052500D01*
X163450000Y-90840000D02*
X164250000Y-90040000D01*
X167700001Y-91977500D02*
X165762501Y-90040000D01*
X158750000Y-95052500D02*
X161012500Y-92790000D01*
X162750000Y-92790000D02*
X163450000Y-92090000D01*
X158750000Y-90652500D02*
X160987500Y-90652500D01*
X165762501Y-90040000D02*
X164250000Y-90040000D01*
X160987500Y-90652500D02*
X161600000Y-90040000D01*
X168437500Y-91977500D02*
X168362500Y-91977500D01*
D41*
%TO.N,VDD*%
X178200000Y-105390000D02*
X179050000Y-104540000D01*
X175040620Y-95740000D02*
X169850000Y-90549380D01*
X99550000Y-92066000D02*
X99550000Y-91202500D01*
D40*
X102948000Y-93788000D02*
X106250000Y-97090000D01*
X169850000Y-86647500D02*
X169842500Y-86640000D01*
D41*
X99550000Y-92066000D02*
X101211500Y-93727500D01*
D40*
X169850000Y-88565000D02*
X168875000Y-88565000D01*
D41*
X153200000Y-108002500D02*
X154437500Y-109240000D01*
X179740000Y-107480000D02*
X187680000Y-107480000D01*
X154437500Y-111240000D02*
X154437500Y-111227500D01*
D40*
X102948000Y-93727500D02*
X102948000Y-93788000D01*
D41*
X153700000Y-102240000D02*
X153200000Y-102740000D01*
D40*
X169850000Y-88565000D02*
X169850000Y-90549380D01*
X169850000Y-88565000D02*
X169850000Y-86647500D01*
D41*
X179050000Y-102690000D02*
X178600000Y-102240000D01*
X105000000Y-98340000D02*
X104950000Y-98340000D01*
X176250000Y-105240000D02*
X176400000Y-105390000D01*
X179000000Y-106740000D02*
X179000000Y-110340000D01*
D40*
X173706250Y-105390000D02*
X176193750Y-105390000D01*
D41*
X104950000Y-98390000D02*
X106250000Y-97090000D01*
D40*
X175350000Y-96890000D02*
X175350000Y-98990000D01*
D41*
X175050000Y-95740000D02*
X175040620Y-95740000D01*
X153200000Y-109990000D02*
X153200000Y-108002500D01*
X179000000Y-105990000D02*
X179000000Y-106740000D01*
X178600000Y-102240000D02*
X175350000Y-98990000D01*
X101211500Y-93727500D02*
X99624000Y-95315000D01*
D40*
X175350000Y-96040000D02*
X175050000Y-95740000D01*
X175350000Y-96890000D02*
X175350000Y-96040000D01*
D41*
X176350000Y-117327500D02*
X176350000Y-117040000D01*
X179000000Y-110340000D02*
X179000000Y-114390000D01*
X104900000Y-98390000D02*
X104950000Y-98390000D01*
X176350000Y-112990000D02*
X179000000Y-110340000D01*
D40*
X168437500Y-89002500D02*
X168437500Y-89977500D01*
D41*
X176400000Y-105390000D02*
X177950000Y-105390000D01*
X178600000Y-102240000D02*
X153700000Y-102240000D01*
D40*
X106250000Y-97090000D02*
X106200000Y-97090000D01*
D41*
X177950000Y-105390000D02*
X178200000Y-105390000D01*
D40*
X168875000Y-88565000D02*
X168437500Y-89002500D01*
D41*
X169842500Y-81580000D02*
X169842500Y-86640000D01*
X179000000Y-106740000D02*
X179740000Y-107480000D01*
X154437500Y-111227500D02*
X153200000Y-109990000D01*
D40*
X102948000Y-93727500D02*
X101211500Y-93727500D01*
D41*
X174100000Y-105390000D02*
X173950000Y-105240000D01*
X177950000Y-105390000D02*
X178400000Y-105390000D01*
X104950000Y-98340000D02*
X104900000Y-98390000D01*
X171520000Y-81580000D02*
X169842500Y-81580000D01*
X176350000Y-117040000D02*
X179000000Y-114390000D01*
X178400000Y-105390000D02*
X179000000Y-105990000D01*
X176350000Y-113377500D02*
X176350000Y-112990000D01*
X179050000Y-104540000D02*
X179050000Y-102690000D01*
X153200000Y-102740000D02*
X153200000Y-108002500D01*
D40*
%TO.N,Net-(U1-NRST)*%
X166162500Y-92090000D02*
X166750000Y-92090000D01*
X167637500Y-92977500D02*
X168437500Y-92977500D01*
X166750000Y-92090000D02*
X167637500Y-92977500D01*
%TO.N,Net-(C6-Pad2)*%
X160300000Y-96865000D02*
X161600000Y-95565000D01*
X158750000Y-96865000D02*
X160300000Y-96865000D01*
X157100000Y-96752500D02*
X158637500Y-96752500D01*
X158637500Y-96752500D02*
X158750000Y-96865000D01*
D41*
%TO.N,+24V*%
X59300000Y-112825000D02*
X59300000Y-88590000D01*
X93230000Y-113345000D02*
X93230000Y-112590000D01*
X90880000Y-102310000D02*
X90880000Y-96640000D01*
X63380000Y-107465000D02*
X60585000Y-107465000D01*
X109287500Y-92727500D02*
X110750000Y-94190000D01*
X94865000Y-119075000D02*
X67550000Y-119075000D01*
X74800000Y-104375000D02*
X74800000Y-104615000D01*
X110750000Y-96690000D02*
X110350000Y-97090000D01*
X110350000Y-97090000D02*
X109650000Y-97090000D01*
X74800000Y-101460000D02*
X74800000Y-104375000D01*
X77050000Y-109225000D02*
X65140000Y-109225000D01*
X107950000Y-97090000D02*
X109650000Y-97090000D01*
D40*
X104624000Y-92727500D02*
X105737500Y-92727500D01*
D41*
X67550000Y-119075000D02*
X67550000Y-117015076D01*
X89750000Y-116825000D02*
X93230000Y-113345000D01*
X108550000Y-92727500D02*
X105762500Y-92727500D01*
X64864924Y-114330000D02*
X63380000Y-114330000D01*
X108550000Y-92727500D02*
X109287500Y-92727500D01*
X60585000Y-107465000D02*
X59300000Y-108750000D01*
X100230000Y-113690000D02*
X100230000Y-113710000D01*
X83675000Y-109225000D02*
X77050000Y-109225000D01*
X94330000Y-113690000D02*
X93230000Y-112590000D01*
X63955000Y-106890000D02*
X63380000Y-107465000D01*
X65140000Y-109225000D02*
X63380000Y-107465000D01*
X59300000Y-88590000D02*
X63650000Y-84240000D01*
X100230000Y-113710000D02*
X94865000Y-119075000D01*
X74800000Y-106975000D02*
X74800000Y-104375000D01*
X109287500Y-91777500D02*
X109287500Y-92727500D01*
X63380000Y-114330000D02*
X60805000Y-114330000D01*
X90590000Y-102310000D02*
X83675000Y-109225000D01*
X67550000Y-117015076D02*
X64864924Y-114330000D01*
X60805000Y-114330000D02*
X59300000Y-112825000D01*
X110750000Y-94190000D02*
X110750000Y-96690000D01*
X100230000Y-113690000D02*
X94330000Y-113690000D01*
X101750000Y-84240000D02*
X109287500Y-91777500D01*
X90880000Y-102310000D02*
X97180000Y-108610000D01*
X63650000Y-84240000D02*
X101750000Y-84240000D01*
D40*
X90880000Y-98310000D02*
X90850000Y-98340000D01*
D41*
X77050000Y-109225000D02*
X74800000Y-106975000D01*
X90880000Y-102310000D02*
X90590000Y-102310000D01*
D40*
X105737500Y-92727500D02*
X105750000Y-92740000D01*
D41*
X97180000Y-108610000D02*
X100230000Y-108610000D01*
%TO.N,VDDA*%
X167100000Y-94440000D02*
X166200000Y-95340000D01*
D40*
X166400000Y-95277501D02*
X166400000Y-95427500D01*
X168437500Y-93977500D02*
X167562500Y-93977500D01*
D41*
X166200000Y-95340000D02*
X166200000Y-95427500D01*
X166200000Y-95427500D02*
X164400000Y-95427500D01*
D40*
X167562500Y-93977500D02*
X167100000Y-94440000D01*
%TO.N,Net-(IC1-BST)*%
X101150000Y-91202500D02*
X102675000Y-92727500D01*
X102675000Y-92727500D02*
X102948000Y-92727500D01*
%TO.N,Net-(C14-Pad2)*%
X102012500Y-90340000D02*
X101150000Y-89477500D01*
X102911000Y-90227500D02*
X102812500Y-90227500D01*
X102812500Y-90227500D02*
X102800000Y-90240000D01*
X102925000Y-90340000D02*
X102812500Y-90227500D01*
X102925000Y-90340000D02*
X102012500Y-90340000D01*
%TO.N,/ESP_NRST1*%
X174037500Y-119152500D02*
X173950000Y-119240000D01*
X178050000Y-119102500D02*
X176400000Y-119102500D01*
X176400000Y-119102500D02*
X176350000Y-119152500D01*
X176350000Y-119152500D02*
X174037500Y-119152500D01*
%TO.N,Net-(IC1-SW)*%
X98800000Y-98340000D02*
X98400000Y-97940000D01*
X103650000Y-91540000D02*
X103642750Y-91532750D01*
X100200000Y-88240000D02*
X102575000Y-88240000D01*
X99550000Y-88890000D02*
X100200000Y-88240000D01*
X101300000Y-97140000D02*
X99624000Y-97140000D01*
X99012500Y-89477500D02*
X99550000Y-89477500D01*
X100750000Y-98340000D02*
X98800000Y-98340000D01*
X102575000Y-88240000D02*
X104675000Y-90340000D01*
X103642750Y-91532750D02*
X102948000Y-92227500D01*
X99550000Y-89477500D02*
X99550000Y-88890000D01*
X101300000Y-97140000D02*
X101300000Y-97790000D01*
X104675000Y-90500500D02*
X103642750Y-91532750D01*
X101300000Y-97790000D02*
X100750000Y-98340000D01*
X98400000Y-90090000D02*
X99012500Y-89477500D01*
X104675000Y-90340000D02*
X104675000Y-90500500D01*
X98400000Y-97940000D02*
X98400000Y-90090000D01*
%TO.N,/I2C1_SCL*%
X187680000Y-92240000D02*
X182100000Y-86660000D01*
X172850000Y-87827501D02*
X174017501Y-86660000D01*
X172850000Y-88565000D02*
X172850000Y-87827501D01*
X182100000Y-86660000D02*
X181680000Y-86660000D01*
X174017501Y-86660000D02*
X177900000Y-86660000D01*
%TO.N,/I2C1_SDA*%
X172350000Y-88565000D02*
X172350000Y-87827501D01*
X172350000Y-88565000D02*
X172450000Y-88465000D01*
X185640000Y-89700000D02*
X181680000Y-85740000D01*
X187680000Y-89700000D02*
X185640000Y-89700000D01*
X174437501Y-85740000D02*
X177900000Y-85740000D01*
X172350000Y-87827501D02*
X174437501Y-85740000D01*
%TO.N,/COL0*%
X114520000Y-101320000D02*
X122600000Y-101320000D01*
X180100000Y-93635680D02*
X178258180Y-95477500D01*
X114700000Y-112290000D02*
X113775000Y-111365000D01*
X120322500Y-110990000D02*
X122280000Y-110990000D01*
X115860000Y-79880000D02*
X173969948Y-79880000D01*
X113775000Y-102590000D02*
X113775000Y-102065000D01*
X113775000Y-102590000D02*
X113775000Y-92090000D01*
X119022500Y-112290000D02*
X114700000Y-112290000D01*
X113775000Y-92090000D02*
X113775000Y-81965000D01*
X113775000Y-102065000D02*
X114520000Y-101320000D01*
X122280000Y-110990000D02*
X122600000Y-111310000D01*
X113775000Y-92090000D02*
X114585000Y-91280000D01*
X178258180Y-95477500D02*
X176762500Y-95477500D01*
X173969948Y-79880000D02*
X180100000Y-86010052D01*
X114585000Y-91280000D02*
X122600000Y-91280000D01*
X113775000Y-81965000D02*
X114460000Y-81280000D01*
X113775000Y-111365000D02*
X113775000Y-102590000D01*
X180100000Y-86010052D02*
X180100000Y-93635680D01*
X114460000Y-81280000D02*
X122600000Y-81280000D01*
X120322500Y-110990000D02*
X119022500Y-112290000D01*
X114460000Y-81280000D02*
X115860000Y-79880000D01*
%TO.N,Net-(D1-A)*%
X120000000Y-88350000D02*
X122050000Y-88350000D01*
X122050000Y-88350000D02*
X122600000Y-88900000D01*
%TO.N,Net-(D2-A)*%
X120000000Y-98350000D02*
X122050000Y-98350000D01*
X122050000Y-98350000D02*
X122600000Y-98900000D01*
%TO.N,Net-(D3-A)*%
X120000000Y-108390000D02*
X122050000Y-108390000D01*
X122050000Y-108390000D02*
X122600000Y-108940000D01*
%TO.N,Net-(D4-A)*%
X122050000Y-118380000D02*
X122600000Y-118930000D01*
X120285000Y-118380000D02*
X122050000Y-118380000D01*
%TO.N,/COL1*%
X178263206Y-94977500D02*
X176762500Y-94977500D01*
X179750000Y-86155026D02*
X179750000Y-93490706D01*
X137100000Y-111290000D02*
X135370000Y-111290000D01*
X135370000Y-111290000D02*
X135350000Y-111310000D01*
X135030000Y-110990000D02*
X135350000Y-111310000D01*
X136310000Y-81280000D02*
X137360000Y-80230000D01*
X137360000Y-80230000D02*
X173824974Y-80230000D01*
X137080000Y-111310000D02*
X137100000Y-111290000D01*
X173824974Y-80230000D02*
X179750000Y-86155026D01*
X133112500Y-110990000D02*
X135030000Y-110990000D01*
X179750000Y-93490706D02*
X178263206Y-94977500D01*
X135350000Y-81280000D02*
X136310000Y-81280000D01*
%TO.N,Net-(D5-A)*%
X134800000Y-88350000D02*
X135350000Y-88900000D01*
X132790000Y-88350000D02*
X134800000Y-88350000D01*
%TO.N,Net-(D6-A)*%
X134800000Y-98350000D02*
X135350000Y-98900000D01*
X132790000Y-98350000D02*
X134800000Y-98350000D01*
%TO.N,Net-(D7-A)*%
X134800000Y-108390000D02*
X135350000Y-108940000D01*
X132790000Y-108390000D02*
X134800000Y-108390000D01*
%TO.N,Net-(D8-A)*%
X132790000Y-118380000D02*
X134800000Y-118380000D01*
X134800000Y-118380000D02*
X135350000Y-118930000D01*
%TO.N,/COL2*%
X147600000Y-81280000D02*
X149050000Y-81280000D01*
X178268232Y-94477500D02*
X176762500Y-94477500D01*
X149760000Y-80590000D02*
X173690000Y-80590000D01*
X149200000Y-111310000D02*
X147600000Y-111310000D01*
X173690000Y-80590000D02*
X179400000Y-86300000D01*
X147280000Y-110990000D02*
X147600000Y-111310000D01*
X179400000Y-93345732D02*
X178268232Y-94477500D01*
X149050000Y-81280000D02*
X149750000Y-80580000D01*
X179400000Y-86300000D02*
X179400000Y-93345732D01*
X145362500Y-110990000D02*
X147280000Y-110990000D01*
%TO.N,Net-(D9-A)*%
X147050000Y-88350000D02*
X147600000Y-88900000D01*
X145040000Y-88350000D02*
X147050000Y-88350000D01*
%TO.N,Net-(D10-A)*%
X145040000Y-98350000D02*
X147050000Y-98350000D01*
X147050000Y-98350000D02*
X147600000Y-98900000D01*
%TO.N,Net-(D11-A)*%
X147050000Y-108390000D02*
X147600000Y-108940000D01*
X145040000Y-108390000D02*
X147050000Y-108390000D01*
%TO.N,Net-(D12-A)*%
X145040000Y-118380000D02*
X147050000Y-118380000D01*
X147050000Y-118380000D02*
X147600000Y-118930000D01*
%TO.N,Net-(D13-A)*%
X89480000Y-96640000D02*
X89480000Y-98780000D01*
X89912500Y-94090000D02*
X89480000Y-94522500D01*
X89480000Y-94522500D02*
X89480000Y-96640000D01*
X89480000Y-98780000D02*
X86800000Y-101460000D01*
%TO.N,Net-(D14-A)*%
X91830000Y-112590000D02*
X91830000Y-110472500D01*
X91830000Y-110472500D02*
X92262500Y-110040000D01*
X90565000Y-110040000D02*
X89750000Y-109225000D01*
X92262500Y-110040000D02*
X90565000Y-110040000D01*
D41*
%TO.N,/Relay1_NO*%
X70200000Y-116825000D02*
X63380000Y-110005000D01*
X74510000Y-116825000D02*
X70200000Y-116825000D01*
D40*
%TO.N,Net-(Q1-B)*%
X93612500Y-95040000D02*
X93700000Y-94952500D01*
X91787500Y-95040000D02*
X93612500Y-95040000D01*
%TO.N,Net-(Q2-B)*%
X96062500Y-109077500D02*
X96050000Y-109077500D01*
X96050000Y-109077500D02*
X94137500Y-110990000D01*
%TO.N,Net-(U2-EN)*%
X173987500Y-115202500D02*
X173950000Y-115240000D01*
X176350000Y-115202500D02*
X173987500Y-115202500D01*
%TO.N,Net-(U2-GPIO0)*%
X156262500Y-111240000D02*
X158750000Y-111240000D01*
%TO.N,Net-(U2-GPIO15)*%
X156262500Y-107240000D02*
X158750000Y-107240000D01*
%TO.N,Net-(U2-GPIO2)*%
X156262500Y-109240000D02*
X158750000Y-109240000D01*
%TO.N,/V2_Close*%
X167450000Y-98413535D02*
X167389640Y-98473895D01*
X167450000Y-95227501D02*
X167450000Y-98413535D01*
X167700001Y-94977500D02*
X167450000Y-95227501D01*
X168437500Y-94977500D02*
X167700001Y-94977500D01*
X112212500Y-108390000D02*
X113150000Y-108390000D01*
%TO.N,Net-(R12-Pad2)*%
X110387500Y-108390000D02*
X110200000Y-108390000D01*
X110200000Y-108390000D02*
X109980000Y-108610000D01*
X109980000Y-108610000D02*
X107850000Y-108610000D01*
%TO.N,/V1_Open*%
X167700001Y-94477500D02*
X166925000Y-95252501D01*
X166925000Y-95252501D02*
X166925000Y-97673788D01*
X112212500Y-111190000D02*
X112212500Y-112377500D01*
X112212500Y-112377500D02*
X112200000Y-112390000D01*
X168437500Y-94477500D02*
X167700001Y-94477500D01*
X166925000Y-97673788D02*
X166825500Y-97773288D01*
%TO.N,Net-(R13-Pad2)*%
X110387500Y-111190000D02*
X110387500Y-112452500D01*
X110387500Y-112452500D02*
X109150000Y-113690000D01*
X109150000Y-113690000D02*
X107850000Y-113690000D01*
%TO.N,Net-(R14-Pad1)*%
X100330000Y-106070000D02*
X100350000Y-106090000D01*
X100230000Y-106070000D02*
X96650000Y-102490000D01*
X95737500Y-93127500D02*
X93700000Y-93127500D01*
X96650000Y-94040000D02*
X95737500Y-93127500D01*
X100230000Y-106070000D02*
X100330000Y-106070000D01*
X96650000Y-102490000D02*
X96650000Y-94040000D01*
%TO.N,Net-(R15-Pad1)*%
X99982500Y-110902500D02*
X100230000Y-111150000D01*
X96062500Y-110902500D02*
X99982500Y-110902500D01*
%TO.N,/ROW0*%
X142100000Y-89950000D02*
X141560000Y-89950000D01*
X129300000Y-89950000D02*
X116520000Y-89950000D01*
X131390000Y-89950000D02*
X129300000Y-89950000D01*
X158340000Y-99840000D02*
X171155026Y-99840000D01*
X150300000Y-91000000D02*
X150300000Y-91800000D01*
X116520000Y-89950000D02*
X114920000Y-88350000D01*
X142100000Y-89950000D02*
X149250000Y-89950000D01*
X131390000Y-89950000D02*
X142100000Y-89950000D01*
X149250000Y-89950000D02*
X150300000Y-91000000D01*
X129300000Y-89940000D02*
X129300000Y-89950000D01*
X150300000Y-91800000D02*
X158340000Y-99840000D01*
X127710000Y-88350000D02*
X129300000Y-89940000D01*
X172850000Y-98145026D02*
X172850000Y-96890000D01*
X141560000Y-89950000D02*
X139960000Y-88350000D01*
X171155026Y-99840000D02*
X172850000Y-98145026D01*
%TO.N,/ROW1*%
X142400000Y-99990000D02*
X141600000Y-99990000D01*
X129350000Y-99990000D02*
X127710000Y-98350000D01*
X129700000Y-99990000D02*
X142400000Y-99990000D01*
X114920000Y-98350000D02*
X114920000Y-98360000D01*
X141600000Y-99990000D02*
X139960000Y-98350000D01*
X173350000Y-98140000D02*
X173350000Y-96890000D01*
X116550000Y-99990000D02*
X129700000Y-99990000D01*
X171300000Y-100190000D02*
X173350000Y-98140000D01*
X114920000Y-98360000D02*
X116550000Y-99990000D01*
X142400000Y-99990000D02*
X142600000Y-100190000D01*
X129700000Y-99990000D02*
X129350000Y-99990000D01*
X142600000Y-100190000D02*
X171300000Y-100190000D01*
%TO.N,/ROW2*%
X151810000Y-109990000D02*
X152400000Y-109400000D01*
X129300000Y-109990000D02*
X129300000Y-109980000D01*
X171444974Y-100540000D02*
X173850000Y-98134974D01*
X154260000Y-100540000D02*
X171444974Y-100540000D01*
X152400000Y-109400000D02*
X152400000Y-102400000D01*
X116550000Y-109990000D02*
X129300000Y-109990000D01*
X152400000Y-102400000D02*
X154260000Y-100540000D01*
X129300000Y-109980000D02*
X127710000Y-108390000D01*
X114920000Y-108390000D02*
X114950000Y-108390000D01*
X141560000Y-109990000D02*
X151810000Y-109990000D01*
X141560000Y-109990000D02*
X139960000Y-108390000D01*
X114950000Y-108390000D02*
X116550000Y-109990000D01*
X129300000Y-109990000D02*
X141560000Y-109990000D01*
X173850000Y-98134974D02*
X173850000Y-96890000D01*
%TO.N,/ROW3*%
X149850000Y-119990000D02*
X152800000Y-117040000D01*
X138250000Y-119990000D02*
X138300000Y-119990000D01*
X141570000Y-119990000D02*
X139960000Y-118380000D01*
X116815000Y-119990000D02*
X129450000Y-119990000D01*
X129320000Y-119990000D02*
X127710000Y-118380000D01*
X115205000Y-118380000D02*
X116815000Y-119990000D01*
X138300000Y-119990000D02*
X141850000Y-119990000D01*
X152750000Y-102553604D02*
X154413604Y-100890000D01*
X174350000Y-98129948D02*
X174350000Y-96890000D01*
X129450000Y-119990000D02*
X129320000Y-119990000D01*
X171589948Y-100890000D02*
X174350000Y-98129948D01*
X152800000Y-117040000D02*
X152750000Y-116990000D01*
X141850000Y-119990000D02*
X141570000Y-119990000D01*
X152750000Y-116990000D02*
X152750000Y-102553604D01*
X129450000Y-119990000D02*
X138250000Y-119990000D01*
X154413604Y-100890000D02*
X171589948Y-100890000D01*
X141850000Y-119990000D02*
X149850000Y-119990000D01*
%TO.N,/USART1_Tx*%
X177913000Y-92977500D02*
X176762500Y-92977500D01*
D41*
X158750000Y-117240000D02*
X156500000Y-117240000D01*
D40*
X178398674Y-93463174D02*
X177913000Y-92977500D01*
D41*
X156500000Y-117240000D02*
X156450000Y-117190000D01*
D40*
%TO.N,/USART1_Rx*%
X178404029Y-92563687D02*
X178664361Y-92563687D01*
X178317842Y-92477500D02*
X178404029Y-92563687D01*
D41*
X158750000Y-119240000D02*
X157000000Y-119240000D01*
D40*
X176762500Y-92477500D02*
X178317842Y-92477500D01*
%TD*%
%TA.AperFunction,Conductor*%
%TO.N,/COM_V2*%
G36*
X76760335Y-93679751D02*
G01*
X81652953Y-94560949D01*
X81658668Y-94562261D01*
X81744349Y-94586247D01*
X81826738Y-94609312D01*
X81848632Y-94617746D01*
X81996914Y-94691675D01*
X82016817Y-94704078D01*
X82148519Y-94804622D01*
X82165736Y-94820560D01*
X82276129Y-94944109D01*
X82290039Y-94963010D01*
X82375176Y-95105142D01*
X82385276Y-95126325D01*
X82442109Y-95281952D01*
X82448037Y-95304658D01*
X82475948Y-95476939D01*
X82476611Y-95482771D01*
X82660587Y-98273066D01*
X83100557Y-104945963D01*
X83100642Y-104952517D01*
X83092891Y-105146931D01*
X83089096Y-105172819D01*
X83043180Y-105351708D01*
X83034038Y-105376223D01*
X82951611Y-105541493D01*
X82937529Y-105563543D01*
X82822258Y-105707842D01*
X82803863Y-105726447D01*
X82660883Y-105843347D01*
X82638993Y-105857679D01*
X82474665Y-105941978D01*
X82450256Y-105951397D01*
X82271900Y-105999339D01*
X82246058Y-106003427D01*
X82132407Y-106009251D01*
X82051755Y-106013384D01*
X82045205Y-106013374D01*
X77617746Y-105771876D01*
X77551879Y-105748569D01*
X77509067Y-105693352D01*
X77500500Y-105648060D01*
X77500500Y-104112264D01*
X77520185Y-104045225D01*
X77534618Y-104026840D01*
X77649380Y-103906112D01*
X77882229Y-103605295D01*
X78083451Y-103282464D01*
X78250981Y-102940932D01*
X78383098Y-102584204D01*
X78478448Y-102215940D01*
X78536053Y-101839919D01*
X78555320Y-101460000D01*
X78536053Y-101080081D01*
X78478448Y-100704060D01*
X78383098Y-100335796D01*
X78337311Y-100212168D01*
X78288394Y-100080086D01*
X78250981Y-99979068D01*
X78083451Y-99637536D01*
X78083446Y-99637527D01*
X77882228Y-99314704D01*
X77649384Y-99013893D01*
X77649383Y-99013892D01*
X77649380Y-99013888D01*
X77387291Y-98738171D01*
X77387290Y-98738170D01*
X77098656Y-98490385D01*
X76786429Y-98273069D01*
X76786424Y-98273066D01*
X76453820Y-98088456D01*
X76104233Y-97938437D01*
X75741290Y-97824563D01*
X75741284Y-97824562D01*
X75741281Y-97824561D01*
X75741280Y-97824561D01*
X75368660Y-97747985D01*
X75368659Y-97747984D01*
X75368655Y-97747984D01*
X74990205Y-97709500D01*
X74990204Y-97709500D01*
X74609796Y-97709500D01*
X74609795Y-97709500D01*
X74231344Y-97747984D01*
X73858715Y-97824562D01*
X73858709Y-97824563D01*
X73495766Y-97938437D01*
X73146179Y-98088456D01*
X72813575Y-98273066D01*
X72813570Y-98273069D01*
X72501343Y-98490385D01*
X72212709Y-98738170D01*
X71950615Y-99013893D01*
X71717771Y-99314704D01*
X71516553Y-99637527D01*
X71516548Y-99637536D01*
X71349021Y-99979063D01*
X71349017Y-99979070D01*
X71311605Y-100080086D01*
X71269862Y-100136115D01*
X71204454Y-100160682D01*
X71196023Y-100161017D01*
X62125199Y-100212168D01*
X62058050Y-100192862D01*
X62011998Y-100140317D01*
X62000500Y-100088170D01*
X62000500Y-96485221D01*
X62020185Y-96418182D01*
X62072989Y-96372427D01*
X62142147Y-96362483D01*
X62173267Y-96371214D01*
X62302280Y-96426412D01*
X62413488Y-96467880D01*
X62413494Y-96467882D01*
X62413497Y-96467883D01*
X62684248Y-96554480D01*
X62798854Y-96585239D01*
X62937726Y-96615544D01*
X62981298Y-96622910D01*
X63054772Y-96635333D01*
X63054773Y-96635333D01*
X63337021Y-96669399D01*
X63337022Y-96669399D01*
X63337039Y-96669401D01*
X63455440Y-96678029D01*
X63597536Y-96681635D01*
X63597537Y-96681635D01*
X63716166Y-96679027D01*
X63979095Y-96660768D01*
X64038406Y-96655230D01*
X64103152Y-96647628D01*
X64161669Y-96639354D01*
X67014081Y-96167165D01*
X67034332Y-96165500D01*
X67182950Y-96165500D01*
X67182952Y-96165500D01*
X67265334Y-96161109D01*
X67461530Y-96150653D01*
X67461534Y-96150652D01*
X67461544Y-96150652D01*
X67461555Y-96150650D01*
X67461557Y-96150650D01*
X67521624Y-96140972D01*
X67828878Y-96091469D01*
X68187841Y-95993576D01*
X68267631Y-95962376D01*
X68292526Y-95955529D01*
X70426024Y-95602351D01*
X70620192Y-95561224D01*
X70733948Y-95531767D01*
X70923733Y-95473457D01*
X76190868Y-93593897D01*
X76254516Y-93588649D01*
X76760335Y-93679751D01*
G37*
%TD.AperFunction*%
%TD*%
%TA.AperFunction,Conductor*%
%TO.N,/Relay2_NC*%
G36*
X76010620Y-87250540D02*
G01*
X76189179Y-87264860D01*
X76212864Y-87269104D01*
X76376542Y-87315208D01*
X76398965Y-87323952D01*
X76480572Y-87365313D01*
X76550635Y-87400823D01*
X76570959Y-87413746D01*
X76704902Y-87518481D01*
X76722344Y-87535089D01*
X76833511Y-87663739D01*
X76847413Y-87683405D01*
X76931620Y-87831126D01*
X76941456Y-87853101D01*
X76978543Y-87963692D01*
X76995518Y-88014310D01*
X77000921Y-88037780D01*
X77022799Y-88206396D01*
X77023564Y-88230468D01*
X77012434Y-88400133D01*
X77008531Y-88423899D01*
X76962477Y-88596992D01*
X76960644Y-88602738D01*
X76238865Y-90536075D01*
X76236164Y-90542261D01*
X76146126Y-90721216D01*
X76131476Y-90743823D01*
X76011342Y-90891224D01*
X75992154Y-90910134D01*
X75843027Y-91028106D01*
X75820209Y-91042426D01*
X75639970Y-91129848D01*
X75633746Y-91132459D01*
X70134380Y-93094889D01*
X70051644Y-93120309D01*
X70046280Y-93121698D01*
X69998921Y-93131729D01*
X69961610Y-93139632D01*
X63781629Y-94162668D01*
X63775812Y-94163351D01*
X63711934Y-94167787D01*
X63601783Y-94175436D01*
X63578335Y-94174841D01*
X63413922Y-94154997D01*
X63391005Y-94149996D01*
X63233279Y-94099549D01*
X63211713Y-94090322D01*
X63066307Y-94011073D01*
X63046866Y-93997951D01*
X62918981Y-93892736D01*
X62902365Y-93876194D01*
X62796577Y-93748772D01*
X62783373Y-93729396D01*
X62775701Y-93715468D01*
X62703472Y-93584333D01*
X62694155Y-93562822D01*
X62643003Y-93405311D01*
X62637901Y-93382418D01*
X62616226Y-93209315D01*
X62615775Y-93203478D01*
X62613869Y-93139632D01*
X62550445Y-91014915D01*
X62550111Y-90999998D01*
X62550000Y-90985078D01*
X62550000Y-89210445D01*
X62569685Y-89143406D01*
X62586314Y-89122769D01*
X64331605Y-87377478D01*
X64392924Y-87343996D01*
X64418683Y-87341164D01*
X66853751Y-87329651D01*
X73118744Y-87300030D01*
X73118747Y-87300029D01*
X73119150Y-87300026D01*
X73125000Y-87300000D01*
X73711892Y-87289880D01*
X74084531Y-87283456D01*
X76004627Y-87250351D01*
X76010620Y-87250540D01*
G37*
%TD.AperFunction*%
%TD*%
M02*
